<svg width="512" height="512" viewBox="0 0 512 512" fill="none" xmlns="http://www.w3.org/2000/svg">
<g clip-path="url(#clip0_1_44)">
<path d="M390.739 470.656C456.331 426.695 499.514 351.893 499.514 267C499.514 131.689 389.824 21.999 254.514 21.999C119.203 21.999 9.51294 131.689 9.51294 267C9.51294 351.893 52.6957 426.695 118.288 470.656H390.739Z" fill="#DBF8A0"/>
<path d="M360.263 210.569C333.04 210.569 312.39 188.038 311.525 187.079C308.564 183.799 308.824 178.741 312.103 175.78C315.38 172.823 320.427 173.079 323.39 176.344C323.608 176.583 340.269 194.569 360.263 194.569C364.681 194.569 368.263 198.15 368.263 202.569C368.263 206.988 364.681 210.569 360.263 210.569Z" fill="#73CF4A"/>
<path d="M406.071 257.297C378.848 257.297 358.198 234.766 357.333 233.807C354.372 230.527 354.632 225.469 357.911 222.508C361.188 219.55 366.235 219.807 369.198 223.072C369.416 223.311 386.077 241.297 406.071 241.297C410.489 241.297 414.071 244.878 414.071 249.297C414.071 253.715 410.489 257.297 406.071 257.297Z" fill="#73CF4A"/>
<path d="M322.633 258.24C299.895 243.272 295.034 213.098 294.839 211.821C294.169 207.454 297.167 203.371 301.534 202.701C305.898 202.033 309.972 205.022 310.651 209.379C310.702 209.698 314.729 233.882 331.43 244.876C335.12 247.305 336.143 252.266 333.714 255.957C331.285 259.647 326.323 260.669 322.633 258.24Z" fill="#73CF4A"/>
<path d="M250.387 226.065C225.497 237.091 197.491 224.854 196.311 224.327C192.275 222.528 190.464 217.797 192.263 213.762C194.062 209.731 198.78 207.921 202.811 209.707C203.107 209.837 225.625 219.534 243.906 211.436C247.945 209.647 252.671 211.471 254.461 215.51C256.251 219.55 254.427 224.275 250.387 226.065Z" fill="#007F6F"/>
<path d="M364.412 159.5C364.061 159.5 363.704 159.477 363.346 159.429C342.411 156.641 328.915 137.307 328.351 136.485C325.85 132.843 326.775 127.863 330.416 125.362C334.051 122.866 339.02 123.781 341.527 127.409C341.719 127.684 351.717 141.74 365.459 143.57C369.838 144.153 372.916 148.177 372.332 152.556C371.797 156.577 368.361 159.5 364.412 159.5Z" fill="#73CF4A"/>
<path d="M270.17 138.688C269.859 138.523 269.555 138.336 269.261 138.126C252.07 125.858 249.199 102.455 249.086 101.465C248.582 97.0755 251.731 93.1085 256.12 92.6035C260.5 92.1005 264.462 95.2365 264.979 99.6155C265.02 99.9485 267.272 117.05 278.556 125.102C282.152 127.668 282.987 132.665 280.42 136.261C278.063 139.563 273.659 140.537 270.17 138.688Z" fill="#73CF4A"/>
<path d="M198.753 130.249C198.666 130.589 198.554 130.929 198.419 131.264C190.507 150.846 168.422 159.104 167.486 159.447C163.336 160.963 158.743 158.827 157.227 154.678C155.714 150.536 157.838 145.952 161.975 144.426C162.289 144.308 178.391 138.123 183.584 125.27C185.239 121.174 189.902 119.194 193.998 120.85C197.759 122.369 199.736 126.424 198.753 130.249Z" fill="#2BA870"/>
<path d="M186.872 191.385C186.728 191.706 186.56 192.021 186.369 192.328C175.229 210.271 152.058 214.636 151.077 214.813C146.729 215.598 142.568 212.709 141.783 208.362C141 204.023 143.875 199.868 148.212 199.072C148.542 199.01 165.463 195.666 172.775 183.889C175.105 180.136 180.038 178.982 183.791 181.313C187.239 183.451 188.494 187.784 186.872 191.385Z" fill="#73CF4A"/>
<path d="M85.4016 154.162C85.3936 154.514 85.3626 154.869 85.3076 155.227C82.0706 176.097 62.4506 189.175 61.6176 189.721C57.9226 192.143 52.9636 191.112 50.5406 187.417C48.1236 183.729 49.1456 178.782 52.8256 176.352C53.1046 176.166 67.3716 166.472 69.4966 152.773C70.1736 148.408 74.2626 145.417 78.6286 146.095C82.6366 146.717 85.4856 150.214 85.4016 154.162Z" fill="#73CF4A"/>
<path d="M138.66 193.368C138.311 193.406 137.954 193.422 137.592 193.414C116.478 192.925 100.954 175.178 100.304 174.422C97.4214 171.074 97.7974 166.023 101.144 163.14C104.485 160.262 109.524 160.631 112.412 163.963C112.633 164.215 124.104 177.097 137.963 177.418C142.379 177.521 145.878 181.184 145.775 185.601C145.682 189.656 142.586 192.937 138.66 193.368Z" fill="#73CF4A"/>
<path d="M77.6607 244.249C77.7077 244.597 77.7326 244.954 77.7346 245.315C77.7946 266.434 60.4576 282.415 59.7196 283.085C56.4476 286.054 51.3886 285.81 48.4196 282.539C45.4556 279.274 45.6936 274.227 48.9496 271.253C49.1956 271.025 61.7746 259.223 61.7346 245.36C61.7226 240.942 65.2936 237.35 69.7116 237.338C73.7676 237.326 77.1277 240.336 77.6607 244.249Z" fill="#2BA870"/>
<path d="M63.3119 204.333C63.0069 204.508 62.6869 204.666 62.3519 204.803C42.8149 212.823 21.4759 202.793 20.5769 202.362C16.5929 200.452 14.9119 195.674 16.8209 191.69C18.7269 187.714 23.4909 186.03 27.4729 187.924C27.7769 188.066 43.4509 195.266 56.2749 190.001C60.3619 188.323 65.0359 190.276 66.7129 194.364C68.2559 198.117 66.7359 202.364 63.3119 204.333Z" fill="#2BA870"/>
<path d="M252.093 75.7847C251.878 76.1157 251.637 76.4377 251.373 76.7467C235.921 94.7747 209.428 95.6557 208.307 95.6847C203.342 95.8117 199.213 91.8897 199.085 86.9247C198.958 81.9687 202.865 77.8457 207.821 77.7027C208.198 77.6897 227.573 76.8737 237.715 65.0397C240.947 61.2687 246.626 60.8317 250.397 64.0647C253.86 67.0317 254.512 72.0617 252.093 75.7847Z" fill="#73CF4A"/>
<path d="M318.441 157.983C318.133 158.153 317.81 158.305 317.473 158.436C297.796 166.108 276.639 155.699 275.748 155.253C271.799 153.272 270.203 148.465 272.183 144.516C274.16 140.575 278.952 138.976 282.901 140.94C283.202 141.088 298.746 148.564 311.662 143.529C315.778 141.924 320.417 143.96 322.021 148.077C323.494 151.856 321.899 156.075 318.441 157.983Z" fill="#73CF4A"/>
<path d="M291.312 199.139C290.982 199.261 290.64 199.362 290.287 199.442C269.681 204.072 250.328 190.604 249.514 190.028C245.907 187.477 245.051 182.484 247.602 178.877C250.148 175.277 255.127 174.416 258.735 176.952C259.011 177.143 273.256 186.87 286.781 183.831C291.091 182.863 295.372 185.572 296.339 189.883C297.228 193.84 295.017 197.772 291.312 199.139Z" fill="#2BA870"/>
<path d="M337.898 105.771C337.652 106.022 337.385 106.26 337.101 106.483C320.451 119.476 297.198 115.574 296.216 115.401C291.865 114.636 288.957 110.489 289.721 106.138C290.484 101.795 294.617 98.8895 298.963 99.6385C299.294 99.6935 316.329 102.397 327.258 93.8685C330.741 91.1505 335.769 91.7704 338.486 95.2534C340.982 98.4514 340.663 102.951 337.898 105.771Z" fill="#73CF4A"/>
<path d="M173.435 68.5027C173.624 68.7987 173.796 69.1117 173.949 69.4397C182.867 88.5837 173.838 110.365 173.449 111.283C171.726 115.351 167.031 117.252 162.963 115.53C158.903 113.81 157 109.13 158.707 105.064C158.835 104.754 165.299 88.7617 159.445 76.1957C157.58 72.1907 159.314 67.4317 163.319 65.5657C166.996 63.8527 171.309 65.1737 173.435 68.5027Z" fill="#2BA870"/>
<path d="M249.214 24.2699C249.026 24.5669 248.815 24.8549 248.582 25.1319C235.004 41.3089 211.448 42.3359 210.452 42.3709C206.037 42.5289 202.329 39.0789 202.17 34.6639C202.012 30.2569 205.448 26.5539 209.855 26.3819C210.19 26.3669 227.415 25.4629 236.327 14.8449C239.167 11.4609 244.214 11.0199 247.597 13.8609C250.706 16.4689 251.331 20.9359 249.214 24.2699Z" fill="#73CF4A"/>
<path d="M197.478 66.4429C197.13 66.3959 196.78 66.3249 196.431 66.2289C176.062 60.6489 165.291 39.6739 164.842 38.7839C162.854 34.8379 164.44 30.0279 168.386 28.0399C172.324 26.0559 177.124 27.6319 179.121 31.5629C179.275 31.8609 187.29 47.1349 200.66 50.7969C204.92 51.9639 207.429 56.3659 206.261 60.6259C205.189 64.5399 201.391 66.9749 197.478 66.4429Z" fill="#73CF4A"/>
<path d="M441.442 165.246C441.137 165.071 440.84 164.873 440.553 164.653C423.797 151.797 421.739 128.309 421.66 127.315C421.308 122.911 424.593 119.055 428.997 118.703C433.392 118.352 437.243 121.623 437.608 126.018C437.638 126.352 439.295 143.521 450.294 151.96C453.799 154.649 454.461 159.672 451.771 163.177C449.301 166.394 444.865 167.215 441.442 165.246Z" fill="#73CF4A"/>
<path d="M375.535 179.57C373.601 179.57 372.386 179.477 372.176 179.459C367.773 179.092 364.501 175.224 364.868 170.821C365.234 166.427 369.086 163.158 373.481 163.512C373.763 163.53 391.013 164.702 401.14 155.206C404.365 152.184 409.426 152.346 412.448 155.569C415.47 158.792 415.307 163.855 412.085 166.877C399.937 178.27 382.748 179.57 375.535 179.57Z" fill="#A4E830"/>
<path d="M444.002 182.824C442.19 182.15 441.083 181.639 440.892 181.549C436.893 179.67 435.175 174.905 437.053 170.906C438.928 166.915 443.677 165.194 447.674 167.058C447.932 167.173 463.692 174.284 476.494 168.913C480.57 167.204 485.257 169.12 486.967 173.195C488.676 177.269 486.759 181.958 482.685 183.667C467.327 190.11 450.762 185.338 444.002 182.824Z" fill="#73CF4A"/>
<path d="M462.206 149.593C460.277 149.46 459.071 149.283 458.862 149.251C454.494 148.581 451.497 144.498 452.167 140.131C452.835 135.773 456.903 132.777 461.263 133.433C461.543 133.47 478.672 135.828 489.429 127.052C492.854 124.259 497.893 124.769 500.686 128.193C503.478 131.616 502.968 136.656 499.545 139.449C486.64 149.976 469.402 150.09 462.206 149.593Z" fill="#73CF4A"/>
<path d="M444.621 219.135C443.969 217.314 443.647 216.138 443.593 215.935C442.455 211.666 444.993 207.282 449.262 206.144C453.522 205.008 457.898 207.532 459.046 211.79C459.124 212.062 463.835 228.697 476.189 235.031C480.121 237.048 481.675 241.868 479.659 245.8C477.643 249.731 472.822 251.285 468.891 249.269C454.07 241.671 447.053 225.925 444.621 219.135Z" fill="#A4E830"/>
<path d="M142.682 264.083C142.291 264.083 141.897 264.061 141.499 264.014C136.014 263.368 132.091 258.398 132.738 252.912C138.576 203.343 125.164 159.409 125.028 158.971C123.388 153.697 126.335 148.093 131.608 146.453C136.883 144.813 142.486 147.761 144.126 153.033C144.733 154.987 158.93 201.507 152.6 255.252C152.002 260.34 147.682 264.083 142.682 264.083Z" fill="#2BA870"/>
<path d="M42.1969 256.044C34.3159 256.044 28.9769 255.448 28.3509 255.375C22.8659 254.732 18.9399 249.764 19.5829 244.279C20.2249 238.796 25.1909 234.875 30.6699 235.51C31.2469 235.575 69.4119 239.688 90.9229 223.677C95.3529 220.38 101.617 221.298 104.916 225.728C108.213 230.159 107.295 236.423 102.865 239.721C84.1729 253.634 58.0479 256.044 42.1969 256.044Z" fill="#007F6F"/>
<path d="M366.345 231.083C361.345 231.083 357.026 227.34 356.426 222.252C350.095 168.507 364.293 121.987 364.901 120.033C366.541 114.759 372.145 111.814 377.419 113.453C382.691 115.092 385.638 120.695 384.001 125.967C383.793 126.645 370.489 170.673 376.29 219.912C376.936 225.397 373.014 230.367 367.528 231.013C367.131 231.06 366.736 231.083 366.345 231.083Z" fill="#2BA870"/>
<path d="M466.831 223.044C450.981 223.044 424.857 220.635 406.163 206.722C401.732 203.425 400.814 197.16 404.112 192.729C407.408 188.298 413.674 187.379 418.104 190.678C439.668 206.73 477.978 202.554 478.362 202.51C483.853 201.887 488.804 205.812 489.439 211.293C490.075 216.774 486.157 221.733 480.676 222.375C480.05 222.448 474.71 223.044 466.831 223.044Z" fill="#73CF4A"/>
<path d="M240.361 197.525C237.879 197.525 235.393 196.607 233.456 194.756C229.462 190.942 229.317 184.611 233.131 180.618C275.82 135.922 295.281 82.4246 295.473 81.8896C297.335 76.6896 303.06 73.9876 308.259 75.8456C313.458 77.7076 316.164 83.4316 314.303 88.6316C313.462 90.9806 293.188 146.696 247.594 194.432C245.629 196.489 242.997 197.525 240.361 197.525Z" fill="#2BA870"/>
<path d="M211.963 141.729C211.944 141.729 211.927 141.729 211.908 141.729C169.941 141.504 130.42 104.258 128.758 102.672C124.762 98.8596 124.613 92.5296 128.425 88.5336C132.235 84.5396 138.56 84.3886 142.556 88.1936C142.907 88.5276 178.053 121.547 212.015 121.729C217.537 121.759 221.991 126.26 221.961 131.783C221.932 137.286 217.461 141.729 211.963 141.729Z" fill="#007F6F"/>
<path d="M176.607 297.589H201.18C192.715 284.788 182.92 273.362 171.834 263.432C156.243 249.468 138.527 238.72 119.179 231.487C85.9724 219.073 61.9005 190.119 49.5666 147.755C48.0226 142.452 42.4727 139.406 37.1697 140.949C31.8667 142.493 28.8197 148.043 30.3637 153.346C48.2636 214.828 84.7334 239.962 112.176 250.221C131.747 257.537 156.019 271.403 176.607 297.589Z" fill="#2BA870"/>
<path d="M471.856 107.949C466.56 106.406 461.003 109.452 459.46 114.755C447.127 157.119 423.056 186.073 389.848 198.487C370.5 205.72 352.785 216.468 337.194 230.433C317.322 248.233 301.564 270.805 290.278 297.589H312.184C335.097 249.121 370.3 227.147 396.852 217.221C424.294 206.962 460.764 181.828 478.663 120.346C480.207 115.044 477.159 109.493 471.856 107.949Z" fill="#2BA870"/>
<path d="M240.22 222.576C244.968 246.594 244.978 271.741 240.316 297.59H260.623C265.105 270.519 264.859 244.085 259.841 218.698C254.908 193.749 245.565 170.372 232.07 149.218C208.239 111.863 205.928 64.9477 225.387 13.545C227.342 8.37998 224.74 2.60702 219.575 0.65203C214.408 -1.30496 208.637 1.29803 206.682 6.464C179.162 79.1586 196.129 130.068 215.208 159.975C227.358 179.019 235.773 200.081 240.22 222.576Z" fill="#2BA870"/>
<path d="M225.031 451.012C223.367 438.514 227.177 425.907 235.482 416.422C243.785 406.94 255.778 401.501 268.384 401.501H380.013C389.904 401.501 397.046 406.09 401.88 411.045C404.401 386.921 403.725 371.085 403.725 371.085C387.149 371.085 121.878 371.085 105.302 371.085C105.302 371.085 103.362 416.48 118.288 470.655C152.879 493.838 193.701 508.439 237.713 511.421C231.332 490.434 227.418 468.942 225.031 451.012Z" fill="#4A265D"/>
<path d="M401.952 410.35C397.064 405.453 389.908 401.001 380.013 401.001H268.385C241.631 401.001 221.006 424.558 224.536 451.078C226.974 469.391 230.891 490.699 237.163 511.386C242.895 511.787 248.68 512 254.514 512C304.931 512 351.785 496.764 390.74 470.656C396.935 448.166 400.224 427.194 401.952 410.35Z" fill="#62387A"/>
<path d="M195.353 296.589C193.412 281.165 180.257 269.231 164.306 269.231C148.355 269.231 135.2 281.165 133.259 296.589H195.353Z" fill="#7B3723"/>
<path d="M239.075 296.59C240.132 293.451 240.713 290.094 240.713 286.599C240.713 269.311 226.698 255.296 209.41 255.296C192.122 255.296 178.107 269.311 178.107 286.599C178.107 290.094 178.688 293.451 179.745 296.59H239.075Z" fill="#602A1B"/>
<path d="M280.706 296.59C283.934 291.666 285.818 285.781 285.818 279.454C285.818 262.166 271.803 248.151 254.515 248.151C237.227 248.151 223.212 262.166 223.212 279.454C223.212 285.782 225.095 291.666 228.324 296.59H280.706Z" fill="#602A1B"/>
<path d="M329.282 296.59C330.339 293.451 330.92 290.094 330.92 286.599C330.92 269.311 316.905 255.296 299.617 255.296C282.329 255.296 268.314 269.311 268.314 286.599C268.314 290.094 268.895 293.451 269.952 296.59H329.282Z" fill="#99442D"/>
<path d="M375.768 296.589C373.827 281.165 360.672 269.231 344.721 269.231C328.77 269.231 315.615 281.165 313.674 296.589H375.768Z" fill="#F35922"/>
<path d="M403.726 295.589H250.159C229.036 295.589 211.912 312.713 211.912 333.837C211.912 354.961 229.036 372.085 250.159 372.085H403.725C412.408 372.085 419.447 365.045 419.447 356.362V311.313C419.448 302.629 412.408 295.589 403.726 295.589Z" fill="#9739CF"/>
<path d="M212.912 333.838C212.912 312.714 230.036 295.59 251.16 295.59H105.302C96.6183 295.59 89.5793 302.63 89.5793 311.313V356.362C89.5793 365.046 96.6193 372.085 105.302 372.085H251.16C230.036 372.086 212.912 354.961 212.912 333.838Z" fill="#62387A"/>
</g>
<defs>
<clipPath id="clip0_1_44">
<rect width="512" height="512" fill="white"/>
</clipPath>
</defs>
</svg>
