<svg width="512" height="512" viewBox="0 0 512 512" fill="none" xmlns="http://www.w3.org/2000/svg">
<g clip-path="url(#clip0_1_2)">
<path d="M434.146 435.179L77.838 435.161C36.406 391.282 10.998 332.11 10.998 266.998C10.998 131.687 120.689 21.9961 256 21.9961C391.311 21.9961 501.002 131.687 501.002 266.998C501.002 332.119 475.587 391.298 434.146 435.179Z" fill="#121D4C"/>
<path d="M241.184 125.35C237.411 125.35 234.051 122.668 233.33 118.825C229.684 99.399 222.591 85.205 212.249 76.637C208.848 73.818 208.374 68.775 211.193 65.373C214.011 61.971 219.052 61.496 222.458 64.317C235.752 75.332 244.701 92.678 249.055 115.874C249.87 120.217 247.011 124.397 242.668 125.213C242.17 125.304 241.673 125.35 241.184 125.35Z" fill="#2BA870"/>
<path d="M270.816 125.35C270.327 125.35 269.83 125.305 269.332 125.211C264.989 124.396 262.13 120.215 262.945 115.872C267.298 92.677 276.248 75.33 289.542 64.315C292.946 61.495 297.989 61.969 300.807 65.371C303.626 68.773 303.153 73.816 299.751 76.635C289.409 85.203 282.316 99.398 278.67 118.823C277.949 122.667 274.59 125.35 270.816 125.35Z" fill="#2BA870"/>
<path d="M180.744 63.317C180.272 63.423 179.798 63.515 179.329 63.643C170.564 66.043 163.826 72.19 159.303 81.911C151.728 98.188 143.647 119.729 136.898 138.987C137.098 139.048 137.297 139.097 137.498 139.161L128.87 164.217C128.713 164.207 128.534 164.199 128.342 164.192C124.125 177 121.446 185.711 121.375 185.942L112.806 212.009C112.749 212.236 111.452 217.642 113.122 223.943C114.134 227.757 116.418 232.355 121.376 236.061C126.687 231.541 132.73 226.864 139.417 222.452C136.715 216.017 133.563 211.264 130.586 207.807C124.28 200.488 122.373 190.102 125.609 180.703L130.032 167.858C148.886 174.852 158.052 191.749 162.333 209.073C170.587 203.048 179.088 192.901 186.318 180.523C182.266 163.744 174.178 151.816 166.918 143.99C157.133 133.444 147.263 128.304 144.154 126.848L152.734 101.931C176.971 110.842 190.416 135.161 197.7 156.043C207.873 127.534 209.438 94.735 190.545 72.311C187.64 68.869 184.337 65.862 180.744 63.317Z" fill="#73CF4A"/>
<path d="M113.775 212.25L122.324 186.255C122.324 186.255 142.525 120.333 160.209 82.3331C165.543 70.8721 173.418 65.7161 181.817 64.0961C169.803 55.1221 154.278 51.5101 139.287 54.6631C119.808 58.7611 104.82 72.4361 94.2142 89.7801C112.358 78.9251 135.982 70.1151 158.754 77.4331L150.17 102.359C143.862 100.98 110.366 95.3131 80.4282 121.601C76.3192 135.79 74.4812 150.154 74.8742 162.473C90.0912 146.698 112.485 131.202 137.497 139.161L128.869 164.217C124.348 163.94 104.81 164.319 80.4682 187.826C88.4452 204.707 92.5752 222.205 94.7012 235.835C96.1402 245.062 107.31 248.908 114.125 242.524C116.567 240.236 119.251 237.839 122.142 235.404C110.222 226.691 113.775 212.25 113.775 212.25Z" fill="#2BA870"/>
<path d="M160.209 76.715L150.913 103.71C150.913 103.71 113.054 93.159 79.866 123.585C83.324 110.985 88.573 98.451 95.627 87.532C113.958 76.954 137.445 68.876 160.209 76.715Z" fill="#BBE86D"/>
<path d="M138.954 138.441L129.658 165.436C129.658 165.436 108.331 162.48 80.996 188.945C80.587 188.061 80.176 187.177 79.746 186.296C76.626 179.899 74.985 170.975 74.833 160.754C90.432 144.827 113.266 129.595 138.954 138.441Z" fill="#BBE86D"/>
<path d="M198.336 154.21C194.952 164.115 190.516 173.546 185.506 181.899C176.336 141.334 142.733 127.466 142.733 127.466L152.029 100.471C176.919 109.042 190.774 133.139 198.336 154.21Z" fill="#DBF8A0"/>
<path d="M163.408 208.262C161.05 210.08 158.706 211.578 156.413 212.697C150.026 215.812 144.021 219.36 138.459 223.084C135.815 216.737 132.707 212.023 129.72 208.555C123.047 200.809 121.199 190.001 124.529 180.334L129.328 166.396C149.276 173.265 158.926 190.519 163.408 208.262Z" fill="#DBF8A0"/>
<path d="M125.074 186.745C124.161 186.746 123.232 186.588 122.324 186.255C118.176 184.735 116.044 180.141 117.563 175.992L151.209 84.113C156.309 70.186 167.922 59.556 182.272 55.678C196.532 51.823 211.179 54.972 222.457 64.314C225.859 67.133 226.333 72.176 223.514 75.579C220.696 78.98 215.652 79.455 212.25 76.636C205.028 70.653 195.625 68.643 186.446 71.124C176.966 73.686 169.597 80.426 166.232 89.615L132.586 181.494C131.4 184.735 128.336 186.745 125.074 186.745Z" fill="#73CF4A"/>
<path d="M330.965 65.4851C339.529 67.7011 346.233 73.7401 350.889 83.4331C353.637 89.1531 356.399 95.4391 359.112 101.995C359.164 101.976 359.215 101.953 359.267 101.934L360.201 104.646C375.293 141.688 388.555 185.993 388.696 186.455C388.856 187.246 392.795 205.917 406.612 213.515C411.021 215.94 415.934 216.933 421.289 216.51C423.678 207.303 426.975 197.466 431.531 187.827C407.19 164.319 387.651 163.941 383.13 164.218L374.502 139.162C399.514 131.203 421.908 146.699 437.125 162.474C437.518 150.155 435.68 135.791 431.571 121.602C401.633 95.3141 368.137 100.981 361.829 102.36L353.245 77.4341C376.018 70.1161 399.642 78.9251 417.785 89.7811C407.179 72.4371 392.19 58.7611 372.712 54.6641C357.202 51.4011 341.12 55.3791 328.947 65.0451C329.623 65.1691 330.296 65.3121 330.965 65.4851Z" fill="#73CF4A"/>
<path d="M389.676 186.255C389.676 186.255 370.526 122 351.791 83.0001C346.204 71.3701 338.319 66.0181 330.004 64.2321C326.895 66.5751 324.019 69.2731 321.457 72.3141C302.564 94.7381 304.129 127.537 314.302 156.046C321.586 135.163 335.03 110.845 359.268 101.934L367.848 126.851C364.739 128.307 354.868 133.448 345.083 143.993C337.823 151.819 329.736 163.747 325.683 180.526C332.914 192.904 341.415 203.051 349.668 209.076C353.949 191.752 363.115 174.855 381.969 167.861L386.392 180.706C389.629 190.105 387.721 200.49 381.415 207.81C378.437 211.267 375.285 216.02 372.584 222.455C382.536 229.021 391.104 236.184 397.874 242.526C404.689 248.91 415.859 245.064 417.298 235.837C418.255 229.704 419.622 222.784 421.559 215.494C396.09 217.792 389.676 186.255 389.676 186.255Z" fill="#2BA870"/>
<path d="M351.79 76.715L361.086 103.71C361.086 103.71 398.945 93.159 432.133 123.585C428.674 110.985 423.426 98.451 416.372 87.532C398.042 76.954 374.555 68.876 351.79 76.715Z" fill="#DBF8A0"/>
<path d="M373.046 138.441L382.342 165.436C382.342 165.436 403.669 162.48 431.003 188.945C431.412 188.061 431.823 187.177 432.253 186.296C435.373 179.899 437.014 170.975 437.166 160.754C421.568 144.827 398.734 129.595 373.046 138.441Z" fill="#DBF8A0"/>
<path d="M313.664 154.21C317.048 164.115 321.484 173.546 326.494 181.899C335.664 141.334 369.267 127.466 369.267 127.466L359.971 100.471C335.081 109.042 321.225 133.139 313.664 154.21Z" fill="#BBE86D"/>
<path d="M348.592 208.262C350.95 210.08 353.294 211.578 355.587 212.697C361.973 215.812 367.979 219.36 373.541 223.084C376.185 216.737 379.293 212.023 382.28 208.555C388.953 200.809 390.801 190.001 387.471 180.334L382.671 166.396C362.724 173.265 353.074 190.519 348.592 208.262Z" fill="#BBE86D"/>
<path d="M386.926 186.745C383.663 186.746 380.6 184.735 379.413 181.494L345.767 89.615C342.402 80.426 335.034 73.6861 325.553 71.1241C316.376 68.6431 306.971 70.6521 299.749 76.6361C296.347 79.4551 291.305 78.9811 288.485 75.5791C285.666 72.1771 286.139 67.1331 289.542 64.3141C300.818 54.9721 315.465 51.8241 329.727 55.6781C344.078 59.5561 355.691 70.1861 360.791 84.1131L394.436 175.992C395.956 180.141 393.824 184.736 389.675 186.255C388.769 186.588 387.839 186.745 386.926 186.745Z" fill="#73CF4A"/>
<path d="M257.067 100.446C253.201 100.446 250.067 97.3121 250.067 93.4461C250.067 76.2751 244.221 58.5371 234.03 44.7791C223.721 30.8641 210.626 23.2001 197.155 23.2001C193.289 23.2001 190.155 20.0661 190.155 16.2001C190.155 12.3341 193.289 9.20007 197.155 9.20007C215.174 9.20007 232.264 18.8761 245.28 36.4451C257.219 52.5621 264.067 73.3381 264.067 93.4451C264.067 97.3121 260.934 100.446 257.067 100.446Z" fill="#007F6F"/>
<path d="M256.144 117.348C252.278 117.348 249.144 114.214 249.144 110.348C249.144 85.0961 254.935 50.3991 282.524 28.5161C299.257 15.2431 316.085 13.1491 316.794 13.0661C320.634 12.6101 324.11 15.3671 324.559 19.2071C325.006 23.0391 322.269 26.5091 318.441 26.9691C316.086 27.2661 263.145 34.8601 263.145 110.348C263.144 114.214 260.011 117.348 256.144 117.348Z" fill="#2BA870"/>
<path d="M308.783 5.70105C296.588 9.39205 285.073 15.345 277.16 24.854C274.915 27.551 272.873 30.6731 271.235 33.4361C268.948 37.2941 270.527 42.282 274.601 44.156L274.723 44.2121C276.826 45.1791 279.041 45.899 281.318 46.313C301.569 49.999 318.347 45.413 331.586 37.932C306.053 34.781 306.119 17.305 308.783 5.70105Z" fill="#73CF4A"/>
<path d="M220.992 320.229C218.58 329.492 220.777 339.437 227.522 349.8C227.259 350.042 226.904 350.38 226.507 350.766L431.808 369.034C427.944 351.693 421.595 335.288 413.128 320.229C405.271 306.254 390.498 297.588 374.465 297.588H239.165C235.077 300.052 224.282 307.594 220.992 320.229Z" fill="#FD77CC"/>
<path d="M98.886 320.201C95.549 326.134 92.556 332.285 89.896 338.611L227.822 350.884C228.462 350.285 228.831 349.969 228.831 349.969C205.804 315.605 241.191 297.588 241.191 297.588H137.533C121.512 297.588 106.74 306.237 98.886 320.201Z" fill="#FE3BAE"/>
<path d="M436.131 408.343L219.318 452.306C219.505 452.562 219.679 452.816 219.869 453.072C218.431 455.931 212.528 468.826 213.573 485.965C214.096 494.544 216.271 502.304 219.549 509.303C231.442 511.079 243.613 512 256 512C326.199 512 389.494 482.469 434.162 435.161C435.448 426.474 436.126 417.585 436.134 408.532C436.134 408.469 436.131 408.406 436.131 408.343Z" fill="#EF018E"/>
<path d="M220.695 509.464C206.461 479.595 221.047 452.976 221.047 452.976C220.823 452.679 220.618 452.384 220.399 452.087L121.92 472.056C151.112 491.186 184.631 504.252 220.695 509.464Z" fill="#CF0D7D"/>
<path d="M431.59 368.011L227.472 349.848C224.635 352.473 213.915 363.078 207.436 379.027C200.56 395.958 197.17 422.511 219.87 453.072C219.846 453.12 219.818 453.177 219.791 453.23L436.125 409.364C436.127 409.086 436.133 408.81 436.133 408.532C436.147 394.599 434.572 381.036 431.59 368.011Z" fill="#FE3BAE"/>
<path d="M228.832 349.969L90.308 337.643C81.024 359.359 75.865 383.258 75.865 408.368C75.865 417.479 76.548 426.43 77.853 435.178C91.345 449.464 106.545 462.114 123.111 472.833L221.045 452.975C176.841 394.127 228.831 349.97 228.832 349.969Z" fill="#EF018E"/>
<path d="M320.739 268.847C326.102 254.751 329.699 237.399 330.597 219.345C306.432 177.002 265.42 170.213 257.572 169.295V137.035C286.836 137.641 310.659 157.246 327.326 177.035C321.965 152.742 310.072 130.947 289.168 118.446C278.7 112.186 266.83 109.155 255 109.337V298.034C255 298.034 257.08 322.759 280.824 325.154C287.27 315.424 295.024 305.32 304.165 295.951C285.368 259.054 262.913 250.832 257.572 249.351V216.924C289.682 217.681 309.418 244.532 320.739 268.847Z" fill="#73CF4A"/>
<path d="M256 297.034V109.321C244.502 109.321 233.004 112.363 222.832 118.447C192.038 136.863 180.781 175.436 181.192 212.474C197.94 191.215 223.184 168.435 254.777 167.781V200.028C250.599 200.474 237.131 202.489 221.608 210.792C210.09 216.954 195.98 227.532 184.607 245.331C188.041 262.533 193.834 277.66 200.983 287.92C212.839 269.582 230.176 253.684 254.777 253.104V269.728C254.777 281.892 248.432 293.148 238.22 299.104C233.398 301.917 227.857 306.16 222.167 312.53C231.066 324.092 238.125 335.793 243.431 345.828C248.772 355.93 263.228 355.93 268.569 345.828C272.098 339.154 276.405 331.743 281.509 324.127C258.057 321.548 256 297.034 256 297.034Z" fill="#2BA870"/>
<path d="M256.174 135.624V170.561C256.174 170.561 304.18 173.438 330.457 221.863C331.476 205.907 330.397 189.314 326.586 173.87C309.592 154.329 285.636 135.624 256.174 135.624Z" fill="#DBF8A0"/>
<path d="M256.174 215.509V250.446C256.174 250.446 282.027 255.523 303.109 297.034C303.934 296.174 304.762 295.315 305.61 294.467C311.769 288.308 317.223 278.637 321.471 266.873C309.769 242.231 289.42 215.509 256.174 215.509Z" fill="#DBF8A0"/>
<path d="M181.186 210.095C181.155 222.904 182.53 235.583 184.999 247.243C211.771 203.963 256.175 201.305 256.175 201.305V166.368C223.961 166.368 198.33 188.728 181.186 210.095Z" fill="#BBE86D"/>
<path d="M200.062 286.549C202.066 289.592 204.181 292.259 206.389 294.467C212.537 300.615 218.072 307.114 223.024 313.638C228.612 307.348 234.086 303.132 238.924 300.31C249.731 294.006 256.175 282.238 256.175 269.726V251.688C230.356 251.689 212.317 267.807 200.062 286.549Z" fill="#BBE86D"/>
<path d="M256 272.108C251.58 272.108 247.964 268.492 247.964 264.072V110.348C247.964 105.928 251.58 102.312 256 102.312C260.419 102.312 264.035 105.928 264.035 110.348V264.072C264.035 268.492 260.419 272.108 256 272.108Z" fill="#73CF4A"/>
<path d="M358.098 15.325C363.18 9.20405 358.762 -0.0599541 350.806 4.58513e-05C338.944 0.0900459 322.74 1.29405 307.71 6.02505C305.093 17.754 305.282 35.19 331.412 38.034C343.042 31.502 351.954 22.728 358.098 15.325Z" fill="#BBE86D"/>
</g>
<defs>
<clipPath id="clip0_1_2">
<rect width="512" height="512" fill="white"/>
</clipPath>
</defs>
</svg>
