<svg width="512" height="512" viewBox="0 0 512 512" fill="none" xmlns="http://www.w3.org/2000/svg">
<g clip-path="url(#clip0_1_120)">
<path d="M426.381 431.704C465.911 388.198 490.004 330.411 490.004 266.998C490.004 131.687 380.313 21.996 245.002 21.996C109.691 21.996 0 131.687 0 266.998C0 330.412 24.092 388.198 63.623 431.704H426.381Z" fill="#EF018E"/>
<path d="M201.678 330.002C197.232 330.002 193.174 327.016 192.005 322.511C181.892 283.528 166.949 259.206 148.792 252.177C133.069 246.089 119.416 254.809 118.843 255.182C114.268 258.27 108.081 257.044 104.991 252.466C101.902 247.888 103.139 241.652 107.718 238.563C108.622 237.952 130.145 223.739 155.633 233.38C180.583 242.819 199.334 271.118 211.365 317.49C212.752 322.836 209.543 328.294 204.196 329.68C203.354 329.898 202.509 330.002 201.678 330.002Z" fill="#73CF4A"/>
<path d="M206.74 241.661C201.218 241.661 196.74 237.184 196.74 231.661C196.74 158.194 155.299 113.914 120.534 89.704C97.031 73.338 83 46.505 83 17.927V10C83 4.477 87.478 0 93 0C98.522 0 103 4.477 103 10V17.927C103 39.965 113.827 60.663 131.964 73.292C154.741 89.154 173.42 108.226 187.482 129.979C206.897 160.015 216.741 194.226 216.741 231.661C216.74 237.184 212.263 241.661 206.74 241.661Z" fill="#73CF4A"/>
<path d="M201.685 347.655C196.162 347.655 191.685 343.177 191.685 337.655V262C191.685 213.604 199.162 168.99 213.307 132.981C218.429 119.942 228.132 109.804 240.627 104.436C253.388 98.954 268.11 98.809 281.018 104.037C286.137 106.11 288.606 111.941 286.533 117.06C284.459 122.179 278.624 124.644 273.511 122.574C265.517 119.336 256.409 119.425 248.524 122.812C243.182 125.107 235.966 130.003 231.923 140.294C218.684 173.996 211.686 216.081 211.686 262V337.655C211.685 343.178 207.207 347.655 201.685 347.655Z" fill="#73CF4A"/>
<path d="M205.438 377C205.839 377.333 206.245 377.667 206.669 378C206.669 378 166.432 435.527 213.646 509.995C223.915 511.307 234.376 512 245.002 512C316.899 512 381.563 481.03 426.381 431.704V377H205.438Z" fill="#63D9FA"/>
<path d="M63.623 431.704C102.051 473.997 155.075 502.774 214.732 510.126C167.387 435.595 207.669 378 207.669 378C207.245 377.667 206.839 377.333 206.438 377H63.623V431.704Z" fill="#01A2C3"/>
<path d="M386.111 333.311H201.9C194.545 341.603 183.55 359.8 206.669 378H426.382V373.582C426.381 351.341 408.352 333.311 386.111 333.311Z" fill="#AAE7FA"/>
<path d="M202.9 333.311H103.893C81.652 333.311 63.623 351.341 63.623 373.581V378H207.669C184.551 359.801 195.545 341.604 202.9 333.311Z" fill="#63D9FA"/>
<path d="M383.256 349.542C355.946 331.173 351.173 288.851 351.128 288.425L351.116 288.312L301.068 143.206C301.055 143.212 301.031 143.223 301.031 143.223C301.031 143.223 274.238 146.835 265.441 115.6C256.644 84.364 233.6 28.485 148.188 140.193C137.285 154.452 130.039 169.006 125.837 183.545C123 193.364 133.101 201.856 142.269 197.337C158.158 189.504 177.555 181.34 197.803 176.073C212.659 172.209 221.395 192.044 208.491 200.359C185.873 214.934 161.129 234.531 146.272 257.441C138.975 268.693 139.108 283.265 146.345 294.556C153.861 306.282 162.688 317.226 172.301 327.111C177.485 332.442 186.415 330.801 189.436 324.006C200.061 300.103 219.025 268.128 252.513 234.974C262.429 225.158 278.122 237.917 270.525 249.62C253.967 275.126 237.731 304.828 228.739 333.931C222.868 352.933 234.151 372.917 253.419 377.842C260.77 379.721 267.804 380.662 274.316 380.557L274.397 380.556C278.808 380.486 282.499 377.165 282.984 372.78C284.508 358.981 287.621 343.655 293.173 327.205C298.454 311.558 321.907 317.34 319.336 333.653C318.129 341.311 317.179 349.041 316.592 356.69C315.409 372.107 324.652 386.406 339.136 391.82C344.749 393.918 349.804 396.129 354.247 398.283C366.574 404.259 381.343 400.099 388.74 388.569C394.537 379.533 402.653 368.767 413.553 358.026C402.143 358.245 391.999 355.423 383.256 349.542Z" fill="#007F6F"/>
<path d="M393.859 267.033C388.171 261.951 387.261 253.393 391.86 247.309L391.927 247.221C396.583 241.062 405.214 239.646 411.659 243.897C423.716 251.85 433.836 260.216 442.281 268.392C439.522 259.681 439.317 251.999 441.704 245.396C445.202 235.719 453.765 230.404 460.408 227.631C435.073 212.09 404.418 200.536 376.098 192.188C362.715 188.243 366.332 168.343 380.248 169.347C410.936 171.561 436.586 177.423 457.274 184.351C447.607 174.477 443 164.854 443.551 155.581C444.189 144.847 451.804 136.65 458.355 131.526C437.468 129.399 415.224 131.219 395.651 134.307C380.488 136.699 373.793 116.086 387.448 109.073C405.351 99.879 424.457 93.208 441.081 88.493C451.395 85.568 452.666 71.582 443.094 66.753C438.895 64.635 434.476 62.671 429.828 60.874C298.673 10.157 308.176 69.85 316.973 101.085C325.77 132.321 301.029 143.221 301.029 143.221C301.029 143.221 300.669 143.267 300.043 143.304L350.132 288.529C350.132 288.529 357.598 359.248 412.529 359.05C415.33 356.245 418.307 353.438 421.494 350.659C434.306 339.489 436.993 320.684 428.107 306.194C419.665 292.426 407.452 279.179 393.859 267.033Z" fill="#2BA870"/>
<path d="M277.268 312.003C276.326 312.003 275.368 311.868 274.418 311.587C269.123 310.015 266.106 304.448 267.677 299.154C281.17 253.7 321.767 220.467 323.489 219.075C327.783 215.602 334.078 216.266 337.553 220.561C341.024 224.852 340.362 231.144 336.074 234.618C335.7 234.922 298.546 265.446 286.85 304.845C285.561 309.19 281.58 312.002 277.268 312.003Z" fill="#2BA870"/>
<path d="M307.285 166.739C302.534 166.739 298.319 163.34 297.453 158.499C296.48 153.062 300.099 147.867 305.535 146.894C307.26 146.585 348.089 139.334 375 139.334C380.522 139.334 385 143.811 385 149.334C385 154.857 380.522 159.334 375 159.334C349.846 159.334 309.463 166.508 309.059 166.581C308.463 166.687 307.87 166.739 307.285 166.739Z" fill="#73CF4A"/>
<path d="M245.002 211.334C242.442 211.334 239.884 210.358 237.931 208.405C234.026 204.5 234.026 198.168 237.931 194.262C266.112 166.081 307.567 159.665 309.318 159.406C314.777 158.597 319.865 162.369 320.674 167.833C321.483 173.291 317.718 178.371 312.264 179.188C311.899 179.243 275.492 184.987 252.073 208.405C250.12 210.357 247.562 211.334 245.002 211.334Z" fill="#2BA870"/>
<path d="M100.537 133.694C123.892 122.816 138.401 104.5 132.944 92.7843C127.487 81.0687 104.131 80.3898 80.7761 91.2681C57.4213 102.146 42.9123 120.462 48.3692 132.178C53.8262 143.894 77.1827 144.573 100.537 133.694Z" fill="#2BA870"/>
<path d="M346.998 289.037C342.801 289.037 338.892 286.373 337.504 282.168L291.184 141.822C288.213 132.823 281.937 125.986 273.51 122.573C268.391 120.5 265.922 114.67 267.995 109.551C270.068 104.433 275.896 101.961 281.018 104.036C294.979 109.69 305.334 120.884 310.176 135.553L356.496 275.9C358.227 281.144 355.379 286.799 350.134 288.53C349.094 288.874 348.037 289.037 346.998 289.037Z" fill="#73CF4A"/>
<path d="M479.289 240.837C473.156 235.894 466.448 231.279 459.335 226.973C448.678 231.595 433.92 242.602 440.889 267.059C452.058 277.666 460.397 288.01 466.441 296.78C470.015 301.966 477.782 301.806 481.133 296.474C483.638 292.487 486.039 288.284 488.318 283.896C495.939 269.217 492.166 251.215 479.289 240.837Z" fill="#73CF4A"/>
<path d="M488.681 138.201C478.849 134.553 468.046 132.42 456.886 131.385C445.504 140.607 432.01 158.751 455.306 183.703C473.986 189.804 488.743 196.813 499.595 202.92C504.954 205.936 511.535 202.223 511.809 196.079C512.258 186.043 511.929 175.988 510.705 166.105C509.139 153.453 500.634 142.636 488.681 138.201Z" fill="#73CF4A"/>
</g>
<defs>
<clipPath id="clip0_1_120">
<rect width="512" height="512" fill="white"/>
</clipPath>
</defs>
</svg>
