<svg width="512" height="512" viewBox="0 0 512 512" fill="none" xmlns="http://www.w3.org/2000/svg">
<g clip-path="url(#clip0_1_153)">
<path d="M110.485 464.11H401.514C461.863 419.484 501.002 347.816 501.002 266.998C501.002 131.687 391.311 21.9961 256 21.9961C120.689 21.9961 10.998 131.687 10.998 266.998C10.998 347.816 50.136 419.484 110.485 464.11Z" fill="#F5D001"/>
<path d="M251.735 117.67C252.914 118.001 254.187 118.064 255.471 117.802C259.773 116.923 262.547 112.724 261.668 108.422C255.821 79.8 243.253 48.285 219.453 34.947C196.487 22.076 172.14 32.453 171.129 32.877C167.079 34.572 165.171 39.23 166.865 43.279C168.557 47.319 173.196 49.228 177.239 47.554C177.555 47.427 195.905 39.865 212.162 49.077C229.83 59.088 241.259 87.952 246.09 111.604C246.707 114.623 248.96 116.89 251.735 117.67Z" fill="#007F6F"/>
<path d="M264.375 106C270.139 70.7101 285.351 47.7651 285.54 47.4851L278.915 43.0001L272.299 38.5031C271.415 39.8031 254.081 65.7781 248.163 106H264.375Z" fill="#2BA870"/>
<path d="M328.721 6.30408C310.271 11.0271 290.264 19.2051 273.522 33.3021C268.647 37.4071 268.022 44.6851 272.127 49.5601C276.213 54.4131 283.488 55.0771 288.384 50.9541C302.423 39.1341 319.774 32.2981 335.841 28.3581C322.204 22.4261 326.072 11.3071 328.721 6.30408Z" fill="#73CF4A"/>
<path d="M385.08 337.643H233.525C233.525 337.643 194.93 367.715 233.525 406.31C233.525 406.31 233.246 406.539 232.767 406.97H401.514V354.078C401.514 345.001 394.156 337.643 385.08 337.643Z" fill="#F35922"/>
<path d="M234.525 337.643H126.92C117.844 337.643 110.485 345.001 110.485 354.078V406.97H233.767C234.247 406.539 234.525 406.31 234.525 406.31C195.93 367.715 234.525 337.643 234.525 337.643Z" fill="#99442D"/>
<path d="M232.829 474.316C233.063 474.536 233.286 474.756 233.526 474.976C233.526 474.976 217.909 487.823 221.67 509.604C232.888 511.179 244.347 512 256 512C304.007 512 348.78 498.179 386.581 474.316H232.829Z" fill="#7B3723"/>
<path d="M222.692 509.743C218.839 487.877 234.525 474.977 234.525 474.977C234.285 474.757 234.062 474.537 233.828 474.317H125.418C154.323 492.562 187.306 504.928 222.692 509.743Z" fill="#602A1B"/>
<path d="M233.525 406.31C233.525 406.31 193.991 438.611 233.525 474.977H385.537C391.011 471.56 396.341 467.936 401.514 464.111V406.311H233.525V406.31Z" fill="#99442D"/>
<path d="M234.525 406.31H110.485V464.11C115.658 467.935 120.989 471.56 126.462 474.977H234.525C194.991 438.611 234.525 406.31 234.525 406.31Z" fill="#7B3723"/>
<path d="M286.911 145.744C285.833 145.744 284.738 145.494 283.713 144.966C280.275 143.196 278.924 138.976 280.694 135.538C292.468 112.666 307.216 99.1761 324.528 95.4411C347.189 90.5521 365.231 104.596 365.987 105.197C369.016 107.599 369.525 112.002 367.124 115.031C364.727 118.052 360.34 118.566 357.312 116.184C357.075 116.001 343.412 105.613 327.343 109.156C314.378 112.013 302.871 123.046 293.142 141.946C291.899 144.358 289.449 145.744 286.911 145.744Z" fill="#2BA870"/>
<path d="M225.089 145.744C226.167 145.744 227.262 145.494 228.287 144.966C231.725 143.196 233.076 138.976 231.307 135.538C219.533 112.666 204.785 99.1761 187.473 95.4411C164.812 90.5521 146.77 104.596 146.014 105.197C142.985 107.599 142.476 112.002 144.877 115.031C147.273 118.052 151.661 118.566 154.689 116.184C154.926 116.001 168.589 105.613 184.658 109.156C197.623 112.013 209.13 123.046 218.859 141.946C220.101 144.358 222.551 145.744 225.089 145.744Z" fill="#2BA870"/>
<path d="M451.968 170.924C436.228 161.662 423.587 147.943 415.99 131.334L415.44 130.131C405.42 108.223 379.537 98.586 357.629 108.606C357.355 108.731 357.091 108.87 356.821 109.001L457.509 329.149C457.509 329.149 462.478 341.596 477.252 343.539C482.503 339.967 487.27 335.62 491.367 330.576C517.218 298.753 515.385 263.589 504.267 233.216C493.223 203.043 476.485 185.351 451.968 170.924Z" fill="#007F6F"/>
<path d="M477.842 343.129C463.248 341.087 458.327 328.775 458.327 328.775L357.629 108.606C335.721 118.626 326.084 144.509 336.104 166.417L336.664 167.641C344.259 184.247 346.368 202.778 343.085 220.741C337.976 248.693 340.382 272.897 355.953 300.963C371.654 329.264 397.061 353.686 438.069 354.947C452.413 355.388 466.327 351.146 477.842 343.129Z" fill="#00626B"/>
<path d="M409.013 324.368C407.962 324.849 406.78 325.082 405.546 325C401.582 324.734 398.584 321.306 398.849 317.343C401.242 281.594 426.227 264.423 427.289 263.71C430.588 261.492 435.056 262.373 437.271 265.671C439.48 268.96 438.612 273.414 435.335 275.635C434.464 276.234 415.108 289.858 413.204 318.304C413.02 321.033 411.337 323.304 409.013 324.368Z" fill="#73CF4A"/>
<path d="M366.353 281.591C365.008 282.206 363.463 282.413 361.903 282.089C358.014 281.281 355.516 277.472 356.324 273.583C365.832 227.835 402.938 211.426 404.53 210.743C408.18 209.176 412.409 210.865 413.977 214.515C415.541 218.16 413.844 222.38 410.223 223.954C408.884 224.53 378.342 238.338 370.41 276.51C369.925 278.841 368.364 280.671 366.353 281.591Z" fill="#73CF4A"/>
<path d="M356.843 183.838C354.348 184.98 351.308 184.634 349.11 182.71C346.121 180.094 345.818 175.55 348.434 172.56C360.86 158.362 376.735 151.59 377.406 151.306C381.068 149.767 385.284 151.489 386.823 155.151C388.36 158.809 386.632 163.026 382.992 164.563C382.857 164.62 369.429 170.415 359.259 182.035C358.567 182.825 357.74 183.428 356.843 183.838Z" fill="#73CF4A"/>
<path d="M461.965 336.729C458.353 338.381 454.084 336.792 452.432 333.18L351.088 111.597C349.436 107.984 351.025 103.716 354.637 102.064C358.249 100.412 362.517 102.001 364.17 105.613L465.514 327.195C467.167 330.809 465.578 335.077 461.965 336.729Z" fill="#73CF4A"/>
<path d="M492.481 300.035C490.157 301.098 487.337 300.885 485.152 299.238C462.119 281.872 438.663 288.003 438.429 288.067C434.598 289.114 430.642 286.855 429.596 283.023C428.549 279.192 430.803 275.231 434.641 274.19C435.875 273.853 465.205 266.183 493.814 287.752C496.985 290.143 497.618 294.653 495.227 297.826C494.482 298.813 493.532 299.554 492.481 300.035Z" fill="#A4E830"/>
<path d="M488.02 239.786C486.01 240.706 483.604 240.689 481.524 239.532C447.428 220.551 417.01 234.657 415.724 235.28C415.687 235.297 415.651 235.314 415.615 235.331C412.061 236.957 407.836 235.45 406.133 231.916C404.413 228.346 405.894 224.063 409.457 222.331C411.009 221.57 447.699 204.237 488.522 226.962C491.992 228.895 493.24 233.275 491.308 236.745C490.533 238.137 489.365 239.171 488.02 239.786Z" fill="#A4E830"/>
<path d="M420.291 168.661C419.394 169.071 418.397 169.303 417.346 169.309C401.761 169.404 388.746 175.767 388.622 175.829C385.096 177.58 380.747 176.139 378.983 172.579C377.219 169.02 378.674 164.704 382.233 162.94C382.886 162.617 398.391 155.038 417.259 154.923C421.232 154.899 424.471 158.1 424.495 162.072C424.513 164.994 422.786 167.519 420.291 168.661Z" fill="#A4E830"/>
<path d="M60.032 170.924C75.772 161.662 88.413 147.943 96.01 131.334L96.56 130.131C106.58 108.223 132.463 98.586 154.371 108.606C154.645 108.731 154.909 108.87 155.179 109.001L54.49 329.149C54.49 329.149 49.521 341.596 34.747 343.539C29.496 339.967 24.729 335.62 20.632 330.576C-5.21898 298.753 -3.38597 263.589 7.73203 233.216C18.777 203.043 35.514 185.351 60.032 170.924Z" fill="#00626B"/>
<path d="M19.519 300.035C21.843 301.098 24.663 300.885 26.848 299.238C49.881 281.872 73.337 288.003 73.571 288.067C77.402 289.114 81.358 286.855 82.404 283.023C83.451 279.192 81.197 275.231 77.359 274.19C76.125 273.853 46.795 266.183 18.186 287.752C15.015 290.143 14.382 294.653 16.773 297.826C17.518 298.813 18.468 299.554 19.519 300.035Z" fill="#73CF4A"/>
<path d="M23.9801 239.786C25.9911 240.706 28.3961 240.689 30.4761 239.532C64.5721 220.551 94.9901 234.657 96.2761 235.28C96.3131 235.297 96.3491 235.314 96.3851 235.331C99.9391 236.957 104.164 235.45 105.867 231.916C107.587 228.346 106.106 224.063 102.543 222.331C100.991 221.57 64.3011 204.237 23.4781 226.962C20.0081 228.895 18.7601 233.275 20.6921 236.745C21.4671 238.137 22.6351 239.171 23.9801 239.786Z" fill="#73CF4A"/>
<path d="M91.709 168.661C92.606 169.071 93.603 169.303 94.654 169.309C110.239 169.404 123.254 175.767 123.379 175.829C126.905 177.58 131.254 176.139 133.018 172.579C134.782 169.02 133.327 164.704 129.768 162.94C129.115 162.617 113.61 155.038 94.742 154.923C90.769 154.899 87.53 158.1 87.506 162.072C87.486 164.994 89.213 167.519 91.709 168.661Z" fill="#73CF4A"/>
<path d="M34.1581 343.129C48.7521 341.087 53.6731 328.775 53.6731 328.775L154.371 108.606C176.279 118.626 185.916 144.509 175.896 166.417L175.336 167.641C167.741 184.247 165.632 202.778 168.915 220.741C174.024 248.693 171.618 272.897 156.047 300.963C140.346 329.264 114.939 353.686 73.9311 354.947C59.5871 355.388 45.6731 351.146 34.1581 343.129Z" fill="#007F6F"/>
<path d="M50.0351 336.729C53.6471 338.381 57.9161 336.792 59.5681 333.18L160.912 111.598C162.564 107.985 160.975 103.717 157.363 102.065C153.751 100.413 149.482 102.002 147.83 105.614L46.4851 327.196C44.8331 330.809 46.4221 335.077 50.0351 336.729Z" fill="#73CF4A"/>
<path d="M322.59 210.298C310.955 193.648 304.515 173.925 304.515 153.612V152.14C304.515 125.346 282.794 103.625 256 103.625C255.665 103.625 255.334 103.643 255 103.65V372.896C255 372.896 254.268 387.784 268.312 396.584C275.276 395.401 282.108 393.209 288.586 390.002C329.455 369.773 343.867 333.359 346.673 297.495C349.459 261.869 340.714 236.232 322.59 210.298Z" fill="#007F6F"/>
<path d="M269.098 396.443C255.282 387.626 256 372.897 256 372.897V103.625C229.206 103.625 207.485 125.346 207.485 152.14V153.637C207.485 173.946 201.046 193.666 189.416 210.315C171.318 236.223 162.555 261.817 165.321 297.408C168.11 333.297 182.51 369.751 223.403 389.997C237.707 397.079 253.742 399.224 269.098 396.443Z" fill="#00626B"/>
<path d="M208.16 345.627C206.875 345.627 205.571 345.316 204.361 344.662C200.474 342.559 199.028 337.705 201.13 333.819C220.088 298.768 253.302 292.958 254.706 292.728C259.069 292.011 263.181 294.969 263.894 299.329C264.607 303.678 261.669 307.782 257.327 308.511C256.169 308.714 230.289 313.539 215.204 341.43C213.756 344.108 211.003 345.626 208.16 345.627Z" fill="#73CF4A"/>
<path d="M184.801 282.626C183.156 282.626 181.497 282.121 180.069 281.071C176.51 278.454 175.745 273.447 178.361 269.887C209.141 228.014 254.262 228.582 256.188 228.628C260.605 228.732 264.101 232.397 263.998 236.814C263.894 241.224 260.226 244.708 255.835 244.625C254.214 244.588 216.936 244.425 191.254 279.365C189.686 281.496 187.26 282.626 184.801 282.626Z" fill="#73CF4A"/>
<path d="M220.402 179.355C217.35 179.356 214.435 177.6 213.102 174.636C211.289 170.607 213.084 165.871 217.114 164.057C236.251 155.445 255.439 155.939 256.25 155.962C260.666 156.1 264.134 159.792 263.996 164.208C263.858 168.619 260.16 172.084 255.768 171.955C255.605 171.951 239.343 171.6 223.681 178.648C222.615 179.128 221.499 179.355 220.402 179.355Z" fill="#73CF4A"/>
<path d="M256 382.625C251.582 382.625 248 379.043 248 374.625V103.625C248 99.207 251.582 95.625 256 95.625C260.418 95.625 264 99.207 264 103.625V374.625C264 379.043 260.418 382.625 256 382.625Z" fill="#73CF4A"/>
<path d="M303.84 359.627C300.997 359.627 298.244 358.107 296.796 355.431C281.533 327.211 254.973 322.562 254.706 322.518C250.347 321.804 247.391 317.69 248.105 313.329C248.819 308.97 252.93 306.006 257.294 306.728C258.698 306.959 291.912 312.768 310.87 347.819C312.972 351.705 311.525 356.559 307.639 358.662C306.429 359.317 305.125 359.627 303.84 359.627Z" fill="#A4E830"/>
<path d="M327.199 296.626C324.74 296.626 322.314 295.497 320.746 293.364C295.041 258.393 257.749 258.59 256.16 258.624C256.115 258.624 256.07 258.625 256.026 258.625C251.679 258.625 248.103 255.146 248.015 250.785C247.927 246.379 251.406 242.732 255.811 242.628C257.733 242.577 302.861 242.017 333.638 283.887C336.254 287.447 335.49 292.454 331.93 295.071C330.504 296.12 328.844 296.626 327.199 296.626Z" fill="#A4E830"/>
<path d="M291.598 193.355C290.5 193.355 289.385 193.128 288.32 192.649C272.513 185.535 256.405 185.951 256.251 185.956C251.875 186.096 248.143 182.626 248.005 178.209C247.867 173.793 251.335 170.101 255.751 169.963C256.561 169.938 275.749 169.445 294.887 178.058C298.916 179.872 300.712 184.608 298.899 188.637C297.564 191.599 294.649 193.355 291.598 193.355Z" fill="#A4E830"/>
<path d="M102.987 324.368C104.038 324.849 105.22 325.082 106.454 325C110.418 324.734 113.416 321.306 113.151 317.343C110.758 281.594 85.7731 264.423 84.7111 263.71C81.4121 261.492 76.9441 262.373 74.7291 265.671C72.5201 268.96 73.3881 273.414 76.6651 275.635C77.5361 276.234 96.8921 289.858 98.7961 318.304C98.9801 321.033 100.663 323.304 102.987 324.368Z" fill="#A4E830"/>
<path d="M145.647 281.591C146.992 282.206 148.537 282.413 150.097 282.089C153.986 281.281 156.484 277.472 155.676 273.583C146.168 227.835 109.062 211.426 107.47 210.743C103.82 209.176 99.5901 210.865 98.0231 214.515C96.4591 218.16 98.1561 222.38 101.777 223.954C103.116 224.53 133.658 238.338 141.59 276.51C142.075 278.841 143.636 280.671 145.647 281.591Z" fill="#A4E830"/>
<path d="M155.157 183.838C157.652 184.98 160.692 184.634 162.89 182.71C165.879 180.094 166.182 175.55 163.566 172.56C151.14 158.362 135.265 151.59 134.594 151.306C130.932 149.767 126.716 151.489 125.177 155.151C123.64 158.809 125.368 163.026 129.008 164.563C129.143 164.62 142.571 170.415 152.741 182.035C153.432 182.825 154.26 183.428 155.157 183.838Z" fill="#A4E830"/>
<path d="M396.417 12.338C396.787 5.97604 391.931 0.519037 385.569 0.148037C383.839 0.0470366 357.623 -1.30296 327.566 6.60104C324.905 11.782 321.401 22.738 335.203 28.516C361.127 22.048 383.876 23.167 384.243 23.187C390.581 23.534 396.048 18.695 396.417 12.338Z" fill="#A4E830"/>
</g>
<defs>
<clipPath id="clip0_1_153">
<rect width="512" height="512" fill="white"/>
</clipPath>
</defs>
</svg>
