<svg width="512" height="512" viewBox="0 0 512 512" fill="none" xmlns="http://www.w3.org/2000/svg">
<path d="M256 512C391.311 512 501.002 402.309 501.002 266.998C501.002 131.687 391.311 21.996 256 21.996C120.689 21.996 10.998 131.687 10.998 266.998C10.998 402.309 120.689 512 256 512Z" fill="#AAE7FA"/>
<path d="M264.773 384.625V348.204C264.773 322.143 270.362 295.846 281.401 269.906C283.5 264.974 281.332 259.265 276.489 256.967C271.35 254.529 265.213 256.866 262.986 262.1C250.895 290.519 244.772 319.437 244.772 348.204V384.625H264.773Z" fill="#007F6F"/>
<path d="M338.601 53.014C338.457 52.582 338.312 52.167 338.168 51.74C327.795 71.662 308.404 61.693 298.594 54.768C299.553 58.109 300.633 61.596 301.841 65.231C314.878 104.463 333.676 133.531 343.827 130.158C353.978 126.783 351.638 92.245 338.601 53.014Z" fill="#2BA870"/>
<path d="M299.273 122.153C315.715 160.084 321.088 194.282 311.273 198.536C301.458 202.79 280.173 175.49 263.731 137.559C247.289 99.628 247.087 77.358 256.901 73.103C266.716 68.849 282.831 84.222 299.273 122.153Z" fill="#2BA870"/>
<path d="M270.275 205.221C295.997 232.073 310.588 259.839 302.863 267.238C295.138 274.638 268.024 258.869 242.302 232.018C216.58 205.166 210.078 185.844 217.802 178.444C225.527 171.045 244.553 178.37 270.275 205.221Z" fill="#2BA870"/>
<path d="M270.32 279.259C291.107 287.747 305.286 301.174 301.989 309.25C298.692 317.325 279.167 316.991 258.38 308.503C237.593 300.015 229.951 289.257 233.248 281.181C236.545 273.105 249.533 270.771 270.32 279.259Z" fill="#2BA870"/>
<path d="M319.245 384.625V258.203C319.245 229.209 326.163 199.924 339.807 171.162C350.895 147.787 366.436 124.668 385.997 102.445C389.646 98.299 389.244 91.981 385.099 88.331C380.954 84.683 374.635 85.085 370.986 89.23C350.193 112.851 333.624 137.533 321.737 162.59C306.813 194.052 299.246 226.22 299.246 258.203V384.625H319.245Z" fill="#73CF4A"/>
<path d="M333.273 384.625C343.803 364.939 357.456 345.506 373.997 326.715C377.646 322.569 377.244 316.251 373.099 312.601C368.954 308.953 362.635 309.355 358.986 313.5C338.812 336.418 322.628 360.336 310.824 384.625H333.273Z" fill="#A4E830"/>
<path d="M441.169 71.641C429.399 71.567 421.413 68.542 417.414 62.598C413.298 56.478 414.181 48.336 415.741 42.381C415.648 42.454 415.557 42.523 415.464 42.596C382.989 68.179 362.029 95.73 368.649 104.132C375.268 112.535 406.96 98.608 439.435 73.025C440.025 72.56 440.593 72.102 441.169 71.641Z" fill="#73CF4A"/>
<path d="M426.569 162.934C419.934 155.513 417.15 148.25 418.318 141.311C419.592 133.745 425.344 127.951 430.047 124.368C428.346 124.277 426.622 124.196 424.843 124.134C383.527 122.703 349.733 130.21 349.363 140.9C348.993 151.59 382.186 161.417 423.503 162.848C424.541 162.884 425.557 162.91 426.569 162.934Z" fill="#73CF4A"/>
<path d="M377.126 210.7C377.538 202.305 383.825 195.405 388.665 191.3C348.726 190.325 316.544 197.72 316.183 208.15C315.823 218.54 347.169 228.111 386.86 229.955C380.079 223.697 376.805 217.24 377.126 210.7Z" fill="#73CF4A"/>
<path d="M363.643 289.504C336.289 292.986 313.222 288.794 312.12 280.141C311.019 271.488 332.301 261.651 359.654 258.17C387.008 254.688 401.474 259.975 402.575 268.628C403.677 277.28 390.997 286.022 363.643 289.504Z" fill="#A4E830"/>
<path d="M185.03 69.9401C178.544 67.4471 174.437 61.8971 172.02 57.2841C160.212 94.7211 158.392 126.906 168.173 130.157C178.245 133.504 196.827 104.906 209.851 66.1381C200.307 71.3211 191.974 72.6101 185.03 69.9401Z" fill="#73CF4A"/>
<path d="M224.82 141.902C217.58 137.996 214.029 129.64 212.309 123.133C196.199 160.67 190.997 194.318 200.726 198.535C210.196 202.64 230.345 177.362 246.519 141.506C237.868 144.877 230.593 145.017 224.82 141.902Z" fill="#73CF4A"/>
<path d="M249.756 224.299C244.099 218.244 243.938 208.633 244.617 202.262C243.662 203.224 242.7 204.204 241.725 205.221C216.002 232.073 201.412 259.839 209.137 267.238C216.861 274.638 243.976 258.869 269.698 232.018C270.443 231.241 271.167 230.471 271.88 229.707C261.762 231.008 254.33 229.196 249.756 224.299Z" fill="#73CF4A"/>
<path d="M241.679 305.759C220.892 314.247 206.713 327.674 210.01 335.75C213.307 343.825 232.832 343.491 253.619 335.003C274.406 326.515 282.048 315.757 278.751 307.681C275.455 299.605 262.467 297.271 241.679 305.759Z" fill="#73CF4A"/>
<path d="M172.194 171.162C185.838 199.924 192.756 229.209 192.756 258.203V384.625H212.756V258.203C212.756 226.221 205.189 194.052 190.265 162.59C178.378 137.533 161.809 112.851 141.016 89.23C137.367 85.085 131.048 84.683 126.903 88.331C122.757 91.98 122.355 98.299 126.005 102.445C145.565 124.668 161.106 147.788 172.194 171.162Z" fill="#007F6F"/>
<path d="M100.884 46.097C104.012 70.689 87.159 75.018 75.217 75.087C106.747 99.347 136.911 112.306 143.35 104.132C149.67 96.112 130.851 70.646 100.884 46.097Z" fill="#2BA870"/>
<path d="M88.497 162.848C129.814 161.417 163.007 151.591 162.637 140.9C162.267 130.209 128.473 122.703 87.157 124.134C45.841 125.565 25.639 134.941 26.009 145.632C26.379 156.323 47.181 164.279 88.497 162.848Z" fill="#2BA870"/>
<path d="M121.678 230.098C162.994 228.667 196.188 218.841 195.818 208.15C195.448 197.459 161.654 189.953 120.338 191.384C79.022 192.815 58.8201 202.191 59.1911 212.882C59.5601 223.573 80.362 231.529 121.678 230.098Z" fill="#2BA870"/>
<path d="M148.357 289.504C175.711 292.986 198.778 288.794 199.88 280.141C200.981 271.488 179.7 261.651 152.346 258.17C124.992 254.688 110.526 259.975 109.425 268.628C108.322 277.28 121.003 286.022 148.357 289.504Z" fill="#2BA870"/>
<path d="M266.303 472.057H390.11C391.257 471.306 392.398 470.547 393.531 469.777V437.85H118.468V469.777C149.794 491.065 186.311 505.277 225.726 510.136C227.074 488.964 244.806 472.057 266.303 472.057Z" fill="#3C224D"/>
<path d="M407.607 398.87H220.461C214.269 405.671 203.249 422.302 223.75 438.977H389.589C399.597 438.977 407.711 430.864 407.711 420.855V398.864C407.676 398.865 407.642 398.87 407.607 398.87Z" fill="#62387A"/>
<path d="M104.393 398.87C104.358 398.87 104.324 398.865 104.289 398.865V420.856C104.289 430.864 112.402 438.978 122.411 438.978H224.75C204.249 422.303 215.269 405.671 221.461 398.871H104.393V398.87Z" fill="#4A265D"/>
<path d="M418.873 388.603C418.873 394.825 413.829 399.869 407.607 399.869H104.393C98.1711 399.869 93.1271 394.825 93.1271 388.603C93.1271 382.381 98.1711 377.337 104.393 377.337H407.607C413.829 377.337 418.873 382.381 418.873 388.603Z" fill="#9739CF"/>
<path d="M256 512C306.154 512 352.779 496.916 391.612 471.057H265.303C243.512 471.057 225.588 488.428 224.677 510.006C234.935 511.315 245.387 512 256 512Z" fill="#4A265D"/>
<path d="M391.663 191.384C390.148 191.331 388.646 191.295 387.152 191.266C378.942 198.538 367.995 213.102 385.325 229.877C386.978 229.963 388.64 230.04 390.322 230.098C431.638 231.529 452.44 223.573 452.81 212.882C453.181 202.192 432.979 192.815 391.663 191.384Z" fill="#A4E830"/>
<path d="M485.991 145.632C486.35 135.262 467.351 126.129 428.501 124.285C420.016 131.086 409.402 144.592 425.199 162.896C465.379 164.051 485.626 156.174 485.991 145.632Z" fill="#A4E830"/>
<path d="M415.464 42.596C415.119 42.868 414.783 43.141 414.44 43.414C411.837 54.63 412.346 71.946 439.938 72.624C472.014 47.24 482.623 27.892 476.039 19.534C469.419 11.13 447.939 17.013 415.464 42.596Z" fill="#A4E830"/>
<path d="M211.286 0.423012C201.135 -2.94999 186.437 13.782 173.399 53.013C172.771 54.903 172.176 56.778 171.597 58.643C176.555 67.542 187.591 78.863 209.379 67.526C209.64 66.762 209.902 66.001 210.159 65.229C223.197 25.998 221.437 3.79601 211.286 0.423012Z" fill="#A4E830"/>
<path d="M294.197 178.444C286.651 171.215 268.315 178.051 243.49 203.405C242.555 214.65 244.728 233.62 270.811 230.839C295.595 204.604 301.808 185.735 294.197 178.444Z" fill="#A4E830"/>
<path d="M255.098 73.104C245.284 68.85 229.169 84.222 212.726 122.153C212.366 122.984 212.018 123.81 211.668 124.637C214.914 135.811 223.513 151.01 245.932 142.791C246.719 141.069 247.5 139.33 248.268 137.559C264.71 99.628 264.913 77.358 255.098 73.104Z" fill="#A4E830"/>
<path d="M76.524 76.083C88.478 75.941 105.077 71.456 101.859 46.896C100.12 45.459 98.349 44.024 96.536 42.596C64.061 17.013 42.581 11.13 35.961 19.533C29.342 27.936 40.09 47.442 72.564 73.025C73.887 74.067 75.206 75.081 76.524 76.083Z" fill="#73CF4A"/>
<path d="M338.373 52.3421C325.392 13.5981 310.806 -2.92994 300.714 0.424061C291.387 3.52406 289.154 22.5321 298.965 56.0291C308.953 62.9831 328.181 72.5401 338.373 52.3421Z" fill="#73CF4A"/>
</svg>
