<svg width="512" height="512" viewBox="0 0 512 512" fill="none" xmlns="http://www.w3.org/2000/svg">
<g clip-path="url(#clip0_1_269)">
<path d="M282.328 23.4129C277.509 22.8979 272.69 25.1059 270.237 29.2869C267.372 34.1689 262.07 37.4479 256 37.4479C249.93 37.4479 244.627 34.1699 241.763 29.2869C239.311 25.1069 234.492 22.8989 229.672 23.4129C106.744 36.5479 10.998 140.583 10.998 266.998C10.998 330.412 35.09 388.198 74.621 431.704H437.38C476.91 388.198 501.003 330.411 501.003 266.998C501.002 140.583 405.256 36.5479 282.328 23.4129Z" fill="#EF018E"/>
<path d="M186.928 300.331H325.072V335.405H186.928V300.331Z" fill="#007F6F"/>
<path d="M201.477 199.082C222.869 199.082 240.211 181.74 240.211 160.348C240.211 138.956 222.869 121.614 201.477 121.614C180.085 121.614 162.743 138.956 162.743 160.348C162.743 181.74 180.085 199.082 201.477 199.082Z" fill="#00626B"/>
<path d="M311.674 199.082C333.066 199.082 350.408 181.74 350.408 160.348C350.408 138.956 333.066 121.614 311.674 121.614C290.282 121.614 272.94 138.956 272.94 160.348C272.94 181.74 290.282 199.082 311.674 199.082Z" fill="#007F6F"/>
<path d="M479.153 58.08C464.453 26.188 423.487 -0.203991 391.709 15.195C363.989 28.627 364.455 49.466 371.573 64.952C372.676 67.352 372.375 70.16 370.789 72.272C370.639 72.472 370.471 72.653 370.303 72.834L370.789 73.272L396.704 91.668C401.688 82.127 426.674 40.986 479.153 58.08Z" fill="#BBE86D"/>
<path d="M396.327 91.401L454.5 132.697C454.5 132.697 468.22 140.928 482.684 132.632C480.545 120.938 479.99 106.758 483.628 91.18C486.221 80.076 484.019 68.115 478.597 56.896C425.007 39.795 400.275 83.542 396.327 91.401Z" fill="#A4E830"/>
<path d="M414.111 103.026L370.788 72.272C369.202 74.384 366.589 75.455 363.977 75.064C347.121 72.542 326.977 77.901 321.799 108.265C314.443 151.406 372.661 190.223 411.314 179.132C388.645 139.351 411.001 107.172 414.111 103.026Z" fill="#2BA870"/>
<path d="M484.497 140.754C483.751 137.94 483.081 134.913 482.526 131.717C468.12 139.863 454.5 131.698 454.5 131.698L413.464 102.567C413.464 102.567 385.911 136.61 410.449 179.368C413.931 178.442 417.266 177.129 420.384 175.377C437.743 165.628 454.838 162.71 468.237 162.401C479.423 162.143 487.366 151.569 484.497 140.754Z" fill="#73CF4A"/>
<path d="M190.201 108.265C185.024 77.901 164.879 72.542 148.023 75.064C145.411 75.455 142.798 74.383 141.212 72.272C141.105 72.129 141.019 71.976 140.923 71.828L140.212 72.272L116.093 88.677C125.453 97.733 154.676 131.902 122.824 180.55C158.072 176.189 196.242 143.687 190.201 108.265Z" fill="#73CF4A"/>
<path d="M123.912 180.413C156.104 131.095 125.537 96.6829 116.678 88.2789L83.512 110.837C63.242 124.624 61.567 154.347 80.729 169.638C81.142 169.967 81.566 170.293 82 170.614C82.017 170.627 82.031 170.639 82.048 170.652C85.214 172.013 88.411 173.577 91.617 175.378C101.01 180.653 112.33 182.033 123.912 180.413Z" fill="#A4E830"/>
<path d="M140.428 64.9519C147.546 49.4659 148.011 28.6259 120.292 15.1949C82.61 -3.06408 32.011 37.4339 27.606 76.1889C47.608 69.9879 81.539 65.8439 105.833 96.3349L141.213 72.2719C139.626 70.1599 139.325 67.3519 140.428 64.9519Z" fill="#2BA870"/>
<path d="M27.728 75.1509C26.997 80.5729 27.156 85.9709 28.372 91.1799C32.899 110.568 30.939 127.799 27.503 140.753C24.634 151.568 32.577 162.143 43.764 162.401C55.272 162.666 69.509 164.87 84.296 171.66C83.899 171.314 83.477 170.965 83.001 170.613C82.566 170.292 82.143 169.966 81.73 169.637C62.568 154.347 64.243 124.623 84.513 110.836L106.353 95.9809C82.075 64.8379 47.888 68.9269 27.728 75.1509Z" fill="#007F6F"/>
<path d="M216.436 377C216.837 377.333 217.244 377.667 217.667 378C217.667 378 177.43 435.527 224.644 509.995C234.913 511.307 245.375 512 256 512C327.897 512 392.56 481.03 437.379 431.704V377H216.436Z" fill="#63D9FA"/>
<path d="M74.621 431.704C113.049 473.997 166.073 502.774 225.73 510.126C178.385 435.595 218.667 378 218.667 378C218.243 377.667 217.837 377.333 217.436 377H74.621V431.704Z" fill="#01A2C3"/>
<path d="M397.109 333.311H212.898C205.543 341.603 194.548 359.8 217.667 378H437.38V373.582C437.379 351.341 419.35 333.311 397.109 333.311Z" fill="#AAE7FA"/>
<path d="M213.898 333.311H114.891C92.65 333.311 74.621 351.341 74.621 373.581V378H218.667C195.548 359.801 206.543 341.604 213.898 333.311Z" fill="#63D9FA"/>
<path d="M260.017 172.983C228.484 146.067 203.045 157.899 187.799 175.04C185.436 177.696 181.812 178.842 178.352 178.027C178.039 177.953 177.739 177.848 177.439 177.745L177.352 178.027L160.81 252.872C176.792 254.522 223.755 264.234 232.979 321.266C279.649 296.192 303.482 210.084 260.017 172.983Z" fill="#2BA870"/>
<path d="M234.044 320.694C224.837 262.344 176.275 253.219 161.048 251.797L149.176 305.514C149.176 305.514 144.237 332.253 163.733 349.021C177.08 339.899 194.483 331.345 216.001 327.349C222.311 326.176 228.352 323.888 234.044 320.694Z" fill="#73CF4A"/>
<path d="M129.602 220.461C147.059 220.582 160.899 224.48 167.577 226.782L178.353 178.026C174.893 177.211 172.16 174.569 171.231 171.138C165.234 148.996 147.746 127.057 107.517 137.078C64.11 147.89 44.208 203.979 52.277 248.587C80.526 225.391 109.398 220.333 129.602 220.461Z" fill="#73CF4A"/>
<path d="M150.175 305.514L153.32 291.286C129.782 292.002 111.338 301.696 97.706 313.018C107.864 324.44 114.969 336.298 119.886 346.849C126.247 360.5 143.574 364.579 155.357 355.2C158.107 353.011 161.094 350.805 164.305 348.634C145.323 331.845 150.175 305.514 150.175 305.514Z" fill="#007F6F"/>
<path d="M167.796 225.79C152.522 220.523 101.115 207.385 52.081 247.432C55.37 266.847 63.894 284.201 78.039 294.867C85.921 300.811 92.633 307.212 98.359 313.744C112.264 302.147 130.346 293.012 153.099 292.291L167.796 225.79Z" fill="#2BA870"/>
<path d="M361 303.947C361 303.947 367.727 328.909 400.634 331.208C408.357 318.926 419.085 306.084 433.962 294.867C480.466 259.8 466.329 152.483 404.485 137.078C364.256 127.058 346.768 148.996 340.771 171.138C339.842 174.569 337.109 177.212 333.649 178.026C332.44 178.311 331.214 178.342 330.026 178.167L361 303.947Z" fill="#A4E830"/>
<path d="M340.898 215.346C343.628 214.47 361.914 208.927 385.338 209.658C406.497 210.317 435.917 216.377 460.884 240.336C465.283 197.326 445.253 147.233 404.485 137.078C364.256 127.058 346.768 148.996 340.771 171.138C339.842 174.569 337.109 177.212 333.649 178.026C332.44 178.311 331.214 178.342 330.026 178.167L339.71 217.489C340.261 216.473 340.675 215.738 340.898 215.346Z" fill="#BBE86D"/>
<path d="M412.066 289.417C399.024 283.705 379.002 277.832 355.218 280.471L361 303.947C361 303.947 367.727 328.909 400.634 331.208C407.486 320.312 416.71 308.978 429.09 298.725C424.639 295.708 418.84 292.383 412.066 289.417Z" fill="#A4E830"/>
<path d="M461.006 239.064C409.885 190.546 340.222 214.515 340.222 214.515C340.222 214.515 339.901 215.066 339.354 216.05L355.459 281.447C388.161 277.853 414.87 290.347 428.29 299.389C430.112 297.857 431.998 296.346 433.962 294.866C450.112 282.688 458.941 261.794 461.006 239.064Z" fill="#DBF8A0"/>
<path d="M346.674 240.716L331.296 178.27C328.616 178.233 326.03 177.096 324.201 175.039C308.955 157.898 283.516 146.066 251.983 172.982C203.507 214.36 238.735 316.712 295.999 327.347C299.399 327.979 302.692 328.728 305.888 329.571C290.179 264.949 339.32 243.529 346.674 240.716Z" fill="#73CF4A"/>
<path d="M362 302.947L346.592 240.381C346.592 240.381 288.074 259.74 304.821 329.303C326.891 334.938 344.149 345.256 356.643 355.201C368.426 364.58 385.753 360.501 392.114 346.85C394.582 341.553 397.609 335.924 401.285 330.188C368.676 327.739 362 302.947 362 302.947Z" fill="#BBE86D"/>
<path d="M344.613 92.594C353.925 60.702 346.855 21.163 318.386 6.50996C289.029 -8.60004 271.469 5.21496 262.779 21.285C261.432 23.775 258.832 25.325 256.001 25.325C255.858 25.325 255.718 25.304 255.577 25.296V67.766C273.818 61.199 313.076 53.602 344.613 92.594Z" fill="#DBF8A0"/>
<path d="M255.576 66.7659V123.055C255.576 130.222 257.182 137.342 260.572 143.657C263.699 149.482 268.763 155.595 276.87 159.482C285.462 150.312 297.08 140.97 312.438 134.207C328.316 127.214 339.46 110.836 344.831 91.8579C313.257 52.5609 273.86 60.1839 255.576 66.7659Z" fill="#BBE86D"/>
<path d="M209.071 138.977C223.576 147.151 234.123 157.515 241.49 166.865C248.913 176.286 263.089 176.286 270.511 166.865C272.493 164.349 274.719 161.759 277.175 159.158C269.464 155.259 264.61 149.317 261.572 143.657C258.182 137.342 256.576 130.223 256.576 123.055V106.948C256.576 106.947 225.676 109.147 209.071 138.977Z" fill="#A4E830"/>
<path d="M166.416 89.02C171.45 109.191 182.899 126.867 199.562 134.206C203.352 135.875 206.909 137.705 210.256 139.647C225.129 113.279 251.184 108.724 256.575 108.053V55.344C241.782 50.972 195.778 42.105 166.416 89.02Z" fill="#73CF4A"/>
<path d="M249.222 21.285C240.532 5.21496 222.971 -8.60004 193.615 6.50996C165.991 20.728 158.513 58.377 166.599 89.734C195.969 43.145 241.814 51.98 256.576 56.344V25.286C256.384 25.3 256.195 25.325 256 25.325C253.169 25.325 250.568 23.775 249.222 21.285Z" fill="#A4E830"/>
</g>
<defs>
<clipPath id="clip0_1_269">
<rect width="512" height="512" fill="white"/>
</clipPath>
</defs>
</svg>
