<svg width="512" height="512" viewBox="0 0 512 512" fill="none" xmlns="http://www.w3.org/2000/svg">
<path d="M256 21.996C120.689 21.996 10.998 131.687 10.998 266.998C10.998 360.686 63.593 442.079 140.86 483.296H371.14C448.407 442.079 501.002 360.686 501.002 266.998C501.002 131.687 391.311 21.996 256 21.996Z" fill="#F5D001"/>
<path d="M381.638 401.144C366.658 398.966 357.826 382.966 357.738 382.804L329.295 348.57C321.709 339.447 318.862 330.534 320.834 322.078C323.535 310.498 334.69 302.338 341.218 298.447C332.795 294.61 325.226 290.738 319.088 286.934C311.517 282.242 301.593 282.81 294.968 288.763C291.343 292.02 289.203 296.296 288.579 300.754C287.804 306.281 283.404 310.376 277.836 310.752C273.344 311.055 268.926 312.883 265.417 316.265C259.004 322.446 257.726 332.303 261.862 340.192C268.17 352.221 274.358 369.281 280.001 387.624C294.045 433.276 350.911 448.613 385.876 416.074C392.026 410.351 396.741 403.843 400.104 396.913C393.8 400.587 387.624 402.01 381.638 401.144Z" fill="#00626B"/>
<path d="M365.095 308.43C356.294 305.014 347.817 301.489 340.096 297.937C328.932 304.724 306.557 322.793 328.525 349.21C356.858 383.281 356.858 383.281 356.858 383.281C356.858 383.281 372.786 412.721 399.299 398.504C416.311 365.825 402.393 322.907 365.095 308.43Z" fill="#007F6F"/>
<path d="M353.1 214.776C321.006 208.299 321.18 182.343 323.666 168.652C321.485 168.754 319.376 168.814 317.366 168.819C307.888 168.842 299.245 174.94 296.612 184.044C295.171 189.025 295.645 194.091 297.59 198.469C300.001 203.897 298.332 210.071 293.514 213.544C289.628 216.346 286.666 220.483 285.401 225.511C283.088 234.702 287.481 244.324 295.656 249.12C308.122 256.433 323.312 268.358 338.732 281.749C373.335 311.799 425.506 299.99 445.154 261.407C427.696 232.807 391.469 222.52 353.1 214.776Z" fill="#00626B"/>
<path d="M371.015 162.34C353.391 165.675 336.493 168.121 322.848 168.691C320.207 182.09 319.239 209.143 352.1 215.775C390.659 223.557 427.062 233.9 444.418 262.827C446.898 258.226 448.909 253.229 450.36 247.861C463.625 198.798 420.955 152.892 371.015 162.34Z" fill="#007F6F"/>
<path d="M443.704 270.91C444.157 270.91 444.617 270.866 445.079 270.774C448.87 270.019 451.332 266.334 450.577 262.542C450.049 259.889 449.236 257.211 448.161 254.584C442.394 240.5 429.862 229.926 414.637 226.297L311.855 201.796C307.756 200.7 267.421 191.146 253.82 233.794C252.645 237.477 254.678 241.415 258.362 242.59C262.041 243.763 265.983 241.733 267.158 238.048C277.277 206.324 306.866 214.906 308.122 215.285C308.258 215.326 308.394 215.363 308.532 215.396L411.391 239.916C422.242 242.502 431.144 249.968 435.206 259.887C435.941 261.685 436.494 263.498 436.848 265.277C437.51 268.607 440.434 270.91 443.704 270.91Z" fill="#2BA870"/>
<path d="M373.162 410.921C374.739 410.921 376.325 410.392 377.633 409.305C380.606 406.833 381.013 402.42 378.542 399.447C378.214 399.052 345.389 359.547 314.164 321.033C301.682 305.638 288.827 298.036 275.939 298.53C259.917 299.106 250.646 312.134 250.259 312.688C248.046 315.858 248.822 320.221 251.993 322.434C255.15 324.638 259.491 323.876 261.713 320.738C261.866 320.529 267.63 312.771 276.565 312.516C276.715 312.512 276.867 312.51 277.017 312.51C285.01 312.51 294.081 318.493 303.288 329.849C334.568 368.431 367.445 408 367.773 408.396C369.159 410.061 371.154 410.921 373.162 410.921Z" fill="#2BA870"/>
<path d="M380.316 232.314C381.098 232.314 381.893 232.182 382.671 231.904C408.276 222.756 422.079 193.958 422.654 192.736C424.301 189.239 422.801 185.068 419.302 183.422C415.809 181.776 411.64 183.273 409.992 186.766C409.809 187.148 397.971 211.571 377.96 218.721C374.319 220.022 372.423 224.028 373.724 227.668C374.746 230.529 377.442 232.314 380.316 232.314Z" fill="#2BA870"/>
<path d="M338.324 222.303C339.399 222.303 340.489 222.054 341.512 221.53C359.959 212.073 366.817 192.868 367.1 192.055C368.371 188.404 366.441 184.413 362.789 183.143C359.142 181.876 355.165 183.794 353.886 187.428C353.816 187.625 348.454 202.238 335.125 209.073C331.685 210.837 330.325 215.055 332.09 218.495C333.329 220.912 335.781 222.303 338.324 222.303Z" fill="#2BA870"/>
<path d="M380.324 281.922C383.695 281.922 386.666 279.481 387.224 276.045C392.443 243.972 376.145 219.821 375.449 218.81C373.258 215.623 368.899 214.82 365.715 217.009C362.534 219.197 361.726 223.544 363.904 226.728C364.123 227.052 377.683 247.516 373.407 273.797C372.786 277.612 375.376 281.209 379.192 281.83C379.572 281.892 379.95 281.922 380.324 281.922Z" fill="#2BA870"/>
<path d="M295.072 365.504C296.863 365.504 298.655 364.82 300.022 363.454C313.699 349.776 317.904 330.803 318.077 330.002C318.889 326.222 316.485 322.499 312.706 321.686C308.931 320.875 305.213 323.273 304.392 327.043C304.339 327.28 300.788 342.889 290.122 353.554C287.389 356.288 287.389 360.72 290.122 363.454C291.489 364.82 293.28 365.504 295.072 365.504Z" fill="#2BA870"/>
<path d="M345.169 356.049C353.817 356.049 364.251 354.64 374.976 349.925C378.515 348.369 380.122 344.239 378.567 340.699C377.01 337.161 372.884 335.553 369.341 337.108C348.174 346.415 328.154 339.758 327.955 339.691C324.296 338.44 320.317 340.39 319.066 344.048C317.815 347.706 319.766 351.686 323.423 352.937C324.03 353.145 332.76 356.049 345.169 356.049Z" fill="#2BA870"/>
<path d="M335.544 420.328C337.864 420.328 340.134 419.176 341.466 417.07C353.205 398.519 353.425 372.82 353.429 371.735C353.442 367.869 350.319 364.724 346.452 364.712C346.444 364.712 346.435 364.712 346.428 364.712C342.575 364.712 339.447 367.826 339.429 371.681C339.428 371.907 339.19 394.486 329.636 409.584C327.569 412.851 328.541 417.175 331.808 419.242C332.969 419.978 334.265 420.328 335.544 420.328Z" fill="#2BA870"/>
<path d="M256 285.78C260.097 285.78 263.739 283.868 266.108 280.895L264.594 167.415C264.594 161.012 262.403 155.821 256 155.821C249.597 155.821 247.406 161.012 247.406 167.415L245.892 280.895C248.261 283.867 251.903 285.78 256 285.78Z" fill="#A4E830"/>
<path d="M256 285.096C251.673 285.096 247.906 282.721 245.914 279.208L244.406 392.226C244.406 398.629 249.597 403.82 256 403.82C262.403 403.82 267.594 398.629 267.594 392.226L266.086 279.208C264.094 282.721 260.327 285.096 256 285.096Z" fill="#73CF4A"/>
<path d="M243.408 461.725C243.265 452.877 243.192 444.795 243.192 439.48C243.192 427.376 243.567 415.466 244.294 403.804C244.872 394.529 252.613 387.328 261.906 387.328H157.902C148.609 387.328 140.868 394.53 140.29 403.804C139.563 415.466 139.188 427.376 139.188 439.48C139.188 454.416 139.762 469.054 140.86 483.296C175.187 501.608 214.377 512 256 512C262.858 512 269.648 511.712 276.363 511.159C257.283 502.876 243.767 483.92 243.408 461.725Z" fill="#7B3723"/>
<path d="M323.66 461.725C323.517 452.877 323.444 444.795 323.444 439.48C323.444 427.376 323.819 415.466 324.546 403.804C325.124 394.529 332.865 387.328 342.158 387.328H259.906C250.614 387.328 242.872 394.53 242.294 403.804C241.567 415.466 241.192 427.376 241.192 439.48C241.192 444.795 241.265 452.877 241.408 461.725C241.769 484.042 255.434 503.084 274.681 511.293C296.752 509.627 317.999 505.024 338.051 497.896C329.311 488.351 323.885 475.679 323.66 461.725Z" fill="#99442D"/>
<path d="M323.546 403.804C322.819 415.466 322.444 427.376 322.444 439.48C322.444 444.795 322.517 452.877 322.66 461.725C322.888 475.812 328.421 488.59 337.308 498.167C349.017 494.047 360.321 489.067 371.14 483.296C372.238 469.054 372.812 454.416 372.812 439.48C372.812 427.376 372.436 415.466 371.71 403.804C371.132 394.529 363.391 387.328 354.098 387.328H341.159C331.865 387.328 324.124 394.53 323.546 403.804Z" fill="#F35922"/>
<path d="M276.856 139.828C264.423 132.621 257 119.768 257 105.443V60.947C257 34.137 274.047 12.761 281.75 4.471C273.816 1.596 265.174 0 256 0C200.537 0 164.331 58.024 188.508 107.94C198.223 127.997 206.459 147.394 210.612 162.609C213.336 172.587 222.22 179.955 232.562 180.136C238.22 180.235 243.421 178.293 247.479 174.998C252.51 170.912 259.489 170.912 264.52 174.998C268.578 178.294 273.78 180.235 279.437 180.136C289.778 179.955 298.663 172.587 301.387 162.609C302.98 156.774 305.177 150.32 307.824 143.454C297.594 146.617 286.498 145.417 276.856 139.828Z" fill="#00626B"/>
<path d="M280.711 4.09802C272.776 12.666 256 33.965 256 60.947V105.443C256 133.029 282.581 151.793 307.372 144.64C311.692 133.286 317.287 120.75 323.492 107.939C343.844 65.92 321.405 18.159 280.711 4.09802Z" fill="#007F6F"/>
<path d="M245.931 320.957C242.422 317.575 238.004 315.748 233.512 315.445C227.944 315.069 223.544 310.974 222.769 305.447C222.144 300.989 220.004 296.713 216.38 293.456C209.755 287.503 199.831 286.935 192.26 291.628C180.715 298.783 164.143 306.179 146.251 313.124C136.047 317.085 127.597 323.179 121.047 330.606C121.797 335.055 123.415 339.564 126.58 343.135C131.411 348.586 138.894 350.796 148.83 349.701C171.455 347.207 176.181 351.69 177.162 353.731C178.384 356.276 176.628 360.281 172.465 364.444C162.671 374.238 165.771 395.689 166.032 397.377C166.133 398.939 167.59 417.592 180.514 428.247C183.837 430.987 187.621 432.931 191.83 434.093C209.787 427.501 224.974 413.03 231.346 392.317C236.989 373.973 243.177 356.913 249.485 344.885C253.622 336.996 252.344 327.138 245.931 320.957Z" fill="#007F6F"/>
<path d="M194.258 433.14C169.263 427.966 167.525 397.213 167.525 397.213C167.525 397.213 163.97 375.058 173.525 365.503C183.08 355.948 183.391 344.384 148.666 348.208C129.53 350.315 123.721 339.393 122.36 329.161C99.045 354.015 97.996 395.194 125.473 420.765C145.294 439.213 172.152 442.267 194.258 433.14Z" fill="#00626B"/>
<path d="M225.946 230.206C224.68 225.177 221.718 221.04 217.833 218.239C213.016 214.766 211.346 208.591 213.757 203.164C215.702 198.786 216.176 193.72 214.735 188.739C212.102 179.634 203.459 173.537 193.981 173.514C182.893 173.487 169.049 171.919 154.144 169.478C151.177 172.236 148.145 176.131 146.921 181.195C145.234 188.179 147.39 195.691 153.33 203.521C157.948 209.609 159.403 214.883 157.653 219.199C153.984 228.25 137.563 230.853 137.397 230.878L136.608 230.999L136.266 231.721C136.024 232.235 130.289 244.478 127.552 260.019C124.41 277.857 126.666 292.583 134.034 303.095C147.61 301.817 161.087 296.457 172.615 286.446C188.035 273.055 203.224 261.13 215.691 253.817C223.867 249.019 228.26 239.397 225.946 230.206Z" fill="#007F6F"/>
<path d="M60.987 252.555C70.432 287.491 103.566 306.745 135.719 302.911C116.536 276.984 137.623 232.36 137.623 232.36C137.623 232.36 173.022 226.996 154.525 202.614C142.094 186.229 149.721 175.235 156.061 169.787C150.929 168.968 145.666 168.043 140.331 167.034C90.392 157.585 47.722 203.491 60.987 252.555Z" fill="#00626B"/>
<path d="M67.643 275.604C67.19 275.604 66.73 275.56 66.268 275.468C62.477 274.713 60.015 271.028 60.77 267.236C61.298 264.583 62.111 261.905 63.186 259.278C68.953 245.194 81.485 234.62 96.71 230.991L199.492 206.49C203.591 205.394 243.926 195.84 257.527 238.488C258.702 242.171 256.669 246.109 252.985 247.284C249.306 248.457 245.364 246.427 244.189 242.742C234.07 211.018 204.481 219.6 203.225 219.979C203.089 220.02 202.953 220.057 202.815 220.09L99.956 244.61C89.105 247.196 80.203 254.662 76.142 264.581C75.407 266.379 74.854 268.192 74.5 269.971C73.837 273.3 70.913 275.604 67.643 275.604Z" fill="#2BA870"/>
<path d="M138.185 415.614C136.608 415.614 135.022 415.085 133.714 413.998C130.741 411.526 130.334 407.113 132.805 404.14C133.133 403.745 165.958 364.24 197.183 325.726C209.665 310.331 222.52 302.729 235.408 303.223C251.429 303.799 260.701 316.827 261.088 317.381C263.301 320.551 262.525 324.914 259.354 327.127C256.197 329.331 251.856 328.569 249.634 325.431C249.481 325.222 243.717 317.464 234.782 317.209C234.632 317.205 234.48 317.203 234.33 317.203C226.337 317.203 217.266 323.186 208.059 334.542C176.779 373.124 143.902 412.693 143.574 413.089C142.187 414.754 140.193 415.614 138.185 415.614Z" fill="#2BA870"/>
<path d="M256 181.366C252.134 181.366 249 178.232 249 174.366V64.361C249 44.927 255.073 26.372 266.563 10.699L270.86 4.83804C273.145 1.72104 277.527 1.04604 280.644 3.33104C283.762 5.61704 284.437 9.99704 282.151 13.115L277.854 18.976C268.137 32.231 263 47.926 263 64.361V174.366C263 178.232 259.866 181.366 256 181.366Z" fill="#2BA870"/>
<path d="M256.007 103.448C253.732 103.448 251.501 102.341 250.156 100.299C238.67 82.8749 210.137 65.6209 209.85 65.4489C206.536 63.4589 205.461 59.1599 207.45 55.8449C209.438 52.5309 213.736 51.4539 217.052 53.4419C218.333 54.2099 248.595 72.4929 261.846 92.5929C263.973 95.8209 263.081 100.162 259.854 102.29C258.666 103.074 257.329 103.448 256.007 103.448Z" fill="#2BA870"/>
<path d="M255.993 125.402C254.671 125.402 253.334 125.028 252.147 124.246C248.919 122.118 248.028 117.776 250.155 114.549C263.406 94.448 293.668 76.166 294.949 75.398C298.266 73.411 302.565 74.488 304.552 77.802C306.539 81.117 305.464 85.415 302.15 87.404C301.863 87.576 273.331 104.83 261.844 122.254C260.499 124.295 258.268 125.402 255.993 125.402Z" fill="#2BA870"/>
<path d="M256.004 152.025C253.962 152.025 251.938 151.135 250.554 149.423C244.297 141.674 229.048 133.184 223.701 130.566C220.228 128.867 218.791 124.673 220.491 121.202C222.191 117.728 226.384 116.291 229.855 117.992C230.754 118.431 251.978 128.901 261.447 140.626C263.876 143.634 263.406 148.041 260.399 150.471C259.103 151.517 257.549 152.025 256.004 152.025Z" fill="#2BA870"/>
<path d="M131.031 237.007C130.249 237.007 129.454 236.875 128.676 236.597C103.071 227.449 89.268 198.651 88.693 197.429C87.046 193.932 88.546 189.761 92.045 188.115C95.538 186.469 99.707 187.966 101.356 191.459C101.539 191.841 113.377 216.264 133.388 223.414C137.029 224.715 138.925 228.721 137.624 232.361C136.601 235.223 133.905 237.007 131.031 237.007Z" fill="#2BA870"/>
<path d="M173.022 226.996C171.947 226.996 170.857 226.747 169.834 226.223C151.387 216.766 144.529 197.561 144.246 196.748C142.976 193.097 144.905 189.106 148.557 187.836C152.205 186.569 156.181 188.487 157.46 192.121C157.53 192.318 162.892 206.931 176.221 213.766C179.661 215.53 181.021 219.748 179.256 223.188C178.018 225.605 175.565 226.996 173.022 226.996Z" fill="#2BA870"/>
<path d="M131.022 286.615C127.651 286.615 124.68 284.174 124.122 280.738C118.903 248.665 135.201 224.514 135.897 223.503C138.088 220.316 142.447 219.513 145.631 221.702C148.812 223.89 149.62 228.237 147.443 231.421C147.224 231.745 133.664 252.209 137.94 278.49C138.561 282.305 135.971 285.902 132.155 286.523C131.774 286.585 131.396 286.615 131.022 286.615Z" fill="#2BA870"/>
<path d="M216.275 370.197C214.484 370.197 212.692 369.513 211.325 368.147C197.648 354.469 193.443 335.496 193.27 334.695C192.458 330.915 194.862 327.192 198.641 326.379C202.416 325.568 206.134 327.966 206.955 331.736C207.008 331.973 210.559 347.582 221.225 358.247C223.958 360.981 223.958 365.413 221.225 368.147C219.858 369.514 218.066 370.197 216.275 370.197Z" fill="#2BA870"/>
<path d="M166.178 360.742C157.53 360.742 147.096 359.333 136.371 354.618C132.832 353.062 131.225 348.932 132.78 345.392C134.337 341.854 138.463 340.246 142.006 341.801C163.173 351.108 183.193 344.451 183.392 344.384C187.051 343.133 191.03 345.083 192.281 348.741C193.532 352.399 191.581 356.379 187.924 357.63C187.317 357.838 178.587 360.742 166.178 360.742Z" fill="#2BA870"/>
<path d="M175.803 425.022C173.483 425.022 171.213 423.87 169.881 421.764C158.142 403.213 157.922 377.514 157.918 376.429C157.905 372.563 161.028 369.418 164.895 369.406H164.92C168.772 369.406 171.901 372.52 171.919 376.375C171.92 376.6 172.158 399.18 181.712 414.278C183.779 417.545 182.807 421.869 179.54 423.936C178.378 424.671 177.082 425.022 175.803 425.022Z" fill="#2BA870"/>
</svg>
