<svg width="512" height="512" viewBox="0 0 512 512" fill="none" xmlns="http://www.w3.org/2000/svg">
<g clip-path="url(#clip0_1_372)">
<path d="M256 21.996C120.689 21.996 10.998 131.687 10.998 266.998C10.998 362.581 65.739 445.369 145.576 485.75L366.428 485.749C446.263 445.368 501.002 362.58 501.002 266.998C501.002 131.687 391.311 21.996 256 21.996Z" fill="#121D4C"/>
<path d="M404.356 32.8185C406.234 20.6056 381.946 6.73403 350.106 1.83554C318.266 -3.06296 290.931 2.86657 289.052 15.0795C287.173 27.2924 311.461 41.1639 343.302 46.0624C375.142 50.9609 402.477 45.0314 404.356 32.8185Z" fill="#BBE86D"/>
<path d="M248.242 344.614C231.2 324.002 223.632 299.668 222.874 274.058C218.358 284.436 212.826 298.217 207.333 314.614C202.258 329.765 195.705 339.174 190.78 344.614H248.242Z" fill="#7B3723"/>
<path d="M276.929 192.763C266.827 190.09 258.062 174.368 252.747 151.595C247.993 166.44 242.504 182.378 236.304 198.529C230.234 214.342 225.758 230.565 223.487 246.633C232.827 259.378 249.502 272.157 271.34 247.983C270.374 230.73 271.859 213.803 275.572 198.529C276.033 196.636 276.484 194.711 276.929 192.763Z" fill="#F35922"/>
<path d="M308.473 344.614C284.759 317.851 273.054 281.733 271.293 247.038C249.577 271.031 232.972 258.483 223.616 245.805C218.402 281.522 224.022 316.525 247.245 344.614H308.473Z" fill="#99442D"/>
<path d="M214.477 46.0362C246.317 41.1377 270.606 27.2661 268.727 15.0532C266.848 2.84034 239.513 -3.08916 207.673 1.80933C175.833 6.70782 151.544 20.5793 153.423 32.7922C155.302 45.0052 182.637 50.9347 214.477 46.0362Z" fill="#007F6F"/>
<path d="M321.833 141.614C334.628 141.614 345 128.63 345 112.614C345 96.5978 334.628 83.614 321.833 83.614C309.038 83.614 298.666 96.5978 298.666 112.614C298.666 128.63 309.038 141.614 321.833 141.614Z" fill="#007F6F"/>
<path d="M135.64 404.512C135.64 404.512 134.133 441.342 145.575 485.75C174.155 500.206 205.951 509.217 239.605 511.441C236.094 497.349 233.759 483.421 232.218 471.405C230.876 460.945 233.949 450.393 240.648 442.455C247.346 434.519 257.02 429.967 267.189 429.967H357.233C365.211 429.967 370.972 433.808 374.872 437.955C376.905 417.765 376.36 404.512 376.36 404.512C362.989 404.512 149.011 404.512 135.64 404.512Z" fill="#01A2C3"/>
<path d="M357.233 429.549H267.189C245.608 429.549 228.971 449.265 231.818 471.46C233.388 483.694 235.721 497.525 239.171 511.414C244.733 511.791 250.342 512 256 512C295.729 512 333.244 502.533 366.428 485.749C371.073 467.723 373.587 450.945 374.93 437.374C370.986 433.274 365.214 429.549 357.233 429.549Z" fill="#63D9FA"/>
<path d="M376.36 343.614H252.488C235.449 343.614 221.636 357.427 221.636 374.466C221.636 391.505 235.449 405.318 252.488 405.318H376.36C383.365 405.318 389.043 399.64 389.043 392.635V356.297C389.043 349.292 383.364 343.614 376.36 343.614Z" fill="#AAE7FA"/>
<path d="M222.442 374.466C222.442 357.427 236.255 343.614 253.294 343.614H135.64C128.635 343.614 122.957 349.292 122.957 356.297V392.635C122.957 399.64 128.635 405.318 135.64 405.318H253.294C236.255 405.318 222.442 391.505 222.442 374.466Z" fill="#63D9FA"/>
<path d="M389.531 126.869C400.838 115.562 386.106 82.4963 356.626 53.0158C327.145 23.5353 294.08 8.80309 282.772 20.1106C271.465 31.4181 286.197 64.4833 315.677 93.9638C345.158 123.444 378.223 138.176 389.531 126.869Z" fill="#A4E830"/>
<path d="M242.248 93.9525C271.728 64.472 286.46 31.4067 275.153 20.0993C263.845 8.79178 230.78 23.5239 201.3 53.0045C171.819 82.485 157.087 115.55 168.395 126.858C179.702 138.165 212.767 123.433 242.248 93.9525Z" fill="#2BA870"/>
<path d="M279 194.174C297.04 194.174 311.665 152.677 311.665 101.489C311.665 50.3004 297.04 8.80396 279 8.80396C260.96 8.80396 246.335 50.3004 246.335 101.489C246.335 152.677 260.96 194.174 279 194.174Z" fill="#73CF4A"/>
<path d="M435.761 149.702C438.308 138.191 416.046 123.476 386.037 116.835C356.028 110.194 329.636 114.141 327.089 125.651C324.542 137.162 346.804 151.877 376.812 158.518C406.821 165.159 433.213 161.212 435.761 149.702Z" fill="#BBE86D"/>
<path d="M331.13 187.617C337.771 157.607 333.824 131.215 322.313 128.667C310.803 126.12 296.088 148.382 289.447 178.392C282.805 208.401 286.752 234.794 298.263 237.341C309.773 239.888 324.488 217.626 331.13 187.617Z" fill="#2BA870"/>
<path d="M393.797 235.107C405.011 227.95 397.64 196.353 377.333 164.534C357.026 132.715 331.473 112.722 320.259 119.879C309.045 127.036 316.416 158.632 336.723 190.452C357.03 222.271 382.583 242.264 393.797 235.107Z" fill="#A4E830"/>
</g>
<defs>
<clipPath id="clip0_1_372">
<rect width="512" height="512" fill="white"/>
</clipPath>
</defs>
</svg>
