<svg width="512" height="512" viewBox="0 0 512 512" fill="none" xmlns="http://www.w3.org/2000/svg">
<g clip-path="url(#clip0_1_391)">
<path d="M392.226 470.656C457.819 426.694 501.002 351.892 501.002 266.998C501.002 131.687 391.311 21.996 256 21.996C120.689 21.996 10.998 131.687 10.998 266.998C10.998 351.892 54.181 426.694 119.774 470.656H392.226Z" fill="#AAE7FA"/>
<path d="M256 165.46C264.177 165.46 270.665 162.067 274.768 156.512L274.396 124.281C274.396 113.063 267.218 104.885 256 104.885C244.782 104.885 237.604 113.063 237.604 124.281L237.232 156.512C241.335 162.066 247.823 165.46 256 165.46Z" fill="#007F6F"/>
<path d="M256 164.471C247.379 164.471 240.804 160.352 237.263 153.83L235.604 297.589H276.396L274.737 153.83C271.196 160.352 264.621 164.471 256 164.471Z" fill="#00626B"/>
<path d="M226.517 451.012C224.853 438.514 228.662 425.906 236.968 416.421C245.272 406.939 257.265 401.5 269.871 401.5H381.5C391.391 401.5 398.533 406.089 403.367 411.044C405.888 386.92 405.212 371.084 405.212 371.084C388.636 371.084 123.364 371.084 106.788 371.084C106.788 371.084 104.848 416.479 119.774 470.655C154.365 493.838 195.187 508.439 239.199 511.421C232.818 490.434 228.904 468.942 226.517 451.012Z" fill="#3C224D"/>
<path d="M403.439 410.349C398.551 405.452 391.395 401 381.5 401H269.871C243.117 401 222.491 424.557 226.021 451.078C228.459 469.391 232.376 490.7 238.649 511.386C244.381 511.787 250.166 512 256 512C306.417 512 353.272 496.764 392.226 470.656C398.422 448.166 401.71 427.193 403.439 410.349Z" fill="#4A265D"/>
<path d="M405.212 295.588H251.646C230.522 295.588 213.398 312.712 213.398 333.836C213.398 354.96 230.522 372.084 251.646 372.084H405.212C413.896 372.084 420.935 365.044 420.935 356.361V311.312C420.936 302.628 413.896 295.588 405.212 295.588Z" fill="#9739CF"/>
<path d="M214.398 333.837C214.398 312.713 231.522 295.589 252.646 295.589H106.788C98.1039 295.589 91.0649 302.629 91.0649 311.312V356.361C91.0649 365.045 98.1049 372.084 106.788 372.084H252.646C231.522 372.085 214.398 354.96 214.398 333.837Z" fill="#62387A"/>
<path d="M255 289.408C255 298.414 257.739 307.289 263.221 314.434C267.554 320.081 274.03 325.44 283.595 327.691C306.764 314.325 322.947 285.71 323.071 258.628C323.12 247.9 320.646 237.751 316.207 228.741C306.599 209.24 285.276 198.841 263.753 201.904C261.291 202.254 258.789 202.431 256.256 202.419C255.836 202.417 255.419 202.402 255.001 202.39V289.408H255Z" fill="#007F6F"/>
<path d="M331.96 77.556L264.953 130.379C261.05 133.457 260.38 139.115 263.457 143.02C265.233 145.272 267.869 146.448 270.531 146.448C272.481 146.448 274.446 145.817 276.097 144.516L331.418 100.905C329.306 93.084 329.607 85.021 331.96 77.556Z" fill="#73CF4A"/>
<path d="M408.525 103.885L350.277 50.988C350.04 51.251 349.823 51.526 349.579 51.784C348.093 53.357 346.509 54.799 344.841 56.115C330.262 67.613 324.121 86.921 330.511 104.354C333.463 112.408 338.278 119.919 344.938 126.213C367.932 147.942 410.411 152.797 432.14 129.803C437.894 123.714 441.597 116.276 443.533 108.236C426.13 116.849 408.525 103.885 408.525 103.885Z" fill="#007F6F"/>
<path d="M378.83 170.815L273.79 171.614C268.819 171.652 264.821 175.712 264.858 180.682C264.896 185.629 268.918 189.614 273.857 189.614H273.926L359.188 188.965C363.922 181.353 370.709 175.071 378.83 170.815Z" fill="#73CF4A"/>
<path d="M433.525 247.326C433.525 247.326 444.818 267.394 471.682 265.523C486.026 244.073 488.83 213.002 478.6 189.101C474.379 179.238 468.074 170.91 460.418 164.408C443.848 150.335 420.148 149.273 401.618 160.641C399.498 161.941 397.273 163.098 394.944 164.095C394.223 164.404 393.496 164.688 392.767 164.962L433.525 247.326Z" fill="#2BA870"/>
<path d="M180.04 77.556L247.047 130.379C250.95 133.457 251.62 139.115 248.543 143.02C246.767 145.272 244.131 146.448 241.469 146.448C239.519 146.448 237.554 145.817 235.903 144.516L180.582 100.905C182.694 93.084 182.393 85.021 180.04 77.556Z" fill="#73CF4A"/>
<path d="M167.158 56.114C165.49 54.799 163.907 53.356 162.42 51.783C162.208 51.559 162.02 51.32 161.813 51.092L106.351 98.261C97.1341 106.1 92.8011 118.46 95.6961 130.208C96.6321 134.007 98.2761 138.106 100.903 142.442C122.856 148.99 150.196 142.148 167.06 126.211C173.72 119.918 178.534 112.407 181.487 104.352C187.878 86.92 181.737 67.611 167.158 56.114Z" fill="#007F6F"/>
<path d="M133.17 170.815L238.21 171.614C243.181 171.652 247.179 175.712 247.142 180.682C247.104 185.629 243.082 189.614 238.143 189.614C238.121 189.614 238.097 189.614 238.074 189.614L152.812 188.965C148.078 181.353 141.291 175.071 133.17 170.815Z" fill="#73CF4A"/>
<path d="M162.033 211.678C160.774 189.975 145.18 172.096 124.163 166.539C121.759 165.903 119.386 165.092 117.056 164.095C116.808 163.989 116.567 163.874 116.321 163.765L116.056 164.095L83.0052 241.172C76.9662 255.256 75.5672 271.002 79.6202 285.78C80.0402 287.312 80.5222 288.856 81.0732 290.402C111.52 292.979 144.404 270.661 156.722 241.879C160.942 232.016 162.614 221.705 162.033 211.678Z" fill="#007F6F"/>
<path d="M255 70.632C255 80.681 259.442 90.355 267.432 96.45C271.294 99.396 276.269 101.839 282.605 102.932C299.934 91.06 311.749 68.846 311.845 47.747C311.886 38.822 309.828 30.378 306.135 22.882C298.14 6.65897 280.4 -1.99303 262.493 0.555974C260.444 0.847974 258.363 0.993974 256.255 0.984974C255.835 0.982974 255.417 0.969974 254.999 0.955974V70.632H255Z" fill="#2BA870"/>
<path d="M283.923 101.99C277.434 100.925 272.359 98.447 268.432 95.451C260.442 89.356 256 79.682 256 69.632V0.978004C253.98 0.957004 251.985 0.796004 250.022 0.498004C232.139 -2.213 214.321 6.276 206.18 22.427C202.419 29.889 200.284 38.314 200.243 47.239C200.103 78.057 224.934 111.494 255.751 111.634C266.012 111.682 275.635 108.018 283.923 101.99Z" fill="#007F6F"/>
<path d="M423.626 42.942C416.966 36.649 409.195 32.266 400.987 29.774C383.22 24.38 364.29 31.603 353.635 46.809C352.476 48.463 351.19 50.041 349.789 51.544L408.525 104.885C408.525 104.885 425.947 117.718 443.261 109.372C449.204 86.84 440.818 59.188 423.626 42.942Z" fill="#2BA870"/>
<path d="M434.525 246.326L394.019 164.471C391.987 165.294 389.925 165.987 387.837 166.539C366.82 172.096 351.226 189.975 349.967 211.678C349.385 221.705 351.057 232.017 355.278 241.88C369.852 275.934 413.218 300.943 447.273 286.369C457.789 281.869 466.18 274.114 472.337 264.55C445.72 266.226 434.525 246.326 434.525 246.326Z" fill="#007F6F"/>
<path d="M264.221 313.435C258.739 306.29 256 297.414 256 288.409V202.414C253.554 202.391 251.138 202.197 248.762 201.836C227.268 198.577 205.851 208.781 196.066 228.194C191.545 237.163 188.979 247.289 188.93 258.017C188.761 295.059 218.607 335.249 255.649 335.418C266.197 335.466 276.189 332.26 285.093 326.8C275.257 324.619 268.628 319.179 264.221 313.435Z" fill="#00626B"/>
<path d="M158.365 46.809C147.71 31.603 128.78 24.38 111.013 29.774C102.805 32.266 95.0341 36.649 88.3741 42.942C65.3801 64.671 58.1301 106.807 79.8591 129.801C85.9491 136.245 93.6691 140.5 102.132 142.811C99.3741 138.339 97.6591 134.114 96.6971 130.208C93.8031 118.46 98.1351 106.099 107.352 98.261L162.241 51.579C160.829 50.065 159.533 48.475 158.365 46.809Z" fill="#00626B"/>
<path d="M64.7261 286.368C70.3221 288.763 76.1701 290.083 82.0991 290.475C81.5371 288.904 81.0461 287.336 80.6191 285.78C76.5671 271.002 77.9651 255.256 84.0041 241.172L117.055 164.095C114.726 163.098 112.501 161.942 110.381 160.641C91.8511 149.273 68.1511 150.335 51.5811 164.408C43.9261 170.91 37.6201 179.238 33.3991 189.101C18.8251 223.155 30.6721 271.794 64.7261 286.368Z" fill="#00626B"/>
</g>
<defs>
<clipPath id="clip0_1_391">
<rect width="512" height="512" fill="white"/>
</clipPath>
</defs>
</svg>
