<svg width="512" height="512" viewBox="0 0 512 512" fill="none" xmlns="http://www.w3.org/2000/svg">
<g clip-path="url(#clip0_1_417)">
<path d="M437.379 431.704C476.909 388.198 501.002 330.411 501.002 266.998C501.002 131.687 391.311 21.996 256 21.996C120.689 21.996 10.998 131.687 10.998 266.998C10.998 330.412 35.09 388.198 74.621 431.704H437.379Z" fill="#F5D001"/>
<path d="M208.384 239.551C208.263 239.687 208.148 239.823 208.025 239.959C203.05 245.478 198.668 251.012 194.657 256.508C204.467 276.486 212.583 302.406 214.995 335.313H235.027C232.147 293.451 220.658 261.948 208.384 239.551Z" fill="#2BA870"/>
<path d="M263.522 216.526C254.58 247.218 247.341 286.508 245.74 335.311H265.75C267.092 295.678 272.273 262.768 278.976 235.965C274.32 229.514 269.251 223.014 263.522 216.526Z" fill="#73CF4A"/>
<path d="M216.436 377C216.837 377.333 217.244 377.667 217.667 378C217.667 378 177.43 435.527 224.644 509.995C234.913 511.307 245.375 512 256 512C327.897 512 392.56 481.031 437.379 431.704V377H216.436Z" fill="#99442D"/>
<path d="M74.6211 431.704C113.049 473.997 166.073 502.774 225.73 510.126C178.385 435.595 218.667 378 218.667 378C218.243 377.667 217.837 377.333 217.436 377H74.6211V431.704Z" fill="#7B3723"/>
<path d="M397.109 333.311H212.898C205.543 341.603 194.548 359.8 217.667 378H437.38V373.581C437.379 351.341 419.35 333.311 397.109 333.311Z" fill="#F35922"/>
<path d="M213.898 333.311H114.891C92.6501 333.311 74.6211 351.34 74.6211 373.581V378H218.667C195.548 359.801 206.543 341.604 213.898 333.311Z" fill="#99442D"/>
<path d="M446.584 331.742C429.846 321.923 426.14 301.482 426.105 301.277L426.094 301.212L371.707 126.656L352.669 63.953C346.16 65.893 338.659 64.493 333.238 58.852C325.69 50.997 318.383 44.675 311.372 39.627C284.826 20.512 248.876 46.376 259.027 77.473C261.687 85.622 262.064 93.771 258.164 100.862C243.443 127.63 223.074 172.747 260.993 214.807C298.912 256.868 308.186 299.703 356.368 326.201C375.66 336.811 394.028 349.029 409.119 359.866C427.989 373.417 454.528 365.711 463.206 344.162C464.146 341.827 465.127 339.434 466.141 337.001C458.819 336.831 452.28 335.084 446.584 331.742Z" fill="#00626B"/>
<path d="M436.486 112.004C430.696 90.568 435.89 72.275 451.926 57.632C455.13 54.706 458.469 52.23 461.65 50.165C458.299 48.127 455.041 46.275 451.975 44.589C444.884 40.689 440.838 33.606 438.72 25.299C430.638 -6.39898 386.427 -8.98798 374.246 21.372C371.029 29.39 368.244 38.642 366.076 49.318C364.464 57.256 358.533 62.545 351.7 64.211L370.748 126.947L425.117 301.447C425.117 301.447 431.215 336.913 465.728 337.991C472.27 322.217 480.356 304.514 489.724 287.481C509.852 250.881 505.975 218.343 507.109 180.345C464.435 184.647 449.587 160.507 436.486 112.004Z" fill="#007F6F"/>
<path d="M460.693 49.585C445.393 59.664 426.617 79.297 435.521 112.264C448.182 159.142 462.511 185.683 507.081 181.335C507.422 169.011 508.266 156.119 510.611 142.33C519.124 92.285 486.769 65.253 460.693 49.585Z" fill="#2BA870"/>
<path d="M310.036 209.634C308.126 210.189 306.02 210.117 304.043 209.285C299.461 207.358 297.309 202.081 299.236 197.5C324.995 136.257 374.963 137.941 377.077 138.043C382.042 138.282 385.873 142.5 385.634 147.465C385.395 152.414 381.202 156.233 376.263 156.025C374.522 155.967 336.499 155.331 315.827 204.478C314.733 207.084 312.554 208.903 310.036 209.634Z" fill="#BBE86D"/>
<path d="M351.258 273.232C349.054 273.872 346.606 273.675 344.433 272.486C340.071 270.103 338.467 264.635 340.851 260.273C363.909 218.076 395.437 212.585 396.773 212.369C401.681 211.583 406.297 214.925 407.083 219.833C407.864 224.715 404.56 229.316 399.696 230.13C398.52 230.343 375.132 235.074 356.645 268.905C355.45 271.093 353.478 272.587 351.258 273.232Z" fill="#BBE86D"/>
<path d="M339.336 118.358C353.103 123.477 363.818 135.135 368.002 149.543L385.288 144.524C379.524 124.671 364.691 108.582 345.611 101.486C328.78 95.227 317.865 85.325 311.673 78.12C308.433 74.351 302.754 73.92 298.981 77.162C295.212 80.402 294.783 86.085 298.023 89.854C305.596 98.663 318.911 110.76 339.336 118.358Z" fill="#BBE86D"/>
<path d="M299.276 130.614C296.446 131.436 293.27 130.853 290.875 128.783C287.113 125.533 286.698 119.85 289.947 116.089C304.009 99.811 324.501 94.402 325.364 94.173C330.178 92.935 335.084 95.833 336.323 100.648C337.537 105.37 334.77 110.182 330.121 111.532C330.039 111.556 329.958 111.578 329.875 111.599C329.578 111.678 313.823 115.985 303.57 127.855C302.389 129.221 300.889 130.145 299.276 130.614Z" fill="#BBE86D"/>
<path d="M211.381 145.071C208.134 139.166 208.447 132.38 210.662 125.594C219.115 99.698 189.178 78.16 167.072 94.078C161.234 98.282 155.149 103.546 148.863 110.087C145.153 113.948 140.272 115.419 135.642 114.926C132.903 117.315 130.034 120.703 128.499 125.197C124.999 135.447 115.178 173.197 115.178 173.197L70.7502 325.614C70.7502 325.614 63.2732 347.283 75.5932 365.454C79.0962 364.566 82.5152 363.025 85.6742 360.756C98.2412 351.731 113.537 341.557 129.602 332.722C169.726 310.656 177.448 274.985 209.025 239.959C240.603 204.933 223.641 167.362 211.381 145.071Z" fill="#007F6F"/>
<path d="M136.563 114.996C129.657 114.654 123.096 109.927 121.516 102.146C119.711 93.256 117.392 85.551 114.712 78.874C104.568 53.592 67.7521 55.748 61.0221 82.144C59.2591 89.061 55.8891 94.96 49.9841 98.207C27.6931 110.466 -6.75292 133.11 1.15608 179.601C9.06408 226.092 -3.51792 260.352 18.5491 300.475C27.3851 316.541 34.8531 333.325 40.6331 347.676C46.5251 362.305 62.2991 369.269 76.4421 365.231C64.3311 347.106 71.7511 325.612 71.7511 325.612L116.18 173.195C116.18 173.195 126.001 135.445 129.501 125.195C131.02 120.746 133.849 117.381 136.563 114.996Z" fill="#00626B"/>
<path d="M110.626 190.716C114.601 191.87 118.759 189.584 119.913 185.608C124.713 169.076 121.458 151.146 111.204 137.646C102.159 125.738 98.9001 113.906 97.7571 106.078C97.1601 101.982 93.3551 99.1471 89.2581 99.7441C85.1631 100.342 82.3261 104.147 82.9241 108.243C84.3211 117.815 88.2901 132.261 99.2661 146.713C106.664 156.453 109.001 169.43 105.517 181.428C104.365 185.404 106.651 189.562 110.626 190.716Z" fill="#BBE86D"/>
<path d="M65.629 137.466C66.971 137.856 68.439 137.875 69.878 137.441C82.38 133.667 95.488 137.691 95.605 137.734C99.57 139.017 103.77 136.852 105.046 132.915C106.321 128.977 104.164 124.751 100.227 123.474C99.516 123.252 82.692 117.915 65.546 123.091C61.584 124.287 59.341 128.469 60.537 132.432C61.299 134.956 63.272 136.782 65.629 137.466Z" fill="#BBE86D"/>
<path d="M33.922 211.724C36.019 212.333 38.363 212.025 40.295 210.682C77.213 185.019 104.105 203.349 104.371 203.537C107.756 205.917 112.43 205.106 114.814 201.721C117.196 198.336 116.383 193.661 112.998 191.278C111.557 190.264 77.167 166.794 31.739 198.374C28.341 200.736 27.5 205.407 29.864 208.806C30.882 210.272 32.331 211.262 33.922 211.724Z" fill="#BBE86D"/>
<path d="M34.5482 274.834C36.3972 275.371 38.4502 275.2 40.2672 274.194C55.4752 265.777 67.9152 264.131 75.6742 264.232C83.3342 264.331 87.7362 266.08 87.7762 266.1C91.5712 267.731 95.9862 265.98 97.6232 262.177C99.2592 258.375 97.5022 253.967 93.7002 252.33C92.6702 251.889 68.0442 241.687 33.0092 261.079C29.3872 263.083 28.0762 267.644 30.0812 271.265C31.0792 273.07 32.7122 274.301 34.5482 274.834Z" fill="#BBE86D"/>
<path d="M68.6262 335.368C72.6012 336.522 76.7592 334.235 77.9132 330.26L119.913 185.609C123.397 173.611 132.32 163.903 143.784 159.64C160.793 153.314 171.882 143.24 178.188 135.904C180.886 132.765 180.529 128.033 177.39 125.335C174.248 122.635 169.518 122.994 166.82 126.133C161.663 132.132 152.574 140.378 138.558 145.591C122.669 151.5 110.318 164.898 105.517 181.431L63.5172 326.082C62.3642 330.055 64.6512 334.213 68.6262 335.368Z" fill="#DBF8A0"/>
<path d="M177.145 169.845C179.502 170.529 182.146 170.044 184.141 168.32C187.273 165.614 187.619 160.881 184.914 157.749C173.204 144.194 156.139 139.69 155.421 139.499C151.413 138.468 147.327 140.882 146.295 144.891C145.284 148.823 147.588 152.83 151.46 153.955C151.528 153.975 151.596 153.994 151.665 154.011C151.913 154.077 165.032 157.664 173.571 167.548C174.552 168.685 175.802 169.456 177.145 169.845Z" fill="#DBF8A0"/>
<path d="M168.185 235.649C169.776 236.111 171.529 236.051 173.176 235.359C176.992 233.755 178.784 229.36 177.179 225.545C155.728 174.545 114.117 175.948 112.357 176.033C108.223 176.232 105.032 179.745 105.231 183.879C105.43 188 108.922 191.181 113.034 191.007C114.484 190.959 146.147 190.429 163.362 231.356C164.273 233.526 166.088 235.041 168.185 235.649Z" fill="#DBF8A0"/>
<path d="M133.857 288.61C135.692 289.143 137.731 288.979 139.541 287.989C143.173 286.004 144.509 281.451 142.524 277.818C123.323 242.679 97.067 238.106 95.955 237.926C91.868 237.272 88.024 240.055 87.369 244.142C86.719 248.207 89.47 252.039 93.52 252.717C94.499 252.895 113.976 256.834 129.371 285.006C130.366 286.829 132.009 288.073 133.857 288.61Z" fill="#DBF8A0"/>
<path d="M379.155 155.676C374.382 157.062 369.388 154.316 368.002 149.543C362.238 129.69 366.147 108.159 378.46 91.948C389.321 77.648 393.236 63.44 394.607 54.04C395.324 49.121 399.893 45.717 404.813 46.434C409.731 47.152 413.137 51.721 412.419 56.64C410.741 68.135 405.975 85.482 392.795 102.837C383.911 114.533 381.105 130.117 385.288 144.525C386.674 149.297 383.928 154.29 379.155 155.676Z" fill="#DBF8A0"/>
<path d="M433.189 91.731C431.577 92.199 429.814 92.222 428.086 91.7C413.072 87.167 397.333 92 397.191 92.052C392.43 93.592 387.387 90.993 385.854 86.265C384.322 81.536 386.913 76.461 391.641 74.928C392.494 74.662 412.698 68.253 433.288 74.468C438.046 75.904 440.739 80.926 439.303 85.685C438.389 88.717 436.02 90.91 433.189 91.731Z" fill="#DBF8A0"/>
<path d="M471.265 180.903C468.747 181.634 465.933 181.265 463.612 179.651C419.279 148.834 386.986 170.845 386.667 171.071C382.603 173.929 376.989 172.956 374.127 168.89C371.267 164.825 372.243 159.211 376.308 156.35C378.038 155.133 419.336 126.949 473.887 164.872C477.968 167.709 478.977 173.317 476.139 177.399C474.916 179.16 473.175 180.348 471.265 180.903Z" fill="#DBF8A0"/>
<path d="M470.514 256.689C468.294 257.334 465.829 257.128 463.646 255.92C445.384 245.813 430.445 243.836 421.128 243.958C411.929 244.078 406.644 246.177 406.595 246.201C402.038 248.16 396.736 246.057 394.771 241.49C392.807 236.924 394.916 231.631 399.482 229.665C400.719 229.135 430.291 216.885 472.363 240.172C476.713 242.579 478.286 248.056 475.879 252.404C474.679 254.57 472.718 256.049 470.514 256.689Z" fill="#DBF8A0"/>
<path d="M418.438 323.247C419.824 328.02 424.817 330.767 429.591 329.38C434.365 327.994 437.111 323.001 435.725 318.227L385.289 144.523L368.003 149.542L418.438 323.247Z" fill="#DBF8A0"/>
</g>
<defs>
<clipPath id="clip0_1_417">
<rect width="512" height="512" fill="white"/>
</clipPath>
</defs>
</svg>
