<svg width="512" height="512" viewBox="0 0 512 512" fill="none" xmlns="http://www.w3.org/2000/svg">
<g clip-path="url(#clip0_1_468)">
<path d="M256 21.996C120.689 21.996 10.998 131.687 10.998 266.998C10.998 362.581 65.7391 445.369 145.576 485.75L366.428 485.749C446.263 445.368 501.002 362.58 501.002 266.999C501.002 131.687 391.311 21.996 256 21.996Z" fill="#EF018E"/>
<path d="M228 317.523L284 328.496V278.493L228 289.961V317.523Z" fill="#99442D"/>
<path d="M284 258.571V215.271H228V243.136L284 258.571Z" fill="#99442D"/>
<path d="M228 290.472L284 279.004V258.053L228 242.617V290.472Z" fill="#F35922"/>
<path d="M284 327.986L228 317.013V345.31H284V327.986Z" fill="#7B3723"/>
<path d="M135.64 404.512C135.64 404.512 134.133 441.342 145.575 485.75C174.155 500.206 205.951 509.217 239.605 511.441C236.094 497.349 233.759 483.421 232.218 471.405C230.876 460.945 233.949 450.393 240.648 442.455C247.346 434.519 257.02 429.967 267.189 429.967H357.233C365.211 429.967 370.972 433.808 374.872 437.955C376.905 417.765 376.36 404.512 376.36 404.512C362.989 404.512 149.011 404.512 135.64 404.512Z" fill="#01A2C3"/>
<path d="M357.233 429.549H267.189C245.608 429.549 228.971 449.265 231.818 471.46C233.388 483.694 235.721 497.525 239.171 511.414C244.733 511.791 250.342 512 256 512C295.729 512 333.244 502.533 366.428 485.749C371.073 467.723 373.587 450.945 374.93 437.374C370.986 433.274 365.214 429.549 357.233 429.549Z" fill="#63D9FA"/>
<path d="M376.36 343.614H252.488C235.449 343.614 221.636 357.427 221.636 374.466C221.636 391.505 235.449 405.318 252.488 405.318H376.36C383.364 405.318 389.043 399.64 389.043 392.635V356.297C389.043 349.292 383.364 343.614 376.36 343.614Z" fill="#AAE7FA"/>
<path d="M222.442 374.466C222.442 357.427 236.255 343.614 253.294 343.614H135.64C128.635 343.614 122.957 349.292 122.957 356.297V392.635C122.957 399.64 128.635 405.318 135.64 405.318H253.294C236.255 405.318 222.442 391.505 222.442 374.466Z" fill="#63D9FA"/>
<path d="M166.792 204.562C184.647 209.135 213.441 219.675 229.432 242.243C232.358 246.373 229.824 252.116 224.804 252.772C210.532 254.635 182.819 252.335 159.017 215.297C155.533 209.875 160.548 202.963 166.792 204.562Z" fill="#73CF4A"/>
<path d="M164.238 141.684C184.991 158.272 217.805 189.972 235.776 235.628C237.773 240.702 233.133 245.903 227.854 244.537C211.714 240.362 181.175 222.409 153.124 149.824C150.501 143.035 158.552 137.139 164.238 141.684Z" fill="#A4E830"/>
<path d="M187.617 39.338C207.224 72.678 241.345 142.542 243.949 228.507C244.112 233.874 238.245 237.266 233.693 234.418C215.226 222.863 178.303 182.423 174.339 43.186C174.13 35.809 183.876 32.977 187.617 39.338Z" fill="#007F6F"/>
<path d="M345.208 204.562C327.353 209.135 298.559 219.675 282.568 242.243C279.642 246.373 282.176 252.116 287.196 252.772C301.468 254.635 329.181 252.335 352.983 215.297C356.467 209.875 351.452 202.963 345.208 204.562Z" fill="#A4E830"/>
<path d="M347.762 141.684C327.009 158.272 294.195 189.972 276.223 235.628C274.226 240.702 278.866 245.903 284.145 244.537C300.285 240.362 330.824 222.409 358.875 149.823C361.499 143.035 353.448 137.139 347.762 141.684Z" fill="#73CF4A"/>
<path d="M345.019 290.727C328.195 288.707 300.012 288.162 278.799 302.185C274.917 304.751 275.179 310.517 279.263 312.748C290.875 319.092 315.392 326.339 348.111 302.514C352.901 299.026 350.902 291.434 345.019 290.727Z" fill="#A4E830"/>
<path d="M357.583 245.395C336.875 251.894 302.513 266.337 275.331 295.796C272.31 299.07 274.307 304.403 278.731 304.923C292.257 306.514 320.822 301.869 363.641 254.879C367.647 250.484 363.257 243.615 357.583 245.395Z" fill="#BBE86D"/>
<path d="M166.981 290.727C183.805 288.707 211.989 288.162 233.201 302.185C237.083 304.751 236.821 310.517 232.737 312.748C221.125 319.092 196.608 326.339 163.889 302.514C159.1 299.026 161.099 291.434 166.981 290.727Z" fill="#2BA870"/>
<path d="M154.418 245.395C175.126 251.894 209.488 266.337 236.67 295.796C239.691 299.07 237.694 304.403 233.27 304.923C219.744 306.514 191.179 301.869 148.36 254.879C144.354 250.484 148.743 243.615 154.418 245.395Z" fill="#73CF4A"/>
<path d="M226.925 5.86897C228.304 -1.61603 238.857 -2.07903 240.833 5.27197C252.769 49.673 271.86 140.884 255.703 225.258C254.696 230.515 248.268 232.556 244.43 228.824C229.037 213.854 202.002 141.121 226.925 5.86897Z" fill="#2BA870"/>
<path d="M291.724 111.507L291.552 110.377L290.456 110.696C282.912 112.889 276.175 112.221 270.435 108.702C261.574 103.27 256.976 92.2349 254.958 85.8199C249.276 128.084 247.199 177.754 256.296 225.257C257.303 230.514 263.731 232.555 267.569 228.823C277.786 218.887 293.126 183.494 295.004 121.275C292.477 116.197 291.737 111.589 291.724 111.507Z" fill="#73CF4A"/>
<path d="M271.166 5.27197C265.829 25.126 259.063 54.344 254.656 88.121C258.468 99.031 268.487 118.132 290.735 111.656C290.735 111.656 291.61 117.438 294.943 123.328C296.067 91.426 293.638 52.338 285.075 5.86897C283.695 -1.61603 273.142 -2.07903 271.166 5.27197Z" fill="#A4E830"/>
<path d="M305.166 132.358C294.133 126.565 291.747 111.656 291.724 111.506L291.552 110.376L291.163 110.489C279.259 143.586 269.403 183.865 268.051 228.505C267.888 233.872 273.755 237.264 278.307 234.416C292.065 225.807 316.065 201.152 329.05 131.564C319.552 135.425 311.53 135.699 305.166 132.358Z" fill="#A4E830"/>
<path d="M324.383 39.338C314.836 55.571 301.854 80.483 290.739 111.678C290.874 112.535 296.304 145.517 328.831 132.729C333.39 108.7 336.634 79.267 337.661 43.185C337.87 35.809 328.124 32.977 324.383 39.338Z" fill="#BBE86D"/>
</g>
<defs>
<clipPath id="clip0_1_468">
<rect width="512" height="512" fill="white"/>
</clipPath>
</defs>
</svg>
