<svg width="512" height="512" viewBox="0 0 512 512" fill="none" xmlns="http://www.w3.org/2000/svg">
<path d="M110.485 464.11H401.514C461.863 419.484 501.002 347.816 501.002 266.998C501.002 131.687 391.311 21.996 256 21.996C120.689 21.996 10.998 131.687 10.998 266.998C10.998 347.816 50.136 419.484 110.485 464.11Z" fill="#F5D001"/>
<path d="M304.681 204.834C311.174 177.976 294.665 150.938 267.806 144.445C240.948 137.951 213.91 154.46 207.416 181.319C200.923 208.178 217.432 235.215 244.291 241.709C271.15 248.202 298.187 231.693 304.681 204.834Z" fill="#7B3E9E"/>
<path d="M385.08 337.643H233.525C233.525 337.643 194.93 367.715 233.525 406.31C233.525 406.31 233.246 406.539 232.767 406.97H401.514V354.078C401.514 345.001 394.156 337.643 385.08 337.643Z" fill="#F35922"/>
<path d="M234.525 337.643H126.92C117.844 337.643 110.486 345.001 110.486 354.078V406.97H233.768C234.248 406.539 234.526 406.31 234.526 406.31C195.93 367.715 234.525 337.643 234.525 337.643Z" fill="#99442D"/>
<path d="M232.829 474.316C233.063 474.536 233.286 474.756 233.526 474.976C233.526 474.976 217.909 487.823 221.67 509.604C232.888 511.179 244.347 512 256 512C304.007 512 348.78 498.179 386.581 474.316H232.829Z" fill="#7B3723"/>
<path d="M222.692 509.743C218.839 487.877 234.525 474.977 234.525 474.977C234.285 474.757 234.062 474.537 233.828 474.317H125.418C154.323 492.563 187.306 504.928 222.692 509.743Z" fill="#602A1B"/>
<path d="M233.525 406.31C233.525 406.31 193.991 438.611 233.525 474.977H385.537C391.011 471.56 396.341 467.936 401.514 464.111V406.311H233.525V406.31Z" fill="#99442D"/>
<path d="M234.525 406.31H110.485V464.11C115.658 467.935 120.989 471.56 126.462 474.976H234.525C194.991 438.611 234.525 406.31 234.525 406.31Z" fill="#7B3723"/>
<path d="M338.052 190.685L416.859 325.637C416.859 325.637 423.03 336.259 437.578 337.503C467.382 316.001 480.879 283.367 456.717 239.99C429.518 191.16 376.838 168.639 339.052 189.686C338.622 189.925 338.217 190.193 337.794 190.441L338.052 190.685Z" fill="#73CF4A"/>
<path d="M319.882 316.209C347.081 365.039 387.825 366.131 425.611 345.084C430.335 342.453 434.789 339.6 438.914 336.527C424.127 335.419 417.859 324.637 417.859 324.637L339.052 189.685C301.266 210.733 292.683 267.379 319.882 316.209Z" fill="#2BA870"/>
<path d="M376.063 323.627C374.535 324.478 372.72 324.836 370.861 324.527C366.503 323.802 363.558 319.682 364.283 315.323C367.864 293.801 384.922 279.329 385.647 278.723C389.038 275.893 394.081 276.34 396.916 279.731C399.745 283.115 399.3 288.149 395.925 290.985C395.678 291.196 382.644 302.452 380.065 317.949C379.65 320.449 378.116 322.483 376.063 323.627Z" fill="#007F6F"/>
<path d="M335.177 294.362C333.579 295.252 331.67 295.602 329.735 295.219C325.4 294.362 322.582 290.153 323.439 285.819C330.068 252.306 356.499 230.274 357.621 229.352C361.029 226.542 366.076 227.042 368.881 230.456C371.682 233.867 371.191 238.902 367.786 241.708C367.442 241.994 344.613 261.223 339.134 288.924C338.661 291.323 337.159 293.258 335.177 294.362Z" fill="#007F6F"/>
<path d="M419.542 334.189C415.682 336.339 410.81 334.953 408.66 331.093L332.062 193.578C329.912 189.718 331.298 184.846 335.158 182.696C339.018 180.546 343.89 181.932 346.04 185.792L422.638 323.307C424.788 327.167 423.402 332.039 419.542 334.189Z" fill="#007F6F"/>
<path d="M427.695 233.341C425.713 234.445 423.277 234.704 420.987 233.843C394.309 223.829 366.055 233.249 365.773 233.346C361.592 234.772 357.045 232.539 355.618 228.357C354.192 224.176 356.418 219.635 360.607 218.202C361.982 217.734 394.627 206.858 426.611 218.864C430.748 220.416 432.841 225.028 431.289 229.165C430.594 231.011 429.292 232.451 427.695 233.341Z" fill="#2BA870"/>
<path d="M435.369 279.827C433.315 280.971 430.778 281.204 428.434 280.241C409.507 272.473 388.613 279.238 388.405 279.307C384.211 280.698 379.684 278.425 378.293 274.232C376.904 270.038 379.177 265.511 383.368 264.12C384.451 263.761 410.158 255.445 434.509 265.44C438.597 267.118 440.55 271.792 438.872 275.878C438.157 277.621 436.897 278.976 435.369 279.827Z" fill="#2BA870"/>
<path d="M172.948 189.685C172.7 189.547 172.449 189.418 172.2 189.284L96.276 326.644C96.276 326.644 89.377 335.998 94.495 349.226C129.906 365.729 166.856 361.563 192.119 316.208C219.317 267.379 210.734 210.733 172.948 189.685Z" fill="#2BA870"/>
<path d="M172.971 189.699C172.963 189.695 172.956 189.69 172.949 189.685C135.163 168.638 82.4821 191.16 55.2841 239.989C28.0851 288.819 48.6041 324.036 86.3911 345.083C89.4891 346.808 92.6061 348.382 95.7351 349.796C90.1941 336.27 97.2771 326.644 97.2771 326.644L172.971 189.699Z" fill="#007F6F"/>
<path d="M84.305 233.341C86.287 234.445 88.723 234.704 91.013 233.843C117.691 223.829 145.945 233.249 146.227 233.346C150.408 234.772 154.955 232.539 156.382 228.357C157.808 224.176 155.582 219.635 151.393 218.202C150.018 217.734 117.373 206.858 85.389 218.864C81.252 220.416 79.159 225.028 80.711 229.165C81.406 231.011 82.708 232.451 84.305 233.341Z" fill="#00626B"/>
<path d="M76.631 279.827C78.685 280.971 81.222 281.204 83.566 280.241C102.493 272.473 123.387 279.238 123.595 279.307C127.789 280.698 132.316 278.425 133.707 274.232C135.096 270.038 132.823 265.511 128.632 264.12C127.549 263.761 101.842 255.445 77.491 265.44C73.403 267.118 71.45 271.792 73.128 275.878C73.843 277.621 75.103 278.976 76.631 279.827Z" fill="#00626B"/>
<path d="M92.458 334.189C96.318 336.339 101.19 334.953 103.34 331.093L179.938 193.578C182.088 189.718 180.702 184.846 176.842 182.696C172.982 180.546 168.11 181.932 165.96 185.792L89.362 323.307C87.212 327.167 88.598 332.039 92.458 334.189Z" fill="#00626B"/>
<path d="M135.937 323.627C137.465 324.478 139.28 324.836 141.139 324.527C145.497 323.802 148.442 319.682 147.717 315.323C144.136 293.801 127.078 279.329 126.353 278.723C122.962 275.893 117.919 276.34 115.084 279.731C112.255 283.115 112.7 288.149 116.075 290.985C116.322 291.196 129.356 302.452 131.935 317.949C132.35 320.449 133.884 322.483 135.937 323.627Z" fill="#007F6F"/>
<path d="M176.823 294.362C178.421 295.252 180.33 295.602 182.265 295.219C186.6 294.362 189.418 290.153 188.56 285.819C181.931 252.306 155.5 230.274 154.378 229.352C150.97 226.542 145.923 227.042 143.118 230.456C140.317 233.867 140.808 238.902 144.213 241.708C144.557 241.994 167.386 261.223 172.865 288.924C173.339 291.323 174.841 293.258 176.823 294.362Z" fill="#007F6F"/>
<path d="M256 226.327C255.666 226.327 255.333 226.338 255 226.343V383.416C255 383.416 256.568 395.603 266.589 403.753C304.83 400.496 334.316 378.781 334.316 327.531C334.316 271.638 299.252 226.327 256 226.327Z" fill="#73CF4A"/>
<path d="M256 382.417V226.327C212.747 226.327 177.684 271.638 177.684 327.531C177.684 383.425 212.747 404.206 256 404.206C260.3 404.206 264.514 403.991 268.625 403.566C257.668 395.442 256 382.417 256 382.417Z" fill="#2BA870"/>
<path d="M223.155 361.351C221.406 361.351 219.646 360.781 218.173 359.606C214.719 356.852 214.151 351.819 216.905 348.364C230.507 331.304 252.451 326.963 253.379 326.786C257.719 325.964 261.906 328.808 262.734 333.15C263.558 337.483 260.72 341.664 256.392 342.5C256.074 342.564 239.209 346.055 229.415 358.339C227.836 360.32 225.506 361.351 223.155 361.351Z" fill="#007F6F"/>
<path d="M201.678 315.889C199.849 315.889 198.011 315.266 196.507 313.99C193.137 311.132 192.723 306.084 195.581 302.715C217.681 276.663 251.492 270.277 252.921 270.019C257.266 269.222 261.432 272.116 262.221 276.462C263.008 280.805 260.129 284.965 255.789 285.759C255.35 285.842 226.049 291.531 207.782 313.065C206.2 314.929 203.946 315.889 201.678 315.889Z" fill="#007F6F"/>
<path d="M256 391.736C251.582 391.736 248 388.154 248 383.736V226.327C248 221.909 251.582 218.327 256 218.327C260.418 218.327 264 221.909 264 226.327V383.736C264 388.154 260.418 391.736 256 391.736Z" fill="#007F6F"/>
<path d="M312.196 307.6C309.927 307.6 307.674 306.641 306.092 304.775C287.658 283.045 258.392 277.525 258.098 277.472C253.751 276.683 250.866 272.52 251.654 268.172C252.443 263.825 256.597 260.942 260.954 261.728C262.383 261.988 296.194 268.373 318.294 294.425C321.152 297.794 320.737 302.842 317.368 305.7C315.863 306.976 314.025 307.6 312.196 307.6Z" fill="#2BA870"/>
<path d="M296.28 351.946C293.929 351.946 291.599 350.915 290.02 348.933C277.265 332.936 255.72 328.679 255.504 328.638C251.163 327.812 248.315 323.623 249.14 319.283C249.967 314.943 254.156 312.095 258.494 312.919C259.615 313.133 286.12 318.377 302.529 338.958C305.284 342.413 304.715 347.446 301.261 350.2C299.789 351.375 298.029 351.946 296.28 351.946Z" fill="#2BA870"/>
<path d="M334.349 246.642C350.218 224.808 351.904 198.985 338.114 188.962C324.325 178.94 300.283 188.515 284.414 210.348C268.545 232.181 266.859 258.005 280.648 268.027C294.437 278.05 318.48 268.475 334.349 246.642Z" fill="#62387A"/>
<path d="M154.354 247.662C170.222 225.829 171.909 200.005 158.119 189.982C144.33 179.96 120.288 189.535 104.419 211.368C88.55 233.201 86.8639 259.025 100.653 269.048C114.442 279.07 138.485 269.495 154.354 247.662Z" fill="#62387A"/>
<path d="M345.978 169.703C363.023 169.703 376.84 147.825 376.84 120.837C376.84 93.8491 363.023 71.971 345.978 71.971C328.933 71.971 315.116 93.8491 315.116 120.837C315.116 147.825 328.933 169.703 345.978 169.703Z" fill="#7B3E9E"/>
<path d="M419.173 188.836C444.838 180.497 461.375 160.596 456.108 144.387C450.841 128.178 425.766 121.798 400.1 130.137C374.434 138.476 357.898 158.377 363.165 174.586C368.432 190.796 393.507 197.176 419.173 188.836Z" fill="#FE17A0"/>
<path d="M411.414 267.886C425.203 257.863 423.517 232.039 407.648 210.206C391.779 188.373 367.736 178.798 353.947 188.82C340.158 198.843 341.844 224.667 357.713 246.5C373.582 268.333 397.624 277.908 411.414 267.886Z" fill="#9739CF"/>
<path d="M333.792 194.427C345.708 194.427 355.368 184.767 355.368 172.851C355.368 160.935 345.708 151.275 333.792 151.275C321.876 151.275 312.216 160.935 312.216 172.851C312.216 184.767 321.876 194.427 333.792 194.427Z" fill="#FFB00A"/>
<path d="M346.044 210.907C357.96 210.907 367.62 201.247 367.62 189.331C367.62 177.415 357.96 167.755 346.044 167.755C334.128 167.755 324.468 177.415 324.468 189.331C324.468 201.247 334.128 210.907 346.044 210.907Z" fill="#FFB00A"/>
<path d="M355.369 194.427C367.285 194.427 376.945 184.767 376.945 172.851C376.945 160.935 367.285 151.275 355.369 151.275C343.453 151.275 333.793 160.935 333.793 172.851C333.793 184.767 343.453 194.427 355.369 194.427Z" fill="#FEEB1E"/>
<path d="M166.022 170.728C183.067 170.728 196.884 148.85 196.884 121.862C196.884 94.874 183.067 72.996 166.022 72.996C148.977 72.996 135.16 94.874 135.16 121.862C135.16 148.85 148.977 170.728 166.022 170.728Z" fill="#9739CF"/>
<path d="M148.799 175.617C154.066 159.407 137.529 139.507 111.864 131.167C86.1982 122.828 61.1226 129.208 55.8558 145.417C50.589 161.627 67.1255 181.528 92.791 189.867C118.457 198.206 143.532 191.826 148.799 175.617Z" fill="#7B3E9E"/>
<path d="M231.461 268.949C245.25 258.927 243.564 233.103 227.695 211.27C211.826 189.436 187.784 179.862 173.994 189.884C160.205 199.906 161.891 225.73 177.76 247.563C193.629 269.396 217.672 278.971 231.461 268.949Z" fill="#9739CF"/>
<path d="M169.055 189.128C177.479 180.704 177.479 167.045 169.055 158.62C160.63 150.195 146.971 150.195 138.546 158.62C130.122 167.045 130.122 180.704 138.546 189.129C146.971 197.553 160.63 197.553 169.055 189.128Z" fill="#FE8B05"/>
<path d="M166.088 211.933C178.004 211.933 187.664 202.273 187.664 190.357C187.664 178.441 178.004 168.781 166.088 168.781C154.172 168.781 144.512 178.441 144.512 190.357C144.512 202.273 154.172 211.933 166.088 211.933Z" fill="#FE8B05"/>
<path d="M196.643 177.333C198.537 165.572 190.539 154.502 178.778 152.607C167.017 150.712 155.946 158.711 154.052 170.472C152.157 182.233 160.155 193.304 171.917 195.198C183.678 197.093 194.748 189.094 196.643 177.333Z" fill="#F5D001"/>
<path d="M244.519 172.171C260.162 150.648 261.824 125.19 248.231 115.31C234.637 105.43 210.936 114.869 195.293 136.392C179.649 157.915 177.987 183.373 191.58 193.253C205.174 203.133 228.875 193.694 244.519 172.171Z" fill="#62387A"/>
<path d="M256 96.344C272.803 96.344 286.424 74.7767 286.424 48.172C286.424 21.5673 272.803 0 256 0C239.197 0 225.576 21.5673 225.576 48.172C225.576 74.7767 239.197 96.344 256 96.344Z" fill="#9739CF"/>
<path d="M239.025 101.169C244.217 85.1892 227.915 65.5711 202.614 57.3502C177.313 49.1294 152.593 55.4189 147.401 71.3983C142.209 87.3777 158.511 106.996 183.812 115.217C209.113 123.438 233.832 117.148 239.025 101.169Z" fill="#7B3E9E"/>
<path d="M328.161 115.208C353.462 106.987 369.763 87.3691 364.571 71.3897C359.379 55.4104 334.66 49.1208 309.359 57.3417C284.058 65.5625 267.756 85.1807 272.948 101.16C278.14 117.139 302.86 123.429 328.161 115.208Z" fill="#FE17A0"/>
<path d="M320.493 193.152C334.086 183.272 332.424 157.814 316.781 136.291C301.137 114.768 277.436 105.329 263.842 115.209C250.249 125.089 251.911 150.547 267.555 172.07C283.198 193.593 306.899 203.032 320.493 193.152Z" fill="#9739CF"/>
<path d="M243.987 120.717C255.734 120.717 265.257 111.194 265.257 99.447C265.257 87.6999 255.734 78.177 243.987 78.177C232.24 78.177 222.717 87.6999 222.717 99.447C222.717 111.194 232.24 120.717 243.987 120.717Z" fill="#F5D001"/>
<path d="M264.157 135.341C275.035 130.901 280.254 118.483 275.813 107.605C271.373 96.7273 258.955 91.5087 248.077 95.9491C237.199 100.39 231.981 112.807 236.421 123.685C240.862 134.563 253.279 139.782 264.157 135.341Z" fill="#F5D001"/>
<path d="M265.257 120.717C277.004 120.717 286.527 111.194 286.527 99.447C286.527 87.6999 277.004 78.177 265.257 78.177C253.51 78.177 243.987 87.6999 243.987 99.447C243.987 111.194 253.51 120.717 265.257 120.717Z" fill="#E3E3E3"/>
</svg>
