<svg width="512" height="512" viewBox="0 0 512 512" fill="none" xmlns="http://www.w3.org/2000/svg">
<g clip-path="url(#clip0_1_558)">
<path d="M434.146 435.179L77.838 435.161C36.406 391.282 10.998 332.11 10.998 266.998C10.998 131.687 120.689 21.996 256 21.996C391.311 21.996 501.002 131.687 501.002 266.998C501.002 332.119 475.587 391.298 434.146 435.179Z" fill="#121D4C"/>
<path d="M243.333 320.75C237.811 320.75 233.333 316.272 233.333 310.75V298.231C233.333 263.058 224.348 201.089 164.173 181.252C154.505 178.066 148.034 177.269 147.971 177.261C142.498 176.608 138.572 171.649 139.207 166.175C139.845 160.701 144.778 156.777 150.249 157.392C150.587 157.43 158.644 158.371 170.435 162.258C198.675 171.568 220.228 189.452 234.493 215.416C246.995 238.171 253.334 266.033 253.334 298.23V310.749C253.333 316.272 248.855 320.75 243.333 320.75Z" fill="#FE3BAE"/>
<path d="M262 313C256.478 313 252 308.522 252 303V196.79C252 153.39 267.062 110.435 295.559 72.57C316.997 44.085 338.345 28.516 339.243 27.868C343.723 24.635 349.973 25.642 353.205 30.119C356.438 34.596 355.432 40.845 350.957 44.079C350.486 44.423 330.649 59.05 311.147 85.119C285.171 119.843 272 157.415 272 196.79V303C272 308.522 267.522 313 262 313Z" fill="#FD77CC"/>
<path d="M281.259 313C275.737 313 271.259 308.522 271.259 303C271.259 272.582 284.791 253.036 296.144 241.995C308.427 230.049 320.923 225.261 321.45 225.062C326.621 223.116 332.387 225.731 334.332 230.899C336.271 236.054 333.678 241.804 328.536 243.765C326.925 244.392 291.26 258.806 291.26 302.999C291.259 308.522 286.782 313 281.259 313Z" fill="#FD77CC"/>
<path d="M220.992 320.229C218.58 329.492 220.777 339.437 227.522 349.8C227.259 350.042 226.904 350.38 226.507 350.766L431.808 369.034C427.944 351.693 421.595 335.288 413.128 320.229C405.271 306.254 390.498 297.588 374.465 297.588H239.165C235.077 300.052 224.282 307.594 220.992 320.229Z" fill="#AAE7FA"/>
<path d="M98.886 320.201C95.549 326.134 92.556 332.285 89.896 338.611L227.822 350.884C228.462 350.285 228.831 349.969 228.831 349.969C205.804 315.605 241.191 297.588 241.191 297.588H137.533C121.512 297.588 106.74 306.237 98.886 320.201Z" fill="#63D9FA"/>
<path d="M436.131 408.343L219.318 452.306C219.505 452.562 219.679 452.816 219.869 453.072C218.431 455.931 212.528 468.826 213.573 485.965C214.096 494.544 216.271 502.304 219.549 509.303C231.442 511.079 243.613 512 256 512C326.199 512 389.494 482.469 434.162 435.161C435.448 426.474 436.126 417.585 436.134 408.532C436.134 408.469 436.131 408.406 436.131 408.343Z" fill="#01A2C3"/>
<path d="M220.695 509.464C206.461 479.595 221.047 452.976 221.047 452.976C220.823 452.678 220.618 452.384 220.399 452.087L121.92 472.055C151.112 491.186 184.631 504.252 220.695 509.464Z" fill="#289EFF"/>
<path d="M431.59 368.011L227.472 349.848C224.635 352.473 213.915 363.078 207.436 379.027C200.56 395.958 197.17 422.511 219.871 453.072C219.847 453.12 219.819 453.177 219.792 453.23L436.126 409.364C436.128 409.086 436.134 408.81 436.134 408.532C436.147 394.599 434.572 381.036 431.59 368.011Z" fill="#63D9FA"/>
<path d="M228.832 349.969L90.308 337.643C81.024 359.359 75.865 383.258 75.865 408.369C75.865 417.48 76.548 426.431 77.854 435.179C91.346 449.465 106.546 462.115 123.112 472.834L221.046 452.976C176.841 394.127 228.831 349.97 228.832 349.969Z" fill="#01A2C3"/>
<path d="M350.471 80.809C349.467 78.197 347.112 76.588 344.323 76.609C343.481 76.616 342.682 76.768 341.947 77.051C340.221 77.714 338.857 79.09 338.174 80.955C336.669 85.063 335.461 89.279 334.584 93.486C329.145 119.551 335.541 145.86 353.585 171.899C363.773 177.148 374.222 182.777 383.411 188.696C386.35 190.589 389.696 191.625 393.096 191.778L350.471 80.809Z" fill="#007F6F"/>
<path d="M334.189 4.12301C331.728 10.98 328.087 27.383 344.818 36.748C346.025 35.988 347.132 35.06 348.06 33.937C351.368 29.931 355.091 26.328 359.126 23.227C367.511 16.787 380.157 10.324 397.614 9.49901C379.13 -0.30999 356.722 -3.24199 334.189 4.12301Z" fill="#2BA870"/>
<path d="M329.997 5.60898C306.065 14.802 289.98 32.887 282.372 53.768C295.893 42.694 309.614 39.027 320.153 38.198C325.226 37.8 330.404 37.984 335.543 38.745C339.106 39.273 342.721 38.334 345.581 36.255C329.151 26.905 332.689 10.692 335.139 3.82098C333.426 4.35998 331.711 4.94998 329.997 5.60898Z" fill="#007F6F"/>
<path d="M319.398 89.393C321.29 80.7 324.309 72.187 328.371 64.093C329.534 61.777 329.356 59.1 327.895 56.934C326.445 54.783 324.05 53.623 321.49 53.831C300.011 55.566 285.687 70.34 277.316 82.792C277.413 108.581 289.382 134.487 314.272 150.921C317.977 153.367 322.717 156.025 328.103 158.868C318.812 138.876 313.761 115.287 319.398 89.393Z" fill="#007F6F"/>
<path d="M368.696 35.682L368.59 35.763C366.562 37.33 365.571 39.794 365.939 42.354C366.31 44.932 367.967 47.033 370.373 47.972C378.801 51.263 386.737 55.563 393.961 60.752C415.483 76.213 427.523 97.118 434.004 118.189C436.102 112.471 437.843 107.324 438.958 103.026C446.444 74.164 437.999 46.914 420.816 27.693C399.968 22.452 382.432 25.125 368.696 35.682Z" fill="#2BA870"/>
<path d="M385.42 73.959C381.952 71.421 378.233 69.098 374.364 67.054C371.86 65.731 368.994 66.071 366.886 67.944C364.8 69.794 364.128 72.566 365.131 75.178L407.756 186.146C410.179 183.757 411.971 180.746 412.887 177.373C415.751 166.825 419.745 155.648 423.798 144.928C419.771 113.505 406.909 89.68 385.42 73.959Z" fill="#2BA870"/>
<path d="M370.564 47.484C368.605 46.719 367.308 45.174 366.733 43.409C352.598 50.765 347.06 38.393 345.93 35.301C343.089 37.673 339.36 38.779 335.622 38.226C317.309 35.515 298.72 40.003 282.722 52.812C278.987 62.684 277.165 73.206 277.322 83.73C291.736 61.892 308.478 55.409 321.533 54.352C326.602 53.942 330.185 59.313 327.904 63.859C313.361 92.829 312.288 125.653 327.329 158.456C335.342 162.709 344.858 167.387 354.575 172.41C334.664 144.061 327.075 112.764 338.667 81.136C340.594 75.877 347.975 75.77 349.983 80.998L392.52 191.737C395.371 191.95 398.272 191.546 401.015 190.493C403.758 189.44 406.183 187.797 408.158 185.73L365.62 74.99C363.612 69.762 369.166 64.9 374.119 67.517C403.888 83.244 419.216 111.558 423.406 145.97C427.262 135.734 431.199 125.888 434.304 117.365C423.537 82.992 400.806 59.293 370.564 47.484Z" fill="#BBE86D"/>
<path d="M396.715 9.02399C376.256 10.219 359.444 19.33 347.655 33.604C346.902 34.516 346.039 35.304 345.098 35.967L345.097 35.974C345.097 35.974 350.255 53.775 367.068 44.243C365.794 41.604 366.291 38.199 368.909 36.177C368.943 36.15 368.978 36.124 369.012 36.097C382.779 25.516 400.416 22.925 421.427 28.38C414.499 20.455 406.1 13.858 396.715 9.02399Z" fill="#DBF8A0"/>
<path d="M108.29 225.6C109.496 222.287 108.587 218.811 105.918 216.526C105.112 215.837 104.227 215.321 103.295 214.982C101.107 214.186 98.673 214.366 96.481 215.574C91.654 218.235 87.021 221.243 82.71 224.517C55.994 244.797 40.326 275.09 35.952 314.757C41.296 328.168 46.575 342.156 50.417 355.377C51.646 359.605 53.97 363.357 57.075 366.312L108.29 225.6Z" fill="#00626B"/>
<path d="M156.206 139.25C148.199 143.733 131.178 156.315 139.34 179.047C141.115 179.322 142.935 179.356 144.744 179.055C151.2 177.982 157.717 177.635 164.116 178.023C177.409 178.833 194.771 183.143 212.047 196.79C202.587 172.187 183.712 150.876 156.206 139.25Z" fill="#007F6F"/>
<path d="M150.993 137.197C120.647 126.152 90.408 130.045 65.916 143.604C87.922 144.255 103.995 152.112 114.698 160.036C119.849 163.851 124.618 168.307 128.874 173.278C131.824 176.724 136.036 178.821 140.473 179.209C132.585 156.74 149.35 144.255 157.359 139.748C155.285 138.844 153.167 137.988 150.993 137.197Z" fill="#00626B"/>
<path d="M71.659 208.073C80.643 201.374 90.55 195.779 101.102 191.443C104.122 190.202 106.165 187.511 106.567 184.245C106.966 181.002 105.65 177.92 103.045 176.001C81.195 159.895 55.368 162.097 37.117 167.013C15.891 191.605 5.85304 226.123 15.926 262.319C17.426 267.707 19.734 274.151 22.503 281.306C30.198 254.623 44.897 228.026 71.659 208.073Z" fill="#00626B"/>
<path d="M162.917 197.771L162.749 197.761C159.526 197.573 156.547 199.096 154.78 201.835C153.001 204.592 152.84 207.959 154.351 210.84C159.642 220.935 163.63 231.582 166.207 242.486C173.883 274.973 168.046 304.796 156.789 330.182C163.509 326.481 169.42 323.029 174.032 319.865C205.006 298.619 219.504 265.737 219.061 233.264C203.578 211.047 184.701 199.092 162.917 197.771Z" fill="#007F6F"/>
<path d="M147.172 247.979C145.974 242.7 144.359 237.418 142.371 232.277C141.085 228.95 138.079 226.903 134.528 226.941C131.016 226.976 128.085 229.055 126.88 232.366L75.666 373.078C79.944 372.81 84.136 371.43 87.795 368.981C99.236 361.323 112.272 354 124.986 347.162C147.133 313.964 154.602 280.686 147.172 247.979Z" fill="#007F6F"/>
<path d="M154.936 210.534C153.706 208.188 153.751 205.646 154.663 203.494C135.147 198.801 140.11 182.463 141.592 178.591C136.931 178.497 132.472 176.466 129.376 172.85C114.211 155.134 92.8311 144.035 67.0371 142.985C55.3271 149.281 44.8961 157.776 36.3461 167.91C68.0991 159.068 89.3711 166.745 102.654 176.532C107.812 180.332 106.777 188.4 100.851 190.834C63.0811 206.349 34.9271 236.661 22.1071 280.274C26.2071 290.941 31.3861 303.254 36.4701 316.059C40.9781 272.654 59.6371 236.633 96.8001 216.152C102.979 212.746 110.083 218.746 107.67 225.375L56.5611 365.795C59.0951 368.354 62.1861 370.369 65.6641 371.635C69.1421 372.901 72.8051 373.344 76.3911 373.013L127.5 232.593C129.913 225.963 139.211 225.934 141.756 232.515C157.051 272.071 148.215 311.655 123.752 347.827C135.878 341.285 147.76 335.181 157.757 329.646C175.936 288.074 173.921 246.757 154.936 210.534Z" fill="#BBE86D"/>
<path d="M211.586 195.595C191.152 179.819 167.641 174.581 144.635 178.404C143.166 178.648 141.694 178.683 140.252 178.537L140.246 178.543C140.246 178.543 130.434 199.727 154.294 204.564C155.265 201.003 158.552 198.177 162.712 198.419C162.767 198.422 162.821 198.425 162.876 198.429C184.708 199.753 203.614 211.869 219.076 234.421C219.04 221.161 216.51 207.947 211.586 195.595Z" fill="#DBF8A0"/>
<path d="M384.299 252.169C373.328 259.91 364.43 252.582 347.219 238.383C345.983 237.363 344.706 236.31 343.384 235.226C337.62 230.498 334.569 225.005 334.313 218.9C334.04 212.371 337.008 206.217 339.913 201.819C335.358 202.043 330.571 203.82 325.575 207.588C304.913 223.173 308.437 255.09 331.63 266.575C341.483 271.454 354.34 275.628 370.986 277.639C381.932 278.962 390.332 268.157 386.484 257.825C385.803 255.999 385.074 254.106 384.299 252.169Z" fill="#2BA870"/>
<path d="M384.682 253.133C375.485 229.857 359.413 199.585 338.638 201.921C333.332 210.26 328.337 224.178 342.751 236C362.605 252.286 372.409 261.687 384.682 253.133Z" fill="#73CF4A"/>
</g>
<defs>
<clipPath id="clip0_1_558">
<rect width="512" height="512" fill="white"/>
</clipPath>
</defs>
</svg>
