<svg width="512" height="512" viewBox="0 0 512 512" fill="none" xmlns="http://www.w3.org/2000/svg">
<g clip-path="url(#clip0_1_591)">
<path d="M256 21.996C120.689 21.996 10.998 131.687 10.998 266.998C10.998 395.128 109.361 500.267 234.692 511.067L259.691 511.953C393.298 509.977 501.001 401.074 501.001 266.997C501.002 131.687 391.311 21.996 256 21.996Z" fill="#121D4C"/>
<path d="M209.554 43.0839C219.497 38.9624 224.217 27.5604 220.095 17.617C215.974 7.67361 204.572 2.95407 194.628 7.07564C184.685 11.1972 179.965 22.5991 184.087 32.5425C188.209 42.4859 199.611 47.2055 209.554 43.0839Z" fill="#F5D001"/>
<path d="M235.768 208.25C230.473 208.25 226.054 204.094 225.788 198.747C223.612 154.99 209.944 98.174 209.807 97.605C208.507 92.238 211.803 86.832 217.17 85.531C222.532 84.234 227.943 87.526 229.244 92.893C229.824 95.289 243.492 152.085 245.763 197.752C246.037 203.269 241.788 207.963 236.273 208.236C236.102 208.246 235.935 208.25 235.768 208.25Z" fill="#00626B"/>
<path d="M256 342.661C243.486 342.661 233.341 352.806 233.341 365.32V376.275C233.341 388.789 243.486 398.934 256 398.934C268.514 398.934 278.659 388.789 278.659 376.275V365.32C278.659 352.805 268.514 342.661 256 342.661Z" fill="#F35922"/>
<path d="M302.644 310.29C300.25 313.887 296.163 316.272 291.542 316.272H266.115C278.669 322.482 303.245 337.487 303.245 359.749C303.245 366.652 308.842 372.249 315.745 372.249C322.648 372.249 328.245 366.652 328.245 359.749C328.245 338.042 316.09 321.714 302.644 310.29Z" fill="#63D9FA"/>
<path d="M260.655 458.177C258.356 458.177 256.031 457.543 253.949 456.217C248.128 452.507 246.415 444.779 250.125 438.957C257.485 427.407 266.486 416.819 275.19 406.58C289.618 389.608 303.245 373.578 303.245 359.75C303.245 352.847 308.842 347.25 315.745 347.25C322.648 347.25 328.245 352.847 328.245 359.75C328.245 382.769 311.727 402.2 294.238 422.772C286.081 432.368 277.645 442.29 271.209 452.392C268.825 456.133 264.784 458.177 260.655 458.177Z" fill="#63D9FA"/>
<path d="M267.385 435.133C261.564 431.424 253.836 433.134 250.125 438.957C239.74 455.254 234.692 470.56 234.692 485.75V511.067C241.716 511.673 248.819 512 256 512C257.235 512 258.462 511.971 259.692 511.953V485.75C259.692 475.321 263.351 464.722 271.209 452.393C274.919 446.57 273.206 438.844 267.385 435.133Z" fill="#AAE7FA"/>
<path d="M286.503 131.249C276.016 134.143 267.735 133.28 261.868 128.647C255.456 123.584 252.999 114.871 252.101 107.842C237.375 158.176 227.465 217.666 232.819 280.175C234.322 297.728 252.389 308.845 268.829 302.513L268.995 302.449C281.503 297.632 288.536 284.33 285.462 271.283C280.165 248.803 280.618 193.167 286.503 131.249Z" fill="#007F6F"/>
<path d="M271.8 265.594C242.31 173.74 185.372 101.914 148.327 62.216C143.277 56.804 134.644 63.028 138.194 69.523C172.084 131.536 203.443 210.989 219.484 265.593H271.8V265.594Z" fill="#2BA870"/>
<path d="M298.26 265.594C305.05 242.48 314.58 214.922 325.891 186.11C317.293 189.547 310.322 189.576 305.137 186.178C296.994 180.843 294.915 168.221 294.41 160.87C275.736 191.6 258.395 226.813 245.944 265.594H298.26Z" fill="#73CF4A"/>
<path d="M233.603 316.762C233.883 331.637 246.87 343.899 262.472 342.561L262.649 342.546C276.004 341.401 286.461 330.583 287.14 317.196C287.147 317.057 287.161 316.903 287.169 316.762H233.603Z" fill="#73CF4A"/>
<path d="M194.435 265.594H240.819C221.754 231.679 195.287 203.683 171.036 182.649C164.07 176.607 154.303 185.384 159.411 193.061C175.191 216.771 186.427 242.024 194.435 265.594Z" fill="#73CF4A"/>
<path d="M261.656 316.762H208.005C209.639 325.115 210.847 332.65 211.726 339.06C213.549 352.353 224.88 362.25 238.297 362.25C254.788 362.25 267.619 347.466 264.792 331.219C263.94 326.318 262.874 321.505 261.656 316.762Z" fill="#73CF4A"/>
<path d="M256.071 316.762C254.853 321.503 253.803 326.321 252.951 331.219C250.123 347.466 262.955 362.25 279.446 362.25C292.863 362.25 304.194 352.353 306.017 339.06C306.896 332.648 308.1 325.118 309.736 316.762H256.071Z" fill="#A4E830"/>
<path d="M323.303 265.594C325.722 258.474 328.432 251.202 331.478 243.862C309.93 250.123 306.03 234.411 305.658 224.251C295.189 236.819 285.338 250.631 276.925 265.593H323.303V265.594Z" fill="#A4E830"/>
<path d="M251.725 303.942C251.725 296.61 257.724 290.611 265.056 290.611H196.128C188.796 290.611 182.797 296.61 182.797 303.942C182.797 311.274 188.796 317.273 196.128 317.273H265.056C257.723 317.273 251.725 311.274 251.725 303.942Z" fill="#01A2C3"/>
<path d="M329.203 303.942C329.203 296.61 323.204 290.611 315.872 290.611H264.055C256.723 290.611 250.724 296.61 250.724 303.942C250.724 311.274 256.723 317.273 264.055 317.273H315.872C323.204 317.273 329.203 311.274 329.203 303.942Z" fill="#63D9FA"/>
<path d="M256.182 278.414C256.182 271.082 262.181 265.083 269.513 265.083H170.668C163.336 265.083 157.337 271.082 157.337 278.414C157.337 285.746 163.336 291.745 170.668 291.745H269.513C262.181 291.745 256.182 285.746 256.182 278.414Z" fill="#63D9FA"/>
<path d="M354.663 278.414C354.663 271.082 348.664 265.083 341.332 265.083H268.678C261.346 265.083 255.347 271.082 255.347 278.414C255.347 285.746 261.346 291.745 268.678 291.745H341.332C348.665 291.745 354.663 285.746 354.663 278.414Z" fill="#AAE7FA"/>
<path d="M219.744 66.986C237.514 101.756 231.058 108.706 221.269 113.708C211.48 118.711 202.066 119.873 184.295 85.103C166.525 50.333 160.055 18.091 169.843 13.088C179.633 8.08598 201.974 32.216 219.744 66.986Z" fill="#9739CF"/>
<path d="M203.693 70.965C204.221 110.009 213.175 113.139 224.168 112.99C235.16 112.842 244.027 109.471 243.5 70.427C242.972 31.383 233.634 -0.14803 222.641 -3.0431e-05C211.648 0.14897 203.165 31.921 203.693 70.965Z" fill="#FE17A0"/>
<path d="M293.505 3.48097C280.229 29.698 263.976 66.579 251.419 110.186C253.571 122.909 261.131 139.123 286.402 132.32C290.294 90.974 296.614 46.753 305.272 7.67897C306.873 0.450972 296.848 -3.12303 293.505 3.48097Z" fill="#2BA870"/>
<path d="M369.415 62.216C347.76 85.422 319.307 119.61 293.512 162.356C294.589 174.49 299.951 197.002 325.397 187.372C340.901 147.746 359.794 105.671 379.549 69.523C383.099 63.028 374.466 56.805 369.415 62.216Z" fill="#A4E830"/>
<path d="M346.706 182.649C332.817 194.696 318.204 209.037 304.665 225.454C305.087 235.725 309.15 251.417 331.151 244.668C338.243 227.456 347.144 209.87 358.331 193.061C363.44 185.384 353.672 176.607 346.706 182.649Z" fill="#BBE86D"/>
</g>
<defs>
<clipPath id="clip0_1_591">
<rect width="512" height="512" fill="white"/>
</clipPath>
</defs>
</svg>
