<svg width="512" height="512" viewBox="0 0 512 512" fill="none" xmlns="http://www.w3.org/2000/svg">
<g clip-path="url(#clip0_1_623)">
<path d="M392.226 470.638C457.819 426.676 501.002 351.874 501.002 266.98C501.002 131.67 391.311 21.979 256 21.979C120.689 21.979 10.998 131.67 10.998 266.981C10.998 351.875 54.181 426.677 119.774 470.639H392.226V470.638Z" fill="#DBF8A0"/>
<path d="M121.709 30.687C128.607 17.683 146 12.928 156.769 11.202C127.528 -1.40703 91.251 -4.34603 46.247 7.52497C29.859 11.848 31.785 35.639 48.634 37.475C72.873 40.116 98.99 47.511 123.498 63.174C117.788 50.137 117.17 39.244 121.709 30.687Z" fill="#2BA870"/>
<path d="M240.914 102.559C240.339 120.585 235.297 132.7 225.847 138.601C214.423 145.736 198.829 142.267 188.767 138.678C195.854 152.94 202.133 169.068 207.375 187.307C229.853 219.284 245.94 254.835 256.001 280.835C260.837 268.337 267.068 253.631 274.73 238.176C270.56 198.875 261.31 147.518 240.914 102.559Z" fill="#2BA870"/>
<path d="M121.709 30.687C123.623 27.078 126.349 24.104 129.515 21.654C113.672 17.025 98.337 15.811 85.255 17.009C80.906 17.407 80.636 23.646 84.924 24.475C90.887 25.629 96.697 27.118 101.859 28.815C108.101 30.833 114.038 33.178 119.699 35.821C120.191 34.029 120.847 32.311 121.709 30.687Z" fill="#BBE86D"/>
<path d="M233.074 131.739C231.05 134.563 228.643 136.856 225.847 138.602C221.922 141.053 217.504 142.249 212.988 142.622C218.231 154.143 223.069 165.942 227.847 177.864C227.882 177.964 248.994 237.445 249.5 238.732C250.881 204.989 246.177 168.456 233.074 131.739Z" fill="#BBE86D"/>
<path d="M75.007 136.679C77.505 120.239 97.639 108.793 99.699 107.663C72.153 103.994 41.055 110.338 6.265 131.671C-6.108 139.258 1.339 158.293 15.609 155.643C35.808 151.892 58.592 151.492 82.096 157.989C76.315 150.961 73.923 143.811 75.007 136.679Z" fill="#2BA870"/>
<path d="M195.239 168.806C197.368 183.276 195.063 194.298 188.354 201.619C180.644 210.031 168.771 211.578 161.92 211.703C170.144 221.348 178.188 232.412 185.961 245.083C210.844 264.037 230.63 284.891 240.962 296.57H262.5C252.49 267.633 230.418 212.307 195.239 168.806Z" fill="#2BA870"/>
<path d="M98.038 107.457C91.037 111.573 60.428 131.654 80.455 157.541C107.842 164.75 136.268 181.25 162.771 212.698C175.191 212.302 201.089 207.132 196.452 170.313C170.847 138.179 138.178 112.19 98.038 107.457Z" fill="#73CF4A"/>
<path d="M62.488 234.199C58.677 222.818 65.28 209.603 68.59 204.025C45.318 208.622 22.484 222.897 1.98901 251.707C-4.63499 261.019 6.62901 272.513 16.15 266.193C31.552 255.97 50.684 247.892 73.222 246.656C67.792 243.444 64.189 239.28 62.488 234.199Z" fill="#007F6F"/>
<path d="M174.299 235.31C179.609 247.919 180.04 257.43 175.561 263.592C170.937 269.954 161.973 271.378 156.278 271.598C166.878 278.315 177.872 286.557 189.254 296.571H241.843C230.297 283.422 205.389 256.885 174.299 235.31Z" fill="#007F6F"/>
<path d="M67.255 204.306C62.357 212.815 52.593 234.485 71.479 246.763C96.202 245.008 125.101 251.475 157.751 272.532C168.659 271.776 187.782 266.384 175.815 236.37C143.742 213.802 104.877 196.268 67.255 204.306Z" fill="#2BA870"/>
<path d="M302.6 99.749C292.838 91.506 291.268 76.668 291.658 65.701C256.445 116.891 242.643 187.541 237.272 238.178C244.934 253.633 251.165 268.339 256.001 280.837C266.061 254.837 282.149 219.285 304.626 187.309C315.055 151.019 329.575 123.049 346.44 101.627C326.509 108.124 311.786 107.505 302.6 99.749Z" fill="#73CF4A"/>
<path d="M355.21 169.995C348.451 157.658 354.316 139.89 359.591 128.417C298.915 169.351 263.091 257.281 249.5 296.571H271.039C281.371 284.891 301.157 264.038 326.04 245.084C342.83 217.713 360.878 197.797 379.296 183.637C367.335 181.92 359.245 177.361 355.21 169.995Z" fill="#2BA870"/>
<path d="M375.126 239.415C372.066 229.409 379.88 217.177 385.813 209.751C333.519 228.411 287.23 277.127 270.156 296.57H322.745C348.212 274.165 371.755 260.571 393.214 253.305C383.136 250.4 377.06 245.745 375.126 239.415Z" fill="#73CF4A"/>
<path d="M226.517 450.994C224.853 438.496 228.663 425.888 236.968 416.403C245.272 406.921 257.265 401.482 269.871 401.482H381.5C391.391 401.482 398.533 406.071 403.367 411.026C405.888 386.902 405.212 371.066 405.212 371.066C388.636 371.066 123.364 371.066 106.788 371.066C106.788 371.066 104.848 416.461 119.774 470.637C154.365 493.82 195.187 508.421 239.199 511.403C232.818 490.417 228.904 468.924 226.517 450.994Z" fill="#7B3723"/>
<path d="M403.439 410.332C398.551 405.435 391.395 400.983 381.5 400.983H269.871C243.117 400.983 222.491 424.54 226.021 451.061C228.459 469.374 232.376 490.682 238.649 511.369C244.381 511.77 250.166 511.983 256 511.983C306.417 511.983 353.271 496.747 392.226 470.639C398.422 448.148 401.71 427.176 403.439 410.332Z" fill="#99442D"/>
<path d="M302.6 99.749C300.346 97.846 298.546 95.58 297.088 93.103C284.585 114.512 280.601 127.389 279.964 128.812C269.596 156.907 264.195 184.935 262.703 211.728C262.411 216.963 269.733 218.461 271.49 213.521C277.433 196.802 284.135 177.92 284.155 177.864C294.183 152.842 304.459 128.358 318.24 105.864C311.939 105.25 306.711 103.22 302.6 99.749Z" fill="#BBE86D"/>
<path d="M405.212 295.571H251.646C230.522 295.571 213.398 312.695 213.398 333.819C213.398 354.943 230.522 372.067 251.646 372.067H405.212C413.896 372.067 420.935 365.027 420.935 356.344V311.295C420.936 302.611 413.896 295.571 405.212 295.571Z" fill="#F35922"/>
<path d="M214.398 333.819C214.398 312.695 231.522 295.571 252.646 295.571H106.788C98.104 295.571 91.065 302.611 91.065 311.294V356.343C91.065 365.027 98.105 372.066 106.788 372.066H252.646C231.522 372.067 214.398 354.943 214.398 333.819Z" fill="#99442D"/>
<path d="M213.656 241.343C213.642 241.294 213.628 241.245 213.614 241.196C208.453 224.764 201.311 209.331 192.544 195.424C191.417 197.713 190.031 199.789 188.354 201.619C186.156 204.017 183.617 205.85 180.954 207.259C190.579 218.941 199.636 231.311 208.623 243.774C210.48 246.349 214.529 244.395 213.656 241.343Z" fill="#BBE86D"/>
<path d="M75.007 136.679C75.6 132.775 77.195 129.155 79.3 125.885C74.372 125.892 69.385 126.211 64.349 126.876C59.483 127.57 54.354 128.603 49.379 130.066C46.271 130.98 46.821 135.555 50.059 135.635C54.933 135.756 59.744 136.113 64.498 136.654C68.025 137.074 71.464 137.599 74.828 138.213C74.871 137.701 74.929 137.19 75.007 136.679Z" fill="#BBE86D"/>
<path d="M78.094 125.895C75.844 129.542 74.226 133.615 73.841 138.034C122.122 146.553 154.146 174.547 181.61 208.061C186.135 205.619 190.311 201.939 193.17 196.429C166.705 153.847 125.059 125.332 78.094 125.895Z" fill="#F35922"/>
<path d="M360.471 176.314C358.291 174.507 356.529 172.404 355.21 169.996C353.097 166.14 352.218 161.753 352.169 157.194C327.921 177.927 308.983 207.457 298.386 241.196C298.372 241.245 298.358 241.294 298.344 241.343C297.472 244.395 301.521 246.349 303.377 243.774C320.91 219.462 338.706 195.502 360.471 176.314Z" fill="#BBE86D"/>
<path d="M61.895 221.03C55.25 223.124 49.299 225.938 44.163 229.22C40.845 231.341 43.385 236.457 47.098 235.143C51.911 233.44 56.82 232.207 61.757 231.378C61.105 227.939 61.273 224.409 61.895 221.03Z" fill="#BBE86D"/>
<path d="M203.876 279.756C203.836 279.708 203.801 279.665 203.77 279.626C196.316 270.722 187.685 262.387 178.555 254.912C178.293 258.298 177.3 261.2 175.562 263.592C174.636 264.865 173.533 265.935 172.321 266.843C181.838 273.182 190.874 279.684 198.447 285.412C198.448 285.413 198.451 285.415 198.456 285.419C202.187 288.211 206.844 283.35 203.876 279.756Z" fill="#BBE86D"/>
<path d="M129.179 242.423C142.678 248.141 158.555 257.629 173.208 267.436C176.448 264.902 178.897 261.162 179.485 255.674C160.559 239.999 139.356 228.029 121.916 222.511C114.75 220.629 118.349 221.117 107.56 218.872C89.805 215.531 73.905 217.05 60.797 221.387C60.24 224.706 60.132 228.165 60.776 231.555C66.683 230.495 72.637 230.016 78.532 230.104C96.87 230.959 110.855 234.224 129.179 242.423Z" fill="#DBF8A0"/>
<path d="M375.126 239.415C374.044 235.876 374.326 232.058 375.4 228.272C352.634 238.77 326.792 257.452 308.23 279.625C308.199 279.664 308.164 279.707 308.124 279.755C305.156 283.35 309.813 288.21 313.545 285.418C313.55 285.414 313.554 285.411 313.554 285.411C331.208 272.056 356.803 254.501 377.948 244.602C376.648 243.021 375.7 241.294 375.126 239.415Z" fill="#BBE86D"/>
<path d="M465.753 7.52495C378.931 -15.3761 324.589 16.8439 290.586 67.2799C290.236 87.3909 297.021 118.138 345.362 103.015C379.687 58.5779 424.004 41.7649 463.366 37.4749C480.215 35.6389 482.141 11.8479 465.753 7.52495Z" fill="#A4E830"/>
<path d="M426.744 17.008C409.44 15.423 388.194 18.049 367.045 27.232C340.753 38.909 319.976 58.695 303.575 82.477C300.949 86.6 298.604 90.478 296.503 94.109C300.541 100.657 307.133 105.652 317.674 106.803C326.098 92.923 335.827 79.786 347.632 67.738C364.481 50.518 384.829 36.997 410.141 28.815C415.303 27.118 421.113 25.629 427.076 24.475C431.363 23.645 431.094 17.407 426.744 17.008Z" fill="#F35922"/>
<path d="M505.734 131.67C445.735 94.8799 396.713 102.658 357.965 129.529C349.965 147.59 341.958 178.744 378.208 184.487C418.908 152.669 461.503 149.163 496.389 155.641C510.66 158.292 518.108 139.257 505.734 131.67Z" fill="#73CF4A"/>
<path d="M462.622 130.065C457.647 128.602 452.518 127.569 447.652 126.875C411.63 122.122 378.077 134.637 351.187 158.031C351.435 165.22 353.772 171.979 359.719 176.984C382.948 156.301 410.686 141.04 447.503 136.653C452.257 136.113 457.068 135.755 461.942 135.634C465.18 135.555 465.73 130.979 462.622 130.065Z" fill="#F35922"/>
<path d="M495.85 266.192C505.371 272.512 516.636 261.018 510.011 251.706C472.012 198.293 425.978 194.84 384.007 210.408C374.711 222.484 362.721 244.77 391.601 253.862C435.414 238.453 470.629 249.451 495.85 266.192Z" fill="#A4E830"/>
<path d="M433.469 230.103C443.962 229.946 454.647 231.514 464.903 235.143C468.616 236.457 471.156 231.34 467.838 229.22C452.734 219.567 430.597 213.949 404.44 218.872C393.651 221.117 397.25 220.629 390.084 222.511C385.059 224.101 379.718 226.234 374.213 228.829C372.789 234.476 373.143 240.193 377.014 245.044C378.989 244.104 380.93 243.224 382.822 242.423C401.145 234.224 415.13 230.959 433.469 230.103Z" fill="#F35922"/>
<path d="M155.002 10.462C137.478 13.565 106.3 24.44 122.012 62.231C147.414 78.079 171.166 102.704 189.415 139.991C207.009 146.051 239.44 150.773 241.832 104.603C223.574 63.511 196.155 27.494 155.002 10.462Z" fill="#73CF4A"/>
<path d="M164.369 67.7379C186.207 90.025 200.956 116.029 213.432 143.6C220.921 142.897 228.162 139.945 233.478 132.881C233 131.525 232.537 130.169 232.036 128.812C231.3 127.167 226.099 110.224 208.425 82.4769C192.023 58.6949 171.247 38.909 144.955 27.232C139.388 24.815 133.817 22.864 128.31 21.312C123.928 24.863 120.43 29.4609 118.764 35.3989C136.46 43.5149 151.449 54.5329 164.369 67.7379Z" fill="#F35922"/>
</g>
<defs>
<clipPath id="clip0_1_623">
<rect width="512" height="512" fill="white"/>
</clipPath>
</defs>
</svg>
