<svg width="512" height="512" viewBox="0 0 512 512" fill="none" xmlns="http://www.w3.org/2000/svg">
<g clip-path="url(#clip0_1_661)">
<path d="M434.142 435.179L77.834 435.161C36.402 391.281 10.994 332.11 10.994 266.998C10.994 131.687 120.685 21.996 255.996 21.996C391.307 21.996 500.998 131.687 500.998 266.998C500.998 332.119 475.583 391.298 434.142 435.179Z" fill="#CF0D7D"/>
<path d="M161.582 235.379C130.263 241.697 84.158 207.913 55.904 250.447C52.913 254.95 50.267 259.09 47.926 262.896C41.029 274.108 49.675 288.13 62.82 287.439C69.646 287.08 77.037 288.634 84.472 293.574C111.926 311.811 136.27 269.061 174.339 281.919C189.141 286.919 197.423 294.706 203.609 302.881H221.918C212.003 275.859 192.901 229.061 161.582 235.379Z" fill="#007F6F"/>
<path d="M51.358 157.167C100.986 157.167 152.725 173.909 185.23 213.149C193.999 223.734 207.011 228.794 219.75 227.854C210.511 191.43 190.623 157.18 159.185 151.833C120.936 145.327 74.181 73.582 31.508 120.862C23.932 129.256 17.722 136.666 12.633 143.177C11.716 144.351 10.955 145.587 10.334 146.861C19.279 152.781 32.338 157.167 51.358 157.167Z" fill="#73CF4A"/>
<path d="M237.541 302.88C232.635 290.006 226.253 266.94 224.267 251.562C223.214 243.413 221.628 235.081 219.5 226.87C206.841 227.726 193.942 222.664 185.231 212.147C152.726 172.907 100.987 156.165 51.359 156.165C32.614 156.165 19.657 151.906 10.723 146.115C4.33101 157.978 10.917 173.756 24.311 175.87C34.535 177.484 45.634 183.285 55.559 197.337C83.817 237.345 121.938 187.804 163.877 225.346C192.095 250.605 195.529 279.526 203.774 302.879H237.541V302.88Z" fill="#2BA870"/>
<path d="M464.065 262.896C461.724 259.091 459.078 254.95 456.087 250.447C427.833 207.913 381.728 241.697 350.409 235.379C319.091 229.061 299.988 275.859 290.073 302.88H308.382C314.567 294.705 322.849 286.918 337.652 281.918C375.721 269.06 400.065 311.81 427.519 293.573C434.954 288.634 442.346 287.079 449.171 287.438C462.316 288.13 470.961 274.108 464.065 262.896Z" fill="#A4E830"/>
<path d="M263.608 222.547C262.708 222.413 261.803 222.241 260.895 222.006C247.7 218.594 237.249 205.083 229.834 181.848C212.429 127.313 179.334 82.418 128.656 44.6C116.771 35.73 110.46 26.547 109.899 17.307C109.673 13.593 110.438 10.348 111.505 7.71801C106.107 5.69401 100.858 3.50701 95.889 1.05701C87.918 -2.87399 79.215 4.82801 82.089 13.238C91.935 42.045 112.197 85.997 147.453 101.211C201.588 124.572 172.209 162.751 199.802 211.504C224.707 255.507 233.474 302.881 233.474 302.881H271.609C271.609 302.88 260.36 250.629 263.608 222.547Z" fill="#73CF4A"/>
<path d="M229.358 182C238.681 211.212 251.608 221.272 263.554 223.046C263.732 221.409 263.954 219.846 264.233 218.381C269.305 191.696 275.474 165.741 247.283 134.361C219.093 102.981 212.771 112.339 204.594 64.087C198.545 28.394 150.61 22.476 111.026 7.53699C107.777 15.579 107.324 29.303 128.359 45C161.858 70 206.858 111.5 229.358 182Z" fill="#A4E830"/>
<path d="M493.075 156.699C484.955 149.91 473.381 147.811 458.681 150.456C424.612 156.588 395.791 165.214 370.573 176.826C331.708 194.722 303.99 218.869 288.129 248.623C287.987 249.605 287.851 250.585 287.725 251.562C285.738 266.94 279.357 290.006 274.451 302.88H308.219C316.464 279.527 319.898 250.607 348.116 225.347C390.055 187.804 428.176 237.346 456.434 197.338C466.359 183.287 477.458 177.485 487.682 175.871C493.543 174.946 498.099 171.402 500.839 166.717C499.118 163.235 496.648 159.687 493.075 156.699Z" fill="#73CF4A"/>
<path d="M480.484 120.86C437.811 73.58 391.055 145.326 352.807 151.831C314.558 158.337 293.401 207.627 287.725 251.562C323.591 180.625 416.858 159 458.858 151.44C484.376 146.847 495.453 157.64 500.218 167.715C504.874 160.71 505.235 150.694 499.359 143.176C494.27 136.665 488.06 129.255 480.484 120.86Z" fill="#2BA870"/>
<path d="M377.501 41.879C371.914 48.934 365.11 55.351 357.907 62.144C330.669 87.832 293.364 123.013 273.469 239.3L272.211 245.461C271.015 251.318 272.498 257.334 276.278 261.964C279.179 265.517 283.15 267.901 287.54 268.821C292.884 252.194 300.869 231.501 312.187 211.503C339.78 162.75 310.401 124.57 364.536 101.21C396.432 87.446 416.055 50.16 426.796 21.847C412.98 19.985 393.266 21.973 377.501 41.879Z" fill="#A4E830"/>
<path d="M416.102 1.056C374.78 21.435 314.246 23.679 307.398 64.087C299.221 112.339 292.899 102.981 264.709 134.361C236.519 165.741 242.688 191.697 247.759 218.381C252.83 245.066 240.383 302.88 240.383 302.88H278.518C278.518 302.88 281.213 288.327 287.852 267.865C277.915 265.847 271.07 256.055 273.192 245.662L274.45 239.5C299.542 92.833 351.358 76.5 378.285 42.5C393.762 22.958 412.942 20.926 426.458 22.731C427.721 19.437 428.872 16.251 429.902 13.238C432.776 4.828 424.072 -2.874 416.102 1.056Z" fill="#73CF4A"/>
<path d="M220.988 320.229C218.576 329.492 220.773 339.437 227.518 349.8C227.255 350.042 226.9 350.38 226.503 350.766L431.804 369.034C427.94 351.693 421.591 335.288 413.125 320.229C405.268 306.253 390.495 297.588 374.462 297.588H239.16C235.072 300.052 224.278 307.594 220.988 320.229Z" fill="#AAE7FA"/>
<path d="M98.882 320.201C95.545 326.134 92.552 332.285 89.892 338.611L227.818 350.884C228.458 350.285 228.827 349.969 228.827 349.969C205.8 315.605 241.187 297.588 241.187 297.588H137.529C121.508 297.588 106.736 306.237 98.882 320.201Z" fill="#63D9FA"/>
<path d="M436.127 408.343L219.315 452.306C219.502 452.562 219.676 452.816 219.866 453.072C218.428 455.931 212.525 468.826 213.57 485.966C214.093 494.545 216.267 502.305 219.546 509.304C231.438 511.08 243.609 512.001 255.996 512.001C326.195 512.001 389.49 482.47 434.158 435.162C435.444 426.475 436.122 417.586 436.13 408.533C436.13 408.469 436.127 408.406 436.127 408.343Z" fill="#01A2C3"/>
<path d="M220.69 509.464C206.456 479.595 221.042 452.976 221.042 452.976C220.818 452.679 220.613 452.384 220.394 452.087L121.915 472.056C151.107 491.186 184.627 504.252 220.69 509.464Z" fill="#289EFF"/>
<path d="M431.586 368.011L227.468 349.848C224.63 352.473 213.91 363.078 207.432 379.027C200.556 395.958 197.166 422.511 219.866 453.072C219.842 453.12 219.814 453.177 219.787 453.23L436.121 409.364C436.123 409.086 436.129 408.81 436.129 408.532C436.142 394.599 434.568 381.036 431.586 368.011Z" fill="#63D9FA"/>
<path d="M228.827 349.969L90.304 337.643C81.02 359.359 75.861 383.258 75.861 408.368C75.861 417.479 76.544 426.43 77.849 435.178C91.341 449.464 106.541 462.114 123.107 472.833L221.041 452.975C176.837 394.127 228.827 349.97 228.827 349.969Z" fill="#01A2C3"/>
</g>
<defs>
<clipPath id="clip0_1_661">
<rect width="512" height="512" fill="white"/>
</clipPath>
</defs>
</svg>
