<svg width="512" height="512" viewBox="0 0 512 512" fill="none" xmlns="http://www.w3.org/2000/svg">
<g clip-path="url(#clip0_1_682)">
<path d="M392.226 470.656C457.819 426.694 501.002 351.892 501.002 266.998C501.002 131.687 391.311 21.996 256 21.996C120.689 21.996 10.998 131.687 10.998 266.998C10.998 351.892 54.181 426.694 119.774 470.656H392.226Z" fill="#121D4C"/>
<path d="M262.698 277.5V299.5H280.698V277.5C280.698 246.193 280.708 213.889 293.368 201.196C280.737 201.323 281.66 191.721 283.156 186.367C263.288 202.486 262.698 235.481 262.698 277.5Z" fill="#007F6F"/>
<path d="M229.546 127.438C247.646 151.002 244.43 174.321 244.43 193.831V299.5H263.68V167.907C263.68 153.657 265.489 139.478 268.839 125.628C269.427 123.196 269.999 120.55 270.514 117.735C257.603 135.358 240.302 132.071 229.546 127.438Z" fill="#2BA870"/>
<path d="M220.58 169.636C227.645 185.266 227.646 211.726 227.646 237.5V299.5H245.646V237.5C245.646 204.951 245.29 177.818 235.897 159.747C235.088 165.344 231.967 173.177 220.58 169.636Z" fill="#007F6F"/>
<path d="M226.517 451.012C224.853 438.514 228.663 425.906 236.968 416.421C245.272 406.939 257.265 401.5 269.871 401.5H381.5C391.391 401.5 398.533 406.089 403.367 411.044C405.888 386.92 405.212 371.084 405.212 371.084C388.636 371.084 123.364 371.084 106.788 371.084C106.788 371.084 104.848 416.479 119.774 470.655C154.365 493.838 195.187 508.439 239.199 511.421C232.818 490.434 228.904 468.942 226.517 451.012Z" fill="#CF0D7D"/>
<path d="M403.439 410.349C398.551 405.452 391.395 401 381.5 401H269.871C243.117 401 222.491 424.558 226.021 451.078C228.459 469.391 232.376 490.699 238.649 511.386C244.381 511.787 250.166 512 256 512C306.417 512 353.271 496.764 392.226 470.656C398.422 448.166 401.71 427.194 403.439 410.349Z" fill="#EF018E"/>
<path d="M405.212 295.589H251.646C230.522 295.589 213.398 312.713 213.398 333.837C213.398 354.961 230.522 372.085 251.646 372.085H405.212C413.896 372.085 420.935 365.045 420.935 356.362V311.313C420.936 302.628 413.896 295.589 405.212 295.589Z" fill="#FE3BAE"/>
<path d="M214.398 333.837C214.398 312.713 231.522 295.589 252.646 295.589H106.788C98.1039 295.589 91.0649 302.629 91.0649 311.312V356.361C91.0649 365.045 98.1049 372.084 106.788 372.084H252.646C231.522 372.085 214.398 354.961 214.398 333.837Z" fill="#EF018E"/>
<path d="M154.251 0.0739996C154.116 1.302 154.028 2.575 154.013 3.89C153.804 22.002 166.471 33.304 177.134 39.597C184.633 44.022 191.458 47.789 197.481 51.114C221.792 64.533 235.184 71.924 244.423 94.358C251.563 111.694 262.296 117.793 269.608 119.914C269.826 119.637 270.045 119.368 270.261 119.08C275.058 94.239 275.762 54.959 242.023 29.887C218.633 12.505 187.82 15.581 163.078 1.924C160.207 0.338 157.158 -0.211 154.251 0.0739996Z" fill="#AAE7FA"/>
<path d="M269.909 119.529C262.73 117.52 252.051 111.567 244.885 94.167C233.216 65.834 214.388 61 177.388 39.166C156.612 26.906 153.493 11.336 154.752 0.0389938C147.06 0.534994 140.232 6.89499 140.139 15.528C139.877 39.91 147.48 73.696 186.038 93.731C208.175 105.234 222.009 117.103 230.635 128.893C241.27 133.196 257.5 135.684 269.909 119.529Z" fill="#63D9FA"/>
<path d="M274.24 89.504C269.118 87.44 263.292 89.924 261.23 95.047C251.519 119.174 246.082 143.408 244.896 167.228C244.626 172.646 249 177.167 254.425 177.167C259.506 177.167 263.649 173.18 263.948 168.108C265.219 146.55 270.923 124.529 279.784 102.514C281.846 97.391 279.364 91.566 274.24 89.504Z" fill="#73CF4A"/>
<path d="M270.503 111.283C268.949 111.283 267.37 110.992 265.84 110.377C259.436 107.799 256.333 100.519 258.91 94.113C265.628 77.42 274.31 60.845 284.717 44.85C288.483 39.062 296.226 37.425 302.011 41.189C307.798 44.954 309.437 52.696 305.672 58.483C296.148 73.124 288.218 88.252 282.104 103.447C280.142 108.322 275.454 111.283 270.503 111.283Z" fill="#FFB00A"/>
<path d="M295.183 64.168C292.846 64.169 290.483 63.514 288.378 62.145C282.591 58.38 280.952 50.638 284.717 44.851C301.286 19.381 316.453 4.251 317.091 3.62C321.993 -1.238 329.908 -1.203 334.768 3.703C339.623 8.604 339.589 16.512 334.694 21.372C334.471 21.595 320.635 35.484 305.673 58.483C303.277 62.166 299.271 64.168 295.183 64.168Z" fill="#F5D001"/>
<path d="M342.281 291.853C337.167 304.362 334.1 318.319 333.188 332.893C338.062 338.184 343.628 342.846 349.79 346.712C358.205 351.992 366.878 356.787 375.226 361.337C373.399 324.206 386.548 298.891 392.867 289.009C389.952 281.939 386.847 275.032 383.535 268.31C380.17 261.481 376.76 255.172 373.378 249.36C359.659 260.657 349.205 274.919 342.281 291.853Z" fill="#2BA870"/>
<path d="M292.431 202.195C293.365 201.133 294.364 200.173 295.452 199.351C295.481 199.329 295.511 199.307 295.54 199.285C299.088 196.647 303.822 200.4 302.259 204.536C300.43 209.377 299.341 214.545 299.104 219.885C298.079 242.994 299.089 264.652 303.942 276.163L305.92 280.854C310.352 258.802 320.444 243.278 329.832 233.059C336.999 225.259 344.475 219.686 350.487 215.928C345.24 209.448 340.677 204.543 337.26 201.126C332.115 195.981 329.77 190.676 330.288 185.357C330.709 181.04 332.964 177.12 335.772 173.798C329.805 174.874 323.743 175.416 317.681 175.616C301.631 176.148 290.266 180.183 282.216 187.145C280.685 192.46 279.561 202.356 292.431 202.195Z" fill="#2BA870"/>
<path d="M373.886 250.238C365.331 235.422 356.931 223.806 349.844 215.135C335.437 224.165 312.808 243.546 305.192 279.127L317.699 308.791C321.633 318.122 327.211 326.617 334.117 333.873C335.885 301.784 348.304 271.394 373.886 250.238Z" fill="#007F6F"/>
<path d="M418.091 380.803C412.792 347.298 404.202 316.191 392.398 287.851C386.18 297.302 372.449 322.731 374.191 360.772C386.957 367.74 399.014 374.107 408.25 380.683C411.376 382.909 415.255 382.685 418.091 380.803Z" fill="#007F6F"/>
<path d="M100.093 340.683C107.318 335.539 116.275 330.521 125.941 325.245C123.451 313.934 119.011 305.296 115.074 299.393C111.208 293.598 107.375 289.644 104.898 287.385C99.603 304.024 94.626 322.816 91.697 341.596C94.32 342.703 97.474 342.548 100.093 340.683Z" fill="#73CF4A"/>
<path d="M190.4 269.34C183.112 243.774 170.432 227.369 160.231 217.662C152.072 209.897 144.506 205.311 139.761 202.882C133.098 215.987 126.058 231.21 119.445 247.426C122.957 249.786 128.684 254.173 134.699 261.038C142.657 270.12 152.507 285.287 156.958 307.695C157.49 307.366 158.024 307.044 158.554 306.712C172.737 297.812 183.788 284.715 190.4 269.34Z" fill="#73CF4A"/>
<path d="M176.043 178.964C186.447 186.44 199.565 199.741 207.923 222.37C209.689 210.72 209.938 195.642 209.239 179.886C209.002 174.546 207.913 169.378 206.084 164.537C205.471 162.914 205.835 161.356 206.71 160.213C201.711 156.482 193.564 151.984 184.046 152.808C174.826 153.603 166.38 159.253 158.887 169.59C163.501 171.392 169.584 174.323 176.043 178.964Z" fill="#73CF4A"/>
<path d="M104.562 288.442C109.846 293.359 120.69 305.541 125.038 325.739C135.535 320 146.911 313.963 157.88 307.126C150.445 270.104 128.39 252.178 119.835 246.476C116.199 255.348 112.686 264.522 109.431 273.818C107.806 278.453 106.168 283.353 104.562 288.442Z" fill="#2BA870"/>
<path d="M189.774 270.751C190.068 270.1 190.366 269.451 190.644 268.791L204.401 236.163C206.141 232.036 207.385 226.599 208.22 220.264C195.418 187.11 172.18 173.754 159.494 168.746C158.437 170.159 157.398 171.664 156.378 173.261C151.433 181.011 145.524 191.493 139.306 203.782C150.518 209.541 177.933 227.595 189.774 270.751Z" fill="#2BA870"/>
<path d="M433.595 259.927L426.026 241.976C402.609 232.086 378.349 239.678 368.727 243.539C376.032 255.397 383.544 269.534 390.575 286.118C400.36 284.344 421.372 283.046 439.895 298.655C440.933 285.487 438.768 272.196 433.595 259.927Z" fill="#73CF4A"/>
<path d="M367.569 202.193C376.329 200.576 387.915 199.933 401.108 202.91C395.73 197.264 389.565 191.267 383.007 185.248C370.953 174.185 354.414 169.887 338.777 173.215C337.278 173.534 335.771 173.81 334.259 174.059C328.603 181.238 325.718 190.998 336.555 201.835C338.824 204.104 341.443 206.873 344.319 210.15C348.543 207.91 356.725 204.192 367.569 202.193Z" fill="#73CF4A"/>
<path d="M414.183 327.283C411.251 326.824 408.625 326.664 406.383 326.664C405.906 326.664 405.45 326.672 405.009 326.685C409.846 343.172 414.027 361.354 417.176 381.334C419.542 380.144 421.391 377.905 421.85 374.949C423.722 362.893 428.047 348.664 432.268 333.446C425.354 329.769 419.071 328.047 414.183 327.283Z" fill="#73CF4A"/>
<path d="M438.341 309.377C439.195 305.417 439.737 301.416 439.991 297.408C421.102 281.801 399.927 283.304 390.164 285.153C395.595 297.857 400.749 312.004 405.305 327.686C411.463 327.535 421.116 328.576 431.999 334.418C434.257 326.301 436.503 317.898 438.341 309.377Z" fill="#A4E830"/>
<path d="M343.636 209.373C350.896 217.559 359.913 229.111 369.246 244.381C378.928 240.463 403.23 232.846 426.568 243.261L419.838 227.299C417.226 221.103 409.764 211.871 399.824 201.571C372.635 195.929 351.307 205.262 343.636 209.373Z" fill="#A4E830"/>
<path d="M77.8879 299.928C81.4849 312.7 84.8899 324.62 86.4939 334.949C87.0449 338.497 89.5889 341.03 92.6399 341.929C95.7089 322.144 101.224 301.381 107.948 281.243C101.605 281.59 87.5079 284.236 77.8879 299.928Z" fill="#00626B"/>
<path d="M115.015 197.365C98.8391 199.362 86.8691 205.146 78.0721 212.043L74.7481 219.926C68.4541 234.854 66.6041 251.294 69.5751 267.185C77.8991 254.626 89.1791 246.798 103.228 243.879C111.071 242.25 118.028 242.608 122.284 243.14C129.299 226.326 136.645 210.873 143.42 197.951C138.372 197.115 127.539 195.82 115.015 197.365Z" fill="#00626B"/>
<path d="M190.661 135.617C183.579 135.382 176.498 134.688 169.567 133.214C153.929 129.886 137.39 134.184 125.337 145.247C118.028 151.955 111.205 158.637 105.419 164.834C130.346 157.117 153.88 162.435 163.55 165.36C180.566 146.362 197.884 154.897 206.18 161.092C207.256 158.731 210.317 157.438 212.803 159.286C212.832 159.308 212.862 159.33 212.891 159.352C216.294 161.92 218.904 165.72 220.918 170.432C232.332 174.32 235.772 167.136 236.773 161.51C229.344 145.807 215.705 136.447 190.661 135.617Z" fill="#2BA870"/>
<path d="M122.686 242.177C112.633 240.858 86.806 240.378 69.322 265.796C69.524 266.992 69.746 268.187 70.002 269.377C72.36 280.306 75.384 291.044 78.252 301.224C87.492 285.391 101.222 282.618 107.619 282.235C112.197 268.429 117.35 254.905 122.686 242.177Z" fill="#007F6F"/>
<path d="M164.312 164.526C155.057 161.631 131.856 156.086 106.853 163.31C97.748 172.907 90.97 181.453 88.505 187.298L77.29 213.899C101.147 194.109 132.786 197.226 142.935 198.879C148.158 188.866 153.057 180.325 157.221 173.799C159.565 170.126 161.937 167.063 164.312 164.526Z" fill="#007F6F"/>
</g>
<defs>
<clipPath id="clip0_1_682">
<rect width="512" height="512" fill="white"/>
</clipPath>
</defs>
</svg>
