<svg width="512" height="512" viewBox="0 0 512 512" fill="none" xmlns="http://www.w3.org/2000/svg">
<g clip-path="url(#clip0_1_721)">
<path d="M74.621 431.704H437.38C476.91 388.198 501.003 330.411 501.003 266.998C501.003 131.687 391.312 21.996 256.001 21.996C120.69 21.996 10.998 131.687 10.998 266.998C10.998 330.412 35.09 388.198 74.621 431.704Z" fill="#AAE7FA"/>
<path d="M277.075 100.093C273.968 64.797 269.782 33.338 264.769 7.253C262.911 -2.419 249.089 -2.419 247.231 7.253C243.019 29.172 239.388 54.882 236.492 83.475C241.794 95.534 253.581 111.301 277.075 100.093Z" fill="#A4E830"/>
<path d="M280.438 147.174C279.508 130.513 278.351 114.46 276.991 99.133C253.673 110.206 241.911 94.68 236.576 82.661C234.579 102.246 232.927 123.193 231.67 145.212C231.741 145.704 231.821 146.18 231.889 146.675C241.29 215.002 245.772 254.553 256.199 283.981C266.599 254.627 271.085 215.189 280.438 147.174Z" fill="#73CF4A"/>
<path d="M189.473 212.063C189.592 212.291 189.714 212.506 189.833 212.736C220.896 272.553 235.392 302.89 256 322.839C261.065 317.937 265.76 312.401 270.423 305.96C248.611 273.306 245.08 234.759 232.535 143.582C223.486 77.813 194.29 46.974 169.751 32.532C161.286 27.55 152.206 37.889 158.256 45.627C188.796 84.689 190.863 132.557 189.473 212.063Z" fill="#2BA870"/>
<path d="M323.104 152.351C324.901 106.508 332.119 73.778 354.129 45.625C360.179 37.887 351.099 27.548 342.633 32.53C320.166 45.753 293.806 72.741 282.568 127.678C285.63 139.752 295.554 165.287 323.104 152.351Z" fill="#73CF4A"/>
<path d="M256 322.838C276.607 302.89 291.104 272.553 322.167 212.735C322.409 212.269 322.656 211.829 322.899 211.369C322.513 189.02 322.409 169.181 323.143 151.334C295.889 164.159 285.87 139.358 282.681 127.113C281.597 132.348 280.642 137.823 279.849 143.58C267.268 235.017 263.755 273.524 241.776 306.237C246.374 312.562 251.007 318.005 256 322.838Z" fill="#2BA870"/>
<path d="M97.0351 148.357C91.2401 145.133 93.9471 136.247 100.545 136.913C124.589 139.339 161.012 153.279 189.833 208.777C224.105 274.774 238.211 304.886 262.608 324.751C272.811 333.059 265.839 349.68 252.741 348.432C225.914 345.875 193.892 332.439 178.728 286.945C153.985 212.719 138.806 171.598 97.0351 148.357Z" fill="#007F6F"/>
<path d="M411.455 136.913C387.411 139.339 350.988 153.279 322.167 208.777C322.077 208.95 321.992 209.115 321.902 209.288C322.406 214.14 326.449 239.44 355.204 225.543C370.405 188.319 386.517 164.184 414.965 148.356C420.76 145.132 418.053 136.247 411.455 136.913Z" fill="#2BA870"/>
<path d="M322.835 207.51C322.612 207.932 322.388 208.35 322.167 208.777C287.895 274.774 273.789 304.886 249.392 324.751C239.189 333.059 246.161 349.681 259.259 348.432C286.086 345.875 318.108 332.439 333.273 286.945C341.263 262.974 348.258 242.474 355.471 224.896C324.621 239.305 322.853 207.845 322.835 207.51Z" fill="#007F6F"/>
<path d="M216.436 377C216.837 377.333 217.244 377.667 217.667 378C217.667 378 177.43 435.527 224.644 509.995C234.913 511.307 245.375 512 256 512C327.897 512 392.56 481.03 437.379 431.704V377H216.436Z" fill="#7B3723"/>
<path d="M74.6211 431.704C113.049 473.997 166.073 502.774 225.73 510.126C178.385 435.595 218.667 378 218.667 378C218.243 377.667 217.837 377.333 217.436 377H74.6211V431.704Z" fill="#602A1B"/>
<path d="M397.109 333.311H212.898C205.543 341.603 194.548 359.8 217.667 378H437.38V373.581C437.379 351.341 419.35 333.311 397.109 333.311Z" fill="#F35922"/>
<path d="M213.898 333.311H114.891C92.6501 333.311 74.6211 351.34 74.6211 373.581V378H218.667C195.549 359.801 206.543 341.604 213.898 333.311Z" fill="#99442D"/>
<path d="M289.465 290.191C285.392 297.246 278.467 300.873 273.997 298.292C269.527 295.711 269.206 287.9 273.279 280.846C277.352 273.791 284.277 270.164 288.747 272.745C293.217 275.325 293.538 283.136 289.465 290.191Z" fill="#007F6F"/>
<path d="M317.057 239.149C313.234 246.342 306.44 250.21 301.882 247.787C297.325 245.365 296.73 237.57 300.553 230.376C304.376 223.183 311.17 219.315 315.728 221.738C320.285 224.161 320.88 231.956 317.057 239.149Z" fill="#007F6F"/>
<path d="M348.997 186.94C344.096 193.447 336.781 196.204 332.658 193.099C328.536 189.994 329.167 182.202 334.068 175.695C338.969 169.188 346.284 166.431 350.407 169.536C354.53 172.641 353.899 180.433 348.997 186.94Z" fill="#2BA870"/>
<path d="M299.044 103.381C296.129 110.988 289.859 115.657 285.039 113.81C280.22 111.963 278.676 104.299 281.592 96.692C284.507 89.085 290.778 84.416 295.597 86.263C300.416 88.111 301.959 95.775 299.044 103.381Z" fill="#73CF4A"/>
<path d="M288.421 153.39C286.818 161.377 281.417 167.028 276.356 166.013C271.296 164.997 268.493 157.7 270.096 149.713C271.699 141.726 277.1 136.075 282.16 137.09C287.221 138.105 290.024 145.403 288.421 153.39Z" fill="#2BA870"/>
<path d="M281.441 212.389C279.838 220.376 274.437 226.027 269.376 225.012C264.316 223.996 261.513 216.699 263.116 208.712C264.719 200.725 270.12 195.074 275.181 196.089C280.241 197.104 283.043 204.402 281.441 212.389Z" fill="#2BA870"/>
<path d="M212.956 103.381C215.871 110.988 222.142 115.657 226.961 113.81C231.78 111.963 233.324 104.299 230.408 96.692C227.493 89.085 221.222 84.416 216.403 86.263C211.584 88.111 210.041 95.775 212.956 103.381Z" fill="#2BA870"/>
<path d="M223.579 153.39C225.182 161.377 230.583 167.028 235.644 166.013C240.704 164.997 243.507 157.7 241.904 149.713C240.301 141.726 234.9 136.075 229.839 137.09C224.779 138.105 221.976 145.403 223.579 153.39Z" fill="#2BA870"/>
<path d="M242.569 224.855C247.627 223.838 250.426 216.542 248.821 208.559C247.216 200.576 241.815 194.928 236.757 195.945C231.699 196.962 228.9 204.257 230.505 212.241C232.11 220.224 237.511 225.872 242.569 224.855Z" fill="#2BA870"/>
<path d="M222.535 290.191C226.608 297.246 233.533 300.873 238.003 298.292C242.473 295.711 242.794 287.9 238.721 280.846C234.648 273.791 227.723 270.164 223.253 272.745C218.783 275.325 218.462 283.136 222.535 290.191Z" fill="#007F6F"/>
<path d="M194.943 239.149C198.766 246.342 205.56 250.21 210.118 247.787C214.675 245.365 215.27 237.57 211.447 230.376C207.624 223.183 200.83 219.315 196.272 221.738C191.715 224.161 191.12 231.956 194.943 239.149Z" fill="#007F6F"/>
<path d="M163.003 186.94C167.904 193.447 175.22 196.204 179.342 193.099C183.464 189.994 182.833 182.202 177.932 175.695C173.031 169.188 165.716 166.431 161.593 169.536C157.47 172.641 158.101 180.433 163.003 186.94Z" fill="#007F6F"/>
</g>
<defs>
<clipPath id="clip0_1_721">
<rect width="512" height="512" fill="white"/>
</clipPath>
</defs>
</svg>
