<svg width="512" height="512" viewBox="0 0 512 512" fill="none" xmlns="http://www.w3.org/2000/svg">
<g clip-path="url(#clip0_1_790)">
<path d="M256 15.107C117.652 15.107 5.49902 126.34 5.49902 263.554C5.49902 366.962 69.203 455.602 159.807 493.008L205.722 506.992C221.965 510.274 238.779 512 256 512C273.178 512 289.951 510.281 306.157 507.015L352.045 493.068C442.727 455.697 506.501 367.017 506.501 263.554C506.501 126.34 394.348 15.107 256 15.107Z" fill="#F5D001"/>
<path d="M304.802 114.898C303.303 114.898 301.792 114.435 300.496 113.473C297.287 111.091 296.617 106.56 298.998 103.351C307.51 91.883 309.274 80.149 304.24 68.477C300.23 59.177 293.313 53.208 293.243 53.149C290.212 50.562 289.832 46.002 292.406 42.961C294.98 39.919 299.519 39.523 302.57 42.086C302.945 42.401 311.834 49.954 317.273 62.169C322.458 73.814 325.512 91.906 310.616 111.975C309.198 113.888 307.014 114.898 304.802 114.898Z" fill="#00626B"/>
<path d="M206.281 117.311C203.66 117.312 201.13 115.883 199.845 113.394C195.821 105.596 194.157 96.426 192.397 86.718C188.897 67.421 185.59 49.196 164.943 39.444C135.806 25.685 110.272 48.61 109.198 49.591C106.258 52.285 101.683 52.098 98.9829 49.166C96.2809 46.233 96.4539 41.675 99.3789 38.964C100.736 37.707 133.043 8.379 171.123 26.359C198.5 39.29 203.011 64.155 206.635 84.135C208.197 92.748 209.673 100.883 212.705 106.756C214.537 110.307 213.144 114.671 209.594 116.504C208.532 117.051 207.398 117.311 206.281 117.311Z" fill="#007F6F"/>
<path d="M233.112 402.574C231.072 377.041 229.534 326.896 228.379 317.895C226.821 305.745 230.389 293.489 238.171 284.269C245.951 275.051 257.188 269.764 268.999 269.764H373.587C382.854 269.764 389.546 274.225 394.075 279.042C396.436 255.591 395.803 240.197 395.803 240.197H116.201C116.201 240.197 120.973 311.138 129.476 366.081C132.723 387.065 150.736 402.574 171.97 402.574H233.112Z" fill="#3C224D"/>
<path d="M232.645 402.574H339.516C360.702 402.574 378.715 387.137 381.991 366.205C387.292 332.333 393.109 288.808 394.141 278.366C389.561 273.605 382.857 269.278 373.586 269.278H268.999C243.932 269.278 224.607 292.178 227.915 317.959C229.087 327.103 230.628 377.146 232.645 402.574Z" fill="#4A265D"/>
<path d="M118.732 355.04C117.356 355.186 115.922 354.952 114.592 354.286C110.896 352.431 109.402 347.931 111.257 344.234C120.051 326.703 121.555 309.446 121.569 309.274C121.908 305.151 125.525 302.087 129.645 302.424C133.767 302.762 136.834 306.379 136.495 310.5C136.428 311.321 134.725 330.852 124.644 350.949C123.455 353.317 121.183 354.78 118.732 355.04Z" fill="#00626B"/>
<path d="M394.699 355.04C396.075 355.186 397.509 354.952 398.839 354.286C402.535 352.431 404.029 347.931 402.174 344.234C393.38 326.703 391.877 309.446 391.862 309.274C391.523 305.151 387.906 302.087 383.786 302.424C379.664 302.762 376.597 306.379 376.936 310.5C377.003 311.321 378.706 330.852 388.787 350.949C389.975 353.317 392.247 354.78 394.699 355.04Z" fill="#00626B"/>
<path d="M272.531 190.349C272.386 190.349 272.24 190.346 272.094 190.34C266.39 190.103 261.959 185.286 262.197 179.583C262.234 178.674 263.243 157.052 273.458 135.217C287.651 104.88 312.319 88.846 344.793 88.846C350.501 88.846 355.129 93.474 355.129 99.182C355.129 104.89 350.501 109.518 344.793 109.518C320.581 109.518 302.879 121.112 292.181 143.978C283.703 162.098 282.858 180.263 282.85 180.443C282.62 186 278.041 190.349 272.531 190.349Z" fill="#007F6F"/>
<path d="M239.473 190.349C233.967 190.349 229.394 186.009 229.154 180.46C229.136 180.091 228.159 161.493 219.584 143.475C208.861 120.943 191.24 109.519 167.209 109.519C161.501 109.519 156.873 104.891 156.873 99.183C156.873 93.475 161.501 88.847 167.209 88.847C199.684 88.847 224.351 104.881 238.544 135.218C248.76 157.053 249.768 178.674 249.805 179.584C250.043 185.287 245.612 190.103 239.908 190.341C239.764 190.346 239.617 190.349 239.473 190.349Z" fill="#00626B"/>
<path d="M395.803 169.463H251.923C232.132 169.463 216.087 185.507 216.087 205.299C216.087 225.091 232.131 241.135 251.923 241.135H395.803C403.939 241.135 410.535 234.539 410.535 226.403V184.195C410.535 176.058 403.939 169.463 395.803 169.463Z" fill="#9739CF"/>
<path d="M217.024 205.298C217.024 185.506 233.068 169.462 252.86 169.462H116.201C108.065 169.462 101.47 176.057 101.47 184.194V226.402C101.47 234.538 108.066 241.134 116.201 241.134H252.859C233.068 241.134 217.024 225.09 217.024 205.298Z" fill="#4A265D"/>
<path d="M223.068 385.005C222.186 385.005 221.288 384.842 220.418 384.499C194.602 374.329 159.383 353.611 157.896 352.734C154.454 350.703 153.311 346.268 155.34 342.826C157.37 339.384 161.804 338.241 165.248 340.27C165.602 340.479 200.978 361.289 225.721 371.036C229.439 372.501 231.265 376.701 229.801 380.419C228.68 383.267 225.954 385.005 223.068 385.005Z" fill="#007F6F"/>
<path d="M372.712 312.422C367.919 309.659 361.781 311.401 358.726 316.014C328.006 362.407 313.351 404.56 315.05 441.54C315.346 447.983 321.455 452.558 327.737 451.092C332.546 449.97 335.938 445.604 335.721 440.671C333.943 400.167 356.326 357.016 376.177 327.101C379.456 322.16 377.929 315.43 372.712 312.422Z" fill="#007F6F"/>
<path d="M153.05 315.671C149.762 310.716 142.943 309.517 138.143 313.188C133.773 316.531 132.991 322.818 136.029 327.405C155.812 357.282 178.016 400.229 176.287 440.565C176.074 445.539 179.419 449.961 184.267 451.092C190.515 452.55 196.65 448.033 196.949 441.624C198.679 404.532 183.949 362.234 153.05 315.671Z" fill="#00626B"/>
<path d="M367.557 331.722C365.594 331.722 363.609 331.164 361.851 329.997C357.095 326.841 355.798 320.426 358.954 315.67C381.852 281.163 396.554 245.58 401.47 212.77C405.719 184.409 402.488 158.404 392.369 139.545C381.979 120.182 365.084 109.517 344.794 109.517C339.086 109.517 334.458 104.889 334.458 99.181C334.458 93.473 339.086 88.845 344.794 88.845C372.649 88.845 396.629 103.762 410.584 129.771C431.449 168.657 433.367 240.916 376.178 327.099C374.188 330.098 370.904 331.722 367.557 331.722Z" fill="#007F6F"/>
<path d="M144.448 331.722C141.101 331.722 137.817 330.099 135.827 327.1C78.6381 240.916 80.5551 168.658 101.421 129.772C115.376 103.763 139.356 88.846 167.211 88.846C172.919 88.846 177.547 93.474 177.547 99.182C177.547 104.89 172.919 109.518 167.211 109.518C146.921 109.518 130.026 120.183 119.636 139.546C109.517 158.405 106.285 184.409 110.535 212.771C115.452 245.582 130.154 281.164 153.052 315.671C156.208 320.427 154.911 326.841 150.155 329.998C148.395 331.164 146.411 331.722 144.448 331.722Z" fill="#00626B"/>
<path d="M387.697 449.644C380.563 443.556 368.112 433.399 359.159 428.651C349.405 423.479 337.598 430.631 330.728 436.059C327.359 438.721 322.636 438.721 319.267 436.059C312.397 430.631 300.59 423.479 290.836 428.651C281.875 433.403 269.411 443.573 262.28 449.659C259.134 452.344 259.664 457.366 263.318 459.304C272.496 464.171 285.014 465.995 292.291 466.669C295.434 466.96 297.741 469.703 297.581 472.855C296.975 484.821 300.421 496.744 305.055 507.083C320.603 503.923 335.611 499.282 349.937 493.329C351.752 486.719 352.765 479.795 352.414 472.856C352.254 469.703 354.562 466.959 357.706 466.668C364.999 465.992 377.553 464.162 386.735 459.272C390.362 457.342 390.823 452.312 387.697 449.644Z" fill="#73CF4A"/>
<path d="M441.795 325.247C433.416 323.62 419.002 321.153 409.781 321.403C399.737 321.675 393.587 332.632 390.577 340.01C389.101 343.628 385.359 345.744 381.498 345.145C373.624 343.923 361.065 343.547 355.656 352.015C350.686 359.795 345.369 373.435 342.447 381.452C341.158 384.988 343.828 388.729 347.59 388.628C357.041 388.372 367.775 384.208 373.843 381.481C376.464 380.303 379.52 381.443 380.806 384.012C388.456 399.293 403.94 410.04 415.874 416.468C423.858 420.768 433.559 415.276 433.987 406.217C434.627 392.677 433.396 373.874 424.244 359.446C422.705 357.019 423.303 353.812 425.663 352.173C431.138 348.37 440.263 341.296 445.347 333.308C447.356 330.151 445.467 325.96 441.795 325.247Z" fill="#73CF4A"/>
<path d="M405.22 312.305C405.823 304.56 406.561 291.271 405.38 282.96C404.093 273.906 393.549 269.481 386.566 267.523C383.142 266.563 380.841 263.399 380.983 259.846C381.272 252.599 380.311 241.205 372.094 237.191C364.545 233.503 351.66 230.108 344.108 228.296C340.777 227.497 337.671 230.298 338.153 233.69C339.364 242.21 344.241 251.484 347.334 256.687C348.67 258.934 347.957 261.816 345.767 263.245C332.742 271.745 324.629 286.859 320.053 298.316C316.992 305.981 322.963 314.183 331.198 313.632C343.507 312.809 360.381 309.747 372.479 299.978C374.514 298.335 377.475 298.544 379.202 300.508C383.207 305.064 390.55 312.583 398.299 316.352C401.363 317.841 404.956 315.699 405.22 312.305Z" fill="#73CF4A"/>
<path d="M471.908 178.245C464.213 179.309 451.072 181.424 443.205 184.351C434.635 187.54 432.561 198.785 432.139 206.025C431.932 209.575 429.332 212.499 425.83 213.118C418.689 214.382 407.762 217.753 405.594 226.637C403.602 234.799 403.035 248.112 402.876 255.876C402.806 259.301 406.206 261.738 409.416 260.543C417.481 257.542 425.501 250.799 429.924 246.665C431.835 244.88 434.802 244.962 436.665 246.797C447.749 257.708 464.246 262.409 476.416 264.434C484.558 265.789 491.297 258.205 489.001 250.277C485.57 238.427 478.978 222.595 466.852 212.861C464.812 211.224 464.385 208.286 465.935 206.179C469.532 201.293 475.31 192.516 477.338 184.141C478.139 180.833 475.28 177.779 471.908 178.245Z" fill="#73CF4A"/>
<path d="M441.327 145.919C436.592 139.76 428.248 129.392 421.808 124.006C414.793 118.139 403.997 121.906 397.498 125.125C394.311 126.703 390.484 125.892 388.211 123.156C383.577 117.578 375.237 109.754 366.445 112.27C358.368 114.582 346.521 120.681 339.697 124.388C336.687 126.023 336.253 130.184 338.881 132.381C345.482 137.902 355.312 141.53 361.093 143.326C363.59 144.102 364.988 146.721 364.317 149.248C360.327 164.28 364.412 180.941 368.679 192.517C371.533 200.261 381.46 202.36 387.21 196.44C395.805 187.591 406.296 174.024 408.748 158.669C409.16 156.086 411.501 154.26 414.099 154.564C420.124 155.269 430.612 155.943 438.892 153.558C442.165 152.614 443.402 148.617 441.327 145.919Z" fill="#73CF4A"/>
<path d="M249.591 449.66C242.46 443.574 229.996 433.404 221.035 428.652C211.281 423.48 199.474 430.632 192.604 436.06C189.235 438.722 184.512 438.722 181.143 436.06C174.273 430.632 162.466 423.48 152.712 428.652C143.759 433.4 131.308 443.557 124.174 449.645C121.048 452.313 121.508 457.342 125.136 459.274C134.318 464.164 146.873 465.994 154.165 466.67C157.309 466.961 159.616 469.705 159.457 472.858C159.107 479.776 160.114 486.68 161.918 493.272C176.251 499.239 191.268 503.892 206.826 507.062C211.455 496.728 214.895 484.814 214.29 472.857C214.13 469.704 216.437 466.962 219.58 466.671C226.857 465.997 239.375 464.173 248.553 459.306C252.207 457.367 252.737 452.345 249.591 449.66Z" fill="#2BA870"/>
<path d="M106.651 312.305C106.048 304.56 105.31 291.271 106.491 282.96C107.778 273.906 118.321 269.481 125.304 267.523C128.728 266.563 131.029 263.399 130.887 259.846C130.598 252.599 131.559 241.205 139.776 237.191C147.325 233.503 160.21 230.108 167.762 228.296C171.093 227.497 174.199 230.298 173.717 233.69C172.506 242.21 167.629 251.484 164.535 256.687C163.199 258.934 163.912 261.816 166.102 263.245C179.127 271.745 187.24 286.859 191.816 298.316C194.877 305.981 188.906 314.183 180.671 313.632C168.362 312.809 151.488 309.747 139.39 299.978C137.355 298.335 134.393 298.544 132.667 300.508C128.661 305.064 121.319 312.583 113.57 316.352C110.509 317.841 106.915 315.699 106.651 312.305Z" fill="#2BA870"/>
<path d="M39.9639 178.245C47.6589 179.309 60.7999 181.424 68.6669 184.351C77.2379 187.54 79.3109 198.785 79.7339 206.025C79.9409 209.575 82.5409 212.499 86.0429 213.118C93.1839 214.382 104.111 217.753 106.279 226.637C108.271 234.799 108.838 248.112 108.997 255.876C109.067 259.301 105.667 261.738 102.457 260.543C94.3919 257.542 86.3719 250.799 81.9489 246.665C80.0379 244.88 77.0709 244.962 75.2079 246.797C64.1249 257.708 47.6269 262.409 35.4569 264.434C27.3149 265.789 20.5759 258.205 22.8719 250.277C26.3029 238.427 32.8949 222.595 45.0209 212.861C47.0609 211.224 47.4879 208.286 45.9379 206.179C42.3409 201.293 36.5629 192.516 34.5349 184.141C33.7319 180.833 36.5919 177.779 39.9639 178.245Z" fill="#2BA870"/>
<path d="M70.5439 145.919C75.2789 139.76 83.6229 129.392 90.0629 124.006C97.0779 118.139 107.874 121.906 114.373 125.125C117.56 126.703 121.387 125.892 123.66 123.156C128.294 117.578 136.634 109.754 145.426 112.27C153.503 114.582 165.35 120.681 172.174 124.388C175.184 126.023 175.618 130.184 172.99 132.381C166.389 137.902 156.559 141.53 150.778 143.326C148.281 144.102 146.883 146.721 147.554 149.248C151.544 164.28 147.459 180.941 143.192 192.517C140.338 200.261 130.411 202.36 124.661 196.44C116.065 187.591 105.575 174.024 103.123 158.669C102.711 156.086 100.37 154.26 97.7719 154.564C91.7469 155.269 81.2589 155.943 72.9789 153.558C69.7059 152.614 68.4689 148.617 70.5439 145.919Z" fill="#2BA870"/>
<path d="M77.2809 10.293C84.2889 11.23 96.2569 13.102 103.429 15.735C111.242 18.603 113.175 28.829 113.588 35.416C113.791 38.646 116.169 41.296 119.359 41.846C125.864 42.967 135.822 45.991 137.831 54.068C139.677 61.489 140.247 73.602 140.422 80.668C140.499 83.785 137.415 86.016 134.488 84.942C127.136 82.243 119.81 76.138 115.767 72.394C114.021 70.777 111.321 70.864 109.632 72.541C99.5889 82.516 84.5929 86.861 73.5259 88.753C66.1219 90.019 59.9579 83.144 62.0149 75.919C65.0899 65.121 71.0259 50.685 82.0219 41.776C83.8719 40.278 84.2489 37.602 82.8289 35.691C79.5359 31.259 74.2419 23.294 72.3619 15.68C71.6199 12.673 74.2099 9.882 77.2809 10.293Z" fill="#2BA870"/>
<path d="M191.294 123.949C199.947 122.084 214.838 119.22 224.403 119.283C234.822 119.352 241.431 130.58 244.708 138.166C246.315 141.886 250.239 144 254.23 143.297C262.368 141.863 275.38 141.207 281.168 149.87C286.486 157.83 292.288 171.859 295.488 180.109C296.9 183.748 294.211 187.683 290.308 187.658C280.504 187.593 269.287 183.504 262.938 180.806C260.196 179.641 257.052 180.887 255.773 183.578C248.167 199.583 232.342 211.054 220.105 217.972C211.919 222.6 201.745 217.112 201.108 207.729C200.156 193.705 201.034 174.185 210.215 159.032C211.759 156.484 211.071 153.171 208.589 151.522C202.832 147.696 193.221 140.555 187.781 132.381C185.633 129.151 187.503 124.766 191.294 123.949Z" fill="#2BA870"/>
<path d="M270.157 94.933C277.423 92.184 289.764 87.199 296.783 82.595C304.429 77.579 303.95 66.154 302.751 59.002C302.163 55.495 304.048 52.066 307.324 50.683C314.005 47.862 323.908 42.145 324.046 33.002C324.172 24.601 321.764 11.496 320.191 3.891C319.497 0.535998 315.64 -1.083 312.776 0.795998C305.581 5.516 299.262 13.874 295.869 18.888C294.403 21.053 291.492 21.633 289.267 20.259C276.034 12.087 258.904 11.174 246.589 11.906C238.35 12.396 233.467 21.289 237.469 28.508C243.45 39.297 253.399 53.267 267.386 60.06C269.739 61.202 270.809 63.972 269.766 66.37C267.346 71.933 263.665 81.776 263.551 90.393C263.506 93.796 266.973 96.137 270.157 94.933Z" fill="#2BA870"/>
<path d="M62.477 319.287C71.15 317.603 86.068 315.049 95.612 315.308C106.008 315.59 112.373 326.93 115.488 334.566C117.016 338.311 120.888 340.501 124.885 339.881C133.035 338.616 146.033 338.227 151.632 346.991C156.776 355.043 162.279 369.161 165.304 377.459C166.638 381.119 163.875 384.991 159.981 384.886C150.199 384.621 139.089 380.311 132.809 377.489C130.097 376.27 126.934 377.449 125.602 380.108C117.684 395.924 101.658 407.047 89.306 413.7C81.042 418.151 71.002 412.466 70.559 403.09C69.896 389.076 71.171 369.615 80.643 354.681C82.236 352.169 81.617 348.85 79.174 347.153C73.508 343.217 64.062 335.895 58.801 327.627C56.722 324.362 58.677 320.024 62.477 319.287Z" fill="#2BA870"/>
<path d="M248.814 337.661C242.267 340.331 231.155 345.153 224.876 349.505C218.036 354.246 218.738 364.63 219.995 371.109C220.611 374.286 218.976 377.449 216.028 378.784C210.015 381.506 201.138 386.937 201.225 395.259C201.305 402.905 203.801 414.773 205.409 421.655C206.118 424.691 209.665 426.075 212.227 424.299C218.664 419.838 224.219 412.086 227.189 407.446C228.472 405.442 231.107 404.847 233.163 406.045C245.393 413.172 260.999 413.605 272.187 412.653C279.672 412.016 283.908 403.811 280.099 397.336C274.406 387.659 265.03 375.18 252.146 369.325C249.979 368.34 248.94 365.845 249.834 363.639C251.906 358.521 255.027 349.48 254.93 341.638C254.891 338.541 251.682 336.491 248.814 337.661Z" fill="#2BA870"/>
<path d="M189.623 59.844C186.65 59.844 183.865 57.998 182.808 55.038C178.863 43.976 180.51 32.506 187.568 21.871C192.532 14.392 198.418 9.973 199.073 9.494C202.299 7.134 206.824 7.834 209.185 11.058C211.54 14.276 210.847 18.79 207.642 21.155C206.915 21.697 190.684 34.041 196.439 50.178C197.78 53.942 195.818 58.081 192.054 59.424C191.25 59.708 190.429 59.844 189.623 59.844Z" fill="#2BA870"/>
<path d="M290.102 455.752C287.106 455.752 284.334 453.814 283.412 450.802C282.279 447.106 284.357 443.191 288.053 442.058L322.947 431.364C326.645 430.229 330.558 432.309 331.69 436.005C332.823 439.701 330.745 443.616 327.049 444.749L292.155 455.443C291.472 455.652 290.78 455.752 290.102 455.752Z" fill="#A4E830"/>
<path d="M324.996 489.25C321.13 489.25 317.996 486.116 317.996 482.25V438.056C317.996 434.19 321.13 431.056 324.996 431.056C328.862 431.056 331.996 434.19 331.996 438.056V482.25C331.996 486.116 328.862 489.25 324.996 489.25Z" fill="#A4E830"/>
<path d="M359.89 455.752C359.211 455.752 358.52 455.652 357.836 455.442L322.944 444.748C319.248 443.615 317.171 439.7 318.303 436.004C319.435 432.309 323.349 430.227 327.047 431.363L361.939 442.057C365.635 443.19 367.712 447.105 366.58 450.801C365.657 453.815 362.885 455.752 359.89 455.752Z" fill="#BBE86D"/>
<path d="M187.004 489.25C190.87 489.25 194.004 486.116 194.004 482.25V438.056C194.004 434.19 190.87 431.056 187.004 431.056C183.138 431.056 180.004 434.19 180.004 438.056V482.25C180.004 486.116 183.138 489.25 187.004 489.25Z" fill="#73CF4A"/>
<path d="M152.11 455.752C152.789 455.752 153.48 455.652 154.164 455.442L189.056 444.748C192.752 443.615 194.829 439.7 193.697 436.004C192.565 432.309 188.651 430.227 184.953 431.363L150.061 442.057C146.365 443.19 144.288 447.105 145.42 450.801C146.343 453.815 149.115 455.752 152.11 455.752Z" fill="#73CF4A"/>
<path d="M221.898 455.752C224.894 455.752 227.666 453.814 228.588 450.802C229.721 447.106 227.643 443.191 223.947 442.058L189.054 431.364C185.356 430.229 181.443 432.309 180.311 436.005C179.178 439.701 181.256 443.616 184.952 444.749L219.846 455.443C220.528 455.652 221.22 455.752 221.898 455.752Z" fill="#A4E830"/>
<path d="M408.894 390.501C406.429 390.501 404.038 389.196 402.761 386.885L380.969 347.442C379.099 344.058 380.327 339.799 383.711 337.93C387.09 336.061 391.354 337.286 393.223 340.672L415.015 380.115C416.885 383.499 415.657 387.758 412.273 389.627C411.2 390.22 410.039 390.501 408.894 390.501Z" fill="#A4E830"/>
<path d="M366.891 370.778C365.071 370.778 363.252 370.073 361.88 368.668C359.18 365.901 359.233 361.469 362 358.769L382.206 339.047C384.972 336.347 389.404 336.4 392.105 339.167C394.805 341.934 394.752 346.366 391.985 349.066L371.779 368.788C370.418 370.116 368.653 370.778 366.891 370.778Z" fill="#A4E830"/>
<path d="M353.561 290.001C351.251 290.001 348.989 288.858 347.654 286.766C345.574 283.507 346.53 279.18 349.789 277.1L378.63 258.693C381.887 256.611 386.216 257.568 388.296 260.828C390.376 264.087 389.42 268.414 386.161 270.494L357.32 288.9C356.154 289.646 354.85 290.001 353.561 290.001Z" fill="#A4E830"/>
<path d="M382.39 271.594C381.006 271.594 379.609 271.185 378.388 270.332L361.547 258.572C358.377 256.358 357.603 251.995 359.815 248.825C362.03 245.654 366.392 244.881 369.562 247.094L386.403 258.854C389.573 261.068 390.347 265.431 388.135 268.601C386.773 270.55 384.599 271.594 382.39 271.594Z" fill="#A4E830"/>
<path d="M254.133 398.752C253.136 398.752 252.123 398.538 251.161 398.086L216.461 381.781C212.962 380.136 211.458 375.967 213.102 372.469C214.747 368.969 218.915 367.466 222.414 369.11L257.114 385.415C260.613 387.06 262.117 391.228 260.473 394.727C259.281 397.264 256.762 398.752 254.133 398.752Z" fill="#73CF4A"/>
<path d="M215.395 403.001C214.946 403.001 214.491 402.958 214.034 402.868C210.241 402.121 207.772 398.439 208.519 394.646L212.569 374.091C213.317 370.298 217.004 367.83 220.791 368.576C224.584 369.323 227.053 373.005 226.306 376.798L222.256 397.353C221.599 400.69 218.672 403.001 215.395 403.001Z" fill="#73CF4A"/>
<path d="M455.399 240.099C453.709 240.099 452.012 239.491 450.669 238.257L425.803 215.443C422.954 212.829 422.764 208.401 425.377 205.552C427.991 202.703 432.419 202.512 435.268 205.126L460.134 227.94C462.983 230.554 463.173 234.982 460.56 237.831C459.179 239.336 457.292 240.099 455.399 240.099Z" fill="#A4E830"/>
<path d="M419.633 240.002C418.617 240.002 417.587 239.779 416.611 239.311C413.125 237.638 411.655 233.458 413.327 229.972L424.224 207.256C425.897 203.769 430.078 202.303 433.563 203.972C437.049 205.644 438.519 209.826 436.847 213.311L425.949 236.027C424.745 238.537 422.241 240.002 419.633 240.002Z" fill="#A4E830"/>
<path d="M387.088 351.058C383.789 351.058 380.852 348.716 380.218 345.356C379.5 341.557 381.998 337.896 385.797 337.179L409.922 332.622C413.719 331.905 417.382 334.401 418.099 338.201C418.817 342 416.319 345.661 412.52 346.378L388.395 350.935C387.956 351.018 387.519 351.058 387.088 351.058Z" fill="#BBE86D"/>
<path d="M389.943 290.002C387.186 290.002 384.573 288.363 383.464 285.655L375.919 267.248C374.452 263.671 376.163 259.582 379.74 258.116C383.32 256.647 387.407 258.361 388.872 261.937L396.417 280.344C397.884 283.921 396.173 288.01 392.596 289.476C391.727 289.833 390.827 290.002 389.943 290.002Z" fill="#BBE86D"/>
<path d="M430.542 217.285C428.256 217.285 426.016 216.167 424.673 214.11C422.561 210.873 423.472 206.535 426.709 204.422L447.061 191.138C450.3 189.025 454.636 189.938 456.75 193.174C458.862 196.411 457.951 200.749 454.714 202.863L434.361 216.147C433.181 216.917 431.853 217.285 430.542 217.285Z" fill="#BBE86D"/>
<path d="M219.438 382.445C217.634 382.445 215.832 381.753 214.462 380.369C211.742 377.621 211.766 373.188 214.514 370.47L227.964 357.16C230.711 354.44 235.144 354.462 237.863 357.212C240.583 359.96 240.559 364.393 237.811 367.111L224.361 380.421C222.997 381.772 221.217 382.445 219.438 382.445Z" fill="#A4E830"/>
<path d="M384.061 171.168C383.589 171.168 383.11 171.12 382.629 171.021C378.844 170.234 376.413 166.528 377.2 162.743L385.209 124.22C385.996 120.435 389.699 118 393.487 118.791C397.272 119.578 399.703 123.284 398.916 127.069L390.907 165.592C390.221 168.896 387.309 171.168 384.061 171.168Z" fill="#A4E830"/>
<path d="M369.546 135.168C366.029 135.168 362.999 132.524 362.599 128.947C362.168 125.104 364.933 121.641 368.775 121.211L391.284 118.688C395.122 118.242 398.59 121.021 399.02 124.864C399.451 128.707 396.686 132.17 392.844 132.6L370.335 135.123C370.07 135.153 369.807 135.168 369.546 135.168Z" fill="#A4E830"/>
<path d="M414.049 143.669C412.995 143.669 411.925 143.43 410.918 142.925L388.927 131.902C385.471 130.17 384.073 125.964 385.806 122.507C387.538 119.052 391.744 117.653 395.201 119.386L417.192 130.409C420.648 132.141 422.045 136.348 420.313 139.804C419.085 142.253 416.614 143.669 414.049 143.669Z" fill="#BBE86D"/>
<path d="M103.106 390.501C105.571 390.501 107.962 389.196 109.239 386.885L131.031 347.442C132.901 344.058 131.673 339.799 128.289 337.93C124.91 336.061 120.646 337.286 118.777 340.672L96.985 380.115C95.115 383.499 96.343 387.758 99.727 389.627C100.8 390.22 101.961 390.501 103.106 390.501Z" fill="#73CF4A"/>
<path d="M158.439 290.001C160.749 290.001 163.011 288.858 164.346 286.766C166.426 283.507 165.47 279.18 162.211 277.1L133.37 258.693C130.113 256.611 125.784 257.568 123.704 260.828C121.624 264.087 122.58 268.414 125.839 270.494L154.68 288.9C155.846 289.646 157.15 290.001 158.439 290.001Z" fill="#73CF4A"/>
<path d="M56.6009 240.099C58.2909 240.099 59.9879 239.491 61.3309 238.257L86.1969 215.443C89.0459 212.829 89.2359 208.401 86.6229 205.552C84.0089 202.703 79.5809 202.512 76.7319 205.126L51.8659 227.94C49.0169 230.554 48.8269 234.982 51.4399 237.831C52.8209 239.336 54.7079 240.099 56.6009 240.099Z" fill="#73CF4A"/>
<path d="M124.912 351.058C128.211 351.058 131.148 348.716 131.782 345.356C132.5 341.557 130.002 337.896 126.203 337.179L102.078 332.622C98.2811 331.905 94.6181 334.401 93.9011 338.201C93.1831 342 95.6811 345.661 99.4801 346.378L123.605 350.935C124.044 351.018 124.481 351.058 124.912 351.058Z" fill="#73CF4A"/>
<path d="M122.057 290.002C124.814 290.002 127.427 288.363 128.536 285.655L136.081 267.248C137.548 263.671 135.837 259.582 132.26 258.116C128.68 256.647 124.593 258.361 123.128 261.937L115.583 280.344C114.116 283.921 115.827 288.01 119.404 289.476C120.273 289.833 121.173 290.002 122.057 290.002Z" fill="#73CF4A"/>
<path d="M81.4581 217.285C83.7441 217.285 85.9841 216.167 87.3271 214.11C89.4391 210.873 88.5281 206.535 85.2911 204.422L64.9381 191.138C61.6991 189.025 57.3631 189.938 55.2501 193.174C53.1381 196.411 54.0491 200.749 57.2861 202.863L77.6391 216.147C78.8191 216.917 80.1461 217.285 81.4581 217.285Z" fill="#73CF4A"/>
<path d="M127.938 171.168C128.41 171.168 128.889 171.12 129.37 171.021C133.155 170.234 135.586 166.528 134.799 162.743L126.79 124.219C126.003 120.434 122.3 117.999 118.512 118.79C114.727 119.577 112.296 123.283 113.083 127.068L121.092 165.591C121.779 168.896 124.691 171.168 127.938 171.168Z" fill="#73CF4A"/>
<path d="M97.9511 143.669C99.0051 143.669 100.075 143.43 101.082 142.925L123.073 131.902C126.529 130.17 127.927 125.964 126.194 122.507C124.462 119.052 120.256 117.653 116.799 119.386L94.8081 130.409C91.3521 132.141 89.9541 136.348 91.6871 139.804C92.9151 142.253 95.3861 143.669 97.9511 143.669Z" fill="#73CF4A"/>
<path d="M145.109 370.778C146.929 370.778 148.748 370.073 150.12 368.668C152.82 365.901 152.766 361.469 150 358.769L129.794 339.047C127.028 336.347 122.596 336.4 119.895 339.167C117.195 341.934 117.249 346.366 120.015 349.066L140.221 368.788C141.582 370.116 143.347 370.778 145.109 370.778Z" fill="#A4E830"/>
<path d="M129.61 271.594C130.994 271.594 132.391 271.185 133.612 270.332L150.453 258.572C153.623 256.358 154.397 251.995 152.185 248.825C149.97 245.654 145.608 244.881 142.438 247.094L125.597 258.854C122.427 261.068 121.653 265.431 123.866 268.601C125.227 270.55 127.401 271.594 129.61 271.594Z" fill="#A4E830"/>
<path d="M92.3671 240.002C93.3831 240.002 94.4131 239.779 95.3891 239.311C98.8751 237.638 100.345 233.458 98.6731 229.972L87.7761 207.256C86.1031 203.769 81.9221 202.303 78.4371 203.972C74.9511 205.644 73.4811 209.826 75.1531 213.311L86.0501 236.027C87.2551 238.537 89.7591 240.002 92.3671 240.002Z" fill="#A4E830"/>
<path d="M142.454 135.168C145.971 135.168 149.001 132.524 149.401 128.947C149.832 125.104 147.067 121.641 143.225 121.211L120.716 118.688C116.878 118.242 113.41 121.021 112.98 124.864C112.549 128.707 115.314 132.17 119.156 132.6L141.665 135.123C141.93 135.153 142.193 135.168 142.454 135.168Z" fill="#A4E830"/>
<path d="M223.214 193.501C222.047 193.501 220.864 193.209 219.776 192.594C216.411 190.691 215.225 186.42 217.128 183.055L242.171 138.76C244.074 135.397 248.344 134.21 251.71 136.112C255.075 138.015 256.261 142.286 254.358 145.651L229.315 189.946C228.027 192.222 225.655 193.501 223.214 193.501Z" fill="#73CF4A"/>
<path d="M248.271 149.206C247.814 149.206 247.35 149.161 246.885 149.068L220.333 143.737C216.543 142.975 214.087 139.286 214.848 135.496C215.61 131.706 219.303 129.256 223.089 130.011L249.641 135.342C253.431 136.104 255.887 139.793 255.126 143.583C254.459 146.908 251.537 149.206 248.271 149.206Z" fill="#73CF4A"/>
<path d="M267.221 168.188C265.428 168.188 263.635 167.503 262.268 166.134L243.311 147.152C240.58 144.417 240.582 139.984 243.318 137.253C246.052 134.523 250.485 134.524 253.217 137.26L272.174 156.242C274.906 158.977 274.903 163.41 272.167 166.141C270.801 167.505 269.011 168.188 267.221 168.188Z" fill="#A4E830"/>
<path d="M85.1419 72C83.1379 72 81.1489 71.145 79.7649 69.486C77.2859 66.518 77.6839 62.104 80.6519 59.627L110.941 34.339C113.909 31.859 118.325 32.259 120.8 35.226C123.279 38.194 122.881 42.608 119.913 45.085L89.6239 70.373C88.3139 71.467 86.7239 72 85.1419 72Z" fill="#73CF4A"/>
<path d="M115.421 46.713C114.057 46.713 112.68 46.315 111.47 45.486L95.1079 34.274C91.9189 32.089 91.1049 27.732 93.2909 24.543C95.4769 21.352 99.8339 20.541 103.022 22.726L119.383 33.938C122.572 36.124 123.386 40.48 121.2 43.669C119.845 45.648 117.651 46.713 115.421 46.713Z" fill="#73CF4A"/>
<path d="M123.945 64.169C121.353 64.169 118.862 62.723 117.648 60.236L109.134 42.781C107.44 39.306 108.883 35.116 112.358 33.421C115.829 31.729 120.022 33.168 121.718 36.645L130.232 54.1C131.926 57.575 130.483 61.765 127.008 63.46C126.021 63.94 124.976 64.169 123.945 64.169Z" fill="#A4E830"/>
<path d="M303.936 60.471C302.806 60.471 301.661 60.198 300.598 59.619L264.794 40.149C261.397 38.302 260.142 34.051 261.988 30.656C263.835 27.26 268.085 26.002 271.481 27.85L307.285 47.32C310.681 49.167 311.937 53.418 310.091 56.813C308.822 59.147 306.417 60.471 303.936 60.471Z" fill="#73CF4A"/>
<path d="M285.482 76.867C283.56 76.867 281.646 76.08 280.263 74.534C277.685 71.652 277.931 67.227 280.813 64.65L299.274 48.253C302.155 45.674 306.58 45.92 309.158 48.803C311.736 51.685 311.49 56.11 308.608 58.687L290.147 75.084C288.811 76.279 287.143 76.867 285.482 76.867Z" fill="#73CF4A"/>
<path d="M308.66 23.5C304.841 22.899 301.257 25.507 300.656 29.326L297.027 52.38C296.426 56.199 299.035 59.782 302.853 60.384C303.222 60.442 303.588 60.47 303.951 60.47C307.337 60.47 310.314 58.008 310.857 54.558L314.486 31.503C315.087 27.685 312.478 24.101 308.66 23.5Z" fill="#A4E830"/>
</g>
<defs>
<clipPath id="clip0_1_790">
<rect width="512" height="512" fill="white"/>
</clipPath>
</defs>
</svg>
