<svg width="512" height="512" viewBox="0 0 512 512" fill="none" xmlns="http://www.w3.org/2000/svg">
<g clip-path="url(#clip0_1_753)">
<path d="M256.001 21.633C120.589 21.633 10.817 131.405 10.817 266.816C10.817 351.209 53.4586 425.637 118.367 469.746H393.634C458.542 425.637 501.184 351.209 501.184 266.816C501.183 131.405 391.412 21.633 256.001 21.633Z" fill="#DBF8A0"/>
<path d="M249.951 313.444C248.126 313.444 246.27 313.193 244.428 312.665C169.32 291.147 140.244 223.244 139.042 220.365C134.787 210.163 139.608 198.443 149.811 194.189C159.991 189.948 171.681 194.733 175.958 204.888C176.379 205.858 199.5 258.153 255.454 274.184C266.08 277.228 272.227 288.31 269.182 298.937C266.666 307.721 258.656 313.444 249.951 313.444Z" fill="#602A1B"/>
<path d="M249.942 269.401C236.711 269.401 225.986 280.126 225.986 293.357V379.995H273.897V293.357C273.897 280.126 263.172 269.401 249.942 269.401Z" fill="#7B3723"/>
<path d="M304.663 119.699C293.897 120.129 285.483 129.289 285.47 140.063C285.418 184.529 275.897 223.366 257.93 252.398C252.375 261.373 246.787 268.153 242.131 273.024C235.834 279.614 234.727 289.593 239.497 297.36C246.382 308.568 261.986 310.162 271.065 300.643C292.97 277.677 325.5 228.6 325.5 139.696C325.5 128.37 316.092 119.241 304.663 119.699Z" fill="#99442D"/>
<path d="M266.311 472.027H390.21C391.358 471.276 392.5 470.516 393.633 469.746V437.796H118.367V469.746C149.716 491.049 186.261 505.272 225.704 510.135C227.053 488.947 244.798 472.027 266.311 472.027Z" fill="#3C224D"/>
<path d="M407.719 398.786H220.435C214.239 405.591 203.21 422.236 223.727 438.923H389.688C399.704 438.923 407.824 430.804 407.824 420.787V398.78C407.788 398.781 407.755 398.786 407.719 398.786Z" fill="#62387A"/>
<path d="M104.281 398.786C104.246 398.786 104.212 398.781 104.177 398.781V420.788C104.177 430.804 112.296 438.924 122.313 438.924H224.727C204.211 422.237 215.239 405.592 221.436 398.787H104.281V398.786Z" fill="#4A265D"/>
<path d="M418.994 388.512C418.994 394.738 413.946 399.786 407.72 399.786H104.281C98.0546 399.786 93.0068 394.738 93.0068 388.512C93.0068 382.285 98.0546 377.237 104.281 377.237H407.72C413.946 377.237 418.994 382.285 418.994 388.512Z" fill="#9739CF"/>
<path d="M256 512C306.192 512 352.851 496.905 391.713 471.027H265.31C243.503 471.027 225.566 488.411 224.654 510.005C234.919 511.314 245.38 512 256 512Z" fill="#4A265D"/>
<path d="M274.619 173.042C301.159 160.506 320.005 144.691 316.712 137.719C313.419 130.747 289.234 135.258 262.693 147.794C236.152 160.331 217.307 176.145 220.6 183.117C223.893 190.089 248.078 185.578 274.619 173.042Z" fill="#2BA870"/>
<path d="M317.053 139.275C317.686 131.586 293.393 123.313 262.795 120.796C232.197 118.28 206.879 122.473 206.247 130.162C205.614 137.851 229.906 146.124 260.505 148.641C291.103 151.158 316.421 146.965 317.053 139.275Z" fill="#2BA870"/>
<path d="M316.628 141.07C321.024 134.731 302.248 114.101 274.691 94.9915C247.133 75.8824 221.23 65.5306 216.834 71.8701C212.438 78.2096 231.214 98.8398 258.771 117.949C286.329 137.058 312.232 147.41 316.628 141.07Z" fill="#2BA870"/>
<path d="M299.057 185.208C314.658 162.711 322.165 140.91 315.825 136.514C309.486 132.118 291.7 146.792 276.1 169.289C260.5 191.786 252.992 213.587 259.332 217.983C265.671 222.379 283.457 207.705 299.057 185.208Z" fill="#73CF4A"/>
<path d="M324.483 182.882C326.59 157.572 322.065 136.535 314.375 135.895C306.686 135.255 298.745 155.254 296.638 180.564C294.531 205.874 299.056 226.911 306.745 227.551C314.434 228.191 322.376 208.192 324.483 182.882Z" fill="#73CF4A"/>
<path d="M333.587 72.3013C336.863 32.9502 333.285 0.53091 325.596 -0.10921C317.907 -0.74933 309.018 30.6321 305.742 69.9832C302.466 109.334 306.044 141.754 313.733 142.394C321.422 143.034 330.311 111.652 333.587 72.3013Z" fill="#73CF4A"/>
<path d="M346.224 175.094C357.908 199.843 361.726 222.576 354.752 225.867C347.777 229.16 332.652 211.765 320.969 187.015C309.285 162.266 305.467 139.533 312.441 136.242C319.415 132.949 334.541 150.344 346.224 175.094Z" fill="#73CF4A"/>
<path d="M362.796 156.145C386.924 172.871 402.923 191.568 398.53 197.906C394.137 204.244 371.015 195.824 346.885 179.098C322.756 162.371 306.757 143.674 311.15 137.336C315.544 130.997 338.666 139.418 362.796 156.145Z" fill="#A4E830"/>
<path d="M300.087 77.3613C284.749 44.8702 266.661 21.1987 259.687 24.4911C252.713 27.7836 259.493 56.792 274.831 89.2831C290.17 121.774 308.257 145.446 315.231 142.153C322.207 138.861 315.425 109.852 300.087 77.3613Z" fill="#73CF4A"/>
<path d="M367.112 129.593C397.697 132.124 421.977 140.406 421.341 148.092C420.705 155.777 395.395 159.956 364.809 157.427C334.223 154.896 309.943 146.615 310.58 138.928C311.215 131.242 336.525 127.063 367.112 129.593Z" fill="#A4E830"/>
<path d="M371.638 127.231C401.945 112.916 423.843 95.6591 420.55 88.6872C417.257 81.7153 390.019 87.6681 359.713 101.983C329.406 116.298 307.508 133.555 310.801 140.527C314.094 147.499 341.332 141.546 371.638 127.231Z" fill="#A4E830"/>
<path d="M360.634 96.3508C381.114 66.8163 392.577 39.3102 386.238 34.9142C379.898 30.5182 358.156 50.897 337.676 80.4315C317.196 109.966 305.733 137.472 312.072 141.868C318.412 146.264 340.154 125.885 360.634 96.3508Z" fill="#A4E830"/>
<path d="M109.66 230.91C85.7355 244.723 69.2823 261.015 72.911 267.3C76.5397 273.585 98.8752 267.481 122.8 253.669C146.725 239.856 163.178 223.563 159.549 217.28C155.92 210.994 133.584 217.097 109.66 230.91Z" fill="#2BA870"/>
<path d="M107.673 231.956C136.551 231.956 159.961 226.073 159.961 218.816C159.961 211.559 136.551 205.676 107.673 205.676C78.7945 205.676 55.384 211.559 55.384 218.816C55.384 226.073 78.7945 231.956 107.673 231.956Z" fill="#2BA870"/>
<path d="M116.653 180.417C89.3341 164.644 64.2466 156.952 60.6189 163.237C56.9902 169.521 76.1954 187.402 103.515 203.174C130.834 218.947 155.921 226.639 159.549 220.354C163.177 214.069 143.973 196.189 116.653 180.417Z" fill="#2BA870"/>
<path d="M123.73 249.965C110.853 272.268 105.51 293.288 111.795 296.917C118.079 300.545 133.612 285.407 146.488 263.105C159.365 240.802 164.708 219.782 158.423 216.153C152.139 212.524 136.606 227.663 123.73 249.965Z" fill="#73CF4A"/>
<path d="M156.885 302.245C164.142 302.245 170.025 282.88 170.025 258.993C170.025 235.105 164.142 215.741 156.885 215.741C149.628 215.741 143.745 235.105 143.745 258.993C143.745 282.88 149.628 302.245 156.885 302.245Z" fill="#73CF4A"/>
<path d="M156.885 221.892C164.142 221.892 170.025 191.785 170.025 154.646C170.025 117.508 164.142 87.4007 156.885 87.4007C149.628 87.4007 143.745 117.508 143.745 154.646C143.745 191.785 149.628 221.892 156.885 221.892Z" fill="#73CF4A"/>
<path d="M201.971 296.908C208.255 293.279 202.912 272.259 190.035 249.957C177.159 227.656 161.627 212.519 155.342 216.147C149.058 219.775 154.401 240.796 167.277 263.097C180.153 285.399 195.686 300.536 201.971 296.908Z" fill="#73CF4A"/>
<path d="M240.851 267.304C244.479 261.019 228.027 244.727 204.104 230.915C180.18 217.102 157.845 210.999 154.216 217.284C150.588 223.568 167.04 239.86 190.964 253.673C214.887 267.485 237.223 273.588 240.851 267.304Z" fill="#A4E830"/>
<path d="M139.194 161.896C122.289 132.617 103.492 111.824 97.2069 115.451C90.9223 119.08 99.5316 145.756 116.435 175.035C133.339 204.313 152.138 225.107 158.422 221.479C164.707 217.851 156.099 191.175 139.194 161.896Z" fill="#73CF4A"/>
<path d="M206.098 231.956C234.976 231.956 258.386 226.073 258.386 218.816C258.386 211.559 234.976 205.676 206.098 205.676C177.219 205.676 153.809 211.559 153.809 218.816C153.809 226.073 177.219 231.956 206.098 231.956Z" fill="#A4E830"/>
<path d="M210.251 203.17C237.569 187.397 256.773 169.516 253.145 163.232C249.517 156.947 224.43 164.639 197.112 180.411C169.794 196.184 150.59 214.065 154.218 220.349C157.846 226.634 182.933 218.942 210.251 203.17Z" fill="#A4E830"/>
<path d="M174.576 161.896C191.481 132.617 210.279 111.824 216.563 115.451C222.848 119.08 214.239 145.756 197.335 175.035C180.431 204.313 161.633 225.107 155.348 221.479C149.062 217.851 157.672 191.175 174.576 161.896Z" fill="#A4E830"/>
</g>
<defs>
<clipPath id="clip0_1_753">
<rect width="512" height="512" fill="white"/>
</clipPath>
</defs>
</svg>
