<svg width="512" height="512" viewBox="0 0 512 512" fill="none" xmlns="http://www.w3.org/2000/svg">
<g clip-path="url(#clip0_1_923)">
<path d="M69.122 431.704H431.88C471.41 388.198 495.503 330.411 495.503 266.998C495.503 131.687 385.812 21.996 250.501 21.996C115.19 21.996 5.49902 131.687 5.49902 266.998C5.49902 330.412 29.591 388.198 69.122 431.704Z" fill="#DBF8A0"/>
<path d="M172.193 268.269C172.345 268.243 187.412 265.535 197.358 273.789C204.241 279.502 207.731 289.774 207.731 304.32V335.311H232.731V304.32C232.731 281.832 226.117 265.017 213.072 254.343C193.851 238.615 168.401 243.531 167.327 243.746C160.56 245.113 156.141 251.715 157.508 258.481C158.874 265.25 165.429 269.64 172.193 268.269Z" fill="#007F6F"/>
<path d="M199.731 116.537C200.271 116.8 253.722 143.659 253.722 208.922V335.311H280.546V208.922C280.546 175.096 268.694 144.261 246.271 119.752C229.366 101.273 212.224 92.785 211.502 92.432C204.847 89.183 196.815 91.943 193.565 98.598C190.314 105.255 193.075 113.285 199.731 116.537Z" fill="#00626B"/>
<path d="M210.937 377C211.338 377.333 211.745 377.667 212.168 378C212.168 378 171.931 435.527 219.145 509.995C229.414 511.307 239.876 512 250.501 512C322.398 512 387.061 481.031 431.88 431.704V377H210.937Z" fill="#7B3723"/>
<path d="M69.1221 431.704C107.55 473.997 160.574 502.774 220.231 510.126C172.886 435.595 213.168 378 213.168 378C212.744 377.667 212.338 377.333 211.937 377H69.1221V431.704Z" fill="#602A1B"/>
<path d="M391.61 333.311H207.399C200.044 341.603 189.049 359.8 212.168 378H431.88V373.582C431.88 351.341 413.851 333.311 391.61 333.311Z" fill="#F35922"/>
<path d="M208.399 333.311H109.392C87.1511 333.311 69.1221 351.341 69.1221 373.581V378H213.168C190.049 359.801 201.044 341.604 208.399 333.311Z" fill="#99442D"/>
<path d="M225.147 16.895C213.248 10.276 200.641 6.315 188.117 4.816C196.04 21.513 205.463 53.493 188.198 91.9C210.99 100.148 224.567 103.913 234.079 118.53C234.912 117.427 235.941 116.459 237.143 115.664C243.707 111.326 249.316 105.545 253.441 98.413C269.454 70.727 256.031 34.074 225.147 16.895Z" fill="#FE3BAE"/>
<path d="M189.054 92.21C206.463 53.77 197.112 21.733 189.181 4.953C160.176 1.156 131.497 10.641 112.975 31.397C114.329 45.381 123.756 64.265 158.529 79.981C170.268 85.286 180.344 89.068 189.054 92.21Z" fill="#EF018E"/>
<path d="M180.148 87.924C172.317 99.802 149.781 124.915 101.466 119.847C109.168 136.627 122.128 151.729 139.525 162.524C169.554 181.158 208.108 175.066 224.515 147.611C228.742 140.539 231.065 132.826 231.664 124.981C231.862 122.386 232.846 120.019 234.446 118.096C223.857 101.328 208.214 98.563 180.148 87.924Z" fill="#CF0D7D"/>
<path d="M180.67 88.12C174.023 85.609 166.682 82.665 158.53 78.981C124.495 63.598 114.738 45.179 113.069 31.292C109.7 35.053 106.648 39.166 104.007 43.658C89.989 67.5 90.209 96.106 101.962 120.898C151.053 125.855 173.374 99.582 180.67 88.12Z" fill="#B41663"/>
<path d="M237.08 144.768C228.296 144.768 221.175 137.647 221.175 128.863C221.175 98.117 229.887 70.578 247.069 47.009C252.243 39.911 262.189 38.349 269.29 43.527C276.388 48.701 277.947 58.65 272.772 65.748C259.642 83.759 252.984 104.994 252.984 128.862C252.985 137.647 245.864 144.768 237.08 144.768Z" fill="#FFB00A"/>
<path d="M259.908 72.284C256.658 72.285 253.379 71.292 250.551 69.23C243.453 64.056 241.894 54.106 247.069 47.008C270.616 14.71 301.959 1.71 303.282 1.173C311.417 -2.133 320.697 1.782 324.005 9.919C327.305 18.037 323.416 27.291 315.316 30.618C314.781 30.844 290.674 41.194 272.773 65.747C269.659 70.018 264.816 72.284 259.908 72.284Z" fill="#F5D001"/>
<path d="M496.599 170.598C483.788 141.327 450.365 126.148 418.95 134.885H418.948C398.279 140.633 383.793 159.009 383.948 179.944C383.949 180.071 383.95 180.199 383.952 180.326C384.028 186.132 383.65 191.925 382.781 197.643C382.246 201.164 379.846 204.109 376.548 205.503L431.363 386.815C431.363 386.815 438.46 412.597 463.402 415.067C475.392 394.329 489.422 364.641 493.115 334.37C498.023 294.146 518.456 220.537 496.599 170.598Z" fill="#2BA870"/>
<path d="M432.363 386.814L377.421 205.084C376.034 205.824 374.457 206.281 372.766 206.359C369.34 206.517 366.105 204.87 363.903 202.31C360.227 198.036 356.9 193.47 353.926 188.676C353.858 188.567 353.791 188.458 353.722 188.35C342.503 170.493 320.238 162.338 299.57 168.086C268.147 176.825 248 206.917 252.996 238.371C261.526 292.064 318.85 344.101 344.744 375.635C370.07 406.478 409.613 427.579 430.617 437.298C438.853 441.109 448.695 438.371 453.623 430.9C456.507 426.527 459.897 421.134 463.463 414.959C439.284 411.944 432.363 386.814 432.363 386.814Z" fill="#007F6F"/>
<path d="M198.48 214.534L198.479 214.533C186.716 209.643 173.035 213.047 165.175 223.073C165.127 223.134 165.079 223.195 165.032 223.256C162.867 226.049 160.497 228.668 157.928 231.07C156.016 232.858 153.163 233.232 150.805 232.017L134.363 277.114C134.363 277.114 130.458 320.214 173.194 322.248C191.54 305.677 214.346 284.165 220.959 260.194C226.108 241.529 216.36 221.967 198.48 214.534Z" fill="#73CF4A"/>
<path d="M174.691 320.893C131.425 319.186 135.364 276.085 135.364 276.085L151.455 232.295C150.945 232.101 150.446 231.86 149.982 231.525C148.334 230.336 147.457 228.358 147.406 226.326C147.321 222.934 147.508 219.533 147.945 216.153C147.955 216.076 147.965 215.999 147.974 215.922C149.537 203.279 142.301 191.179 130.538 186.289C112.654 178.854 91.909 185.748 82.308 202.569C65.919 231.284 72.788 277.216 72.848 301.787C72.907 325.82 83.25 350.459 89.309 362.839C91.684 367.693 97.286 370.021 102.402 368.282C115.451 363.846 140.213 353.8 157.292 336.891C161.977 332.251 168.09 326.877 174.691 320.893Z" fill="#2BA870"/>
<path d="M106.152 351.941C104.725 351.941 103.274 351.665 101.873 351.083C96.182 348.717 93.487 342.186 95.852 336.495L138.394 234.158C140.76 228.467 147.291 225.773 152.981 228.137C158.672 230.503 161.367 237.034 159.002 242.725L116.46 345.063C114.676 349.353 110.525 351.941 106.152 351.941Z" fill="#A4E830"/>
<path d="M289.697 240.068C287.338 240.068 284.964 239.305 282.996 237.737C278.466 234.129 277.796 227.627 281.501 223.215C296.869 204.911 319.468 196.401 346.874 198.604C366.63 200.192 382.046 206.873 382.692 207.157C388.028 209.498 390.405 215.609 388.003 220.805C385.601 225.996 379.338 228.313 374.006 225.984C373.678 225.843 360.681 220.323 344.572 219.132C324.421 217.648 308.712 223.411 297.906 236.281C295.812 238.776 292.766 240.068 289.697 240.068Z" fill="#73CF4A"/>
<path d="M327.747 315.237C327.437 315.237 327.125 315.224 326.811 315.197C320.981 314.7 316.669 309.693 317.179 304.016C323.414 234.68 371.245 208.578 373.278 207.5C378.42 204.773 384.853 206.627 387.65 211.633C390.439 216.627 388.556 222.873 383.448 225.609C381.704 226.558 343.486 248.051 338.292 305.816C337.807 311.188 333.18 315.236 327.747 315.237Z" fill="#73CF4A"/>
<path d="M372.382 364.268C371.757 364.268 371.124 364.213 370.487 364.102C364.728 363.09 360.902 357.721 361.942 352.113C369.038 313.827 397.837 297.144 399.06 296.453C404.122 293.59 410.606 295.267 413.544 300.195C416.474 305.107 414.774 311.398 409.752 314.274C408.751 314.859 388.079 327.278 382.796 355.78C381.873 360.767 377.41 364.268 372.382 364.268Z" fill="#73CF4A"/>
<path d="M429.683 402.015C425.071 402.015 420.828 399.059 419.499 394.526L368.152 219.4C366.545 213.919 369.804 208.207 375.431 206.643C381.057 205.075 386.923 208.252 388.53 213.732L439.877 388.858C441.484 394.339 438.225 400.051 432.598 401.615C431.625 401.886 430.646 402.015 429.683 402.015Z" fill="#A4E830"/>
<path d="M378.332 226.887C376.301 226.887 374.248 226.32 372.435 225.133C367.576 221.956 366.282 215.544 369.545 210.813C369.94 210.24 379.41 196.638 395.325 185.128C417.398 169.165 441.21 164.769 464.185 172.406C469.723 174.248 472.68 180.114 470.789 185.508C468.897 190.902 462.876 193.779 457.337 191.94C417.727 178.766 387.442 221.881 387.139 222.318C385.093 225.285 381.743 226.887 378.332 226.887Z" fill="#A4E830"/>
<path d="M469.227 275.888C466.006 275.888 462.825 274.463 460.743 271.76C424.956 225.303 380.766 226.782 378.9 226.872C373.033 227.179 368.074 222.855 367.735 217.167C367.396 211.477 371.885 206.594 377.727 206.263C380.037 206.134 434.81 203.702 477.696 259.374C481.208 263.933 480.26 270.402 475.579 273.822C473.672 275.215 471.44 275.887 469.227 275.888Z" fill="#A4E830"/>
<path d="M457.9 340.479C455.008 340.479 452.128 339.333 450.035 337.079C429.746 315.215 404.941 315.705 404.7 315.693C398.886 315.894 393.965 311.387 393.789 305.689C393.612 299.992 398.211 295.234 404.06 295.062C405.471 295.017 438.973 294.374 465.758 323.239C469.682 327.468 469.344 333.994 465.001 337.815C462.975 339.599 460.434 340.479 457.9 340.479Z" fill="#A4E830"/>
</g>
<defs>
<clipPath id="clip0_1_923">
<rect width="512" height="512" fill="white"/>
</clipPath>
</defs>
</svg>
