<svg width="512" height="512" viewBox="0 0 512 512" fill="none" xmlns="http://www.w3.org/2000/svg">
<path d="M115.984 464.11H407.013C467.362 419.484 506.501 347.816 506.501 266.998C506.501 131.687 396.81 21.996 261.499 21.996C126.188 21.996 16.497 131.687 16.497 266.998C16.497 347.816 55.636 419.484 115.984 464.11Z" fill="#CF0D7D"/>
<path d="M218.024 252.493C227.614 269.46 232.477 287.044 232.477 304.756V338.643H252.477V304.756C252.477 283.553 246.743 262.658 235.434 242.651C228.684 230.709 218.622 221.645 206.334 216.439C201.249 214.286 195.38 216.662 193.225 221.746C191.071 226.832 193.447 232.701 198.532 234.855C206.722 238.325 213.462 244.424 218.024 252.493Z" fill="#00626B"/>
<path d="M217.554 98.855C225.744 102.325 232.485 108.423 237.046 116.493C246.636 133.46 251.499 151.044 251.499 168.756V338.643H271.499V168.756C271.499 147.553 265.765 126.658 254.456 106.651C247.706 94.709 237.644 85.645 225.356 80.439C220.271 78.286 214.402 80.662 212.247 85.746C210.093 90.832 212.469 96.701 217.554 98.855Z" fill="#007F6F"/>
<path d="M288.755 112.573C285.646 110.219 282.827 107.673 280.384 104.919C261.618 134.768 251.405 169.835 251.405 205.144C251.405 210.944 256.107 215.645 261.906 215.645C267.706 215.645 272.407 210.944 272.407 205.144C272.407 174.468 281.089 144.002 297.066 117.874C294.222 116.389 291.448 114.611 288.755 112.573Z" fill="#A4E830"/>
<path d="M336.887 45.314C321.214 68.823 310.061 83.587 303.921 91.332C298.062 98.722 295.734 108.436 298.135 117.556C298.399 118.558 298.725 119.567 299.107 120.576C316.532 128.085 336.547 123.832 357.895 95.632C378.002 69.071 385.701 39.209 379.248 19.938C364.895 21.692 348.444 27.979 336.887 45.314Z" fill="#73CF4A"/>
<path d="M290.387 338.643V206.754C290.387 193.199 292.408 180.255 296.397 168.279C299.043 160.331 304.052 154.011 310.883 150.003C315.646 147.207 317.241 141.08 314.447 136.316C311.652 131.554 305.529 129.96 300.761 132.753C289.691 139.25 281.619 149.35 277.422 161.962C272.754 175.977 270.388 191.047 270.388 206.754V338.643H290.387Z" fill="#2BA870"/>
<path d="M390.579 337.643H239.024C239.024 337.643 200.429 367.715 239.024 406.31C239.024 406.31 238.745 406.539 238.266 406.97H407.013V354.078C407.013 345.001 399.655 337.643 390.579 337.643Z" fill="#AAE7FA"/>
<path d="M240.024 337.643H132.419C123.343 337.643 115.984 345.001 115.984 354.078V406.97H239.266C239.746 406.539 240.024 406.31 240.024 406.31C201.429 367.715 240.024 337.643 240.024 337.643Z" fill="#63D9FA"/>
<path d="M238.328 474.316C238.562 474.536 238.785 474.756 239.025 474.976C239.025 474.976 223.408 487.823 227.169 509.604C238.387 511.179 249.847 512 261.499 512C309.506 512 354.279 498.179 392.08 474.316H238.328Z" fill="#01A2C3"/>
<path d="M228.191 509.743C224.338 487.877 240.024 474.977 240.024 474.977C239.784 474.757 239.561 474.537 239.327 474.317H130.917C159.822 492.563 192.805 504.928 228.191 509.743Z" fill="#289EFF"/>
<path d="M239.024 406.31C239.024 406.31 199.49 438.611 239.024 474.977H391.036C396.51 471.56 401.84 467.936 407.013 464.111V406.311H239.024V406.31Z" fill="#63D9FA"/>
<path d="M240.024 406.31H115.984V464.11C121.157 467.935 126.488 471.56 131.961 474.977H240.024C200.49 438.611 240.024 406.31 240.024 406.31Z" fill="#01A2C3"/>
<path d="M194.181 113.217C189.151 108.141 183.579 103.774 177.613 100.149C190.211 116.293 205.557 143.197 197.957 172.004C195.366 181.824 195.603 192.232 198.687 201.909C202.389 213.528 203.634 231.75 190.042 254.414C178.239 274.095 153.907 285.876 130.372 297.75C130.852 297.892 131.332 298.034 131.825 298.164C129.984 302.523 124.128 318.6 131.36 332.024C135.118 338.998 141.809 344.05 151.291 347.137C186.458 319.9 212.241 281.869 223.478 238.348C234.06 197.366 231.942 151.328 194.181 113.217Z" fill="#73CF4A"/>
<path d="M152.236 346.397C115.291 334.874 133.221 297.485 133.221 297.485C132.698 297.359 132.19 297.224 131.686 297.087C116.382 304.8 101.309 312.489 90.123 322.345C87.729 324.454 84.391 325.115 81.372 324.081C78.354 323.046 76.123 320.476 75.526 317.342C68.527 280.568 33.803 239.556 38.293 202.397C41.397 176.708 53.122 163.109 63.045 156.071C71.535 150.05 78.514 142.067 82.587 132.489C94.251 105.057 122.888 93.22 142.748 88.197C135.823 87.4 128.754 87.43 121.678 88.35C68.5 95.266 38.581 130.278 21.785 169.103C-0.107008 219.707 0.295992 277.228 21.636 328.067C30.875 350.077 37.399 372.538 41.669 389.844C45.029 403.46 61.373 409.063 72.38 400.371C86.349 389.34 105.243 375.63 126.005 363.928C135.23 358.729 143.992 352.858 152.236 346.397Z" fill="#2BA870"/>
<path d="M199.683 201.591C196.659 192.098 196.412 181.959 198.968 172.27C205.351 148.076 195.522 125.3 186.154 110.453C184.181 107.326 182.144 104.414 180.143 101.744C177.095 99.744 173.934 97.948 170.679 96.359C163.449 100.724 155.423 108.148 150.456 120.686C139.9 147.332 107.76 244.785 107.443 245.745C107.153 246.563 100.431 265.973 108.913 281.627C113.313 289.749 121.017 295.309 131.824 298.163C131.82 298.173 131.815 298.185 131.811 298.195C132.28 297.958 132.751 297.721 133.219 297.485C155.912 286.053 179.377 274.23 190.938 254.952C204.835 231.778 203.365 213.143 199.683 201.591Z" fill="#DBF8A0"/>
<path d="M108.387 246.079C108.387 246.079 140.72 147.981 151.387 121.055C156.398 108.406 164.497 101.08 171.679 96.865C161.749 91.856 150.925 88.797 139.772 87.904C136.549 88.786 133.149 89.838 129.667 91.099C99.754 101.933 87.03 119.363 81.624 132.079C77.827 141.008 71.194 149.009 62.439 155.216C52.709 162.116 40.442 175.881 37.252 202.27C34.557 224.588 45.834 248.319 56.742 271.269C64.081 286.713 71.67 302.683 74.497 317.535C75.162 321.028 77.666 323.916 81.032 325.069C84.398 326.223 88.147 325.479 90.814 323.128C102.159 313.133 117.95 305.177 133.22 297.483C93.554 287.905 108.387 246.079 108.387 246.079Z" fill="#BBE86D"/>
<path d="M105.388 266.003C104.311 266.003 103.217 265.828 102.142 265.459C96.918 263.667 94.136 257.98 95.928 252.755L142.336 117.472C147.989 100.993 159.74 88.062 175.424 81.063C191.335 73.962 209.535 73.735 225.357 80.441C230.442 82.595 232.818 88.464 230.664 93.549C228.509 98.633 222.641 101.012 217.555 98.855C206.821 94.308 194.437 94.48 183.575 99.327C173.015 104.04 165.088 112.789 161.255 123.963L114.847 259.246C113.423 263.394 109.541 266.003 105.388 266.003Z" fill="#2BA870"/>
<path d="M423.669 166.882C425.612 171.451 428.37 175.566 431.685 179.203L432.969 179.337V177.672C432.969 170.532 436.245 164.923 442.708 161C444.807 159.726 446.92 158.842 448.67 158.241C434.574 143.947 415.908 133.423 391.19 130.208C385.311 129.443 379.437 129.419 373.684 130.081C390.185 134.255 413.978 144.09 423.669 166.882Z" fill="#2BA870"/>
<path d="M453.003 318.157C441.852 312.372 438.542 299.689 438.51 299.561L438.224 298.426H437.055C436.949 298.426 436.85 298.416 436.744 298.414C433.552 305.901 430.903 313.282 429.536 320.467C429.04 323.071 427.187 325.207 424.679 326.066C422.171 326.926 419.398 326.376 417.409 324.624C394.073 304.063 350.384 294.852 334.39 268.183C323.097 249.352 324.132 234.213 327.208 224.559C329.77 216.519 329.967 207.871 327.814 199.713C321.499 175.778 334.25 153.426 344.717 140.012C339.76 143.024 335.13 146.652 330.951 150.87C299.576 182.535 297.817 220.786 306.609 254.836C318.061 299.188 347.689 336.683 387.594 359.175C404.844 368.898 420.543 380.289 432.149 389.454C441.294 396.676 454.874 392.021 457.666 380.708C461.214 366.329 466.635 347.667 474.311 329.38C475.758 325.932 477.077 322.445 478.292 318.929C468.416 321.998 459.921 321.747 453.003 318.157Z" fill="#2BA870"/>
<path d="M437.054 299.926C437.054 299.926 444.627 330.269 477.679 320.684C491.993 280.662 491.138 236.487 474.187 197.302C467.823 182.591 459.181 168.548 447.483 157.068C441.245 159.36 431.47 164.975 431.47 177.671C431.47 177.671 431.028 177.625 430.248 177.577C433.04 180.939 436.306 183.922 439.907 186.475C448.152 192.322 457.894 203.621 460.473 224.965C463.384 249.055 446.458 275.095 436.117 299.89C436.429 299.902 436.734 299.926 437.054 299.926Z" fill="#73CF4A"/>
<path d="M437.055 298.427C417.214 298.427 412.169 275.05 411.964 274.055L394.385 228.062C388.214 211.568 388.351 198.985 394.789 190.663C402.76 180.36 418.623 178.978 426.56 178.978C429.414 178.978 431.245 179.157 431.314 179.164L432.97 179.337C429.318 175.487 426.436 171.165 424.47 166.542C419.978 155.977 409.407 141.495 384.553 132.493C381.66 131.445 378.835 130.571 376.157 129.838C364.182 130.796 352.658 134.748 342.614 141.338C340.951 143.556 339.259 145.976 337.62 148.574C329.836 160.909 321.67 179.833 326.973 199.935C329.097 207.985 328.891 216.409 326.379 224.296C323.32 233.894 322.098 249.377 333.643 268.631H333.644C343.25 284.649 362.746 294.472 381.601 303.97C394.288 310.362 407.408 316.973 416.834 325.277C419.05 327.23 422.165 327.848 424.962 326.89C427.759 325.931 429.84 323.532 430.392 320.63C431.758 313.454 434.466 305.963 437.689 298.426H437.055V298.427Z" fill="#BBE86D"/>
<path d="M461.336 224.861C458.686 202.935 448.494 191.499 440.41 185.766C437.022 183.363 434.035 180.627 431.471 177.65C431.471 177.65 431.47 177.664 431.47 177.672C431.47 177.672 371.571 171.359 392.979 228.587L410.494 274.357C410.494 274.357 415.722 299.927 437.054 299.927C439.53 294.01 442.356 288.055 445.143 282.19C454.206 263.122 463.576 243.404 461.336 224.861Z" fill="#DBF8A0"/>
<path d="M407.015 274.984C402.955 274.984 399.136 272.492 397.639 268.462L360.125 167.431C356.556 157.819 349.455 150.695 340.13 147.372C330.483 143.932 319.548 144.917 310.883 150.003C306.119 152.799 299.991 151.202 297.197 146.439C294.402 141.675 295.998 135.548 300.761 132.753C314.465 124.712 331.693 123.132 346.844 128.532C361.836 133.874 373.212 145.216 378.876 160.47L416.39 261.501C418.312 266.678 415.673 272.434 410.495 274.356C409.347 274.782 408.171 274.984 407.015 274.984Z" fill="#73CF4A"/>
<path d="M369.394 5.676C349.523 -9.366 312.157 6.52 285.935 41.159C259.713 75.798 267.718 98.698 287.588 113.74C291.647 116.812 295.889 119.306 300.29 121.055C299.825 119.887 299.44 118.716 299.134 117.556C296.733 108.436 299.061 98.722 304.92 91.332C311.061 83.587 322.214 68.823 337.886 45.314C349.186 28.364 365.165 21.974 379.286 20.059C377.329 14.145 374.06 9.208 369.394 5.676Z" fill="#2BA870"/>
</svg>
