<svg width="512" height="512" viewBox="0 0 512 512" fill="none" xmlns="http://www.w3.org/2000/svg">
<g clip-path="url(#clip0_1_1012)">
<path d="M74.621 431.704H437.38C476.91 388.198 501.003 330.411 501.003 266.998C501.003 131.687 391.312 21.996 256.001 21.996C120.69 21.996 10.998 131.687 10.998 266.998C10.998 330.412 35.09 388.198 74.621 431.704Z" fill="#121D4C"/>
<path d="M171.941 142.914C142.161 98.795 89.829 98.346 59.067 102.677C55.641 114.569 54.958 131.384 67.412 149.315C85.297 175.063 159.028 283.964 193.766 335.312H216.022L222.036 331.253C222.036 331.252 215.975 208.149 171.941 142.914Z" fill="#FE8B05"/>
<path d="M116.534 335.311H194.767C160.028 283.964 86.297 175.062 68.412 149.315C55.908 131.313 56.645 114.434 60.107 102.534C55.531 103.152 51.403 103.881 47.87 104.601C39.113 106.385 31.43 111.571 26.5 119.026C11.088 142.333 -18.174 198.335 15.635 248.422C39.076 283.147 81.747 314.024 116.534 335.311Z" fill="#FB4D08"/>
<path d="M121.287 314.326C110.066 314.326 102.245 312.851 101.583 312.722C96.162 311.664 92.625 306.412 93.684 300.992C94.741 295.578 99.971 292.048 105.393 293.088C105.671 293.143 133.59 298.28 157.288 287.048C162.276 284.685 168.241 286.81 170.607 291.801C172.972 296.791 170.844 302.755 165.854 305.12C150.231 312.526 133.685 314.326 121.287 314.326Z" fill="#FFB00A"/>
<path d="M78.286 259.51C69.207 259.51 63.055 258.685 62.455 258.602C56.985 257.837 53.171 252.784 53.934 247.314C54.698 241.848 59.746 238.033 65.209 238.793C65.675 238.854 95.806 242.759 119.734 231.416C124.721 229.053 130.687 231.178 133.053 236.169C135.419 241.159 133.291 247.122 128.3 249.488C110.833 257.769 91.474 259.51 78.286 259.51Z" fill="#FFB00A"/>
<path d="M49.165 197.639C49.161 197.639 49.159 197.639 49.154 197.639C43.631 197.638 39.154 193.16 39.155 187.638C39.156 182.116 43.633 177.639 49.155 177.639H49.165C60.625 177.639 70.768 175.585 79.314 171.534C84.302 169.17 90.267 171.297 92.633 176.287C94.998 181.277 92.871 187.24 87.88 189.606C76.638 194.936 63.61 197.639 49.165 197.639Z" fill="#FFB00A"/>
<path d="M175.985 335.311H200.114L63.152 132.407C60.063 127.83 53.845 126.623 49.269 129.714C44.692 132.804 43.486 139.02 46.576 143.597L175.985 335.311Z" fill="#FFB00A"/>
<path d="M156.388 298.402C153.692 298.402 151.004 297.319 149.033 295.18C145.289 291.12 145.546 284.793 149.606 281.05C169.039 263.133 174.557 235.478 174.61 235.2C175.656 229.777 180.898 226.23 186.323 227.274C191.746 228.32 195.295 233.564 194.249 238.987C193.979 240.382 187.378 273.427 163.163 295.753C161.241 297.526 158.811 298.402 156.388 298.402Z" fill="#F5D001"/>
<path d="M118.835 242.769C116.139 242.769 113.451 241.686 111.481 239.547C107.737 235.486 107.994 229.16 112.054 225.417C131.575 207.418 139.212 177.899 139.286 177.604C140.639 172.253 146.071 169.001 151.42 170.348C156.771 171.693 160.024 177.108 158.688 182.46C158.329 183.9 149.61 217.993 125.611 240.12C123.689 241.893 121.258 242.769 118.835 242.769Z" fill="#F5D001"/>
<path d="M78.415 182.887C75.719 182.887 73.032 181.804 71.061 179.665C67.317 175.605 67.574 169.278 71.634 165.535C78.587 159.123 84.287 150.48 88.574 139.847C90.639 134.725 96.466 132.246 101.588 134.312C106.71 136.377 109.189 142.204 107.123 147.326C101.72 160.729 94.34 171.803 85.19 180.238C83.269 182.011 80.838 182.887 78.415 182.887Z" fill="#F5D001"/>
<path d="M491.985 129.589C480.488 129.231 464.942 132.719 453.362 150.315C436.875 175.367 360.427 289.315 329.554 335.312H395.466C430.253 314.025 472.923 283.147 496.364 248.421C525.814 204.79 507.408 156.676 491.985 129.589Z" fill="#2BA870"/>
<path d="M492.545 130.577C490.066 126.161 487.648 122.274 485.499 119.025C480.569 111.57 472.887 106.384 464.129 104.6C436.749 99.022 373.868 92.827 340.059 142.914C296.025 208.149 289.964 331.252 289.964 331.252L295.978 335.311H331.226C362.523 288.683 437.995 176.186 454.363 151.314C465.794 133.943 481.094 130.322 492.545 130.577Z" fill="#007F6F"/>
<path d="M355.612 298.402C353.189 298.402 350.758 297.526 348.837 295.754C324.622 273.429 318.021 240.384 317.751 238.988C316.705 233.565 320.254 228.321 325.677 227.275C331.096 226.227 336.33 229.768 337.385 235.179C337.441 235.458 343.114 263.274 362.394 281.05C366.455 284.793 366.711 291.119 362.967 295.18C360.996 297.319 358.309 298.402 355.612 298.402Z" fill="#FFB00A"/>
<path d="M393.165 242.769C390.742 242.769 388.312 241.893 386.39 240.121C362.391 217.994 353.672 183.901 353.313 182.461C351.976 177.103 355.236 171.675 360.594 170.338C365.947 169.002 371.37 172.254 372.714 177.606C372.805 177.965 380.447 207.439 399.946 225.418C404.007 229.161 404.263 235.487 400.519 239.548C398.549 241.686 395.861 242.769 393.165 242.769Z" fill="#FFB00A"/>
<path d="M433.585 182.887C431.162 182.887 428.731 182.011 426.81 180.239C417.661 171.803 410.281 160.73 404.877 147.327C402.812 142.205 405.29 136.379 410.412 134.313C415.53 132.248 421.36 134.725 423.426 139.848C427.713 150.481 433.413 159.123 440.366 165.536C444.427 169.279 444.683 175.606 440.939 179.666C438.969 181.804 436.281 182.887 433.585 182.887Z" fill="#FFB00A"/>
<path d="M336.015 335.311L465.424 143.596C468.514 139.019 467.308 132.803 462.731 129.713C458.153 126.623 451.938 127.828 448.848 132.406L311.886 335.311H336.015Z" fill="#FFB00A"/>
<path d="M390.713 314.326C378.316 314.326 361.771 312.526 346.147 305.12C341.157 302.755 339.029 296.791 341.394 291.801C343.76 286.811 349.722 284.682 354.713 287.048C378.599 298.37 406.31 293.147 406.587 293.093C412.003 292.024 417.258 295.571 418.317 300.992C419.376 306.412 415.838 311.664 410.418 312.722C409.755 312.852 401.932 314.326 390.713 314.326Z" fill="#F5D001"/>
<path d="M433.714 259.51C420.526 259.51 401.169 257.77 383.698 249.488C378.707 247.122 376.579 241.159 378.945 236.169C381.311 231.179 387.277 229.051 392.264 231.416C416.257 242.789 446.489 238.835 446.792 238.792C452.263 238.046 457.304 241.867 458.059 247.331C458.813 252.796 455.007 257.839 449.544 258.602C448.945 258.685 442.791 259.51 433.714 259.51Z" fill="#F5D001"/>
<path d="M462.835 197.639C448.389 197.639 435.363 194.936 424.119 189.606C419.128 187.24 417.001 181.277 419.366 176.287C421.732 171.297 427.698 169.168 432.685 171.534C441.231 175.585 451.375 177.639 462.835 177.639H462.844C468.366 177.638 472.844 182.116 472.845 187.638C472.846 193.161 468.368 197.638 462.846 197.639C462.842 197.639 462.838 197.639 462.835 197.639Z" fill="#F5D001"/>
<path d="M293.23 13.627C277.951 17.055 261.695 26.97 261.695 53.648V335.312H294.501C307.714 312.48 367.267 204.99 367.267 122.415C367.268 65.56 325.573 31.498 293.23 13.627Z" fill="#FEEB1E"/>
<path d="M271.212 3.028C261.469 -1.009 250.531 -1.009 240.788 3.028C210.326 15.649 144.732 51.105 144.732 122.415C144.732 204.989 204.285 312.479 217.498 335.312H262.695C262.695 256.456 262.695 92.52 262.695 54.648C262.695 27.638 279.357 17.814 294.799 14.505C285.978 9.532 277.778 5.748 271.212 3.028Z" fill="#F5D001"/>
<path d="M216.436 377C216.837 377.333 217.244 377.667 217.667 378C217.667 378 177.43 435.527 224.644 509.995C234.913 511.307 245.375 512 256 512C327.897 512 392.56 481.03 437.379 431.704V377H216.436Z" fill="#63D9FA"/>
<path d="M74.621 431.704C113.049 473.997 166.073 502.774 225.73 510.126C178.385 435.595 218.667 378 218.667 378C218.243 377.667 217.837 377.333 217.436 377H74.621V431.704Z" fill="#01A2C3"/>
<path d="M256.013 264.444C255.512 264.444 255.005 264.407 254.494 264.329C216.649 258.566 188.784 231.01 187.616 229.84C183.716 225.931 183.722 219.599 187.632 215.697C191.538 211.802 197.862 211.802 201.762 215.701C202.051 215.987 226.328 239.809 257.505 244.558C262.965 245.389 266.718 250.49 265.886 255.949C265.133 260.898 260.87 264.444 256.013 264.444Z" fill="#FFB00A"/>
<path d="M256.013 185.238C255.512 185.238 255.005 185.201 254.494 185.123C216.939 179.404 186.294 152.162 185.008 151.005C180.902 147.312 180.568 140.989 184.261 136.883C187.953 132.779 194.268 132.445 198.374 136.127C198.676 136.397 225.99 160.553 257.505 165.352C262.965 166.183 266.718 171.284 265.886 176.743C265.133 181.693 260.87 185.238 256.013 185.238Z" fill="#FFB00A"/>
<path d="M256.013 99.983C255.512 99.983 255.005 99.946 254.495 99.868C240.241 97.698 225.961 91.836 212.05 82.445C207.473 79.355 206.268 73.139 209.358 68.561C212.448 63.983 218.665 62.778 223.242 65.869C234.677 73.589 246.205 78.376 257.506 80.097C262.966 80.928 266.719 86.028 265.887 91.488C265.133 96.437 260.87 99.983 256.013 99.983Z" fill="#FFB00A"/>
<path d="M266 335.311V40.315C266 34.793 261.522 30.315 256 30.315C250.477 30.315 246 34.793 246 40.315V335.312H266V335.311Z" fill="#FFB00A"/>
<path d="M255.987 275.381C251.13 275.381 246.867 271.835 246.114 266.885C245.282 261.425 249.035 256.325 254.495 255.494C285.702 250.742 309.997 226.877 310.238 226.637C314.15 222.746 320.477 222.751 324.374 226.654C328.271 230.557 328.279 236.873 324.384 240.777C323.216 241.947 295.351 269.505 257.505 275.266C256.995 275.344 256.488 275.381 255.987 275.381Z" fill="#F5D001"/>
<path d="M255.987 196.176C251.13 196.176 246.867 192.63 246.114 187.68C245.282 182.22 249.035 177.12 254.495 176.289C286.027 171.488 313.354 147.309 313.627 147.065C317.739 143.386 324.06 143.729 327.743 147.836C331.428 151.942 331.095 158.254 326.992 161.943C325.706 163.1 295.06 190.343 257.505 196.06C256.995 196.139 256.488 196.176 255.987 196.176Z" fill="#F5D001"/>
<path d="M255.987 110.92C251.129 110.92 246.867 107.374 246.114 102.424C245.282 96.964 249.035 91.864 254.495 91.033C265.798 89.311 277.326 84.525 288.759 76.805C293.335 73.715 299.551 74.919 302.643 79.497C305.733 84.074 304.528 90.29 299.951 93.381C286.043 102.772 271.761 108.634 257.506 110.804C256.995 110.883 256.488 110.92 255.987 110.92Z" fill="#F5D001"/>
<path d="M397.109 333.312H212.898C205.543 341.604 194.548 359.801 217.667 378.001H437.38V373.582C437.379 351.341 419.35 333.312 397.109 333.312Z" fill="#AAE7FA"/>
<path d="M213.898 333.312H114.891C92.65 333.312 74.621 351.341 74.621 373.582V378H218.667C195.549 359.801 206.543 341.604 213.898 333.312Z" fill="#63D9FA"/>
</g>
<defs>
<clipPath id="clip0_1_1012">
<rect width="512" height="512" fill="white"/>
</clipPath>
</defs>
</svg>
