<svg width="512" height="512" viewBox="0 0 512 512" fill="none" xmlns="http://www.w3.org/2000/svg">
<g clip-path="url(#clip0_1_1069)">
<path d="M392.226 470.656C457.819 426.694 501.002 351.892 501.002 266.998C501.002 131.687 391.311 21.996 256 21.996C120.689 21.996 10.998 131.687 10.998 266.998C10.998 351.892 54.181 426.694 119.774 470.656H392.226Z" fill="#AAE7FA"/>
<path d="M303.033 68.597C300.338 56.328 307.758 40.96 321.499 30.357C328.236 25.157 331.382 19.684 330.849 14.089C330.328 8.619 326.398 4.156 322.721 1.112C305.99 3.498 287.764 8.532 276.833 18.963C252.571 42.117 252.671 69.279 269.465 86.877C284.141 102.256 306.707 105.239 328.357 90.297C313.995 86.177 305.26 78.731 303.033 68.597Z" fill="#2BA870"/>
<path d="M330.696 0.147001C327.669 0.449001 324.536 0.832001 321.36 1.31C328.183 6.68 336.801 17.283 320.888 29.563C298.787 46.619 289.161 79.598 327.258 91.024C330.754 88.712 334.23 85.953 337.649 82.691C350.35 70.57 356.236 48.268 358.962 29.766C361.523 12.384 348.18 -1.598 330.696 0.147001Z" fill="#73CF4A"/>
<path d="M256 156.647C251.582 156.647 248 153.065 248 148.647V132.314C248 105.877 260.102 78.739 282.996 53.833C299.959 35.381 316.779 24.623 317.487 24.174C321.219 21.808 326.162 22.915 328.528 26.645C330.893 30.374 329.79 35.314 326.063 37.682C325.905 37.783 310.059 47.955 294.511 64.95C280.593 80.162 264 104.199 264 132.314V148.647C264 153.065 260.418 156.647 256 156.647Z" fill="#4A265D"/>
<path d="M205.251 96.853C205.195 96.804 205.136 96.759 205.08 96.709L132.888 171.314C132.888 171.314 118.974 200.897 148.027 222.064C169.121 216.465 190.636 207.476 203.297 193.07C234.487 157.582 230.992 119.476 205.251 96.853Z" fill="#007F6F"/>
<path d="M205.615 97.189C205.491 97.079 205.376 96.963 205.251 96.853C179.51 74.23 141.271 75.657 110.081 111.145C93.753 129.723 88.246 161.748 86.706 188.05C85.259 212.761 105.71 230.735 130.031 226.127C136.075 224.982 142.4 223.578 148.754 221.869C120.056 200.716 133.888 171.315 133.888 171.315L205.615 97.189Z" fill="#00626B"/>
<path d="M256 140.314C251.582 140.314 248 136.732 248 132.314C248 128.125 247.524 124.05 246.585 120.203C242.989 105.464 229.654 99.31 218.765 99.861C214.393 100.073 210.599 96.676 210.382 92.263C210.165 87.851 213.567 84.097 217.98 83.88C239.046 82.842 257.205 96.221 262.13 116.409C263.371 121.497 264 126.847 264 132.313C264 136.732 260.418 140.314 256 140.314Z" fill="#4A265D"/>
<path d="M128.885 183.814C126.98 183.814 125.069 183.137 123.539 181.763C120.254 178.81 119.984 173.751 122.938 170.465L187.844 98.263C195.669 89.56 206.371 84.451 217.978 83.88C222.362 83.652 226.144 87.063 226.362 91.477C226.58 95.89 223.178 99.644 218.765 99.861C211.45 100.221 204.695 103.453 199.743 108.961L134.837 181.163C133.258 182.92 131.075 183.814 128.885 183.814Z" fill="#62387A"/>
<path d="M256 183.647C250.477 183.647 246 179.169 246 173.647C246 173.049 246.01 172.458 246.028 171.873C246.477 157.986 255.348 146.185 268.629 141.814C282.109 137.378 296.475 141.676 305.227 152.766C308.649 157.101 307.908 163.389 303.573 166.811C299.237 170.233 292.95 169.493 289.528 165.157C285.294 159.793 279.185 159.394 274.882 160.812C272.869 161.474 266.284 164.276 266.019 172.523C266.006 172.897 266 173.27 266 173.647C266 179.17 261.522 183.647 256 183.647Z" fill="#4A265D"/>
<path d="M256 240.983C250.477 240.983 246 236.506 246 230.983V148.647C246 143.124 250.477 138.647 256 138.647C261.523 138.647 266 143.124 266 148.647V230.983C266 236.506 261.522 240.983 256 240.983Z" fill="#62387A"/>
<path d="M256 311.838C249.097 311.838 243.5 306.241 243.5 299.338V230.984C243.5 224.081 249.097 218.484 256 218.484C262.903 218.484 268.5 224.081 268.5 230.984V299.338C268.5 306.241 262.903 311.838 256 311.838Z" fill="#9739CF"/>
<path d="M226.517 451.012C224.853 438.514 228.662 425.906 236.968 416.421C245.272 406.939 257.265 401.5 269.871 401.5H381.5C391.391 401.5 398.533 406.089 403.367 411.044C405.888 386.92 405.212 371.084 405.212 371.084C388.636 371.084 123.364 371.084 106.788 371.084C106.788 371.084 104.848 416.479 119.774 470.655C154.365 493.838 195.187 508.439 239.199 511.421C232.818 490.434 228.904 468.942 226.517 451.012Z" fill="#CF0D7D"/>
<path d="M403.439 410.349C398.551 405.452 391.395 401 381.5 401H269.871C243.117 401 222.491 424.557 226.021 451.078C228.459 469.391 232.376 490.7 238.649 511.386C244.381 511.787 250.166 512 256 512C306.417 512 353.271 496.764 392.226 470.656C398.422 448.166 401.71 427.193 403.439 410.349Z" fill="#EF018E"/>
<path d="M405.212 295.588H251.646C230.522 295.588 213.398 312.712 213.398 333.836C213.398 354.96 230.522 372.084 251.646 372.084H405.212C413.896 372.084 420.935 365.044 420.935 356.361V311.312C420.935 302.628 413.896 295.588 405.212 295.588Z" fill="#FE3BAE"/>
<path d="M214.398 333.836C214.398 312.712 231.522 295.588 252.646 295.588H106.788C98.104 295.588 91.065 302.628 91.065 311.311V356.36C91.065 365.044 98.105 372.083 106.788 372.083H252.646C231.522 372.085 214.398 354.96 214.398 333.836Z" fill="#EF018E"/>
<path d="M435.789 294.233C423.012 293.664 413.639 288.568 413.545 288.517L413.254 288.411C413.102 288.381 397.489 284.818 357.944 234.084C346.884 219.896 342.592 205.492 345.187 191.272C348.156 174.996 359.632 162.17 368.315 154.527C346.894 152 326.14 158.465 309.02 172.533C273.403 201.803 267.005 252.882 307.36 301.987C328.486 327.694 369.811 341.949 404.397 349.697C436.891 356.977 465.19 333.721 464.345 300.432C464.235 296.081 464.046 291.61 463.764 287.069C455.326 292.275 445.981 294.695 435.789 294.233Z" fill="#007F6F"/>
<path d="M463.826 288.171C461.898 255.449 455.083 218.796 436.341 195.99C414.967 169.981 390.508 156.734 366.936 154.374C351.449 168.234 328.389 197.798 357.153 234.699C397.386 286.314 413.06 289.392 413.06 289.392C413.06 289.392 438.435 303.419 463.826 288.171Z" fill="#2BA870"/>
<path d="M350.966 236.85C348.01 236.85 345.083 235.546 343.11 233.045L289.528 165.157C286.106 160.822 286.847 154.534 291.182 151.112C295.517 147.69 301.805 148.429 305.227 152.766L358.809 220.654C362.231 224.989 361.49 231.277 357.155 234.699C355.319 236.147 353.135 236.85 350.966 236.85Z" fill="#62387A"/>
<path d="M405.219 305.588C402.263 305.588 399.336 304.284 397.362 301.783L343.109 233.045C339.687 228.71 340.428 222.422 344.763 219C349.098 215.577 355.385 216.318 358.808 220.654L413.061 289.392C416.483 293.727 415.742 300.015 411.407 303.437C409.572 304.886 407.388 305.588 405.219 305.588Z" fill="#9739CF"/>
</g>
<defs>
<clipPath id="clip0_1_1069">
<rect width="512" height="512" fill="white"/>
</clipPath>
</defs>
</svg>
