<svg width="512" height="512" viewBox="0 0 512 512" fill="none" xmlns="http://www.w3.org/2000/svg">
<g clip-path="url(#clip0_1_1099)">
<path d="M293.048 24.791C283.714 23.375 274.221 26.182 267.069 32.344C263.916 35.06 260.105 36.648 256 36.648C251.895 36.648 248.084 35.06 244.931 32.343C237.778 26.181 228.286 23.375 218.952 24.791C101.222 42.649 10.998 144.282 10.998 266.998C10.998 330.412 35.09 388.198 74.621 431.704H437.38C476.91 388.198 501.002 330.411 501.002 266.998C501.002 144.282 410.778 42.649 293.048 24.791Z" fill="#121D4C"/>
<path d="M199.621 7.765C212.561 17.123 234.15 36.95 239.247 67.727C239.585 69.767 239.908 71.788 240.223 73.798C246.741 79.697 252.076 86.733 256 94.512C257.612 91.317 259.468 88.252 261.54 85.334V53.739C261.54 34.953 251.365 17.59 234.884 8.573C225.799 3.603 214.704 -0.172996 202.091 0.00500412C197.947 0.0650041 196.262 5.335 199.621 7.765Z" fill="#EF018E"/>
<path d="M257.542 27.609C252.981 35.398 250.46 44.392 250.46 53.739V85.334C252.532 88.252 254.388 91.317 256 94.512C259.924 86.734 265.258 79.698 271.777 73.798C272.092 71.788 272.415 69.767 272.753 67.727C274.499 57.183 278.182 47.926 282.789 39.933C264.947 45.648 259.253 36.067 257.542 27.609Z" fill="#FE3BAE"/>
<path d="M177.831 60.862C194.59 72.982 221.808 97.773 231.083 135.769C241.598 144.035 250.064 154.47 256 166.237C258.216 161.844 260.786 157.638 263.681 153.659V124.605C263.681 98.559 249.573 74.484 226.723 61.983C214.127 55.092 198.744 49.856 181.256 50.104C175.509 50.186 173.174 57.494 177.831 60.862Z" fill="#FE8B05"/>
<path d="M156.237 123.903C179.135 140.462 217.336 175.546 226.357 230.007C226.663 231.852 226.962 233.689 227.257 235.521C239.48 252.066 248.924 270.628 256 287.606C258.869 280.723 262.129 273.58 265.803 266.416V205.256C265.803 172.014 247.797 141.29 218.635 125.335C202.56 116.54 182.926 109.859 160.608 110.175C153.274 110.278 150.293 119.604 156.237 123.903Z" fill="#FFB00A"/>
<path d="M272.25 97.049C266.979 92.374 265.089 85.212 264.513 79.226C254.203 91.812 248.319 107.795 248.319 124.605V153.659C251.214 157.638 253.784 161.844 256 166.236C261.936 154.468 270.402 144.033 280.917 135.768C284.09 122.772 289.363 111.322 295.597 101.394C285.387 103.195 277.547 101.748 272.25 97.049Z" fill="#FFB00A"/>
<path d="M334.169 60.862C338.826 57.494 336.491 50.186 330.744 50.105C313.257 49.857 297.873 55.092 285.277 61.984C276.74 66.655 269.425 72.942 263.608 80.342C264.955 91.66 271.157 106.34 294.903 102.529C306.985 82.834 322.927 68.993 334.169 60.862Z" fill="#F5D001"/>
<path d="M286.652 164.154C279.346 153.91 283.308 137.702 285.88 129.924C261.155 146.763 246.197 174.961 246.197 205.255V266.415C249.871 273.579 253.131 280.722 256 287.605C263.077 270.627 272.521 252.065 284.743 235.52C285.038 233.688 285.338 231.851 285.643 230.006C289.283 208.03 297.678 189.213 307.898 173.491C297.891 173.026 290.754 169.905 286.652 164.154Z" fill="#F5D001"/>
<path d="M355.763 123.903C361.707 119.604 358.726 110.278 351.392 110.174C329.074 109.858 309.441 116.54 293.365 125.334C290.282 127.021 287.332 128.882 284.507 130.884C280.54 143.55 275.028 172.638 307.277 174.472C322.479 150.719 341.916 133.917 355.763 123.903Z" fill="#FEEB1E"/>
<path d="M74.2062 344.898C95.3762 305.859 136.215 259.868 188.933 340.858H227.791C227.791 340.858 209.138 244.577 134.491 244.577C78.1472 244.577 62.5922 299.862 58.7382 340.179C57.8832 349.146 69.9122 352.817 74.2062 344.898Z" fill="#007F6F"/>
<path d="M352.96 279.663C348.131 268.319 352.718 255.043 356.343 247.402C299.252 263.266 284.208 340.857 284.208 340.857H323.066C341.694 312.238 358.837 299.489 374.155 296.671C363.36 293.055 356.238 287.364 352.96 279.663Z" fill="#A4E830"/>
<path d="M437.794 344.898C442.088 352.817 454.118 349.146 453.261 340.179C449.408 299.862 433.852 244.577 377.509 244.577C369.374 244.577 361.905 245.722 355.052 247.759C349.257 260.329 342.004 286.004 372.243 297.073C401.191 290.239 423.795 319.082 437.794 344.898Z" fill="#BBE86D"/>
<path d="M74.1292 230.749C128.007 217.588 197.494 225.676 219.861 340.858H273.67C273.67 340.858 226.222 107.665 65.4832 210.507C54.9032 217.275 61.9282 233.729 74.1292 230.749Z" fill="#2BA870"/>
<path d="M318.418 226.817C313.8 219.325 314.552 209.689 316.67 201.536C258.407 242.211 238.331 340.859 238.331 340.859H292.14C302.838 285.768 324.318 255.188 349.711 239.703C333.956 239.267 323.438 234.96 318.418 226.817Z" fill="#73CF4A"/>
<path d="M446.518 210.507C389.558 174.064 346.828 179.823 315.391 202.444C311.591 218.326 313.432 239.107 348.166 240.654C376.199 222.763 409.239 223.756 437.871 230.75C450.072 233.729 457.097 217.275 446.518 210.507Z" fill="#A4E830"/>
<path d="M216.436 377C216.837 377.333 217.243 377.667 217.667 378C217.667 378 177.43 435.527 224.645 509.995C234.913 511.307 245.375 512 256 512C327.897 512 392.56 481.03 437.379 431.704V377H216.436Z" fill="#63D9FA"/>
<path d="M74.6211 431.704C113.049 473.997 166.073 502.774 225.73 510.126C178.385 435.595 218.667 378 218.667 378C218.243 377.667 217.837 377.333 217.436 377H74.6211V431.704Z" fill="#01A2C3"/>
<path d="M397.109 333.311H212.898C205.543 341.603 194.548 359.8 217.666 378H437.379V373.582C437.379 351.341 419.35 333.311 397.109 333.311Z" fill="#AAE7FA"/>
<path d="M213.898 333.311H114.89C92.6491 333.311 74.6201 351.341 74.6201 373.581V378H218.666C195.549 359.801 206.543 341.604 213.898 333.311Z" fill="#63D9FA"/>
<path d="M282.326 40.759C291.197 24.981 303.721 14.026 312.378 7.76501C315.737 5.33601 314.052 0.0650127 309.908 0.00601271C297.296 -0.171987 286.2 3.60301 277.116 8.57401C268.292 13.402 261.278 20.624 256.663 29.175C258.532 37.571 264.461 46.709 282.326 40.759Z" fill="#FD77CC"/>
</g>
<defs>
<clipPath id="clip0_1_1099">
<rect width="512" height="512" fill="white"/>
</clipPath>
</defs>
</svg>
