<svg width="512" height="512" viewBox="0 0 512 512" fill="none" xmlns="http://www.w3.org/2000/svg">
<path d="M111.693 464.11H402.722C463.071 419.484 502.21 347.816 502.21 266.998C502.21 131.687 392.519 21.996 257.208 21.996C121.897 21.996 12.2058 131.687 12.2058 266.998C12.2058 347.816 51.3448 419.484 111.693 464.11Z" fill="#AAE7FA"/>
<path d="M427.449 264.672C437.132 250.967 436.506 233.869 404.667 211.372C386.652 198.643 364.953 195.222 349.507 194.651C339.01 194.263 331.544 204.83 335.416 214.594C341.113 228.962 351.586 248.272 369.601 261.001C401.441 283.498 417.766 278.377 427.449 264.672Z" fill="#007F6F"/>
<path d="M316.249 84.348C300.463 90.04 291.187 104.416 304.41 141.091C311.892 161.842 327.723 177.07 340.06 186.382C348.444 192.71 360.616 188.321 363.032 178.099C366.588 163.057 369.058 141.23 361.576 120.479C348.351 83.805 332.034 78.657 316.249 84.348Z" fill="#007F6F"/>
<path d="M365.249 62.061C353.78 49.812 336.907 46.975 308.449 73.621C292.347 88.698 284.618 109.26 280.943 124.273C278.445 134.475 287.289 143.921 297.633 142.098C312.855 139.417 333.88 133.056 349.983 117.979C378.441 91.333 376.719 74.31 365.249 62.061Z" fill="#2BA870"/>
<path d="M71.6699 255.534C75.8289 271.791 89.2549 282.397 127.024 272.734C148.394 267.266 165.064 252.961 175.51 241.569C182.609 233.827 179.402 221.292 169.457 217.912C154.823 212.937 133.331 208.396 111.961 213.863C74.1919 223.526 67.5099 239.277 71.6699 255.534Z" fill="#007F6F"/>
<path d="M41.972 228.564C52.127 241.923 68.621 246.472 99.657 222.88C117.218 209.531 127.011 189.868 132.204 175.31C135.733 165.417 127.903 155.116 117.426 155.87C102.009 156.979 80.443 161.154 62.883 174.503C31.847 198.095 31.817 215.205 41.972 228.564Z" fill="#2BA870"/>
<path d="M13.2818 69.396C5.67081 84.351 8.74981 101.182 43.4938 118.864C63.1528 128.869 85.1178 129.133 100.485 127.476C110.928 126.35 116.797 114.818 111.561 105.713C103.856 92.314 90.7148 74.712 71.0558 64.707C36.3118 47.024 20.8928 54.441 13.2818 69.396Z" fill="#2BA870"/>
<path d="M217.118 226.592C218.077 237.281 215.292 250.947 196.304 254.771C231.827 283.595 250.901 312.091 260.839 331.808C262.025 334.162 263.107 336.441 264.1 338.644H301.827C291.889 310.921 269.077 268.299 217.118 226.592Z" fill="#602A1B"/>
<path d="M131.262 124.516C126.837 112.296 124.851 101.616 123.994 93.657C123.066 85.034 116.003 78.371 107.343 77.89C96.2168 77.273 87.3088 86.936 88.7758 97.983C93.0148 129.919 110.806 192.032 182.821 244.405C188.005 248.175 192.879 251.956 197.484 255.731C216.43 251.831 219.11 238.065 218.099 227.381C213.436 223.61 208.557 219.846 203.407 216.1C168.293 190.563 144.019 159.749 131.262 124.516Z" fill="#7B3723"/>
<path d="M374.859 106.311C370.372 116.619 364.538 128.829 357.134 142.22C337.134 178.391 301.244 230.857 243.842 275.39C236.206 281.315 234.818 292.308 240.742 299.945C244.191 304.39 249.358 306.718 254.581 306.718C258.328 306.718 262.105 305.519 265.296 303.044C327.816 254.538 366.725 197.439 388.357 158.079C395.232 145.569 400.837 134.045 405.347 123.947C395.443 118.13 384.666 111.868 374.859 106.311Z" fill="#7B3723"/>
<path d="M345.353 211.374C342.482 211.374 339.572 210.667 336.883 209.176C263.066 168.25 238.75 86.152 237.751 82.678C235.081 73.389 240.446 63.694 249.734 61.024C259.014 58.353 268.698 63.708 271.38 72.979C271.709 74.093 293.127 144.897 353.854 178.567C362.307 183.254 365.36 193.905 360.673 202.357C357.478 208.121 351.507 211.374 345.353 211.374Z" fill="#99442D"/>
<path d="M386.288 337.643H234.733C234.733 337.643 196.138 367.715 234.733 406.31C234.733 406.31 234.454 406.539 233.975 406.97H402.722V354.078C402.723 345.001 395.365 337.643 386.288 337.643Z" fill="#9739CF"/>
<path d="M235.733 337.643H128.128C119.052 337.643 111.694 345.001 111.694 354.078V406.97H234.976C235.456 406.539 235.734 406.31 235.734 406.31C197.138 367.715 235.733 337.643 235.733 337.643Z" fill="#7B3E9E"/>
<path d="M234.037 474.316C234.271 474.536 234.494 474.756 234.734 474.976C234.734 474.976 219.117 487.823 222.878 509.604C234.096 511.179 245.556 512 257.208 512C305.215 512 349.988 498.179 387.789 474.316H234.037Z" fill="#62387A"/>
<path d="M223.9 509.743C220.047 487.877 235.733 474.977 235.733 474.977C235.493 474.757 235.27 474.537 235.036 474.317H126.626C155.531 492.563 188.514 504.928 223.9 509.743Z" fill="#3C224D"/>
<path d="M234.733 406.31C234.733 406.31 195.199 438.611 234.733 474.977H386.745C392.219 471.56 397.549 467.936 402.722 464.111V406.311H234.733V406.31Z" fill="#7B3E9E"/>
<path d="M235.733 406.31H111.693V464.11C116.866 467.935 122.197 471.56 127.67 474.977H235.733C196.2 438.611 235.733 406.31 235.733 406.31Z" fill="#62387A"/>
<path d="M201.87 82.468C187.626 73.597 170.593 75.215 149.984 108.308C138.323 127.032 136.168 148.893 136.496 164.346C136.718 174.847 147.702 181.688 157.224 177.255C171.237 170.732 189.905 159.156 201.566 140.432C222.175 107.339 216.114 91.339 201.87 82.468Z" fill="#73CF4A"/>
<path d="M209.012 17.104C194.468 25.474 187.854 41.253 207.298 75.043C218.3 94.162 236.555 106.381 250.332 113.387C259.695 118.148 270.909 111.695 271.497 101.207C272.362 85.775 270.969 63.852 259.967 44.734C240.523 10.944 223.556 8.73401 209.012 17.104Z" fill="#2BA870"/>
<path d="M9.81589 146.591C10.4279 163.36 21.2959 176.576 60.2549 175.153C82.2989 174.348 101.626 163.909 114.254 154.995C122.835 148.938 122.363 136.007 113.363 130.592C100.119 122.623 80.0819 113.621 58.0379 114.426C19.0779 115.849 9.20389 129.821 9.81589 146.591Z" fill="#73CF4A"/>
<path d="M88.1939 0.590005C71.6879 3.612 60.1769 16.271 67.1999 54.618C71.1729 76.316 84.2889 93.937 94.9299 105.148C102.161 112.767 114.888 110.436 118.95 100.749C124.927 86.495 130.947 65.37 126.974 43.672C119.95 5.32401 104.7 -2.433 88.1939 0.590005Z" fill="#73CF4A"/>
<path d="M313.63 8.88501C297.745 3.47601 281.523 8.916 268.957 45.821C261.847 66.702 264.707 88.482 268.531 103.458C271.13 113.635 283.378 117.806 291.647 111.329C303.815 101.798 319.371 86.289 326.481 65.408C339.047 28.502 329.515 14.293 313.63 8.88501Z" fill="#73CF4A"/>
<path d="M178.201 142.262C178.933 159.026 189.895 172.164 228.843 170.462C250.881 169.499 270.133 158.922 282.696 149.918C291.234 143.799 290.669 130.873 281.63 125.522C268.329 117.648 248.228 108.79 226.191 109.753C187.243 111.455 177.469 125.498 178.201 142.262Z" fill="#A4E830"/>
<path d="M458.045 182.841C457.808 166.062 447.239 152.607 408.257 153.159C386.201 153.471 366.645 163.476 353.821 172.105C345.106 177.969 345.29 190.907 354.166 196.522C367.228 204.785 387.06 214.232 409.116 213.92C448.098 213.368 458.282 199.62 458.045 182.841Z" fill="#2BA870"/>
<path d="M385.952 22.835C369.328 20.546 354.437 28.971 349.119 67.592C346.11 89.444 353.059 110.283 359.661 124.258C364.148 133.755 376.966 135.52 383.852 127.589C393.986 115.918 406.309 97.734 409.318 75.881C414.636 37.26 402.575 25.124 385.952 22.835Z" fill="#73CF4A"/>
<path d="M478.588 78.588C469.665 64.377 453.643 58.374 420.626 79.104C401.944 90.833 390.436 109.544 383.965 123.581C379.567 133.12 386.447 144.078 396.95 144.262C412.404 144.533 434.257 142.298 452.938 130.569C485.956 109.838 487.511 92.799 478.588 78.588Z" fill="#A4E830"/>
<path d="M183.184 24.981C170.121 14.448 153.018 13.988 128.547 44.336C114.701 61.508 109.91 82.945 108.36 98.324C107.307 108.775 117.379 116.897 127.369 113.652C142.07 108.877 162.004 99.651 175.851 82.48C200.323 52.131 196.247 35.514 183.184 24.981Z" fill="#A4E830"/>
</svg>
