<svg width="512" height="512" viewBox="0 0 512 512" fill="none" xmlns="http://www.w3.org/2000/svg">
<path d="M392.226 470.656C457.819 426.694 501.002 351.892 501.002 266.998C501.002 131.687 391.311 21.996 256 21.996C120.689 21.996 10.998 131.687 10.998 266.998C10.998 351.892 54.181 426.694 119.774 470.656H392.226Z" fill="#F5D001"/>
<path d="M315.864 46.071C315.019 47.327 314.172 48.605 313.325 49.917C285.599 92.847 279.779 131.249 279.779 155.905C279.779 160.156 283.225 163.603 287.477 163.603C291.729 163.603 295.175 160.157 295.175 155.905C295.175 109.218 317.025 70.143 334.807 46.071H315.864Z" fill="#00626B"/>
<path d="M195.555 46.071H176.614C194.396 70.142 216.245 109.218 216.245 155.905C216.245 160.156 219.691 163.603 223.943 163.603C228.195 163.603 231.641 160.157 231.641 155.905C231.641 111.235 213.399 73.613 198.095 49.917C197.247 48.604 196.4 47.327 195.555 46.071Z" fill="#00626B"/>
<path d="M256 256H366.203V298.496H256V256Z" fill="#00626B"/>
<path d="M145.797 256H256V298.496H145.797V256Z" fill="#00626B"/>
<path d="M226.517 451.012C224.853 438.514 228.662 425.906 236.968 416.421C245.272 406.939 257.265 401.5 269.871 401.5H381.5C391.391 401.5 398.533 406.089 403.367 411.044C405.888 386.92 405.212 371.084 405.212 371.084C388.636 371.084 123.364 371.084 106.788 371.084C106.788 371.084 104.848 416.479 119.774 470.655C154.365 493.838 195.187 508.439 239.199 511.421C232.818 490.434 228.904 468.942 226.517 451.012Z" fill="#7B3723"/>
<path d="M403.439 410.349C398.551 405.452 391.395 401 381.5 401H269.871C243.117 401 222.491 424.557 226.021 451.078C228.459 469.391 232.376 490.7 238.649 511.386C244.381 511.787 250.166 512 256 512C306.417 512 353.271 496.764 392.226 470.656C398.422 448.166 401.71 427.193 403.439 410.349Z" fill="#99442D"/>
<path d="M405.212 295.588H251.646C230.522 295.588 213.398 312.712 213.398 333.836C213.398 354.96 230.522 372.084 251.646 372.084H405.212C413.896 372.084 420.935 365.044 420.935 356.361V311.312C420.935 302.628 413.896 295.588 405.212 295.588Z" fill="#F35922"/>
<path d="M214.398 333.836C214.398 312.712 231.522 295.588 252.646 295.588H106.788C98.1039 295.588 91.0649 302.628 91.0649 311.311V356.36C91.0649 365.044 98.1049 372.083 106.788 372.083H252.646C231.522 372.085 214.398 354.96 214.398 333.836Z" fill="#99442D"/>
<path d="M366.951 176.181C361.815 183.093 361.247 192.334 365.261 203.649C380.107 245.5 390.179 273.705 390.28 273.984L390.36 274.157C390.555 274.487 395.256 282.284 405.061 284.557C411.095 285.957 417.664 284.932 424.65 281.535C424.779 280.026 424.875 278.511 424.894 276.988C424.936 273.489 426.049 270.072 428.116 267.249C432.439 261.345 438.466 249.5 431.242 235.544C429.278 231.751 428.703 227.396 429.849 223.282C431.858 216.07 432.638 203.83 420.487 193.122C417.836 190.786 415.912 187.74 415.056 184.312C413.392 177.643 408.772 166.841 396.171 164.813C394.782 164.589 393.45 164.171 392.189 163.602C391.801 163.664 391.41 163.728 391.015 163.798C379.826 165.77 371.505 170.051 366.951 176.181Z" fill="#2BA870"/>
<path d="M313.95 229.464C310.881 245.347 318.96 254.555 324.955 259.04C328.38 261.602 330.594 265.4 331.359 269.608C334.174 285.104 346.229 290.789 353.252 292.81C356.583 293.768 359.526 295.776 361.674 298.496C366.993 305.231 373.724 310.719 380.359 315.051C394.977 324.594 414.507 317.889 420.238 301.399C422.487 294.929 424.258 287.734 424.754 280.361C401.957 291.804 391.22 273.647 391.22 273.647C391.22 273.647 381.22 245.647 366.202 203.314C355.885 174.231 378.787 166.387 394.135 164.326C391.017 163.383 388.244 161.506 386.11 158.994C383.203 155.571 378.463 151.662 371.547 150.726C363.301 149.611 355.652 155.127 354.021 163.07C353.77 164.293 352.843 165.268 351.661 165.671C350.479 166.074 349.149 165.869 348.203 165.054C342.058 159.762 332.633 160.07 326.787 165.991C321.883 170.958 320.52 176.948 320.31 181.434C320.123 185.429 318.64 189.271 315.902 192.187C307.165 201.492 310.109 212.866 312.866 219.162C314.286 222.402 314.621 225.992 313.95 229.464Z" fill="#007F6F"/>
<path d="M389.803 285.511C386.475 285.511 383.366 283.417 382.232 280.091L344.09 168.254C342.664 164.072 344.899 159.526 349.08 158.101C353.261 156.676 357.808 158.909 359.233 163.09L397.375 274.927C398.802 279.109 396.567 283.655 392.386 285.08C391.53 285.372 390.659 285.511 389.803 285.511Z" fill="#00626B"/>
<path d="M196.097 192.188C193.359 189.272 191.876 185.43 191.689 181.435C191.479 176.949 190.116 170.958 185.212 165.992C179.366 160.071 169.94 159.763 163.796 165.055C162.85 165.87 161.52 166.075 160.338 165.672C159.156 165.269 158.229 164.294 157.977 163.071C156.346 155.128 148.697 149.612 140.451 150.727C133.534 151.663 128.795 155.572 125.888 158.995C123.299 162.043 119.777 164.178 115.829 164.814C115.289 164.901 114.784 165.025 114.273 165.143L115.375 165.704L115.572 165.78C115.754 165.828 133.86 170.769 140.861 183.297C143.9 188.734 144.427 194.868 142.429 201.529C134.256 228.772 125.489 279.636 125.406 280.124C125.31 280.615 123.119 292.258 129.243 301.021C131.817 304.703 135.485 307.293 140.155 308.779C143.815 305.74 147.301 302.327 150.325 298.498C152.473 295.778 155.416 293.77 158.747 292.812C165.771 290.792 177.826 285.106 180.64 269.61C181.405 265.402 183.619 261.604 187.044 259.042C193.039 254.557 201.118 245.349 198.049 229.466C197.378 225.994 197.713 222.403 199.131 219.164C201.89 212.867 204.834 201.492 196.097 192.188Z" fill="#2BA870"/>
<path d="M96.9441 184.312C96.0891 187.74 94.1641 190.786 91.5141 193.122C79.3621 203.83 80.1431 216.069 82.1521 223.282C83.2981 227.397 82.7231 231.751 80.7591 235.544C73.5351 249.5 79.5621 261.345 83.8851 267.249C85.9521 270.072 87.0651 273.489 87.1071 276.988C87.2101 285.529 89.1711 293.945 91.7621 301.399C97.4931 317.889 117.023 324.594 131.641 315.051C134.819 312.976 138.015 310.629 141.071 308.014C122.058 302.479 126.388 280.314 126.388 280.314C126.388 280.314 135.138 229.314 143.388 201.814C151.638 174.314 115.83 164.813 115.83 164.813C103.228 166.841 98.6081 177.643 96.9441 184.312Z" fill="#007F6F"/>
<path d="M122.197 285.511C121.341 285.511 120.469 285.372 119.614 285.08C115.432 283.654 113.198 279.108 114.625 274.927L152.767 163.09C154.193 158.907 158.74 156.674 162.92 158.101C167.102 159.527 169.336 164.073 167.91 168.254L129.768 280.091C128.634 283.417 125.525 285.511 122.197 285.511Z" fill="#00626B"/>
<path d="M327.1 184.613C327.861 175.593 326.695 160.162 311.848 152.278C311.188 151.928 310.559 151.535 309.948 151.12C303.453 150.716 282.889 150.485 269.667 162.289C262.183 168.971 258.388 178.4 258.388 190.315L258.389 290.009C258.374 290.336 257.443 320.455 287.752 327.392C292.611 320.458 296.997 312.692 299.963 304.322C301.503 299.978 304.342 296.192 308.12 293.551C316.019 288.029 328.568 275.826 325.496 255.358C324.661 249.794 325.795 244.122 328.973 239.48C334.543 231.343 340.72 216.418 330.124 197.904C327.813 193.865 326.709 189.25 327.1 184.613Z" fill="#2BA870"/>
<path d="M301.782 140.747C299.613 135.244 295.367 128.356 287.143 124.249C277.338 119.353 265.458 122.977 260.048 132.186C259.215 133.604 257.644 134.425 256 134.425C254.355 134.425 252.785 133.604 251.951 132.186C246.541 122.978 234.661 119.354 224.856 124.249C216.632 128.356 212.386 135.243 210.217 140.747C208.285 145.648 204.803 149.806 200.151 152.277C185.304 160.162 184.138 175.592 184.899 184.612C185.291 189.253 184.181 193.872 181.868 197.914C171.289 216.408 177.446 231.321 183.012 239.46C186.192 244.11 187.338 249.785 186.502 255.356C183.423 275.869 196.033 288.081 203.93 293.586C207.675 296.196 210.49 299.951 212.012 304.254C215.779 314.911 221.836 324.614 228.266 332.835C242.432 350.946 269.627 350.891 283.782 332.771C285.345 330.77 286.885 328.678 288.376 326.509C258.087 319.877 259.387 290.051 259.387 290.051C259.387 290.051 259.387 234.313 259.387 190.313C259.387 146.313 311.847 152.276 311.847 152.276C307.196 149.807 303.714 145.648 301.782 140.747Z" fill="#007F6F"/>
<path d="M256 298.889C251.12 298.889 247.163 294.932 247.163 290.052V134.426C247.163 129.546 251.12 125.589 256 125.589C260.88 125.589 264.837 129.546 264.837 134.426V290.053C264.837 294.933 260.88 298.889 256 298.889Z" fill="#00626B"/>
<path d="M302.994 92.857C301.612 92.857 300.213 92.485 298.951 91.705C271.646 74.809 273.12 46.291 273.196 45.085C273.464 40.842 277.102 37.644 281.364 37.888C285.592 38.155 288.806 41.787 288.563 46.011C288.519 46.931 287.809 66.706 307.052 78.612C310.667 80.849 311.785 85.593 309.548 89.209C308.092 91.562 305.572 92.857 302.994 92.857Z" fill="#00626B"/>
<path d="M218.858 90.944C216.388 87.485 211.582 86.682 208.12 89.154C207.957 89.271 196.638 97.075 177.947 94.616V110.167C180.396 110.418 182.754 110.537 185.009 110.537C204.307 110.537 216.263 102.257 217.068 101.683C220.527 99.211 221.329 94.404 218.858 90.944Z" fill="#00626B"/>
<path d="M326.41 110.536C307.109 110.536 295.156 102.256 294.351 101.682C290.892 99.212 290.09 94.404 292.561 90.944C295.021 87.499 299.798 86.691 303.254 89.122C304.355 89.876 328.24 105.675 363.956 82.716C367.532 80.418 372.295 81.454 374.594 85.029C376.892 88.605 375.857 93.368 372.281 95.667C354.588 107.04 338.948 110.536 326.41 110.536Z" fill="#007F6F"/>
<path d="M208.425 92.857C205.847 92.857 203.328 91.562 201.871 89.209C199.634 85.593 200.752 80.849 204.367 78.612C223.915 66.518 222.871 46.259 222.858 46.056C222.591 41.813 225.813 38.157 230.055 37.888C234.316 37.627 237.955 40.843 238.223 45.085C238.299 46.291 239.773 74.809 212.468 91.705C211.207 92.485 209.807 92.857 208.425 92.857Z" fill="#007F6F"/>
<path d="M376.775 91.3195C384.995 83.9815 387.824 73.7386 383.095 68.4415C378.366 63.1444 367.869 64.7988 359.65 72.1369C351.43 79.4749 348.601 89.7178 353.33 95.0149C358.059 100.312 368.556 98.6576 376.775 91.3195Z" fill="#EF018E"/>
<path d="M237.429 31.63C239.543 42.443 235.608 52.314 228.639 53.676C221.67 55.038 214.307 47.377 212.193 36.564C210.079 25.751 214.014 15.88 220.983 14.518C227.952 13.155 235.315 20.817 237.429 31.63Z" fill="#EF018E"/>
<path d="M371.348 81.018C360.642 83.623 353.324 91.328 355.003 98.227C356.682 105.126 366.721 108.608 377.427 106.003C388.133 103.398 395.451 95.693 393.772 88.794C392.093 81.894 382.053 78.413 371.348 81.018Z" fill="#FE3BAE"/>
<path d="M250.428 38.6231C253.656 28.0898 250.771 17.8643 243.982 15.7838C237.194 13.7033 229.074 20.5556 225.846 31.0889C222.617 41.6222 225.503 51.8477 232.292 53.9282C239.08 56.0087 247.2 49.1564 250.428 38.6231Z" fill="#FE3BAE"/>
<path d="M168.577 122.532C179.143 119.414 186.08 111.366 184.071 104.556C182.061 97.7466 171.866 94.7541 161.3 97.8722C150.734 100.99 143.797 109.038 145.807 115.848C147.816 122.658 158.011 125.65 168.577 122.532Z" fill="#EF018E"/>
<path d="M161.795 109.613C172.586 111.838 182.496 108.004 183.93 101.049C185.364 94.095 177.778 86.654 166.987 84.429C156.196 82.204 146.286 86.038 144.852 92.993C143.418 99.947 151.004 107.388 161.795 109.613Z" fill="#FE3BAE"/>
<path d="M347.984 61.673C347.984 73.142 341.763 74.007 334.088 74.007C326.413 74.007 320.192 73.141 320.192 61.673C320.192 50.204 326.413 40.907 334.088 40.907C341.763 40.907 347.984 50.204 347.984 61.673Z" fill="#CF0D7D"/>
<path d="M319.672 12.635C309.74 6.90099 305.879 11.856 302.042 18.502C298.205 25.148 295.844 30.969 305.776 36.703C315.708 42.437 326.87 41.698 330.708 35.052C334.545 28.406 329.604 18.369 319.672 12.635Z" fill="#CF0D7D"/>
<path d="M305.776 37.304C295.844 43.038 298.205 48.859 302.042 55.505C305.879 62.151 309.74 67.106 319.672 61.372C329.604 55.638 334.545 45.601 330.708 38.955C326.871 32.309 315.708 31.57 305.776 37.304Z" fill="#CF0D7D"/>
<path d="M347.984 12.335C347.984 0.866 341.763 0 334.088 0C326.413 0 320.192 0.866 320.192 12.335C320.192 23.804 326.413 33.101 334.088 33.101C341.763 33.101 347.984 23.803 347.984 12.335Z" fill="#EF018E"/>
<path d="M362.4 37.304C372.332 43.038 369.971 48.859 366.134 55.505C362.297 62.151 358.436 67.106 348.504 61.372C338.572 55.638 333.631 45.601 337.468 38.955C341.306 32.309 352.468 31.57 362.4 37.304Z" fill="#EF018E"/>
<path d="M348.504 12.635C358.436 6.90099 362.297 11.856 366.134 18.502C369.971 25.148 372.332 30.969 362.4 36.703C352.468 42.437 341.305 41.698 337.468 35.052C333.631 28.406 338.572 18.369 348.504 12.635Z" fill="#FE3BAE"/>
<path d="M334.088 50.525C341.556 50.525 347.609 44.4714 347.609 37.004C347.609 29.5366 341.556 23.483 334.088 23.483C326.621 23.483 320.567 29.5366 320.567 37.004C320.567 44.4714 326.621 50.525 334.088 50.525Z" fill="#FD77CC"/>
<path d="M293.112 139.08C293.112 151.378 286.441 152.306 278.212 152.306C269.983 152.306 263.312 151.378 263.312 139.08C263.312 126.782 269.983 116.813 278.212 116.813C286.441 116.814 293.112 126.783 293.112 139.08Z" fill="#CF0D7D"/>
<path d="M262.753 86.498C252.103 80.349 247.963 85.662 243.849 92.789C239.734 99.916 237.203 106.157 247.853 112.306C258.503 118.455 270.472 117.662 274.587 110.535C278.701 103.409 273.403 92.647 262.753 86.498Z" fill="#CF0D7D"/>
<path d="M247.853 112.95C237.203 119.099 239.735 125.34 243.849 132.467C247.964 139.594 252.103 144.907 262.753 138.758C273.403 132.609 278.701 121.847 274.586 114.721C270.472 107.594 258.503 106.802 247.853 112.95Z" fill="#CF0D7D"/>
<path d="M293.112 86.176C293.112 73.878 286.441 72.95 278.212 72.95C269.983 72.95 263.312 73.878 263.312 86.176C263.312 98.474 269.983 108.443 278.212 108.443C286.441 108.443 293.112 98.474 293.112 86.176Z" fill="#EF018E"/>
<path d="M308.57 112.95C319.22 119.099 316.689 125.34 312.574 132.467C308.459 139.594 304.32 144.907 293.67 138.758C283.02 132.609 277.722 121.847 281.837 114.721C285.951 107.594 297.92 106.802 308.57 112.95Z" fill="#EF018E"/>
<path d="M293.67 86.498C304.32 80.349 308.46 85.662 312.574 92.789C316.688 99.916 319.22 106.157 308.57 112.306C297.92 118.455 285.951 117.662 281.836 110.535C277.722 103.409 283.02 92.647 293.67 86.498Z" fill="#FE3BAE"/>
<path d="M292.647 115.066C293.928 107.163 288.56 99.7178 280.657 98.4367C272.754 97.1556 265.309 102.524 264.028 110.427C262.747 118.33 268.115 125.775 276.018 127.056C283.921 128.337 291.366 122.969 292.647 115.066Z" fill="#FD77CC"/>
<path d="M176.368 61.673C176.368 73.142 170.147 74.007 162.472 74.007C154.797 74.007 148.576 73.141 148.576 61.673C148.576 50.204 154.797 40.907 162.472 40.907C170.147 40.907 176.368 50.204 176.368 61.673Z" fill="#CF0D7D"/>
<path d="M148.056 12.635C138.124 6.90099 134.263 11.856 130.426 18.502C126.589 25.148 124.228 30.969 134.16 36.703C144.092 42.437 155.254 41.698 159.092 35.052C162.929 28.406 157.988 18.369 148.056 12.635Z" fill="#CF0D7D"/>
<path d="M134.16 37.304C124.228 43.038 126.589 48.859 130.426 55.505C134.263 62.151 138.124 67.106 148.056 61.372C157.988 55.638 162.929 45.601 159.092 38.955C155.254 32.309 144.092 31.57 134.16 37.304Z" fill="#CF0D7D"/>
<path d="M176.368 12.335C176.368 0.866 170.147 0 162.472 0C154.797 0 148.576 0.866 148.576 12.335C148.576 23.804 154.797 33.101 162.472 33.101C170.147 33.101 176.368 23.803 176.368 12.335Z" fill="#EF018E"/>
<path d="M190.784 37.304C200.716 43.038 198.355 48.859 194.518 55.505C190.681 62.151 186.82 67.106 176.888 61.372C166.956 55.638 162.015 45.601 165.852 38.955C169.69 32.309 180.852 31.57 190.784 37.304Z" fill="#EF018E"/>
<path d="M176.888 12.635C186.82 6.90099 190.681 11.856 194.518 18.502C198.355 25.148 200.716 30.969 190.784 36.703C180.852 42.437 169.69 41.698 165.852 35.052C162.015 28.406 166.956 18.369 176.888 12.635Z" fill="#FE3BAE"/>
<path d="M162.472 50.525C169.94 50.525 175.993 44.4714 175.993 37.004C175.993 29.5366 169.94 23.483 162.472 23.483C155.005 23.483 148.951 29.5366 148.951 37.004C148.951 44.4714 155.005 50.525 162.472 50.525Z" fill="#FD77CC"/>
</svg>
