<svg width="512" height="512" viewBox="0 0 512 512" fill="none" xmlns="http://www.w3.org/2000/svg">
<path d="M67.567 110.418L50.461 133.63C25.506 172.01 10.998 217.807 10.998 266.998C10.998 285.725 13.108 303.958 17.087 321.48L26.406 352.662C34.387 374.043 45.269 394.007 58.573 412.081L80.991 438.432C94.433 452.153 109.474 464.298 125.815 474.569L148.575 487.241C181.014 503.092 217.465 512 256 512C294.535 512 330.986 503.092 363.424 487.241L386.184 474.569C402.526 464.298 417.566 452.153 431.008 438.432L453.426 412.081C466.731 394.007 477.612 374.043 485.593 352.662L494.912 321.48C498.891 303.958 501.001 285.725 501.001 266.998C501.001 217.807 486.493 172.01 461.538 133.63L444.433 110.419C399.492 56.394 331.766 21.996 256 21.996C180.234 21.996 112.508 56.394 67.567 110.418Z" fill="#DBF8A0"/>
<path d="M269.362 30.315C259.7 14.055 267.699 5.015 278.856 0H187.19C175.075 0 165.254 9.821 165.254 21.936V199.051C165.254 211.166 175.075 220.987 187.19 220.987H324.81C327.965 220.987 330.962 220.316 333.673 219.116C318.531 167.588 284.967 56.576 269.362 30.315Z" fill="#7B3723"/>
<path d="M324.81 0H277.856C266.699 5.015 258.7 14.054 268.362 30.315C284.004 56.639 317.692 168.122 332.781 219.486C340.953 216.295 346.745 208.352 346.745 199.051V21.936C346.746 9.821 336.925 0 324.81 0Z" fill="#99442D"/>
<path d="M256 99.984C279.369 99.984 298.314 81.0394 298.314 57.67C298.314 34.3006 279.369 15.356 256 15.356C232.631 15.356 213.686 34.3006 213.686 57.67C213.686 81.0394 232.631 99.984 256 99.984Z" fill="#602A1B"/>
<path d="M256 191.528C291.773 191.528 320.773 162.528 320.773 126.755C320.773 90.9818 291.773 61.982 256 61.982C220.227 61.982 191.227 90.9818 191.227 126.755C191.227 162.528 220.227 191.528 256 191.528Z" fill="#7B3723"/>
<path d="M367.471 409.048C370.454 376.024 372.949 346.336 373.316 323.286C373.437 315.687 379.069 310.627 385.363 309.748C379.858 306.434 375.547 301.112 372.51 293.826C369.263 286.037 368.771 278.823 368.766 278.757C368.012 265.585 371.17 255.569 378.156 248.986C382.044 245.321 386.689 243.151 391.115 241.88C367.656 196.771 353.596 143.306 305.134 117.554C288.039 108.47 267.018 118.729 263.353 137.738C261.418 147.777 264.959 158.046 272.576 164.866C289.72 180.216 318.755 214.783 322.804 275.25C328.426 359.206 328.067 402.883 270.087 477.336C266.765 481.602 266.449 487.486 269.346 492.053C273.963 499.332 284.312 500.042 289.871 493.454C299.291 482.29 313.063 465.509 325.069 449.084C330.68 441.408 342.679 443.427 345.405 452.536C348.468 462.772 353.899 474.877 363.426 487.243C371.257 483.416 378.851 479.181 386.186 474.571C375.224 456.977 365.248 433.661 367.471 409.048Z" fill="#007F6F"/>
<path d="M414.337 164.195C410.323 159.666 410.509 153.54 413.492 149.246C393.043 140.922 400.199 124.156 405.591 115.669C397.996 115.38 390.333 114.216 382.8 111.848C359.385 104.489 337.619 97.75 318.565 92.483C306.044 89.022 292.952 95.675 288.417 107.848C283.252 121.711 291.185 137.003 305.492 140.767C352.022 153.01 387.007 173.997 431.009 226.799C434.637 231.153 440.592 232.787 445.914 230.84C454.398 227.735 457.432 217.296 451.925 210.135C442.593 197.999 428.48 180.153 414.337 164.195Z" fill="#2BA870"/>
<path d="M223.583 107.849C219.047 95.676 205.956 89.022 193.435 92.484C174.382 97.751 152.616 104.49 129.2 111.849C124.977 113.176 120.712 114.114 116.442 114.747C106.076 119.729 93.613 129.263 95.146 145.996C101.015 149.759 102.868 158.322 97.662 164.196C83.519 180.153 69.406 197.999 60.074 210.136C54.567 217.298 57.601 227.737 66.085 230.841C71.407 232.788 77.362 231.153 80.99 226.8C124.991 173.997 159.977 153.011 206.507 140.768C220.814 137.003 228.748 121.712 223.583 107.849Z" fill="#007F6F"/>
<path d="M136.131 315.403C136.327 302.603 139.385 290.003 145.105 278.537L150.362 267.998C162.838 246.25 179.945 244.639 192.984 247.882C202.35 204.097 225.059 177.728 239.425 164.865C247.042 158.045 250.583 147.776 248.648 137.737C244.983 118.728 223.962 108.469 206.867 117.553C150.188 147.672 140.569 215.7 107.93 263.93C80.7901 304.035 43.3051 315.596 23.5411 318.927C21.1721 319.326 18.9931 320.219 17.0861 321.48C19.5111 332.157 22.6361 342.566 26.4051 352.662C28.8461 352.67 31.3541 352.149 33.7871 350.987C43.5281 346.336 52.1431 341.695 58.7121 337.972C62.4671 335.844 66.7511 339.537 65.3181 343.608C59.2141 360.941 57.9631 384.44 58.5731 412.081C65.4251 421.39 72.9201 430.193 80.9911 438.432C81.9061 426.057 82.7561 411.803 84.1031 395.023C87.1981 356.476 100.883 330.855 113.971 314.78C120.227 307.098 131.185 308.532 136.131 315.403Z" fill="#2BA870"/>
<path d="M444.434 110.418C432.179 113.964 418.502 116.289 404.621 115.622C399.158 124.201 391.828 141.328 413.279 149.554C415.196 146.606 418.396 144.451 422.457 144.139C433.505 143.289 446.938 140.47 461.539 133.629C456.287 125.552 450.575 117.801 444.434 110.418Z" fill="#73CF4A"/>
<path d="M449.297 337.7C437.758 319.974 447.23 311.997 455.59 308.548C438.536 300.487 419.609 286.893 404.069 263.93C399.147 256.658 394.751 248.933 390.637 240.958C379.192 244.319 366.326 253.65 367.767 278.814C367.767 278.814 369.132 300.24 383.952 310.018C388.791 308.84 394.262 310.156 398.028 314.78C411.116 330.855 424.801 356.476 427.896 395.023C429.243 411.803 430.093 426.058 431.008 438.432C439.08 430.193 446.574 421.39 453.426 412.081C454.036 384.44 452.785 360.94 446.681 343.608C445.767 341.012 447.181 338.577 449.297 337.7Z" fill="#2BA870"/>
<path d="M67.567 110.418C61.426 117.8 55.714 125.552 50.462 133.63C65.063 140.471 78.496 143.289 89.544 144.14C92.176 144.343 94.443 145.324 96.237 146.788C94.2 129.305 107.303 119.512 117.919 114.519C100.499 117.407 82.918 114.861 67.567 110.418Z" fill="#2BA870"/>
<path d="M242.656 492.051C245.552 487.485 245.237 481.6 241.914 477.334C183.935 402.881 183.575 359.204 189.197 275.248C189.871 265.18 191.25 255.847 193.139 247.184C179.969 243.56 162.209 244.601 149.361 266.998L144.104 277.537C138.419 288.933 135.363 301.45 135.133 314.17C137.251 316.479 138.624 319.58 138.683 323.286C139.05 346.336 141.545 376.024 144.528 409.048C146.751 433.661 136.775 456.977 125.815 474.569C133.15 479.179 140.744 483.414 148.575 487.241C158.102 474.874 163.533 462.77 166.596 452.534C169.322 443.425 181.321 441.406 186.932 449.082C198.938 465.507 212.71 482.288 222.13 493.452C227.69 500.04 238.039 499.331 242.656 492.051Z" fill="#73CF4A"/>
<path d="M455.128 308.332C446.587 311.683 436.361 319.703 448.549 338.087C449.875 337.229 451.632 337.034 453.287 337.972C459.856 341.695 468.471 346.336 478.212 350.987C480.645 352.149 483.153 352.67 485.594 352.662C489.363 342.566 492.489 332.157 494.913 321.48C493.007 320.22 490.827 319.326 488.459 318.927C479.908 317.486 468.039 314.499 455.128 308.332Z" fill="#73CF4A"/>
</svg>
