<svg width="512" height="512" viewBox="0 0 512 512" fill="none" xmlns="http://www.w3.org/2000/svg">
<path d="M256 21.996C120.689 21.996 10.998 131.687 10.998 266.998C10.998 362.581 65.7391 445.369 145.576 485.75L366.428 485.748C446.263 445.367 501.002 362.579 501.002 266.998C501.002 131.687 391.311 21.996 256 21.996Z" fill="#121D4C"/>
<path d="M283.914 177.578V138.002C283.914 122.586 271.416 110.088 256 110.088C240.584 110.088 228.086 122.586 228.086 138.002V163.85L283.914 177.578Z" fill="#602A1B"/>
<path d="M228.086 217.394V249.418C228.086 250.474 228.052 251.526 228.03 252.58L284.972 266.981C284.282 261.172 283.914 255.309 283.914 249.418V201.99L228.086 217.394Z" fill="#602A1B"/>
<path d="M222.112 291.127C229.032 302.617 241.61 310.312 256 310.312C270.39 310.312 282.968 302.617 289.888 291.127C287.476 282.915 285.792 274.476 284.839 265.917L228.048 251.554C227.855 265.027 225.864 278.352 222.112 291.127Z" fill="#7B3723"/>
<path d="M228.086 218.431L283.914 203.028V176.548L228.086 162.82V218.431Z" fill="#7B3723"/>
<path d="M326.359 354.942C323.564 350.417 320.497 346.169 317.187 342.237C303.906 326.467 294.471 308.041 289.115 288.398C283.049 300.548 270.502 308.897 255.999 308.897C241.496 308.897 228.95 300.548 222.884 288.398C217.529 308.041 208.093 326.467 194.812 342.237C191.501 346.168 188.434 350.417 185.639 354.942H326.359Z" fill="#602A1B"/>
<path d="M135.935 202.534C135.189 209.366 126.113 211.408 122.578 205.514C111.112 186.397 109.865 158.132 124.142 133.806C155.275 80.44 227.914 85.214 245.392 131.21C247.384 136.384 241.854 141.22 236.978 138.579C201.179 119.186 176.622 137.612 175.873 137.797C155.348 149.751 142.053 170.365 137.36 193.421C136.709 196.622 136.254 199.61 135.935 202.534Z" fill="#2BA870"/>
<path d="M60.7951 165.517C58.2441 171.594 49.2921 170.156 48.7991 163.584C45.0081 113.055 86.9701 57.309 150.832 51.441C200.465 45.753 241.54 78.609 252.433 117.107C255.284 127.182 241.967 133.9 235.553 125.624C198.06 77.254 132.339 81.302 89.8921 122.438C76.3231 135.602 67.4821 149.584 60.7951 165.517Z" fill="#007F6F"/>
<path d="M104.372 25.282C102.504 19.252 104.127 13.03 106.192 8.34201C75.956 19.7 51.227 41.78 39.182 69.138C36.7 74.776 43.641 79.857 48.226 75.743C63.762 61.799 80.713 51.321 102.244 44.583C108.265 42.697 114.321 41.261 120.364 40.247C111.695 36.583 106.319 31.567 104.372 25.282Z" fill="#2BA870"/>
<path d="M220.33 19.233C223.674 28.92 223.552 36.889 219.924 42.98C215.834 49.845 208.021 53.001 202.199 54.442C223.034 66.847 239.265 86.147 246.987 111.273C251.232 125.085 271.712 122.008 271.3 107.564C270.344 74.03 252.472 39.296 220.33 19.233Z" fill="#2BA870"/>
<path d="M221.674 20.086C215.618 16.18 209.051 12.792 201.971 10.049C168.694 -3.78398 134.129 -2.50698 104.873 8.84502C101.156 17.902 99.577 31.85 118.585 40.56C149.105 35.018 179.416 40.454 203.411 55.178C213.904 52.346 229.368 44.071 221.674 20.086Z" fill="#73CF4A"/>
<path d="M307.613 30.761C304.207 23.753 306.5 15.633 308.639 10.619C265.849 27.868 241.813 68.527 240.7 107.565C240.288 122.009 260.768 125.086 265.013 111.274C275.378 77.548 301.073 54.315 332.66 44.176C319.474 42.32 311.045 37.822 307.613 30.761Z" fill="#73CF4A"/>
<path d="M310.029 10.049C309.113 10.404 308.218 10.785 307.319 11.161C303.436 20.881 300.197 39.8 330.56 44.871C354.765 36.585 382.614 36.083 409.757 44.584C431.287 51.322 448.239 61.799 463.774 75.744C468.358 79.859 475.3 74.777 472.818 69.139C449.232 15.565 377.014 -17.796 310.029 10.049Z" fill="#A4E830"/>
<path d="M361.075 91.513C350.605 83.556 345.39 75.595 345.593 67.804C345.806 59.599 352.113 53.597 355.471 50.972C308.417 48.313 270.039 80.093 259.566 117.107C256.715 127.182 270.032 133.9 276.447 125.624C298.418 97.279 330.082 86.942 361.075 91.513Z" fill="#2BA870"/>
<path d="M361.168 51.441C358.738 51.163 356.336 51.003 353.949 50.905C347.355 56.41 334.344 71.536 359.088 91.239C381.664 94.101 404.003 104.892 422.107 122.437C435.676 135.601 444.517 149.583 451.204 165.517C453.755 171.594 462.707 170.156 463.2 163.584C466.992 113.055 425.03 57.309 361.168 51.441Z" fill="#73CF4A"/>
<path d="M342.989 142.325C339.574 132.692 339.64 124.698 343.23 118.494C347.267 111.516 355.093 108.041 361.453 106.317C326.662 84.725 280.131 95.627 266.609 131.211C264.617 136.385 270.148 141.221 275.023 138.58C310.822 119.186 335.379 137.613 336.128 137.798C338.517 139.189 340.798 140.709 342.989 142.325Z" fill="#73CF4A"/>
<path d="M360.272 105.589C348.935 108.89 333.889 117.748 341.597 141.343C359.009 153.597 370.381 172.491 374.641 193.422C375.291 196.622 375.747 199.611 376.066 202.534C376.812 209.367 385.888 211.409 389.423 205.514C400.889 186.397 402.136 158.132 387.859 133.806C380.539 121.26 370.924 111.928 360.272 105.589Z" fill="#A4E830"/>
<path d="M135.64 404.512C135.64 404.512 134.133 441.342 145.575 485.75C174.155 500.206 205.951 509.217 239.605 511.441C236.094 497.349 233.759 483.421 232.217 471.405C230.875 460.945 233.948 450.393 240.647 442.455C247.345 434.519 257.019 429.967 267.188 429.967H357.232C365.21 429.967 370.971 433.808 374.871 437.955C376.904 417.765 376.359 404.512 376.359 404.512C362.989 404.512 149.011 404.512 135.64 404.512Z" fill="#01A2C3"/>
<path d="M357.233 429.549H267.189C245.608 429.549 228.971 449.265 231.818 471.46C233.388 483.694 235.721 497.525 239.171 511.414C244.733 511.791 250.342 512 256 512C295.729 512 333.244 502.533 366.428 485.749C371.073 467.723 373.587 450.945 374.93 437.374C370.986 433.274 365.214 429.549 357.233 429.549Z" fill="#63D9FA"/>
<path d="M376.36 343.614H252.488C235.449 343.614 221.636 357.427 221.636 374.466C221.636 391.505 235.449 405.318 252.488 405.318H376.36C383.364 405.318 389.043 399.64 389.043 392.635V356.297C389.043 349.292 383.364 343.614 376.36 343.614Z" fill="#AAE7FA"/>
<path d="M222.442 374.466C222.442 357.427 236.255 343.614 253.294 343.614H135.64C128.635 343.614 122.957 349.292 122.957 356.297V392.635C122.957 399.64 128.635 405.318 135.64 405.318H253.294C236.255 405.318 222.442 391.506 222.442 374.466Z" fill="#63D9FA"/>
</svg>
