<svg width="512" height="512" viewBox="0 0 512 512" fill="none" xmlns="http://www.w3.org/2000/svg">
<g clip-path="url(#clip0_1_1262)">
<path d="M110.483 464.109H401.516C461.865 419.483 501.005 347.814 501.005 266.995C501.005 131.683 391.313 21.9903 256 21.9903C120.687 21.9903 10.9951 131.683 10.9951 266.995C10.9951 347.814 50.1336 419.484 110.483 464.109Z" fill="#F5D001"/>
<path d="M150.995 225.249C148.103 225.249 145.264 223.857 143.525 221.279C121.375 188.425 92.776 165.7 92.49 165.474C88.587 162.397 87.917 156.738 90.995 152.834C94.071 148.93 99.731 148.261 103.635 151.339C104.894 152.331 134.744 176.055 158.449 211.216C161.228 215.337 160.139 220.931 156.018 223.709C154.476 224.751 152.726 225.249 150.995 225.249Z" fill="#007F6F"/>
<path d="M180.403 339.642H249.238C250.817 323.681 247.91 304.291 240.96 287.478C227.522 254.969 206.072 249.206 185.986 257.509C165.9 265.812 154.782 285.038 168.221 317.548C171.417 325.278 175.61 332.787 180.403 339.642Z" fill="#00626B"/>
<path d="M243.851 339.642H268.911C268.941 337.912 268.954 336.12 268.944 334.246C268.764 302.263 262.583 264.843 250.573 223.028C243.022 196.742 238.981 166.344 238.562 132.676C238.195 103.271 253.456 77.9659 279.383 64.9828C305.375 51.9666 335.411 54.5476 357.768 71.7138C363.244 75.9169 371.091 74.8889 375.295 69.4128C379.5 63.9368 378.469 56.0897 372.994 51.8856C342.977 28.8353 302.817 25.2893 268.189 42.6285C233.495 60.0017 213.073 93.7801 213.562 132.988C214.009 168.885 218.377 201.501 226.542 229.93C241.447 281.815 244.262 317.914 243.851 339.642Z" fill="#007F6F"/>
<path d="M322.447 290.645C335.78 274.527 351.991 271.258 362.896 271.239C361.154 268.152 358.986 265.232 356.456 262.495C340.293 245.008 315.508 241.63 285.112 269.724C263.339 289.849 246.886 318.549 245.242 339.641H280.417C290.262 328.465 307.537 308.671 322.447 290.645Z" fill="#2BA870"/>
<path d="M335.946 339.642C338.598 337.527 341.178 335.332 343.645 333.052C369.8 308.876 372.384 287.016 362.3 270.244C351.394 270.181 334.947 273.323 321.446 289.646C306.087 308.215 288.205 328.675 278.535 339.643H335.946V339.642Z" fill="#73CF4A"/>
<path d="M434.441 203.74C432.478 203.74 430.503 203.101 428.846 201.785L423.19 197.289C408.061 185.264 400.726 165.965 404.048 146.927C405.269 139.935 404.345 132.84 401.377 126.409C399.294 121.895 401.265 116.548 405.777 114.465C410.289 112.382 415.637 114.353 417.72 118.865C422.228 128.634 423.632 139.408 421.78 150.021C419.59 162.563 424.423 175.276 434.39 183.199L440.046 187.695C443.937 190.788 444.584 196.449 441.49 200.34C439.716 202.576 437.091 203.74 434.441 203.74Z" fill="#2BA870"/>
<path d="M409.555 132.638C405.775 132.638 402.157 130.484 400.469 126.825C395.42 115.882 386.456 99.2946 372.424 82.4246C368.437 77.6306 364.019 73.3596 359.292 69.7306C354.911 66.3676 354.087 60.0896 357.45 55.7086C360.812 51.3266 367.091 50.5036 371.472 53.8666C377.373 58.3976 382.867 63.7026 387.801 69.6356C403.223 88.1776 413.077 106.413 418.629 118.447C420.942 123.462 418.753 129.403 413.738 131.717C412.382 132.342 410.957 132.638 409.555 132.638Z" fill="#007F6F"/>
<path d="M165.472 292.408V339.642H190.472V292.408C190.472 265.895 180.675 237.921 161.353 209.261C157.496 203.536 149.726 202.024 144.001 205.884C138.276 209.743 136.765 217.513 140.624 223.237C157.111 247.692 165.472 270.964 165.472 292.408Z" fill="#2BA870"/>
<path d="M374.113 135.906C371.809 135.906 369.507 135.027 367.749 133.27C364.234 129.755 364.234 124.056 367.749 120.541C381.765 106.525 380.073 88.7419 380.052 88.5659C379.461 83.6309 382.983 79.1509 387.918 78.5589C392.842 77.9689 397.333 81.4889 397.925 86.4249C398.053 87.4959 400.836 112.91 380.478 133.269C378.72 135.027 376.417 135.906 374.113 135.906Z" fill="#2BA870"/>
<path d="M383.208 226.074C380.632 226.074 378.074 224.974 376.294 222.842C373.108 219.027 373.62 213.351 377.436 210.165C399.34 191.879 405.113 166.427 405.168 166.172C406.228 161.327 411.01 158.243 415.858 159.281C420.706 160.325 423.799 165.08 422.771 169.931C422.499 171.213 415.808 201.577 388.97 223.983C387.287 225.388 385.242 226.074 383.208 226.074Z" fill="#73CF4A"/>
<path d="M437.03 217.636C426.74 212.097 425.297 204.863 428.621 198.687C431.945 192.511 438.778 189.732 449.069 195.271C459.359 200.81 465.007 210.307 461.682 216.483C458.357 222.659 447.32 223.175 437.03 217.636Z" fill="#FE17A0"/>
<path d="M441.584 207.186C432.332 200.046 432.086 192.674 436.371 187.121C440.656 181.569 447.85 179.939 457.102 187.079C466.354 194.219 470.38 204.509 466.095 210.061C461.81 215.613 450.836 214.326 441.584 207.186Z" fill="#EB68F6"/>
<path d="M339.525 120.403C350.137 105.441 361.683 104.588 370.662 110.956C379.641 117.324 382.653 128.503 372.042 143.465C361.43 158.427 345.549 165.393 336.57 159.024C327.59 152.656 328.914 135.364 339.525 120.403Z" fill="#9739CF"/>
<path d="M354.926 129.511C367.831 116.476 379.362 117.513 387.185 125.258C395.008 133.003 396.161 144.523 383.256 157.558C370.351 170.593 353.547 174.882 345.724 167.137C337.901 159.392 342.02 142.546 354.926 129.511Z" fill="#FE17A0"/>
<path d="M119.682 161.937C131.384 176.063 129.217 187.436 120.739 194.458C112.261 201.481 100.684 201.494 88.9819 187.368C77.2799 173.242 74.6659 156.098 83.1439 149.076C91.6209 142.054 107.98 147.812 119.682 161.937Z" fill="#9739CF"/>
<path d="M427.813 150.408C412.937 148.872 407.702 141.017 408.624 132.09C409.546 123.162 416.274 116.542 431.151 118.078C446.027 119.614 457.339 128.096 456.418 137.024C455.496 145.952 442.689 151.944 427.813 150.408Z" fill="#FE17A0"/>
<path d="M428.106 135.824C413.678 131.888 409.792 123.285 412.154 114.627C414.516 105.969 422.233 100.532 436.661 104.468C451.089 108.404 460.87 118.615 458.507 127.274C456.145 135.931 442.534 139.76 428.106 135.824Z" fill="#EB68F6"/>
<path d="M356.237 210.99C365.938 198.813 375.763 198.637 383.071 204.459C390.379 210.281 392.402 219.897 382.701 232.074C373 244.25 359.212 249.402 351.904 243.58C344.595 237.757 346.536 223.167 356.237 210.99Z" fill="#FE17A0"/>
<path d="M368.856 219.439C380.409 209.004 390.132 210.428 396.395 217.361C402.658 224.295 403.089 234.113 391.536 244.548C379.983 254.983 365.54 257.822 359.277 250.888C353.014 243.955 357.303 229.874 368.856 219.439Z" fill="#EB68F6"/>
<path d="M170.651 264.83C181.497 259.137 185.675 245.73 179.983 234.884C174.29 224.037 160.883 219.859 150.037 225.552C139.19 231.244 135.012 244.652 140.705 255.498C146.397 266.344 159.805 270.522 170.651 264.83Z" fill="#9739CF"/>
<path d="M178.041 276.182C177.442 270.109 174.158 264.619 169.023 261.322C164.972 258.721 159.285 254.537 153.766 248.673C143.589 237.859 119.241 236.262 117.524 265.749C115.986 292.171 121.02 299.756 136.194 303.28C139.79 304.115 142.732 306.714 143.979 310.189C146.168 316.291 153.19 319.173 158.993 316.285C167.531 312.036 177.86 304.161 178.343 290.82C178.567 284.609 178.401 279.838 178.041 276.182Z" fill="#9739CF"/>
<path d="M220.326 263.64C224.953 254.348 225.313 247.376 218.724 239.133C216.062 247.343 206.441 267.2 177.446 256.668C173.981 255.409 170.718 254.381 167.643 253.543C167.599 256.898 167.357 259.854 167.07 262.242C166.343 268.301 168.486 274.328 172.787 278.657C175.377 281.263 178.95 284.428 183.882 288.209C194.477 296.331 207.126 293.379 215.838 289.501C221.761 286.865 224.009 279.615 220.697 274.042C218.812 270.868 218.68 266.945 220.326 263.64Z" fill="#FE17A0"/>
<path d="M178.446 257.669C207.185 268.108 216.893 248.689 219.654 240.35C216.405 235.88 211.1 231.08 203.273 225.348C179.442 207.898 165.171 227.69 167.031 242.424C167.573 246.722 167.703 250.732 167.623 254.279C170.995 255.163 174.59 256.268 178.446 257.669Z" fill="#EB68F6"/>
<path d="M176.199 282.378C186.623 278.345 191.804 266.624 187.771 256.2C183.737 245.775 172.017 240.594 161.592 244.627C151.167 248.661 145.986 260.382 150.02 270.806C154.053 281.231 165.774 286.412 176.199 282.378Z" fill="#FEEB1E"/>
<path d="M188.801 272.044C192.191 279.239 189.106 287.819 181.912 291.209C174.717 294.599 166.137 291.514 162.747 284.32C159.357 277.125 162.442 268.545 169.636 265.155C176.831 261.765 185.411 264.849 188.801 272.044Z" fill="#F5D001"/>
<path d="M259.296 154.019C262.527 140.35 254.065 126.65 240.397 123.419C226.728 120.188 213.028 128.649 209.797 142.318C206.566 155.987 215.028 169.687 228.696 172.918C242.365 176.149 256.065 167.687 259.296 154.019Z" fill="#9739CF"/>
<path d="M237.858 189.067C240.206 182.47 239.482 175.165 235.765 169.231C232.833 164.55 228.974 157.425 226.113 148.638C220.837 132.434 196.343 118.868 180.139 148.638C165.62 175.313 167.136 185.65 181.164 196.728C184.489 199.354 186.271 203.491 185.866 207.708C185.154 215.114 191.033 221.54 198.471 221.38C209.412 221.145 223.986 218.022 231.012 204.408C234.283 198.072 236.444 193.038 237.858 189.067Z" fill="#9739CF"/>
<path d="M251.05 170.287L236.799 163.115C235.567 165.457 234.363 167.51 233.285 169.231C229.568 175.165 228.844 182.47 231.192 189.067C232.605 193.038 234.767 198.072 238.038 204.409C245.064 218.022 259.638 221.144 270.579 221.38C278.017 221.54 283.896 215.114 283.183 207.709C282.778 203.492 284.56 199.355 287.885 196.729C288.026 196.618 288.157 196.507 288.296 196.396C255.456 201.974 251.05 170.287 251.05 170.287Z" fill="#FE17A0"/>
<path d="M242.937 148.638C241.008 154.564 238.625 159.73 236.379 163.904L251.05 171.287C251.05 171.287 255.333 202.068 286.903 197.609C287.216 197.303 287.537 197.002 287.885 196.728C301.913 185.649 303.429 175.313 288.91 148.638C272.707 118.869 248.213 132.434 242.937 148.638Z" fill="#EB68F6"/>
<path d="M257.128 176.728C260.077 164.253 252.354 151.75 239.879 148.801C227.404 145.852 214.9 153.574 211.952 166.049C209.003 178.525 216.725 191.028 229.2 193.977C241.675 196.926 254.179 189.203 257.128 176.728Z" fill="#FEEB1E"/>
<path d="M234.525 206.558C243.651 206.558 251.05 199.16 251.05 190.033C251.05 180.907 243.651 173.508 234.525 173.508C225.398 173.508 218 180.907 218 190.033C218 199.16 225.398 206.558 234.525 206.558Z" fill="#F5D001"/>
<path d="M290.404 88.7098C303.455 83.498 309.809 68.6935 304.598 55.643C299.386 42.5925 284.581 36.2379 271.531 41.4497C258.48 46.6615 252.126 61.466 257.338 74.5165C262.549 87.567 277.354 93.9216 290.404 88.7098Z" fill="#9739CF"/>
<path d="M258.403 65.0053C227.05 65.0053 224.689 41.6123 226.171 27.3173C213.575 32.2773 209.914 39.7143 209.749 52.2903C209.694 56.5263 207.5 60.4613 203.91 62.7093C197.605 66.6583 196.094 75.2353 200.754 81.0343C207.609 89.5643 218.966 99.2163 234.041 96.4893C241.058 95.2203 246.366 93.8663 250.376 92.5663C257.037 90.4073 262.387 85.3813 264.826 78.8173C266.283 74.8973 268.531 69.7013 271.802 64.1003C267.864 64.6793 263.421 65.0053 258.403 65.0053Z" fill="#9739CF"/>
<path d="M257.673 66.0053C262.769 66.0053 267.269 65.6683 271.252 65.0743C272.447 62.9693 273.771 60.8053 275.271 58.6163C284.902 44.5583 280.729 16.8713 247.252 22.1683C237.997 23.6323 230.911 25.3613 225.522 27.5743C223.885 41.7843 225.772 66.0053 257.673 66.0053Z" fill="#FE17A0"/>
<path d="M274.612 93.3099L265.827 77.8199C265.827 77.8199 265.827 77.3769 265.827 76.5759C264.944 76.6849 264.102 76.7789 263.316 76.8539C256.346 77.5229 250.113 81.4019 246.314 87.2839C244.027 90.8249 241.354 95.6069 238.324 102.062C231.814 115.929 238.22 129.386 244.702 138.204C249.108 144.198 257.786 144.942 263.223 139.865C266.319 136.973 270.685 135.865 274.794 136.901C289.816 140.688 298.669 137.352 308.77 118.32C274.842 125.819 274.612 93.3099 274.612 93.3099Z" fill="#FE17A0"/>
<path d="M285.525 71.9549C277.579 74.7709 270.232 76.0839 264.827 76.6939V78.8189L273.612 94.3088C273.612 94.3088 273.843 127.156 308.296 119.199C310.001 116.057 311.738 112.48 313.545 108.402C327.27 77.4129 301.587 66.2619 285.525 71.9549Z" fill="#EB68F6"/>
<path d="M276.058 97.8401C286.482 90.3653 288.872 75.8556 281.397 65.4319C273.922 55.0082 259.413 52.6177 248.989 60.0925C238.565 67.5673 236.175 82.0769 243.65 92.5006C251.125 102.924 265.634 105.315 276.058 97.8401Z" fill="#FEEB1E"/>
<path d="M260.985 100.065C266.242 92.6088 264.459 82.3027 257.002 77.0459C249.546 71.789 239.24 73.572 233.983 81.0284C228.726 88.4847 230.509 98.7908 237.966 104.048C245.422 109.305 255.728 107.522 260.985 100.065Z" fill="#F5D001"/>
<path d="M374.785 61.8076C379.682 51.5476 375.335 39.2603 365.075 34.3633C354.815 29.4662 342.527 33.8137 337.63 44.0737C332.733 54.3337 337.081 66.621 347.341 71.5181C357.601 76.4152 369.888 72.0677 374.785 61.8076Z" fill="#9739CF"/>
<path d="M343.007 45.093C319.806 26.007 337.618 10.329 347.491 3.90901C333.172 -2.79899 326.048 -0.623994 318.266 8.53201C316.047 11.143 312.651 12.463 309.254 12.013C303.289 11.222 297.924 15.787 297.836 21.803C297.707 30.653 299.807 42.524 310.605 48.6C315.631 51.428 319.637 53.322 322.806 54.58C328.07 56.671 333.995 56.298 338.9 53.466C341.291 52.086 344.45 50.448 348.207 48.912C346.509 47.81 344.775 46.547 343.007 45.093Z" fill="#9739CF"/>
<path d="M357.168 9.10504C353.361 6.85104 349.972 5.04004 346.911 3.63904C337.138 9.88104 318.474 25.734 342.008 45.093C343.912 46.659 345.777 48.011 347.601 49.17C350.088 48.128 352.836 47.121 355.828 46.265C369.079 42.472 380.758 23.069 357.168 9.10504Z" fill="#FE17A0"/>
<path d="M323.001 49.1926C328.402 47.4866 334.285 48.2846 338.973 51.4626C342.671 53.9696 348.318 57.2956 355.337 59.8636C368.281 64.5996 378.532 84.7936 353.997 97.0236C332.013 107.983 323.701 106.456 315.155 94.7936C313.129 92.0296 309.837 90.4686 306.417 90.6736C300.411 91.0336 295.388 86.0936 295.734 80.0866C296.243 71.2496 299.192 59.5606 310.4 54.2786C315.618 51.8206 319.749 50.2196 323.001 49.1926Z" fill="#FE17A0"/>
<path d="M345.959 69.065C355.199 64.3466 358.865 53.0311 354.146 43.7912C349.428 34.5513 338.112 30.8859 328.872 35.6044C319.632 40.3229 315.967 51.6384 320.686 60.8783C325.404 70.1182 336.719 73.7835 345.959 69.065Z" fill="#FEEB1E"/>
<path d="M326.755 64.3064C333.709 61.8187 337.329 54.165 334.842 47.2113C332.354 40.2576 324.7 36.6372 317.746 39.1249C310.793 41.6125 307.172 49.2663 309.66 56.22C312.148 63.1737 319.801 66.7941 326.755 64.3064Z" fill="#F5D001"/>
<path d="M130.262 147.508C144.107 159.541 143.82 171.115 136.598 179.424C129.377 187.733 117.955 189.63 104.111 177.597C90.267 165.564 84.897 149.074 92.119 140.765C99.34 132.457 116.417 135.476 130.262 147.508Z" fill="#FE17A0"/>
<path d="M385.082 337.641H233.525C233.525 337.641 194.929 367.713 233.525 406.309C233.525 406.309 233.246 406.538 232.767 406.969H401.517V354.076C401.516 344.999 394.158 337.641 385.082 337.641Z" fill="#AAE7FA"/>
<path d="M234.525 337.641H126.918C117.842 337.641 110.483 344.999 110.483 354.076V406.969H233.767C234.247 406.538 234.525 406.309 234.525 406.309C195.929 367.713 234.525 337.641 234.525 337.641Z" fill="#63D9FA"/>
<path d="M232.829 474.317C233.063 474.537 233.286 474.757 233.526 474.977C233.526 474.977 217.909 487.824 221.67 509.605C232.888 511.18 244.348 512.001 256 512.001C304.008 512.001 348.781 498.18 386.583 474.317H232.829Z" fill="#01A2C3"/>
<path d="M222.692 509.743C218.839 487.877 234.525 474.977 234.525 474.977C234.285 474.757 234.062 474.537 233.828 474.317H125.416C154.322 492.563 187.305 504.929 222.692 509.743Z" fill="#289EFF"/>
<path d="M233.525 406.309C233.525 406.309 193.99 438.61 233.525 474.977H385.538C391.013 471.56 396.343 467.935 401.516 464.11V406.31H233.525V406.309Z" fill="#63D9FA"/>
<path d="M234.525 406.309H110.483V464.109C115.656 467.934 120.987 471.56 126.46 474.977H234.525C194.99 438.61 234.525 406.309 234.525 406.309Z" fill="#01A2C3"/>
</g>
<defs>
<clipPath id="clip0_1_1262">
<rect width="512" height="512" fill="white"/>
</clipPath>
</defs>
</svg>
