<svg width="512" height="512" viewBox="0 0 512 512" fill="none" xmlns="http://www.w3.org/2000/svg">
<g clip-path="url(#clip0_1_1358)">
<path d="M471.213 149.825C429.661 73.667 348.867 21.996 256 21.996C163.133 21.996 82.339 73.667 40.787 149.825V384.149C50.171 401.352 61.545 417.314 74.621 431.705H437.38C450.456 417.314 461.83 401.352 471.214 384.149L471.213 149.825Z" fill="#CF0D7D"/>
<path d="M275.879 334.311V247.063C275.879 236.391 276.872 226.148 278.83 216.618C282.145 200.487 287.83 186.254 295.824 173.973C292.588 166.662 289.47 159.648 286.6 152.848C274.653 167.66 264.476 187.107 259.24 212.592C257.01 223.444 255.879 235.041 255.879 247.063V334.311H275.879Z" fill="#73CF4A"/>
<path d="M236.121 247.064V334.312H256.121V247.064C256.121 235.043 254.99 223.445 252.76 212.593C247.524 187.108 237.347 167.661 225.4 152.849C222.53 159.649 219.412 166.663 216.176 173.974C224.17 186.254 229.855 200.487 233.17 216.619C235.128 226.149 236.121 236.392 236.121 247.064Z" fill="#2BA870"/>
<path d="M216.436 377C216.837 377.333 217.244 377.667 217.667 378C217.667 378 177.43 435.527 224.644 509.995C234.913 511.307 245.375 512 256 512C327.897 512 392.56 481.031 437.379 431.704V377H216.436Z" fill="#7B3723"/>
<path d="M74.621 431.704C113.049 473.997 166.073 502.774 225.73 510.126C178.385 435.595 218.667 378 218.667 378C218.243 377.667 217.837 377.333 217.436 377H74.621V431.704Z" fill="#602A1B"/>
<path d="M397.109 333.311H212.898C205.543 341.603 194.548 359.8 217.667 378H437.38V373.582C437.379 351.341 419.35 333.311 397.109 333.311Z" fill="#F35922"/>
<path d="M213.898 333.311H114.891C92.65 333.311 74.621 351.341 74.621 373.581V378H218.667C195.549 359.801 206.543 341.604 213.898 333.311Z" fill="#99442D"/>
<path d="M497.795 245.165C478.174 237.348 444.839 228.5 411.067 239.65L436.38 360.929C436.38 360.929 438.454 403.887 482.851 404.874C498.716 385.411 513.13 358.507 511.93 325.698C510.187 277.999 503.023 266.776 497.795 245.165Z" fill="#73CF4A"/>
<path d="M492.191 174.166C493.177 123.461 500.664 84.878 484.62 51.476C465.909 12.523 451.973 -11.418 414.944 5.51899C384.776 19.317 406.795 56.037 396.911 89.963C394.798 97.215 388.811 101.531 382.394 102.274L395.193 163.599C404.521 160.928 448.509 150.395 492.191 174.166Z" fill="#73CF4A"/>
<path d="M498.074 246.301C495.389 235.52 493.168 222.283 492.37 200.472C492.021 190.927 492.024 181.792 492.212 173.014C448.273 149.253 404.525 159.829 394.983 162.598L411.273 240.647C445.358 229.345 478.742 238.454 498.074 246.301Z" fill="#2BA870"/>
<path d="M319.265 241.845C334.493 227.003 361.526 208.113 401.042 207.22L402.219 207.193L394.21 163.888C394.706 163.737 395.425 163.527 396.338 163.281L383.568 102.099C377.612 103.204 371.093 101.201 366.85 95.558C345.686 67.411 353.354 25.165 320.309 23.132C279.749 20.636 275.141 48.027 271.349 91.169C267.557 134.31 296.154 172.495 316.487 233.206C317.505 236.243 318.425 239.113 319.265 241.845Z" fill="#2BA870"/>
<path d="M437.379 359.917L412.201 239.282C411.629 239.463 411.057 239.645 410.484 239.838L409.648 240.121L418.818 286.812C414.464 287.602 397.038 291.222 378.524 301.356C364.67 308.94 348.193 321.374 337.092 340.861C338.528 345.833 340.22 351.268 342.233 357.28C355.508 396.917 389.12 418.457 414.535 429.476C423.707 433.453 433.844 434.528 443.657 432.702C453.47 430.876 462.566 426.22 469.74 419.202C474.293 414.747 479.052 409.614 483.668 403.857C439.449 402.755 437.379 359.917 437.379 359.917Z" fill="#2BA870"/>
<path d="M396.128 162.275C394.143 162.819 393.063 163.19 393.063 163.19L401.019 206.207C361.334 207.104 334.271 225.784 318.906 240.686C334.006 289.175 322.949 292.608 337.467 342.15C362.977 296.1 420 287.636 420 287.636L410.801 240.799C411.337 240.618 411.873 240.451 412.409 240.28L396.128 162.275Z" fill="#007F6F"/>
<path d="M388.065 126.752C385.128 127.299 381.983 126.481 379.629 124.264C379.365 124.015 352.765 99.284 311.466 83.811C306.404 81.915 303.82 76.225 305.694 71.103C307.568 65.981 313.188 63.363 318.252 65.262C363.411 82.18 391.773 108.676 392.958 109.796C396.904 113.523 397.116 119.781 393.433 123.775C391.949 125.384 390.054 126.381 388.065 126.752Z" fill="#73CF4A"/>
<path d="M111.864 198.813L121.169 155.774C128.042 156.532 174.471 163.06 206.802 203.087C224.913 158.903 243.774 126.711 240.65 91.168C236.858 48.026 232.25 20.635 191.69 23.131C158.645 25.165 166.314 67.41 145.149 95.557C140.598 101.609 133.428 103.471 127.143 101.803L111.071 198.494L111.864 198.813Z" fill="#73CF4A"/>
<path d="M106.901 232.138L106.022 232.068L103.195 245.882L80.667 381.413C80.667 381.413 74.562 412.683 94.666 430.58C95.607 430.239 96.542 429.876 97.465 429.476C122.879 418.457 156.491 396.917 169.767 357.28C186.038 308.698 181.649 297.232 185.579 271.81C170.506 256.771 142.854 235.015 106.901 232.138Z" fill="#73CF4A"/>
<path d="M106.822 233.147C143.074 236.047 170.633 258.044 185.404 272.974C186.881 262.938 189.624 250.786 195.513 233.205C199.23 222.108 203.223 211.769 207.244 202.009C171.851 158.438 120.383 154.681 120.383 154.681L111.612 195.25L98.78 272.449L106.822 233.147Z" fill="#2BA870"/>
<path d="M81.667 381.413L106.485 232.105L106.022 232.068L96.482 278.682C92.168 277.692 74.728 274.154 53.773 276.181C38.695 277.642 19.655 282.276 2.451 294.692C1.37001 303.063 0.531005 313.105 0.0710049 325.698C-1.458 367.521 22.383 399.754 42.26 419.202C49.434 426.22 58.53 430.876 68.343 432.702C77.417 434.391 86.767 433.593 95.375 430.32C75.62 412.382 81.667 381.413 81.667 381.413Z" fill="#2BA870"/>
<path d="M19.673 198.988C39.142 190.961 72.493 182.988 110.77 198.374L111.864 198.814L112.532 195.724L128.106 102.029C122.274 100.831 117.035 96.647 115.088 89.964C105.204 56.038 127.223 19.318 97.055 5.52C60.027 -11.417 46.091 12.523 27.38 51.476C8.815 90.126 21.757 135.707 19.673 198.988Z" fill="#2BA870"/>
<path d="M111.139 197.433C72.639 181.958 39.337 189.739 19.708 197.798C19.681 198.69 19.662 199.572 19.629 200.471C17.682 253.761 7.237 255.891 2.285 296C43.29 265.685 97.253 279.908 97.253 279.908L104.104 246.433L115.937 175.244L111.139 197.433Z" fill="#007F6F"/>
<path d="M123.949 126.754C125.939 127.124 128.058 126.875 130.014 125.903C134.86 123.498 136.862 117.572 134.484 112.669C133.771 111.195 116.578 76.222 80.322 44.151C76.254 40.556 70.083 40.977 66.532 45.088C62.979 49.201 63.394 55.448 67.458 59.043C100.79 88.528 116.778 121.054 116.935 121.38C118.353 124.305 121.009 126.207 123.949 126.754Z" fill="#73CF4A"/>
<path d="M436.727 394.564C431.418 395.552 426.324 391.998 425.347 386.626L376.678 118.814C375.702 113.442 379.214 108.286 384.522 107.298C389.831 106.31 394.926 109.864 395.902 115.236L444.571 383.048C445.547 388.421 442.035 393.576 436.727 394.564Z" fill="#A4E830"/>
<path d="M123.935 126.752C126.872 127.299 130.017 126.481 132.371 124.264C132.635 124.015 159.235 99.284 200.534 83.811C205.596 81.915 208.18 76.225 206.306 71.103C204.432 65.981 198.812 63.363 193.748 65.262C148.589 82.18 120.227 108.676 119.042 109.796C115.096 113.523 114.884 119.781 118.568 123.775C120.052 125.384 121.946 126.381 123.935 126.752Z" fill="#A4E830"/>
<path d="M75.273 394.564C80.582 395.552 85.676 391.998 86.653 386.626L135.322 118.814C136.298 113.442 132.786 108.286 127.478 107.298C122.169 106.31 117.074 109.864 116.098 115.236L67.429 383.048C66.453 388.421 69.965 393.576 75.273 394.564Z" fill="#A4E830"/>
<path d="M388.051 126.754C386.061 127.124 383.942 126.875 381.987 125.903C377.141 123.498 375.139 117.572 377.517 112.669C378.23 111.195 395.423 76.222 431.679 44.151C435.747 40.556 441.918 40.977 445.469 45.088C449.022 49.201 448.607 55.448 444.543 59.043C411.211 88.528 395.223 121.054 395.066 121.38C393.647 124.305 390.991 126.207 388.051 126.754Z" fill="#A4E830"/>
</g>
<defs>
<clipPath id="clip0_1_1358">
<rect width="512" height="512" fill="white"/>
</clipPath>
</defs>
</svg>
