<svg width="512" height="512" viewBox="0 0 512 512" fill="none" xmlns="http://www.w3.org/2000/svg">
<g clip-path="url(#clip0_1_1397)">
<path d="M392.226 470.656C457.819 426.694 501.002 351.892 501.002 266.998C501.002 131.687 391.311 21.996 256 21.996C120.689 21.996 10.998 131.687 10.998 266.998C10.998 351.892 54.181 426.694 119.774 470.656H392.226Z" fill="#121D4C"/>
<path d="M226.517 451.012C224.853 438.514 228.662 425.906 236.968 416.421C245.272 406.939 257.265 401.5 269.871 401.5H381.5C391.391 401.5 398.533 406.089 403.367 411.044C405.888 386.92 405.212 371.084 405.212 371.084C388.636 371.084 123.364 371.084 106.788 371.084C106.788 371.084 104.848 416.479 119.774 470.655C154.365 493.838 195.187 508.439 239.199 511.421C232.818 490.434 228.904 468.942 226.517 451.012Z" fill="#CF0D7D"/>
<path d="M403.439 410.349C398.551 405.452 391.395 401 381.5 401H269.871C243.117 401 222.491 424.557 226.021 451.078C228.459 469.391 232.376 490.7 238.649 511.386C244.381 511.787 250.166 512 256 512C306.417 512 353.271 496.764 392.226 470.656C398.422 448.166 401.71 427.193 403.439 410.349Z" fill="#EF018E"/>
<path d="M405.212 295.588H251.646C230.522 295.588 213.398 312.712 213.398 333.836C213.398 354.96 230.522 372.084 251.646 372.084H405.212C413.896 372.084 420.935 365.044 420.935 356.361V311.312C420.936 302.628 413.896 295.588 405.212 295.588Z" fill="#FE3BAE"/>
<path d="M214.398 333.836C214.398 312.712 231.522 295.588 252.646 295.588H106.788C98.104 295.588 91.065 302.628 91.065 311.311V356.36C91.065 365.044 98.105 372.083 106.788 372.083H252.646C231.522 372.085 214.398 354.96 214.398 333.836Z" fill="#EF018E"/>
<path d="M395.449 130.938C384.932 135.323 374.036 138.709 362.922 141.069L409.401 324.52C409.483 324.792 411.495 331.262 418.279 336.497C425.381 341.979 434.122 343.312 442.345 342.805C452.57 323.127 465.793 302.957 481.39 290.676C546.856 239.121 502.288 86.39 395.449 130.938Z" fill="#F2A0F8"/>
<path d="M429.949 369.425C433.493 360.949 437.829 351.413 442.873 341.794C416.258 343.774 410.358 324.23 410.358 324.23L363.899 140.855C352.696 143.297 341.267 144.698 329.773 145.01C214.061 148.148 235.984 305.731 316.825 325.935C345.162 333.017 375.816 357.779 396.016 376.695C406.779 386.775 424.261 383.029 429.949 369.425Z" fill="#EF76F5"/>
<path d="M386.687 147.883C385.929 148.199 385.168 148.504 384.404 148.804C380.714 147.27 376.668 146.419 372.422 146.419C363.256 146.419 355.012 150.368 349.299 156.657C347.771 156.759 346.241 156.837 344.708 156.879C270.746 158.885 284.759 259.61 336.432 272.524C354.545 277.051 374.138 292.878 387.05 304.969C393.93 311.412 405.104 309.017 408.74 300.322C415.564 284.002 426.952 261.536 441.62 249.986C483.465 217.033 454.978 119.409 386.687 147.883Z" fill="#62387A"/>
<path d="M405.482 304.984L365.504 147.193C359.151 148.631 353.53 151.999 349.299 156.657C347.771 156.759 346.241 156.837 344.708 156.879C270.746 158.885 284.759 259.61 336.432 272.524C354.545 277.051 374.138 292.878 387.05 304.969C392.461 310.036 400.515 309.617 405.482 304.984Z" fill="#4A265D"/>
<path d="M296.813 211.558C295.649 211.558 294.466 211.353 293.312 210.922C288.139 208.987 285.513 203.226 287.447 198.053C307.307 144.931 358.709 131.819 360.887 131.286C366.253 129.972 371.664 133.263 372.974 138.627C374.284 143.983 371.008 149.387 365.658 150.708C363.789 151.18 322.232 162.122 306.181 205.057C304.678 209.075 300.864 211.558 296.813 211.558Z" fill="#7B3E9E"/>
<path d="M403.645 339.526C399.031 339.526 394.882 336.313 393.876 331.619L353.481 143.095C352.324 137.695 355.764 132.379 361.165 131.222C366.562 130.064 371.881 133.505 373.038 138.906L413.433 327.43C414.59 332.829 411.15 338.146 405.749 339.303C405.043 339.454 404.339 339.526 403.645 339.526Z" fill="#7B3E9E"/>
<path d="M334.43 294.36C333.633 294.36 332.824 294.264 332.015 294.064C326.655 292.735 323.387 287.311 324.716 281.951C338.147 227.793 373.969 210.014 375.487 209.284C380.463 206.892 386.44 208.984 388.834 213.961C391.219 218.92 389.149 224.87 384.211 227.281C382.903 227.935 355.151 242.319 344.129 286.765C342.999 291.317 338.917 294.36 334.43 294.36Z" fill="#7B3E9E"/>
<path d="M182.227 145.01C170.829 144.701 159.495 143.323 148.382 140.919L118.558 308.357C117.978 309.901 112.037 326.516 118.849 341.827C122.153 349.254 127.929 355.082 136.038 359.217C153.891 344.827 175.112 330.949 195.175 325.935C276.016 305.732 297.939 148.149 182.227 145.01Z" fill="#F2A0F8"/>
<path d="M119.525 308.625L149.36 141.126C138.148 138.764 127.156 135.36 116.551 130.938C9.71201 86.39 -34.856 239.121 30.61 290.674C53.558 308.745 71.375 343.892 82.05 369.425C87.738 383.029 105.221 386.775 115.983 376.696C122.108 370.961 129.197 364.689 136.888 358.534C106.152 343.227 119.525 308.625 119.525 308.625Z" fill="#EF76F5"/>
<path d="M167.292 156.878C165.759 156.836 164.229 156.758 162.701 156.656C158.635 152.18 153.283 148.899 147.232 147.374L118.567 308.304C120.854 307.814 123.065 306.734 124.95 304.969C137.862 292.878 157.455 277.05 175.568 272.524C227.241 259.609 241.254 158.884 167.292 156.878Z" fill="#62387A"/>
<path d="M119.631 308.031L148.201 147.632C145.461 146.846 142.569 146.418 139.577 146.418C135.331 146.418 131.285 147.269 127.595 148.803C126.831 148.503 126.07 148.198 125.312 147.882C57.021 119.408 28.534 217.031 70.379 249.984C85.047 261.534 96.435 284 103.259 300.32C106.055 307.006 113.302 309.947 119.631 308.031Z" fill="#4A265D"/>
<path d="M63.317 179.014C60.776 179.014 58.234 178.052 56.285 176.123C52.358 172.239 52.324 165.908 56.208 161.981C96.088 121.661 148.351 130.758 150.556 131.165C155.987 132.168 159.576 137.383 158.574 142.815C157.573 148.235 152.373 151.824 146.957 150.839C145.166 150.522 102.704 143.414 70.427 176.045C68.472 178.023 65.895 179.014 63.317 179.014Z" fill="#7B3E9E"/>
<path d="M108.356 339.526C107.662 339.526 106.958 339.454 106.252 339.302C100.852 338.145 97.411 332.828 98.568 327.429L138.962 138.905C140.119 133.505 145.438 130.063 150.835 131.221C156.235 132.378 159.676 137.694 158.519 143.094L118.124 331.618C117.118 336.314 112.97 339.526 108.356 339.526Z" fill="#7B3E9E"/>
<path d="M58.336 264.01C56.534 264.011 54.711 263.524 53.068 262.503C48.378 259.588 46.938 253.422 49.852 248.731C85.962 190.62 134.096 188.704 136.127 188.651C136.216 188.648 136.306 188.647 136.394 188.647C141.795 188.647 146.244 192.954 146.386 198.385C146.53 203.885 142.204 208.464 136.713 208.642C135 208.712 96.928 210.866 66.84 259.288C64.945 262.335 61.679 264.01 58.336 264.01Z" fill="#7B3E9E"/>
<path d="M215.188 211.558C211.136 211.558 207.323 209.077 205.82 205.057C189.748 162.064 148.101 151.151 146.336 150.706C140.992 149.363 137.726 143.947 139.051 138.599C140.376 133.25 145.764 129.977 151.115 131.287C153.294 131.819 204.695 144.932 224.555 198.054C226.489 203.227 223.863 208.989 218.69 210.923C217.534 211.353 216.352 211.558 215.188 211.558Z" fill="#9739CF"/>
<path d="M177.57 294.36C173.082 294.36 169.001 291.317 167.872 286.765C156.823 242.21 128.962 227.866 127.781 227.277C122.803 224.882 120.741 218.922 123.135 213.946C125.528 208.967 131.531 206.889 136.513 209.284C138.031 210.014 173.853 227.793 187.284 281.951C188.613 287.311 185.345 292.735 179.985 294.064C179.177 294.265 178.367 294.36 177.57 294.36Z" fill="#9739CF"/>
<path d="M280.823 5.71199C272.416 7.27599 263.885 8.03299 255.358 7.99199L257.859 143.743C257.859 143.743 261.191 164.497 279.332 169.274C290.223 155.601 303.921 141.471 318.199 134.468C373.497 107.347 364.938 -9.93901 280.823 5.71199Z" fill="#F2A0F8"/>
<path d="M268.825 183.419C272.117 178.679 275.94 173.474 280.165 168.23C262.17 163.37 258.858 142.743 258.858 142.743L256.376 7.996C247.937 8.019 239.497 7.261 231.177 5.713C147.061 -9.938 138.503 107.348 193.801 134.469C213.185 143.976 231.504 166.619 243.174 183.419C249.393 192.37 262.608 192.37 268.825 183.419Z" fill="#EF76F5"/>
<path d="M274.856 19.683C269.644 15.642 263.105 13.231 256 13.231C248.894 13.231 242.356 15.643 237.144 19.683C186.062 12.921 181.429 85.548 216.174 102.59C228.585 108.677 240.315 123.175 247.788 133.932C251.769 139.664 260.231 139.664 264.212 133.932C271.684 123.175 283.414 108.677 295.826 102.59C330.572 85.548 325.938 12.921 274.856 19.683Z" fill="#62387A"/>
<path d="M198.592 49.476C197.117 49.476 195.625 49.069 194.29 48.215C190.567 45.835 189.479 40.888 191.859 37.165C214.61 1.58002 254.102 0.0510147 255.772 0.0030147C260.198 -0.0979853 263.872 3.35501 263.998 7.77201C264.124 12.182 260.656 15.86 256.249 15.997C254.803 16.05 223.397 17.543 205.341 45.785C203.814 48.172 201.231 49.476 198.592 49.476Z" fill="#7B3E9E"/>
<path d="M212.951 115.146C211.773 115.146 210.577 114.884 209.447 114.334C205.476 112.396 203.83 107.605 205.767 103.635C223.987 66.317 252.898 58.949 254.119 58.654C258.415 57.618 262.737 60.256 263.775 64.55C264.808 68.827 262.195 73.133 257.93 74.194C256.896 74.463 234.856 80.522 220.145 110.655C218.76 113.495 215.912 115.146 212.951 115.146Z" fill="#7B3E9E"/>
<path d="M256 158.509C251.582 158.509 248 154.927 248 150.509V8C248 3.582 251.582 0 256 0C260.418 0 264 3.582 264 8V150.509C264 154.927 260.418 158.509 256 158.509Z" fill="#7B3E9E"/>
<path d="M448.683 179.014C446.106 179.014 443.53 178.024 441.574 176.046C409.298 143.415 366.838 150.523 365.044 150.84C359.627 151.809 354.42 148.203 353.437 142.78C352.455 137.358 356.027 132.166 361.445 131.166C363.652 130.76 415.913 121.662 455.793 161.982C459.677 165.909 459.643 172.24 455.716 176.124C453.766 178.052 451.224 179.014 448.683 179.014Z" fill="#9739CF"/>
<path d="M453.664 264.01C450.321 264.01 447.055 262.335 445.16 259.287C414.677 210.229 375.739 208.653 375.349 208.642C369.829 208.499 365.47 203.906 365.614 198.384C365.756 192.952 370.205 188.646 375.606 188.646C375.695 188.646 375.783 188.647 375.873 188.65C377.904 188.703 426.038 190.619 462.148 248.73C465.062 253.421 463.623 259.587 458.932 262.502C457.289 263.523 455.466 264.01 453.664 264.01Z" fill="#9739CF"/>
<path d="M313.408 49.476C310.769 49.476 308.186 48.172 306.66 45.785C288.419 17.254 256.096 16.007 255.771 15.998C251.355 15.872 247.876 12.189 248.002 7.77199C248.129 3.35699 251.821 -0.110009 256.228 0.00299068C257.898 0.0509907 297.389 1.57999 320.14 37.165C322.52 40.888 321.432 45.835 317.709 48.215C316.375 49.068 314.883 49.476 313.408 49.476Z" fill="#9739CF"/>
<path d="M303.831 111.676C300.551 111.676 297.476 109.644 296.302 106.379C282.156 67.006 255.201 59.632 254.061 59.338C249.767 58.299 247.157 53.984 248.195 49.689C249.233 45.394 253.591 42.77 257.881 43.8C259.354 44.156 294.153 53.072 311.362 100.969C312.855 105.127 310.696 109.709 306.538 111.203C305.643 111.523 304.73 111.676 303.831 111.676Z" fill="#9739CF"/>
</g>
<defs>
<clipPath id="clip0_1_1397">
<rect width="512" height="512" fill="white"/>
</clipPath>
</defs>
</svg>
