<svg width="512" height="512" viewBox="0 0 512 512" fill="none" xmlns="http://www.w3.org/2000/svg">
<g clip-path="url(#clip0_1_1447)">
<path d="M256 21.9961C120.689 21.9961 10.998 131.687 10.998 266.998C10.998 360.686 63.593 442.079 140.86 483.296H371.14C448.407 442.079 501.002 360.686 501.002 266.998C501.002 131.687 391.311 21.9961 256 21.9961Z" fill="#AAE7FA"/>
<path d="M222.531 53.718C226.769 56.18 231.626 59.936 236.213 65.669C242.672 64.036 246.774 65.126 249.503 69.204L250.673 70.951L251.29 68.941C251.911 66.918 253.009 65.361 254.655 64.203C247.181 51.619 238.032 44.116 230.163 39.66C228.901 44.917 226.288 49.736 222.531 53.718Z" fill="#B41663"/>
<path d="M262.433 61.744C267.54 61.203 272.649 61.958 277.321 63.822C281.439 59.113 285.694 55.902 289.465 53.715C285.71 49.734 283.099 44.915 281.836 39.66C274.33 43.91 265.66 50.935 258.389 62.497C259.581 62.156 260.922 61.905 262.433 61.744Z" fill="#CF0D7D"/>
<path d="M360.32 171.231C360.32 171.231 369.614 181.917 383.456 181.667C392.892 166.548 390.595 144.797 367.266 117.5C338.766 84.1521 301.615 69.1251 284.286 83.9351C282.939 85.0861 281.77 86.4001 280.739 87.8301C295 98.2821 330.712 126.07 360.32 171.231Z" fill="#73CF4A"/>
<path d="M384.055 180.661C379.678 180.673 375.766 179.6 372.472 178.137C366.973 175.696 362.32 171.654 358.95 166.671C329.72 123.442 295.362 96.803 281.582 86.714C268.066 103.196 277.642 139.688 304.513 171.129C333.013 204.476 358.232 205.542 375.561 190.733C379.015 187.781 381.883 184.414 384.055 180.661Z" fill="#2BA870"/>
<path d="M151.68 171.231C151.68 171.231 142.386 181.917 128.544 181.667C119.107 166.548 121.404 144.797 144.734 117.5C173.234 84.1521 210.385 69.1251 227.714 83.9351C229.061 85.0861 230.23 86.4001 231.261 87.8301C217 98.2821 181.288 126.07 151.68 171.231Z" fill="#2BA870"/>
<path d="M127.945 180.661C132.322 180.673 136.234 179.6 139.528 178.137C145.027 175.696 149.68 171.654 153.05 166.671C182.28 123.442 216.638 96.803 230.418 86.714C243.934 103.196 234.358 139.688 207.487 171.129C178.987 204.476 153.768 205.542 136.439 190.733C132.985 187.781 130.117 184.414 127.945 180.661Z" fill="#007F6F"/>
<path d="M287.254 242.817C279.908 234.157 278.624 222.172 283.373 212.335C276.087 220.567 266.505 224.231 255.999 224.231C255.664 224.231 255.332 224.215 254.999 224.207V276.091C258.832 281.079 269.069 291.414 282.166 281.106C278.92 271.884 280.609 261.334 287.251 253.503L287.257 253.496C289.869 250.417 289.869 245.9 287.257 242.821L287.254 242.817Z" fill="#F35922"/>
<path d="M287.247 384.297C278.327 373.778 278.327 358.35 287.247 347.831L287.259 347.816C289.87 344.737 289.87 340.221 287.259 337.143L287.251 337.133C278.329 326.613 278.329 311.183 287.251 300.664L287.258 300.655C289.87 297.576 289.87 293.06 287.258 289.981L287.251 289.973C284.779 287.059 283.018 283.762 281.916 280.303C268.939 290.285 258.809 280.047 255 275.091V389.649H291.785L287.247 384.297Z" fill="#99442D"/>
<path d="M228.627 212.336C233.376 222.173 232.092 234.157 224.745 242.818L224.742 242.821C222.13 245.9 222.13 250.416 224.742 253.495L224.749 253.503C233.671 264.023 233.671 279.453 224.749 289.973L224.742 289.981C222.13 293.06 222.13 297.576 224.742 300.655L224.749 300.664C233.671 311.184 233.671 326.614 224.749 337.133L224.741 337.143C222.13 340.222 222.13 344.738 224.741 347.816L224.753 347.831C233.673 358.35 233.673 373.778 224.753 384.297L220.215 389.648H256V224.231C245.495 224.231 235.913 220.567 228.627 212.336Z" fill="#7B3723"/>
<path d="M243.408 461.725C243.265 452.877 243.192 444.795 243.192 439.48C243.192 427.376 243.567 415.466 244.294 403.804C244.872 394.529 252.613 387.328 261.906 387.328H157.902C148.609 387.328 140.868 394.529 140.29 403.804C139.563 415.466 139.188 427.376 139.188 439.48C139.188 454.416 139.762 469.054 140.86 483.296C175.187 501.608 214.378 512 256 512C262.858 512 269.648 511.712 276.363 511.159C257.283 502.876 243.767 483.92 243.408 461.725Z" fill="#4A265D"/>
<path d="M323.66 461.725C323.517 452.877 323.444 444.795 323.444 439.48C323.444 427.376 323.819 415.466 324.546 403.804C325.124 394.529 332.865 387.328 342.158 387.328H259.906C250.613 387.328 242.872 394.529 242.294 403.804C241.567 415.466 241.192 427.376 241.192 439.48C241.192 444.795 241.265 452.877 241.408 461.725C241.769 484.042 255.434 503.084 274.681 511.293C296.752 509.627 317.999 505.024 338.051 497.896C329.311 488.351 323.885 475.679 323.66 461.725Z" fill="#62387A"/>
<path d="M323.546 403.804C322.819 415.466 322.444 427.376 322.444 439.48C322.444 444.795 322.517 452.877 322.66 461.725C322.888 475.812 328.421 488.59 337.308 498.167C349.017 494.047 360.321 489.067 371.14 483.296C372.238 469.054 372.812 454.416 372.812 439.48C372.812 427.376 372.436 415.466 371.71 403.804C371.132 394.529 363.391 387.328 354.098 387.328H341.158C331.866 387.328 324.124 394.53 323.546 403.804Z" fill="#9739CF"/>
<path d="M256 102.897V191.495C256 198.182 257.64 204.813 261.053 210.564C263.581 214.822 267.356 219.185 272.963 222.407C287.295 215.213 297.274 197.396 297.274 165.169C297.274 121.302 278.795 85.7411 256 85.7411C251.751 85.7411 247.653 86.9801 243.795 89.2741L256 102.897Z" fill="#73CF4A"/>
<path d="M261.053 209.564C257.639 203.814 256 197.182 256 190.495V101.897L244.397 88.946C227.253 98.596 214.726 129.058 214.726 165.169C214.726 209.036 233.205 226.231 256 226.231C262.422 226.231 268.501 224.865 273.921 221.924C267.788 218.66 263.721 214.058 261.053 209.564Z" fill="#2BA870"/>
<path d="M334.125 8.54204C347.238 20.624 334.584 28.619 322.502 41.732C310.42 54.845 303.486 68.111 290.373 56.029C277.26 43.947 276.424 23.522 288.506 10.409C300.587 -2.70396 321.012 -3.53996 334.125 8.54204Z" fill="#EF018E"/>
<path d="M164.801 19.9571C179.541 9.92405 184.459 24.0611 194.493 38.8011C204.526 53.541 215.875 63.301 201.136 73.334C186.396 83.368 166.314 79.5521 156.28 64.8131C146.246 50.0731 150.061 29.9901 164.801 19.9571Z" fill="#EF018E"/>
<path d="M177.875 8.54204C164.762 20.624 177.416 28.619 189.498 41.732C201.58 54.845 208.514 68.111 221.627 56.029C234.74 43.947 235.576 23.522 223.494 10.409C211.413 -2.70396 190.988 -3.53996 177.875 8.54204Z" fill="#FE3BAE"/>
<path d="M180.456 38.108C174.368 42.252 172.793 50.546 176.937 56.634C181.081 62.722 189.375 64.297 195.463 60.153C201.551 56.009 203.126 47.715 198.982 41.627C194.838 35.54 186.543 33.964 180.456 38.108Z" fill="#CF0D7D"/>
<path d="M183.664 22.2551C177.576 26.3991 176.001 34.6931 180.145 40.7811C184.289 46.8691 192.583 48.4441 198.671 44.3001C204.758 40.1561 206.334 31.8621 202.19 25.7741C198.046 19.6871 189.752 18.1111 183.664 22.2551Z" fill="#FD77CC"/>
<path d="M251.956 127.255C269.22 122.795 261.838 109.773 257.378 92.5091C252.918 75.2451 253.067 60.2781 235.804 64.7381C218.541 69.1981 208.161 86.8091 212.622 104.073C217.083 121.337 234.693 131.715 251.956 127.255Z" fill="#EF018E"/>
<path d="M269.16 124.957C251.43 126.844 253.767 112.059 251.881 94.329C249.994 76.599 244.597 62.637 262.328 60.75C280.058 58.863 295.961 71.707 297.848 89.437C299.735 107.167 286.89 123.071 269.16 124.957Z" fill="#FE3BAE"/>
<path d="M256.907 97.2835C260.648 90.9356 258.534 82.757 252.187 79.016C245.839 75.275 237.66 77.3883 233.919 83.7362C230.178 90.0841 232.291 98.2628 238.639 102.004C244.987 105.745 253.166 103.631 256.907 97.2835Z" fill="#CF0D7D"/>
<path d="M272.35 101.145C273.786 93.9212 269.094 86.9007 261.869 85.4647C254.645 84.0287 247.625 88.721 246.189 95.9452C244.752 103.169 249.445 110.19 256.669 111.626C263.893 113.062 270.914 108.37 272.35 101.145Z" fill="#FD77CC"/>
<path d="M347.199 19.9571C332.459 9.92405 327.541 24.0611 317.507 38.8011C307.474 53.541 296.125 63.301 310.864 73.334C325.604 83.368 345.686 79.5521 355.72 64.8131C365.754 50.0731 361.939 29.9901 347.199 19.9571Z" fill="#FE3BAE"/>
<path d="M331.544 38.108C337.632 42.252 339.207 50.546 335.063 56.634C330.919 62.722 322.625 64.297 316.537 60.153C310.449 56.009 308.874 47.715 313.018 41.627C317.162 35.54 325.457 33.964 331.544 38.108Z" fill="#CF0D7D"/>
<path d="M328.336 22.2551C334.423 26.3991 335.999 34.6931 331.855 40.7811C327.711 46.8691 319.417 48.4441 313.329 44.3001C307.242 40.1561 305.666 31.8621 309.81 25.7741C313.954 19.6871 322.248 18.1111 328.336 22.2551Z" fill="#FD77CC"/>
</g>
<defs>
<clipPath id="clip0_1_1447">
<rect width="512" height="512" fill="white"/>
</clipPath>
</defs>
</svg>
