<svg width="512" height="512" viewBox="0 0 512 512" fill="none" xmlns="http://www.w3.org/2000/svg">
<g clip-path="url(#clip0_1_1478)">
<path d="M392.226 470.656C457.819 426.694 501.002 351.892 501.002 266.998C501.002 131.687 391.311 21.996 256 21.996C120.689 21.996 10.998 131.687 10.998 266.998C10.998 351.892 54.181 426.694 119.774 470.656H392.226Z" fill="#F5D001"/>
<path d="M243.394 56.3219C247.106 46.6376 234.241 32.7022 214.658 25.1962C195.075 17.6902 176.191 19.4561 172.479 29.1404C168.767 38.8246 181.633 52.7601 201.216 60.266C220.798 67.772 239.682 66.0062 243.394 56.3219Z" fill="#EF018E"/>
<path d="M297.428 131.829C287.556 93.7289 262.291 67.3149 240.996 72.8319C238.395 73.5059 235.977 74.6309 233.748 76.1459L242.919 83.2299L273.419 190.3V211.387C274.536 211.269 275.647 211.09 276.745 210.806C298.039 205.289 307.299 169.93 297.428 131.829Z" fill="#007F6F"/>
<path d="M234.298 75.799C217.872 86.342 211.549 117.986 220.313 151.809C229.828 188.532 253.642 214.386 274.419 211.268V190.3L243.919 83.2299L234.298 75.799Z" fill="#00626B"/>
<path d="M226.517 451.012C224.853 438.514 228.662 425.906 236.968 416.421C245.272 406.939 257.265 401.5 269.871 401.5H381.5C391.391 401.5 398.533 406.089 403.367 411.044C405.888 386.92 405.212 371.084 405.212 371.084C388.636 371.084 123.364 371.084 106.788 371.084C106.788 371.084 104.848 416.479 119.774 470.655C154.365 493.838 195.187 508.439 239.199 511.421C232.818 490.434 228.904 468.942 226.517 451.012Z" fill="#7B3723"/>
<path d="M403.439 410.349C398.551 405.452 391.395 401 381.5 401H269.871C243.117 401 222.491 424.557 226.021 451.078C228.459 469.391 232.376 490.7 238.649 511.386C244.381 511.787 250.166 512 256 512C306.417 512 353.271 496.764 392.226 470.656C398.422 448.166 401.71 427.193 403.439 410.349Z" fill="#99442D"/>
<path d="M280.175 210.002L292.795 194.022C288.87 192.331 284.705 191.415 280.387 191.415C256.945 191.415 237.941 218.237 237.941 251.323C237.941 269.956 243.969 286.601 253.422 297.589H284.462L280.175 210.002Z" fill="#007F6F"/>
<path d="M282.961 297.588H307.353C316.806 286.6 322.834 269.955 322.834 251.322C322.834 223.584 309.475 200.259 291.344 193.439L278.649 209.513L282.961 297.588Z" fill="#2BA870"/>
<path d="M280.175 210.002L354.052 116.456C353.676 116.127 353.303 115.796 352.908 115.484C334.511 100.955 302.974 110.226 282.468 136.192C261.962 162.157 260.252 194.985 278.65 209.514C279.158 209.915 279.68 210.291 280.208 210.657L280.175 210.002Z" fill="#2BA870"/>
<path d="M349.089 188.806C369.595 162.841 371.305 130.013 352.907 115.484L341.514 129.91L278.648 209.514C297.046 224.043 328.583 214.771 349.089 188.806Z" fill="#73CF4A"/>
<path d="M212.734 252.484C201.315 222.304 176.995 203.537 158.414 210.567C157.157 211.042 155.964 211.632 154.826 212.313L194.547 297.588H216.89C220.029 284.958 218.879 268.727 212.734 252.484Z" fill="#2BA870"/>
<path d="M195.547 297.588L155.618 211.868C139.283 220.761 134.624 249.338 145.447 277.943C148.203 285.226 151.715 291.836 155.711 297.588H195.547Z" fill="#007F6F"/>
<path d="M341.515 129.91C341.91 130.222 342.314 130.517 342.725 130.798L395.046 64.5479L395.427 64.4059C395.01 64.0189 394.58 63.6439 394.129 63.2879C381.094 52.9939 358.749 59.563 344.221 77.9599C329.691 96.3569 328.48 119.616 341.515 129.91Z" fill="#73CF4A"/>
<path d="M391.423 115.238C405.952 96.841 407.163 73.582 394.129 63.288L341.515 129.91C354.55 140.204 376.895 133.635 391.423 115.238Z" fill="#A4E830"/>
<path d="M405.212 295.588H251.646C230.522 295.588 213.398 312.712 213.398 333.836C213.398 354.96 230.522 372.084 251.646 372.084H405.212C413.896 372.084 420.935 365.044 420.935 356.361V311.312C420.935 302.628 413.896 295.588 405.212 295.588Z" fill="#F35922"/>
<path d="M214.398 333.836C214.398 312.712 231.522 295.588 252.646 295.588H106.788C98.1039 295.588 91.0649 302.628 91.0649 311.311V356.36C91.0649 365.044 98.1049 372.083 106.788 372.083H252.646C231.522 372.085 214.398 354.96 214.398 333.836Z" fill="#99442D"/>
<path d="M271.307 43.418C285.334 27.819 290.451 9.5503 282.737 2.61371C275.022 -4.32288 257.398 2.69939 243.372 18.2984C229.345 33.8974 224.228 52.1661 231.942 59.1027C239.656 66.0392 257.281 59.017 271.307 43.418Z" fill="#FE3BAE"/>
<path d="M336.18 77.0174C339.164 63.9119 320.101 48.3964 293.601 42.3626C267.101 36.3287 243.199 42.0613 240.215 55.1668C237.231 68.2723 256.295 83.7878 282.795 89.8216C309.295 95.8555 333.196 90.1228 336.18 77.0174Z" fill="#FD77CC"/>
<path d="M211.912 106.734C232.758 89.3118 242.673 66.8308 234.057 56.5211C225.441 46.2115 201.557 51.9773 180.71 69.3994C159.863 86.8215 149.949 109.303 158.565 119.612C167.181 129.922 191.065 124.156 211.912 106.734Z" fill="#EF018E"/>
<path d="M259.789 150.25C272.854 147.105 278.289 123.138 271.929 96.7198C265.569 70.3012 249.822 51.4345 236.757 54.5798C223.692 57.7251 218.256 81.6914 224.616 108.11C230.976 134.528 246.723 153.395 259.789 150.25Z" fill="#FE3BAE"/>
<path d="M161.093 225.514C166 217.576 156.965 203.097 140.912 193.174C124.859 183.252 107.868 181.644 102.961 189.583C98.0545 197.522 107.09 212.001 123.143 221.923C139.195 231.845 156.186 233.453 161.093 225.514Z" fill="#EF018E"/>
<path d="M183.41 191.781C185.183 172.993 179.089 157.052 169.797 156.175C160.506 155.298 151.536 169.818 149.763 188.606C147.99 207.393 154.085 223.335 163.376 224.212C172.668 225.089 181.637 210.569 183.41 191.781Z" fill="#FE3BAE"/>
</g>
<defs>
<clipPath id="clip0_1_1478">
<rect width="512" height="512" fill="white"/>
</clipPath>
</defs>
</svg>
