<svg width="512" height="512" viewBox="0 0 512 512" fill="none" xmlns="http://www.w3.org/2000/svg">
<g clip-path="url(#clip0_1_1526)">
<path d="M434.146 435.179L77.838 435.161C36.406 391.282 10.998 332.11 10.998 266.998C10.998 131.687 120.689 21.996 256 21.996C391.311 21.996 501.002 131.687 501.002 266.998C501.002 332.119 475.587 391.298 434.146 435.179Z" fill="#CF0D7D"/>
<path d="M220.992 320.229C218.58 329.492 220.777 339.437 227.522 349.8C227.259 350.042 226.904 350.38 226.507 350.766L431.808 369.034C427.944 351.693 421.595 335.288 413.128 320.229C405.271 306.254 390.498 297.588 374.465 297.588H239.165C235.077 300.052 224.282 307.594 220.992 320.229Z" fill="#F35922"/>
<path d="M98.886 320.201C95.549 326.134 92.556 332.285 89.896 338.611L227.822 350.884C228.462 350.285 228.831 349.969 228.831 349.969C205.804 315.605 241.191 297.588 241.191 297.588H137.533C121.512 297.588 106.74 306.237 98.886 320.201Z" fill="#99442D"/>
<path d="M436.131 408.343L219.319 452.306C219.506 452.562 219.68 452.816 219.87 453.072C218.432 455.931 212.529 468.826 213.574 485.965C214.097 494.544 216.272 502.304 219.55 509.303C231.442 511.079 243.613 512 256 512C326.199 512 389.494 482.469 434.162 435.161C435.448 426.474 436.126 417.585 436.134 408.532C436.134 408.469 436.131 408.406 436.131 408.343Z" fill="#7B3723"/>
<path d="M220.695 509.464C206.461 479.595 221.047 452.976 221.047 452.976C220.823 452.678 220.618 452.384 220.399 452.087L121.92 472.056C151.112 491.186 184.631 504.252 220.695 509.464Z" fill="#602A1B"/>
<path d="M431.59 368.011L227.472 349.848C224.635 352.473 213.915 363.078 207.436 379.027C200.56 395.958 197.17 422.511 219.87 453.072C219.846 453.12 219.818 453.177 219.791 453.23L436.125 409.364C436.126 409.086 436.133 408.81 436.133 408.532C436.147 394.599 434.572 381.036 431.59 368.011Z" fill="#99442D"/>
<path d="M228.832 349.969L90.308 337.643C81.025 359.359 75.865 383.258 75.865 408.368C75.865 417.479 76.548 426.43 77.853 435.178C91.345 449.464 106.545 462.114 123.111 472.833L221.045 452.975C176.841 394.127 228.831 349.97 228.832 349.969Z" fill="#7B3723"/>
<path d="M280.074 108.515C280.074 108.515 327.828 90.472 388.2 88.71C426.086 87.604 447.918 40.278 414.026 10.729C399.66 -1.79704 378.793 -3.54304 362.582 6.48096C337.246 22.147 298.465 53.851 280.074 108.515Z" fill="#73CF4A"/>
<path d="M417.905 166.382C374.78 141.886 326.999 140.849 313.595 141.091C312.371 141.459 311.147 141.828 309.918 142.217C309.918 142.217 355.644 169.877 393.403 212.789C416.375 238.896 458.758 232.22 472.339 200.207C472.562 199.681 472.782 199.153 473 198.623C477.151 188.497 477.469 177.9 474.774 168.271C464.915 176.639 447.109 182.97 417.905 166.382Z" fill="#2BA870"/>
<path d="M417.905 167.382C447.323 184.092 465.177 177.545 474.991 169.086C470.566 152.107 456.786 137.984 437.911 134.519C406.587 128.768 360.695 126.141 309.919 142.217C309.919 142.217 367.143 138.548 417.905 167.382Z" fill="#73CF4A"/>
<path d="M366.667 277.185C346.168 224.024 315.471 191.982 297.366 176.576C295.768 176.058 294.162 175.577 292.549 175.139C292.549 175.139 316.308 242.641 326.915 313.028C331.935 346.342 370.127 363.121 397.768 343.86C398.17 343.58 398.57 343.297 398.969 343.011C408.354 336.285 414.428 326.587 416.788 316.06C375.509 324.39 366.667 277.185 366.667 277.185Z" fill="#2BA870"/>
<path d="M293.918 175.529C311.586 190.04 344.212 222.545 365.667 278.184C365.667 278.184 374.627 325.998 416.596 316.886C419.328 305.674 417.82 293.447 411.534 282.818C392.107 249.973 346.925 190.718 293.918 175.529Z" fill="#73CF4A"/>
<path d="M260.667 318.715L257.093 177.036C256.388 175.298 256.001 174.379 256.001 174.379C256.001 174.379 223.417 251.671 211.712 330.661C207.705 357.703 228.663 381.991 256 381.991C271.745 381.991 285.362 373.925 293.324 361.925C262.842 353.792 260.667 318.715 260.667 318.715Z" fill="#007F6F"/>
<path d="M292.602 362.995C298.959 353.985 302.057 342.593 300.288 330.66C288.584 251.67 256 174.379 256 174.379L259.667 319.715C259.667 319.715 261.857 355.001 292.602 362.995Z" fill="#2BA870"/>
<path d="M118.25 40.882C102.66 37.661 94.14 28.643 89.238 20.361C68.76 49.541 89.817 87.718 123.799 88.71C184.172 90.472 231.925 108.515 231.925 108.515C231.897 108.432 231.867 108.353 231.839 108.27C198.91 67.57 146.363 46.69 118.25 40.882Z" fill="#007F6F"/>
<path d="M149.418 6.48096C133.207 -3.54304 112.34 -1.79704 97.9741 10.729C94.0491 14.151 90.8801 17.814 88.3881 21.614C93.3141 29.826 101.819 38.694 117.251 41.882C144.988 47.613 196.507 68.017 229.506 107.649C231.088 108.198 231.927 108.515 231.927 108.515C213.535 53.851 174.753 22.147 149.418 6.48096Z" fill="#2BA870"/>
<path d="M202.082 142.217C202.082 142.217 156.356 169.877 118.597 212.789C95.6251 238.896 53.242 232.22 39.661 200.207C39.438 199.681 39.217 199.153 39 198.623C27.687 171.025 44.752 139.906 74.089 134.519C105.413 128.768 151.305 126.141 202.082 142.217Z" fill="#007F6F"/>
<path d="M219.451 175.139C219.451 175.139 195.692 242.641 185.086 313.028C180.066 346.341 141.874 363.12 114.233 343.861C113.831 343.581 113.431 343.298 113.032 343.012C93.856 329.269 88.457 303.126 100.467 282.82C120.06 249.69 165.853 189.688 219.451 175.139Z" fill="#007F6F"/>
<path d="M256 338.444C251.581 338.444 248 334.862 248 330.444V146.39C248 141.972 251.581 138.39 256 138.39C260.418 138.39 264 141.972 264 146.39V330.445C264 334.862 260.418 338.444 256 338.444Z" fill="#73CF4A"/>
<path d="M148.161 290.647C147.166 290.647 146.155 290.461 145.176 290.066C141.077 288.416 139.093 283.755 140.743 279.657C181.01 179.643 249.242 140.986 252.126 139.39C255.992 137.247 260.859 138.65 262.999 142.515C265.137 146.377 263.742 151.24 259.885 153.382C259.72 153.474 243.152 162.82 222.105 183.731C202.722 202.99 175.447 236.301 155.585 285.633C154.329 288.753 151.329 290.647 148.161 290.647Z" fill="#73CF4A"/>
<path d="M256.006 154.392C253.064 154.392 250.233 152.762 248.835 149.95C248.508 149.294 215.344 84.0649 145.331 59.0049C141.171 57.5159 139.006 52.9369 140.494 48.7759C141.983 44.6179 146.563 42.4519 150.722 43.9399C226.974 71.2339 261.726 139.928 263.168 142.838C265.129 146.798 263.51 151.597 259.551 153.559C258.41 154.123 257.198 154.392 256.006 154.392Z" fill="#73CF4A"/>
<path d="M99.782 177.969C96.756 177.969 93.861 176.244 92.511 173.316C90.662 169.303 92.415 164.551 96.428 162.702C193.338 118.039 255.905 137.93 258.52 138.798C262.713 140.191 264.984 144.719 263.592 148.911C262.202 153.095 257.693 155.369 253.503 153.991C253.357 153.943 238.549 149.223 212.771 149.749C188.935 150.221 150.563 155.371 103.125 177.233C102.041 177.732 100.903 177.969 99.782 177.969Z" fill="#73CF4A"/>
<path d="M363.84 290.647C360.671 290.647 357.672 288.752 356.416 285.633C318.25 190.836 252.783 153.752 252.126 153.388C248.26 151.249 246.861 146.381 249 142.515C251.14 138.65 256.009 137.251 259.874 139.39C262.759 140.986 330.991 179.643 371.258 279.657C372.908 283.756 370.923 288.416 366.825 290.066C365.846 290.461 364.834 290.647 363.84 290.647Z" fill="#A4E830"/>
<path d="M412.218 177.969C411.097 177.969 409.959 177.733 408.874 177.233C317.645 135.187 259.101 153.79 258.52 153.983C254.328 155.375 249.799 153.105 248.407 148.911C247.014 144.719 249.285 140.19 253.478 138.798C256.095 137.93 318.66 118.04 415.57 162.702C419.583 164.552 421.337 169.304 419.487 173.316C418.139 176.243 415.243 177.969 412.218 177.969Z" fill="#A4E830"/>
<path d="M255.994 154.392C254.801 154.392 253.59 154.124 252.449 153.559C248.49 151.597 246.87 146.798 248.832 142.838C250.274 139.928 285.027 71.234 361.277 43.94C365.434 42.454 370.016 44.617 371.506 48.776C372.995 52.936 370.829 57.515 366.67 59.005C296.434 84.146 263.494 149.287 263.17 149.942C261.772 152.759 258.938 154.392 255.994 154.392Z" fill="#BBE86D"/>
</g>
<defs>
<clipPath id="clip0_1_1526">
<rect width="512" height="512" fill="white"/>
</clipPath>
</defs>
</svg>
