<svg width="512" height="512" viewBox="0 0 512 512" fill="none" xmlns="http://www.w3.org/2000/svg">
<g clip-path="url(#clip0_1_1560)">
<path d="M255.999 21.9911C120.687 21.9911 10.995 131.683 10.995 266.995C10.995 362.579 65.7365 445.368 145.574 485.75L366.428 485.749C446.264 445.366 501.005 362.578 501.005 266.995C501.005 131.683 391.312 21.9911 255.999 21.9911Z" fill="#AAE7FA"/>
<path d="M242.515 232.535C237.556 231.262 233.23 224.82 230.004 213.904C225.311 198.018 220.907 184.73 210.681 170.422C198.882 153.911 180.962 138.51 154.287 121.953C113.162 96.427 97.4619 59.6737 91.8659 40.8785C86.4918 39.8485 80.6547 43.6165 80.4887 49.9866C79.7467 78.5479 86.0598 125.607 129.299 156.761C184.424 196.477 181.554 206.642 205.067 223.816C216.046 231.835 222.507 244.647 222.507 258.244V346.048H242.537C242.537 346.048 242.537 331.064 242.537 234.774C242.537 234.021 242.532 233.284 242.53 232.54C242.525 232.537 242.52 232.537 242.515 232.535Z" fill="#007F6F"/>
<path d="M165.781 88.6899C132.222 77.3218 110.014 58.1886 97.1589 43.9055C95.4809 42.0405 93.3909 41.0485 91.2649 40.7825C96.7459 59.5437 112.348 96.511 154.025 122.379C212.025 158.38 220.858 184.713 229.525 214.046C233.506 227.522 238.402 232.07 242.532 233.052C242.314 138.134 224.054 108.43 165.781 88.6899Z" fill="#2BA870"/>
<path d="M277.003 262.032C272.5 256.927 270.732 249.932 272.275 243.321C279.525 212.26 307.39 191.928 323.356 182.575C362.068 159.894 378.358 131.875 384.763 116.557C381.827 114.174 377.206 114.032 374.212 117.358C363.948 128.762 346.215 144.038 319.42 153.116C272.611 168.974 258.135 192.874 258.135 269.757V346.047H276.203V288.496C276.203 280.631 278.922 273.102 283.749 267.111C281.231 265.933 278.937 264.224 277.003 262.032Z" fill="#73CF4A"/>
<path d="M252.525 147.878C252.525 139.533 255.563 125.198 264.086 109.992C274.218 91.9149 289.93 76.4418 309.522 65.2457C343.91 45.5955 361.369 15.7882 367.858 2.37107C365.005 -0.591962 359.862 -1.04497 356.625 2.55207C346.36 13.9562 328.628 29.2333 301.833 38.3104C255.023 54.1676 240.547 78.0678 240.547 154.95V346.047H258.616V173.69C258.616 168.982 259.589 164.394 261.403 160.183C257.944 158.68 252.525 155.168 252.525 147.878Z" fill="#2BA870"/>
<path d="M135.639 404.511C135.639 404.511 134.132 441.341 145.574 485.75C174.155 500.206 205.951 509.217 239.605 511.441C236.094 497.349 233.759 483.421 232.217 471.405C230.875 460.945 233.948 450.392 240.647 442.454C247.345 434.518 257.02 429.966 267.189 429.966H357.234C365.212 429.966 370.973 433.807 374.873 437.954C376.906 417.764 376.361 404.511 376.361 404.511C362.99 404.511 149.01 404.511 135.639 404.511Z" fill="#7B3723"/>
<path d="M357.234 429.548H267.189C245.607 429.548 228.97 449.265 231.817 471.46C233.387 483.694 235.72 497.525 239.17 511.414C244.732 511.791 250.341 512 256 512C295.729 512 333.244 502.533 366.428 485.749C371.073 467.723 373.587 450.945 374.93 437.373C370.988 433.273 365.216 429.548 357.234 429.548Z" fill="#99442D"/>
<path d="M376.361 343.612H252.487C235.448 343.612 221.635 357.426 221.635 374.465C221.635 391.504 235.448 405.317 252.487 405.317H376.361C383.365 405.317 389.044 399.639 389.044 392.634V356.296C389.044 349.29 383.366 343.612 376.361 343.612Z" fill="#F35922"/>
<path d="M222.442 374.465C222.442 357.426 236.255 343.612 253.294 343.612H135.639C128.634 343.612 122.956 349.29 122.956 356.296V392.634C122.956 399.639 128.634 405.317 135.639 405.317H253.294C236.255 405.317 222.442 391.505 222.442 374.465Z" fill="#99442D"/>
<path d="M309.026 64.3776C263.526 90.3779 251.525 130.878 251.525 147.878C251.525 154.362 255.529 158.73 261.032 161.106C263.364 155.228 267.301 150.027 272.541 146.2C291.315 132.488 286.948 124.371 330.962 92.6609C365.487 67.7867 370.528 30.2123 369.935 7.40707C369.871 4.94605 368.737 2.98303 367.107 1.69202C360.832 14.8411 343.611 44.6144 309.026 64.3776Z" fill="#73CF4A"/>
<path d="M348.549 207.467C383.074 182.593 388.115 145.018 387.522 122.213C387.449 119.404 385.985 117.245 383.975 115.997C377.77 131.07 361.732 158.932 322.85 181.712C286.121 203.231 274.761 228.273 271.302 243.093C268.859 253.56 274.32 263.669 283.115 267.907C285.083 265.308 287.434 262.975 290.129 261.007C308.902 247.294 304.535 239.177 348.549 207.467Z" fill="#A4E830"/>
</g>
<defs>
<clipPath id="clip0_1_1560">
<rect width="512" height="512" fill="white"/>
</clipPath>
</defs>
</svg>
