<svg width="512" height="512" viewBox="0 0 512 512" fill="none" xmlns="http://www.w3.org/2000/svg">
<path d="M437.986 431.704C477.648 390.185 501.821 335.039 501.821 274.522C501.821 145.393 391.763 40.713 256 40.713C120.237 40.713 10.179 145.394 10.179 274.523C10.179 335.04 34.352 390.186 74.014 431.705L437.986 431.704Z" fill="#121D4C"/>
<path d="M355.677 131.199C349.132 118.971 351.614 102.604 362.487 86.294C371.102 73.371 384.578 67.712 397.399 65.51C394.463 62.676 391.154 60.1 387.563 57.739C362.432 41.21 333.132 41.385 298.11 94.632C263.088 147.879 255.07 204.443 280.201 220.972C305.332 237.501 354.094 207.735 389.116 154.489C390.123 152.958 391.088 151.45 392.019 149.962C374.331 148.693 361.539 142.154 355.677 131.199Z" fill="#EF018E"/>
<path d="M391.375 150.983C419.449 106.634 414.374 81.073 396.366 64.537C383.594 66.877 370.264 72.706 361.6 85.703C341.387 116.024 349.697 147.761 391.375 150.983Z" fill="#FE3BAE"/>
<path d="M380.634 279.47C366.865 273.687 358.378 264.474 356.091 252.827C352.497 234.522 364.111 210.848 388.794 186.165C407.124 167.835 426.499 161.485 441.725 159.843C438.037 154.66 433.457 149.955 428.248 145.633C400.179 122.343 364.563 118.963 314.115 179.764C263.667 240.565 245.525 308.734 273.594 332.024C298.369 352.581 350.863 331.297 397.533 284.211C391.553 283.184 385.83 281.652 380.634 279.47Z" fill="#FE3BAE"/>
<path d="M440.994 158.836C424.916 160.651 405.981 167.469 388.04 185.41C344.428 229.022 344.683 265.526 380.221 280.452C385.286 282.58 390.83 284.099 396.609 285.143C403.133 278.62 409.548 271.594 415.762 264.104C457.46 213.851 457.933 181.648 440.994 158.836Z" fill="#FD77CC"/>
<path d="M383.796 330.597C336.134 354.183 288.472 355.068 277.341 332.573C266.209 310.078 295.823 272.722 343.485 249.136C391.147 225.55 412.322 237.773 423.454 260.268C434.585 282.763 431.458 307.011 383.796 330.597Z" fill="#FF90BA"/>
<path d="M122.883 154.489C157.904 207.736 206.667 237.501 231.798 220.972C256.929 204.443 248.91 147.879 213.889 94.632C178.868 41.385 149.567 41.21 124.436 57.739C99.306 74.268 87.862 101.242 122.883 154.489Z" fill="#CF0D7D"/>
<path d="M96.237 264.104C146.685 324.905 210.337 355.314 238.406 332.024C266.475 308.734 248.333 240.565 197.885 179.764C147.437 118.963 111.821 122.343 83.752 145.633C55.683 168.923 45.789 203.303 96.237 264.104Z" fill="#EF018E"/>
<path d="M128.204 330.597C175.866 354.183 223.528 355.068 234.659 332.573C245.791 310.078 216.177 272.722 168.515 249.136C120.853 225.55 99.678 237.773 88.546 260.268C77.415 282.763 80.542 307.011 128.204 330.597Z" fill="#FE3BAE"/>
<path d="M286.975 118.402C268.563 112.681 256.193 95.883 256.193 76.603V52.119C256.193 30.074 273.111 17.839 288.007 11.339C279.072 2.952 267.617 0 255.127 0C226.582 0 203.442 15.419 203.442 75.9C203.442 136.381 226.582 185.411 255.127 185.411C275.712 185.411 293.484 159.911 301.797 123.009L286.975 118.402Z" fill="#FE3BAE"/>
<path d="M286.437 308.561C268.347 302.94 256.193 286.435 256.193 267.493V183.259C256.193 157.685 279.539 145.506 295.375 140.186C284.57 129.435 270.506 125.684 255.127 125.684C221.049 125.684 193.423 144.092 193.423 216.297C193.423 288.502 221.049 347.036 255.127 347.036C271.391 347.036 286.182 333.697 297.205 311.909L286.437 308.561Z" fill="#FD77CC"/>
<path d="M287.086 10.5031C272.035 17.1361 255.127 29.597 255.127 52.12V76.6031C255.127 96.24 267.905 113.593 286.658 119.42L301.558 124.05C304.921 109.517 306.813 93.1771 306.813 75.9001C306.812 40.9821 299.099 21.0851 287.086 10.5031Z" fill="#FD77CC"/>
<path d="M294.513 139.35C278.42 144.853 255.127 157.302 255.127 183.258V267.492C255.127 286.905 267.582 303.819 286.121 309.579L296.717 312.872C309.077 288.964 316.832 254.55 316.832 216.296C316.831 175.817 308.148 152.249 294.513 139.35Z" fill="#FF90BA"/>
<path d="M215.617 377C216.018 377.333 216.425 377.667 216.848 378C216.848 378 176.611 435.527 223.825 509.995C234.094 511.307 244.556 512 255.181 512C327.078 512 391.742 481.03 436.56 431.704V377H215.617Z" fill="#63D9FA"/>
<path d="M73.802 431.704C112.23 473.997 165.254 502.774 224.911 510.126C177.566 435.595 217.848 378 217.848 378C217.424 377.667 217.018 377.333 216.617 377H73.802V431.704Z" fill="#01A2C3"/>
<path d="M396.29 333.311H212.079C204.724 341.603 193.729 359.8 216.848 378H436.56V373.582C436.56 351.341 418.531 333.311 396.29 333.311Z" fill="#AAE7FA"/>
<path d="M213.079 333.311H114.072C91.831 333.311 73.802 351.341 73.802 373.581V378H217.848C194.73 359.801 205.724 341.604 213.079 333.311Z" fill="#63D9FA"/>
</svg>
