<svg width="512" height="512" viewBox="0 0 512 512" fill="none" xmlns="http://www.w3.org/2000/svg">
<g clip-path="url(#clip0_1_1597)">
<path d="M256 21.996C120.689 21.996 10.998 131.687 10.998 266.998C10.998 360.686 63.593 442.079 140.86 483.296H371.14C448.407 442.079 501.002 360.686 501.002 266.998C501.002 131.687 391.311 21.996 256 21.996Z" fill="#F5D001"/>
<path d="M424.982 266.299C409.412 256.571 404.42 229.971 404.372 229.703L387.333 180.057C381.806 163.962 382.026 151.092 387.987 141.802C391.356 136.551 396.115 133.232 400.487 131.145C384.063 113.142 358.667 104.986 334.076 111.277C333.71 111.371 333.343 111.466 332.975 111.563C332.975 111.563 289.476 143.277 314.806 187.779C334.887 223.06 352.775 237.443 365.482 262.024C372.753 276.09 384.044 287.626 398.001 295.105C401.768 297.123 405.539 299.297 408.937 301.523C414.426 305.118 421.8 303.533 425.411 298.054C430.078 290.972 435.951 280.883 440.11 269.683C434.619 270.276 429.547 269.15 424.982 266.299Z" fill="#2BA870"/>
<path d="M411.381 147.234C408.327 140.913 404.388 135.254 399.774 130.355C388.764 135.724 375.556 148.842 386.388 180.382C403.388 229.882 403.388 229.882 403.388 229.882C403.388 229.882 411.267 273.324 439.716 270.734C443.012 262.133 445.338 252.833 445.338 243.704C445.337 219.078 431.05 187.938 411.381 147.234Z" fill="#73CF4A"/>
<path d="M199.983 149.967C192.115 139.598 180.885 132.288 168.321 128.885C156.785 125.76 144.526 126.008 133.269 130.022C119.178 135.047 106.608 143.738 96.91 155.195C97.886 163.363 100.358 172.394 105.888 179.916C111.98 188.201 120.84 193.3 132.245 195.09C127.508 205.478 104.887 257.324 104.887 299.882C104.887 321.154 110.238 335.653 120.79 342.974C126.737 347.099 134.225 348.811 142.902 348.129C149.652 339.549 154.972 329.862 158.609 319.42C170.09 286.461 189.859 265.312 208.639 217.678C220.289 188.135 211.712 165.423 199.983 149.967Z" fill="#73CF4A"/>
<path d="M106.388 299.882C106.388 252.382 134.459 193.882 134.459 193.882C107.463 190.649 99.916 170.051 98.279 153.617C90.563 162.29 84.53 172.645 80.826 184.28C63.528 238.612 51.243 280.041 55.635 310.789C59.304 336.471 77.863 361.146 90.21 375.096C95.695 381.293 105.185 381.956 111.398 376.489C115.244 373.104 119.565 369.717 123.908 366.525C131.645 360.839 138.434 354.082 144.14 346.511C123.521 348.709 106.388 337.721 106.388 299.882Z" fill="#2BA870"/>
<path d="M250.196 84.326C250.196 84.326 251.32 85.063 253.251 86.009L288.56 40.382C304.896 17.813 318.984 7.64699 329.952 3.52799C329.161 2.82599 328.188 2.30599 327.087 2.05499C319.295 0.282991 306.188 -1.61701 295.77 2.29299C283.296 6.97399 270.239 20.131 253.361 37.831C241.401 50.374 239.922 69.612 249.842 83.823C249.958 83.99 250.076 84.158 250.196 84.326Z" fill="#73CF4A"/>
<path d="M331.975 9.74002C332.59 6.99802 331.333 4.28102 329.068 2.87402C318.231 7.20102 304.461 17.412 288.56 39.381L252.692 85.73C259.335 89.112 277.944 96.229 292.254 79.042C306.307 62.164 310.192 50.369 320.228 39.26C325.971 32.903 329.668 24.991 330.803 16.5C331.11 14.208 331.494 11.885 331.975 9.74002Z" fill="#A4E830"/>
<path d="M257.268 104.382C248.147 105.61 241.979 102.464 237.973 98.714V170.697C243.783 153.171 257.531 138.891 275.796 133.261C276.12 133.161 276.445 133.064 276.772 132.969C276.872 132.94 276.971 132.929 277.071 132.904V92.384C277.071 91.149 277.021 89.921 276.926 88.703C273.343 95.673 267.256 103.037 257.268 104.382Z" fill="#007F6F"/>
<path d="M266.405 161.2C266.066 161.2 265.726 161.182 265.383 161.148C259.888 160.593 255.886 155.66 256.441 150.165C256.467 149.899 256.577 148.912 256.863 147.34C261.45 122.1 282.68 103.495 308.491 102.099C314 101.801 318.719 106.03 319.016 111.544C319.315 117.059 315.086 121.771 309.571 122.069C296.054 122.8 279.953 132.14 276.541 150.917C276.389 151.754 276.334 152.228 276.334 152.228C275.812 157.384 271.473 161.2 266.405 161.2Z" fill="#73CF4A"/>
<path d="M247.268 186.91C243.224 186.91 239.416 184.439 237.908 180.431C232.455 165.949 220.681 155.723 205.603 152.376C200.211 151.179 196.812 145.837 198.008 140.445C199.205 135.053 204.552 131.655 209.939 132.85C231.731 137.689 248.747 152.462 256.624 173.381C258.57 178.55 255.958 184.318 250.79 186.264C249.629 186.703 248.439 186.91 247.268 186.91Z" fill="#2BA870"/>
<path d="M284.685 263.75C284.685 232.793 284.685 198.679 284.685 180.393C284.685 162.463 286.434 150.064 288.315 141.915C289.9 135.048 283.543 129.012 276.773 130.969C276.446 131.064 276.12 131.161 275.797 131.261C251.308 138.81 234.932 161.901 234.932 187.527V211.766C259.107 220.308 277.151 239.944 284.685 263.75Z" fill="#2BA870"/>
<path d="M219.554 305.548C223.861 320.548 237.672 331.527 254.057 331.527C270.442 331.527 284.253 320.548 288.56 305.548V286.793C288.56 251.251 265.847 219.224 231.882 208.754C231.433 208.616 230.982 208.481 230.528 208.349C221.138 205.634 212.322 214.006 214.52 223.53C217.129 234.833 219.554 252.03 219.554 276.898V305.548Z" fill="#007F6F"/>
<path d="M254.057 330.127C235.001 330.127 219.554 314.679 219.554 295.624V389.328H288.56V295.624C288.56 314.68 273.112 330.127 254.057 330.127Z" fill="#00626B"/>
<path d="M243.408 461.725C243.265 452.877 243.192 444.795 243.192 439.48C243.192 427.376 243.567 415.466 244.294 403.804C244.872 394.529 252.613 387.328 261.906 387.328H157.902C148.609 387.328 140.868 394.529 140.29 403.804C139.563 415.466 139.188 427.376 139.188 439.48C139.188 454.416 139.762 469.054 140.86 483.296C175.187 501.608 214.378 512 256 512C262.858 512 269.648 511.712 276.362 511.159C257.283 502.876 243.767 483.92 243.408 461.725Z" fill="#4A265D"/>
<path d="M323.66 461.725C323.517 452.877 323.444 444.795 323.444 439.48C323.444 427.376 323.82 415.466 324.546 403.804C325.124 394.529 332.865 387.328 342.158 387.328H259.906C250.613 387.328 242.872 394.529 242.294 403.804C241.567 415.466 241.192 427.376 241.192 439.48C241.192 444.795 241.265 452.877 241.408 461.725C241.769 484.042 255.434 503.084 274.681 511.293C296.752 509.627 317.999 505.024 338.051 497.896C329.311 488.351 323.885 475.679 323.66 461.725Z" fill="#62387A"/>
<path d="M323.546 403.804C322.819 415.466 322.444 427.376 322.444 439.48C322.444 444.795 322.517 452.877 322.66 461.725C322.888 475.812 328.421 488.59 337.308 498.167C349.017 494.047 360.321 489.067 371.14 483.296C372.238 469.054 372.812 454.416 372.812 439.48C372.812 427.376 372.436 415.466 371.71 403.804C371.132 394.529 363.391 387.328 354.098 387.328H341.158C331.866 387.328 324.124 394.53 323.546 403.804Z" fill="#9739CF"/>
<path d="M401.592 239.379C397.214 239.379 393.196 236.481 391.964 232.058C377.432 179.853 353.486 148.817 335.959 131.974C328.761 125.057 319.404 121.533 309.57 122.07C304.052 122.368 299.343 118.139 299.045 112.625C298.747 107.11 302.976 102.397 308.49 102.1C323.891 101.249 338.58 106.754 349.817 117.554C369.143 136.125 395.486 170.136 411.231 226.696C412.712 232.016 409.599 237.53 404.279 239.011C403.383 239.26 402.479 239.379 401.592 239.379Z" fill="#A4E830"/>
<path d="M102.955 312.716C102.649 312.716 102.343 312.701 102.033 312.673C96.533 312.171 92.482 307.305 92.985 301.805C99.46 230.984 123.43 184.776 142.4 158.484C157.982 136.883 183.857 127.066 209.938 132.852C215.33 134.049 218.729 139.391 217.533 144.783C216.336 150.175 210.992 153.581 205.602 152.377C187.456 148.35 169.451 155.172 158.619 170.186C141.11 194.456 118.966 237.307 112.901 303.627C112.428 308.815 108.066 312.716 102.955 312.716Z" fill="#A4E830"/>
<path d="M244.958 48.167C244.704 48.089 244.448 48.012 244.191 47.938C238.871 46.4 233.875 51.143 235.121 56.54C236.599 62.945 237.973 72.688 237.973 86.778V99.714C241.98 103.464 248.148 106.61 257.268 105.382C267.307 104.03 273.403 96.598 276.98 89.597C275.855 70.59 263.31 53.824 244.958 48.167Z" fill="#2BA870"/>
</g>
<defs>
<clipPath id="clip0_1_1597">
<rect width="512" height="512" fill="white"/>
</clipPath>
</defs>
</svg>
