<svg width="512" height="512" viewBox="0 0 512 512" fill="none" xmlns="http://www.w3.org/2000/svg">
<g clip-path="url(#clip0_1_1625)">
<path d="M394.179 469.334C459.346 424.743 501.807 349.529 500.99 264.639C499.689 129.335 388.947 20.704 253.643 22.006C118.338 23.308 9.707 134.05 11.009 269.354C11.826 354.244 55.727 428.627 121.74 471.956L394.179 469.334Z" fill="#DBF8A0"/>
<path d="M430.502 198.32C430.149 197.896 429.795 197.474 429.44 197.055C388.769 149.112 317.138 147.588 273.764 188.119C275.307 200.925 282.492 221.913 313.037 221.643C322.121 210.469 334.403 201.028 350.995 195.444C375.187 187.301 403.616 197.531 423.134 207.491C428.944 210.455 434.672 203.335 430.502 198.32Z" fill="#2BA870"/>
<path d="M313.869 220.642C283.514 220.832 276.326 199.966 274.77 187.178C267.725 193.591 261.397 201.091 256.037 209.663C236.024 241.67 226.375 277.741 222.243 297.588H287.751C288.626 278.485 293.32 245.156 313.869 220.642Z" fill="#007F6F"/>
<path d="M230.157 295.41H255.898L237.884 114.406C237.183 107.366 230.884 102.221 223.871 102.929C216.832 103.63 211.695 109.903 212.395 116.942L230.157 295.41Z" fill="#EF018E"/>
<path d="M116.688 166.88C117.609 158.395 123.776 151.742 128.709 147.696C96.865 148.34 65.126 161.753 42.347 188.604C41.962 189.058 41.578 189.515 41.196 189.975C36.675 195.412 42.884 203.13 49.183 199.916C69.206 189.699 97.877 179.23 123.123 185.615C118.187 179.309 116.021 173.035 116.688 166.88Z" fill="#2BA870"/>
<path d="M266.96 297.588C263.748 282.163 257.465 257.704 246.166 232.296C241.864 241.66 235.798 247.803 228.029 250.585C216.956 254.548 204.28 250.966 195.596 247.26C190.908 245.26 186.857 243.013 183.934 241.239C192.7 261.908 195.295 283.377 195.946 297.588H266.96Z" fill="#2BA870"/>
<path d="M184.626 242.92C198.341 250.963 231.306 265.77 246.753 233.623C242.168 223.166 236.739 212.527 230.328 202.272C206.986 164.942 166.757 146.345 126.948 147.74C118.881 154.733 108.871 168.089 121.462 185.222C123.458 185.667 125.436 186.2 127.387 186.857C158.075 197.186 175.16 219.681 184.626 242.92Z" fill="#73CF4A"/>
<path d="M163.347 297.588H217.3C209.347 283.982 194.454 261.703 173.668 244.239C162.599 234.939 149.94 229.199 136.915 226.711C129.856 230.087 115.682 239.863 125.779 261.018C143.686 268.611 155.694 283.814 163.347 297.588Z" fill="#A4E830"/>
<path d="M226.258 451.012C224.594 438.514 228.404 425.906 236.709 416.421C245.013 406.939 257.006 401.5 269.612 401.5H381.241C391.132 401.5 398.274 406.089 403.108 411.044C405.629 386.92 404.953 371.084 404.953 371.084C388.377 371.084 123.105 371.084 106.529 371.084C106.529 371.084 104.589 416.479 119.515 470.655C154.106 493.838 194.928 508.439 238.94 511.421C232.559 490.434 228.644 468.942 226.258 451.012Z" fill="#7B3723"/>
<path d="M403.18 410.349C398.292 405.452 391.136 401 381.241 401H269.612C242.858 401 222.232 424.558 225.762 451.078C228.2 469.391 232.117 490.699 238.39 511.386C244.122 511.787 249.907 512 255.741 512C306.158 512 353.012 496.764 391.967 470.656C398.163 448.166 401.451 427.193 403.18 410.349Z" fill="#99442D"/>
<path d="M404.953 295.588H251.387C230.263 295.588 213.139 312.712 213.139 333.836C213.139 354.96 230.263 372.084 251.387 372.084H404.953C413.637 372.084 420.676 365.044 420.676 356.361V311.312C420.676 302.628 413.637 295.588 404.953 295.588Z" fill="#F35922"/>
<path d="M214.139 333.837C214.139 312.713 231.263 295.589 252.387 295.589H106.529C97.845 295.589 90.806 302.629 90.806 311.312V356.361C90.806 365.045 97.846 372.084 106.529 372.084H252.387C231.263 372.085 214.139 354.96 214.139 333.837Z" fill="#99442D"/>
<path d="M137.683 226.867C101.073 219.507 61.381 237.97 45.903 275.592C45.745 275.977 45.588 276.363 45.433 276.75C43.6 281.333 49.383 285.122 52.875 281.634C64.604 269.914 82.683 255.921 101.997 256.142C111.476 256.251 119.822 258.301 127.156 261.626C116.647 240.363 130.459 230.413 137.683 226.867Z" fill="#73CF4A"/>
<path d="M311.147 242.652C310.111 242.662 309.059 242.546 308.006 242.292C301.131 240.63 296.904 233.711 298.565 226.834C308.505 185.693 316.112 147.47 320.564 116.302C322.293 104.196 318.674 91.989 310.635 82.811C302.635 73.676 291.083 68.505 278.939 68.622C267.1 68.736 256.228 73.654 248.324 82.468C240.42 91.282 236.712 102.625 237.885 114.406C238.585 121.445 233.447 127.718 226.409 128.419C219.365 129.113 213.097 123.98 212.396 116.943C210.531 98.195 216.675 79.396 229.253 65.368C241.833 51.34 259.852 43.191 278.693 43.01C298.313 42.821 316.979 51.178 329.904 65.935C342.868 80.739 348.706 100.417 345.92 119.924C341.291 152.34 333.735 190.335 323.463 232.851C322.056 238.674 316.876 242.597 311.147 242.652Z" fill="#FE3BAE"/>
<path d="M366.783 24.058C367.274 24.208 416.222 38.942 460.257 34.69C452.689 14.257 432.937 -0.218992 409.895 0.00200784C391.544 0.179008 375.455 9.63501 366.041 23.871C366.288 23.927 366.536 23.983 366.783 24.058Z" fill="#FD77CC"/>
<path d="M433.904 327.808C417.82 317.122 409.665 288.606 409.665 243.052C409.665 220.837 414.903 204.554 425.233 194.661C431.796 188.375 439.689 185.395 447.082 184.033C442.245 170.895 440.193 159.326 439.852 149.369C427.237 139.515 401.941 126.482 377.524 153.807C379.741 177.071 376.913 200.612 368.851 222.633C364.315 235.022 361.671 246.898 360.383 258.042C358.254 276.463 333.083 280.1 325.821 263.037C321.983 254.017 320.859 243.626 323.462 232.852C325.124 225.976 320.897 219.056 314.022 217.394C307.146 215.734 300.226 219.96 298.566 226.835C288.285 269.382 316.048 307.293 353.282 316.367C362.014 318.495 370.103 322.84 376.484 329.168C385.991 338.596 399.004 344.378 413.208 344.537C425.923 344.537 437.905 340.081 447.315 332.424C442.349 331.966 437.865 330.44 433.904 327.808Z" fill="#73CF4A"/>
<path d="M448.594 110.638C438.76 107.735 402.328 94.285 364.252 46.308C365.548 75.386 371.041 112.896 375.988 142.064C376.702 146.272 377.228 150.5 377.607 154.736C402.028 127.5 427.314 140.582 439.899 150.429C439.02 131.297 444.413 117.954 448.594 110.638Z" fill="#EF018E"/>
<path d="M453.283 113.586C452.571 113.593 451.847 113.52 451.122 113.361C449.163 112.93 402.604 102.062 356.216 37.741C353.125 33.455 354.094 27.475 358.379 24.385C362.668 21.295 368.646 22.264 371.735 26.548C413.479 84.429 454.875 94.589 455.288 94.686C460.448 95.821 463.684 100.919 462.548 106.08C461.572 110.516 457.644 113.544 453.283 113.586Z" fill="#FE3BAE"/>
<path d="M445.394 53.533C403.053 53.94 363.077 41.875 361.174 41.293C356.122 39.746 353.28 34.397 354.827 29.344C356.374 24.295 361.718 21.45 366.772 22.996C367.265 23.147 416.664 38.019 460.855 33.571C466.083 33.029 470.802 36.874 471.331 42.133C471.86 47.39 468.027 52.08 462.769 52.61C456.997 53.189 451.171 53.477 445.394 53.533Z" fill="#FF90BA"/>
<path d="M446.711 183.036C429.047 186.337 408.64 198.855 408.64 243.051C408.64 301.061 421.846 330.317 446.139 333.359C454.434 326.986 460.871 318.193 464.258 307.764C474.281 276.905 471.417 237.268 452.145 196.14C450.022 191.609 448.223 187.241 446.711 183.036Z" fill="#A4E830"/>
</g>
<defs>
<clipPath id="clip0_1_1625">
<rect width="512" height="512" fill="white"/>
</clipPath>
</defs>
</svg>
