<svg width="512" height="512" viewBox="0 0 512 512" fill="none" xmlns="http://www.w3.org/2000/svg">
<path d="M74.621 431.704H437.38C476.91 388.198 501.003 330.411 501.003 266.998C501.003 131.687 391.312 21.996 256.001 21.996C120.69 21.996 10.998 131.687 10.998 266.998C10.998 330.412 35.09 388.198 74.621 431.704Z" fill="#CF0D7D"/>
<path d="M407.718 177.464L407.077 176.981C406.748 176.733 406.41 176.508 406.076 176.272C399.666 195.999 377.87 245.049 317.847 254.094V283.609C341.424 280.803 385.577 270.54 415.151 233.231C428.84 215.959 425.322 190.722 407.718 177.464Z" fill="#A4E830"/>
<path d="M407.077 176.981C386.646 161.593 357.415 169.485 347.063 192.874C340.841 206.933 331.582 220.811 317.847 230.056V255.244C378.874 246.564 400.805 196.714 407.152 177.037L407.077 176.981Z" fill="#73CF4A"/>
<path d="M300.859 297.382C282.74 297.382 268 282.642 268 264.523V56.382C268 36.321 276.708 20.912 293.882 10.582C294.763 10.052 295.644 9.553 296.522 9.077C288.079 3.352 277.912 0 267 0C237.934 0 214.153 23.781 214.153 52.847V335.312H319.846V297.382H300.859Z" fill="#2BA870"/>
<path d="M267 125.144V264.522C267 283.222 282.159 298.382 300.86 298.382H319.847V122.396C299.497 151.035 277.623 135.853 267 125.144Z" fill="#73CF4A"/>
<path d="M295.566 8.46106C281.68 16.1281 267 30.3801 267 56.3821V126.144C277.623 136.853 299.497 152.036 319.847 123.396V52.8461C319.847 34.2881 310.142 17.8951 295.566 8.46106Z" fill="#A4E830"/>
<path d="M126.385 39.794C124.771 42.57 123.218 45.603 121.856 48.889C115.44 64.363 112.268 88.165 133.595 113.69C152.209 135.965 171.457 158.999 193.155 172.972C208.953 183.146 225.296 188.089 243.331 187.985C243.613 187.205 243.879 186.416 244.111 185.608C248.687 169.696 242.106 152.798 228.163 143.87C204.058 128.435 190.151 103.526 182.152 78.941C174.011 53.921 150.565 39.15 126.385 39.794Z" fill="#2BA870"/>
<path d="M243.682 186.971C197.507 187.415 169.094 154.612 134.363 113.048C109.844 83.706 117.558 56.652 127.549 39.79C117.585 39.852 107.459 42.503 98.1891 48.149L97.1971 48.753C69.7641 65.463 61.4071 101.551 78.8811 128.504C111.781 179.25 163.761 201.55 198.537 211.172C217.697 216.473 237.52 205.699 243.682 186.971Z" fill="#007F6F"/>
<path d="M178.655 335.311H221.912C220.812 333.512 219.514 331.807 217.996 330.249C202.94 314.791 196.994 294.122 195.329 274.703C193.635 254.94 178.949 240.082 161.086 236.416C159.426 238.178 157.767 240.139 156.204 242.319C148.844 252.581 142.441 269.514 153.731 291.905C161.367 307.049 169.212 322.579 178.655 335.311Z" fill="#73CF4A"/>
<path d="M135.528 335.311H179.585C170.473 323.144 162.76 308.135 154.404 291.564C141.425 265.824 151.719 247.282 161.941 236.612C154.615 234.952 146.726 235.165 138.954 237.724L138.123 237.998C115.122 245.57 102.809 270.636 111.025 293.415C116.962 309.878 125.686 323.737 135.528 335.311Z" fill="#2BA870"/>
<path d="M216.436 377C216.837 377.333 217.244 377.667 217.667 378C217.667 378 177.43 435.527 224.644 509.995C234.913 511.307 245.375 512 256 512C327.897 512 392.56 481.03 437.379 431.704V377H216.436Z" fill="#63D9FA"/>
<path d="M74.6211 431.704C113.049 473.997 166.073 502.774 225.73 510.126C178.385 435.595 218.667 378 218.667 378C218.243 377.667 217.837 377.333 217.436 377H74.6211V431.704Z" fill="#01A2C3"/>
<path d="M397.109 333.311H212.898C205.543 341.603 194.548 359.8 217.667 378H437.38V373.582C437.379 351.341 419.35 333.311 397.109 333.311Z" fill="#AAE7FA"/>
<path d="M213.898 333.311H114.891C92.6501 333.311 74.6211 351.341 74.6211 373.581V378H218.667C195.549 359.801 206.543 341.604 213.898 333.311Z" fill="#63D9FA"/>
</svg>
