<svg width="512" height="512" viewBox="0 0 512 512" fill="none" xmlns="http://www.w3.org/2000/svg">
<path d="M434.146 435.179L77.838 435.161C36.406 391.282 10.998 332.11 10.998 266.998C10.998 131.687 120.689 21.996 256 21.996C391.311 21.996 501.002 131.687 501.002 266.998C501.002 332.119 475.587 391.298 434.146 435.179Z" fill="#121D4C"/>
<path d="M241.833 171.911V195.813C242.913 197.69 243.892 199.642 244.748 201.672C249.034 211.829 252.927 222.64 255.999 233.809C259.072 222.64 262.965 211.829 267.25 201.672C268.106 199.643 269.085 197.69 270.165 195.813V171.912C270.165 161.59 274.13 151.76 280.9 143.968C285.937 138.171 288.996 130.615 288.996 122.379V102.051C288.996 95.083 283.295 89.382 276.327 89.382H235.67C228.702 89.382 223.001 95.083 223.001 102.051V122.379C223.001 130.615 226.06 138.17 231.097 143.967C237.868 151.759 241.833 161.59 241.833 171.911Z" fill="#73CF4A"/>
<path d="M201.35 238.72C208.579 258.863 219.495 271.51 232.086 274.331C241.228 276.382 250.553 273.216 258.345 265.422C259.574 264.192 260.62 263.76 261.455 264.128C261.65 264.214 261.857 264.349 262.071 264.536C260.34 242.065 253.565 219.839 245.266 200.171C243.44 195.843 241.052 191.869 238.218 188.306C225.895 194.881 213.446 198.554 201.335 200.174C197.312 208.233 194.909 220.77 201.35 238.72Z" fill="#007F6F"/>
<path d="M262.513 299.588V275.454C262.513 271.396 262.31 267.334 261.964 263.281C260.728 262.669 259.298 263.055 257.638 264.715C241.527 280.826 216.526 278.048 202.292 238.382C195.952 220.714 198.152 208.322 202.539 200.006C167.939 205.017 135.956 193.088 117.321 183.777C116.136 187.833 116.208 192.319 117.947 196.687C117.984 196.781 118.022 196.875 118.06 196.968C133.139 234.166 152.155 271.492 167.443 299.587H262.513V299.588Z" fill="#00626B"/>
<path d="M310.04 268.576C303.645 261.344 302.213 250.074 305.658 234.124C308.921 219.021 317.372 208.44 326.283 201.193C309.437 201.211 291.48 197.749 273.782 188.306C270.948 191.869 268.561 195.843 266.734 200.171C257.092 223.021 249.487 249.324 249.487 275.454V299.588H344.557C348.161 292.964 351.977 285.812 355.896 278.285C332.601 280.284 317.584 277.108 310.04 268.576Z" fill="#2BA870"/>
<path d="M393.94 196.969C393.978 196.875 394.016 196.781 394.053 196.688C395.793 192.32 395.864 187.834 394.679 183.778C378.664 191.78 352.789 201.717 323.867 201.172C315.301 208.535 307.379 219.05 304.191 233.808C295.981 271.808 315.608 283.038 355.073 279.858C368 255.113 382.167 226.012 393.94 196.969Z" fill="#73CF4A"/>
<path d="M220.992 320.229C218.58 329.492 220.777 339.437 227.522 349.8C227.259 350.042 226.904 350.38 226.507 350.766L431.808 369.034C427.944 351.693 421.595 335.288 413.128 320.229C405.271 306.254 390.498 297.588 374.465 297.588H239.165C235.077 300.052 224.282 307.594 220.992 320.229Z" fill="#F35922"/>
<path d="M98.886 320.201C95.549 326.134 92.556 332.285 89.896 338.611L227.822 350.884C228.462 350.285 228.831 349.969 228.831 349.969C205.804 315.605 241.191 297.588 241.191 297.588H137.533C121.512 297.588 106.74 306.237 98.886 320.201Z" fill="#99442D"/>
<path d="M436.131 408.343L219.318 452.306C219.505 452.562 219.679 452.816 219.869 453.072C218.431 455.931 212.528 468.826 213.573 485.965C214.096 494.544 216.27 502.304 219.549 509.303C231.442 511.079 243.613 512 256 512C326.199 512 389.494 482.469 434.162 435.161C435.448 426.474 436.126 417.585 436.134 408.532C436.134 408.469 436.131 408.406 436.131 408.343Z" fill="#7B3723"/>
<path d="M220.695 509.464C206.461 479.595 221.047 452.976 221.047 452.976C220.823 452.678 220.618 452.384 220.399 452.087L121.92 472.056C151.112 491.186 184.631 504.252 220.695 509.464Z" fill="#602A1B"/>
<path d="M431.59 368.011L227.472 349.849C224.634 352.474 213.914 363.079 207.436 379.028C200.56 395.959 197.17 422.512 219.87 453.073C219.846 453.121 219.818 453.178 219.791 453.231L436.125 409.365C436.127 409.087 436.133 408.811 436.133 408.533C436.147 394.599 434.572 381.036 431.59 368.011Z" fill="#99442D"/>
<path d="M228.832 349.969L90.308 337.643C81.024 359.359 75.865 383.258 75.865 408.368C75.865 417.479 76.548 426.43 77.853 435.178C91.345 449.464 106.545 462.114 123.111 472.833L221.045 452.975C176.841 394.127 228.831 349.97 228.832 349.969Z" fill="#7B3723"/>
<path d="M229.097 118.987C249.736 107.07 262.688 90.8626 258.025 82.7864C253.362 74.7102 232.85 77.8235 212.211 89.7401C191.571 101.657 178.619 117.864 183.282 125.94C187.945 134.017 208.457 130.903 229.097 118.987Z" fill="#FE8B05"/>
<path d="M256 167.924C265.326 167.924 272.886 148.603 272.886 124.77C272.886 100.937 265.326 81.616 256 81.616C246.674 81.616 239.114 100.937 239.114 124.77C239.114 148.603 246.674 167.924 256 167.924Z" fill="#FFB00A"/>
<path d="M258.029 85.1403C262.692 77.0641 249.74 60.8567 229.101 48.9401C208.461 37.0234 187.949 33.9101 183.286 41.9863C178.623 50.0626 191.575 66.27 212.215 78.1866C232.854 90.1033 253.366 93.2166 258.029 85.1403Z" fill="#FFB00A"/>
<path d="M256 86.308C265.326 86.308 272.886 66.9873 272.886 43.154C272.886 19.3207 265.326 0 256 0C246.674 0 239.114 19.3207 239.114 43.154C239.114 66.9873 246.674 86.308 256 86.308Z" fill="#F5D001"/>
<path d="M328.71 125.95C333.373 117.873 320.421 101.666 299.782 89.7494C279.142 77.8327 258.63 74.7194 253.967 82.7957C249.304 90.8719 262.256 107.079 282.896 118.996C303.535 130.913 324.047 134.026 328.71 125.95Z" fill="#F5D001"/>
<path d="M299.777 78.18C320.417 66.2634 333.369 50.056 328.706 41.9798C324.043 33.9036 303.531 37.0168 282.891 48.9335C262.252 60.8501 249.3 77.0576 253.963 85.1338C258.626 93.21 279.138 90.0967 299.777 78.18Z" fill="#FEEB1E"/>
<path d="M263.654 102.615C273.942 98.4157 278.877 86.6716 274.678 76.384C270.479 66.0963 258.734 61.1609 248.447 65.3604C238.159 69.5599 233.224 81.304 237.423 91.5916C241.623 101.879 253.367 106.815 263.654 102.615Z" fill="#FB4D08"/>
<path d="M238.772 189.009C229.261 176.607 214.362 169.046 198.254 169.046H136.959C127.047 169.046 119.193 175.981 117.083 184.658C142.058 197.183 191.394 214.632 238.772 189.009Z" fill="#2BA870"/>
<path d="M375.041 169.046H313.746C297.638 169.046 282.739 176.607 273.228 189.009C320.606 214.631 369.942 197.183 394.918 184.658C392.807 175.98 384.954 169.046 375.041 169.046Z" fill="#A4E830"/>
</svg>
