<svg width="512" height="512" viewBox="0 0 512 512" fill="none" xmlns="http://www.w3.org/2000/svg">
<path d="M375.167 52.899L337.889 36.034C312.28 26.954 284.721 21.996 256 21.996C120.689 21.996 10.998 131.687 10.998 266.998C10.998 347.816 50.137 419.484 110.485 464.11H401.514C461.863 419.484 501.002 347.816 501.002 266.998C501.002 174.947 450.228 94.768 375.167 52.899Z" fill="#F5D001"/>
<path d="M304.68 211.21C304.37 208.05 305.566 204.797 308.173 202.591C349.406 167.707 403.714 174.934 406.006 175.259C411.473 176.034 415.276 181.097 414.504 186.563C413.731 192.024 408.681 195.827 403.221 195.064C402.746 194.999 355.348 188.877 321.092 217.861C316.875 221.428 310.566 220.902 306.998 216.686C305.637 215.075 304.872 213.16 304.68 211.21Z" fill="#2BA870"/>
<path d="M471.233 201.251C473.281 193.251 459.318 182.768 440.048 177.836C420.777 172.904 403.495 175.391 401.448 183.391C399.4 191.391 413.362 201.875 432.633 206.807C451.904 211.739 469.186 209.252 471.233 201.251Z" fill="#A4E830"/>
<path d="M406.819 164.444C422.215 150.816 430.374 134.885 425.041 128.861C419.709 122.837 402.906 129.002 387.51 142.63C372.114 156.258 363.955 172.189 369.287 178.213C374.62 184.237 391.423 178.072 406.819 164.444Z" fill="#A4E830"/>
<path d="M362.016 241.568C346.894 224.474 340.32 205.588 347.332 199.385C354.344 193.182 372.287 202.01 387.409 219.104C402.531 236.198 409.105 255.084 402.093 261.287C395.081 267.491 377.138 258.662 362.016 241.568Z" fill="#A4E830"/>
<path d="M217.047 179.181C226.878 179.181 235.261 172.998 238.529 164.311V22.019C238.529 10.154 228.911 0.536987 217.047 0.536987C205.183 0.536987 195.565 10.155 195.565 22.019V164.311C198.833 172.999 207.216 179.181 217.047 179.181Z" fill="#2BA870"/>
<path d="M217.047 177.715C205.182 177.715 195.565 168.097 195.565 156.233V342.382H238.529V156.233C238.529 168.097 228.911 177.715 217.047 177.715Z" fill="#007F6F"/>
<path d="M239.603 26.853H194.49C187.075 26.853 181.064 20.841 181.064 13.427C181.064 6.013 187.076 0 194.491 0H239.604C247.019 0 253.03 6.011 253.03 13.426C253.03 20.841 247.018 26.853 239.603 26.853Z" fill="#A4E830"/>
<path d="M239.603 133.424H194.49C187.075 133.424 181.064 127.413 181.064 119.998C181.064 112.583 187.075 106.572 194.49 106.572H239.603C247.018 106.572 253.029 112.583 253.029 119.998C253.029 127.413 247.018 133.424 239.603 133.424Z" fill="#A4E830"/>
<path d="M239.603 239.994H194.49C187.075 239.994 181.064 233.983 181.064 226.568C181.064 219.153 187.075 213.142 194.49 213.142H239.603C247.018 213.142 253.029 219.153 253.029 226.568C253.03 233.983 247.018 239.994 239.603 239.994Z" fill="#73CF4A"/>
<path d="M300.783 174.826C292.096 173.307 286.129 165.577 283.41 161.244C281.708 172.168 280.833 182.998 280.833 193.693V342.382H320.833V193.693C320.833 184.246 321.675 174.92 323.19 165.755C315.37 173.005 307.842 176.062 300.783 174.826Z" fill="#007F6F"/>
<path d="M375.167 52.8991C363.312 46.2861 350.852 40.6301 337.889 36.0341C322.965 57.0631 310.786 78.3731 301.628 99.5381C292.433 120.789 286.276 141.945 283.18 162.75C288.405 170.627 302.198 185.744 322.935 167.34C329.727 123.865 352.088 84.0211 375.167 52.8991Z" fill="#2BA870"/>
<path d="M385.08 337.643H233.525C233.525 337.643 194.93 367.715 233.525 406.31C233.525 406.31 233.246 406.539 232.767 406.97H401.515V354.078C401.515 345.001 394.157 337.643 385.08 337.643Z" fill="#F35922"/>
<path d="M234.525 337.643H126.92C117.844 337.643 110.485 345.001 110.485 354.078V406.97H233.767C234.247 406.539 234.525 406.31 234.525 406.31C195.93 367.715 234.525 337.643 234.525 337.643Z" fill="#99442D"/>
<path d="M232.829 474.316C233.063 474.536 233.286 474.756 233.526 474.976C233.526 474.976 217.909 487.823 221.67 509.604C232.888 511.179 244.347 512 256 512C304.007 512 348.78 498.179 386.581 474.316H232.829Z" fill="#7B3723"/>
<path d="M222.692 509.743C218.839 487.877 234.525 474.977 234.525 474.977C234.285 474.757 234.062 474.537 233.828 474.317H125.418C154.323 492.563 187.306 504.928 222.692 509.743Z" fill="#602A1B"/>
<path d="M233.525 406.31C233.525 406.31 193.991 438.611 233.525 474.977H385.537C391.011 471.56 396.341 467.936 401.514 464.111V406.311H233.525V406.31Z" fill="#99442D"/>
<path d="M234.525 406.31H110.485V464.11C115.658 467.935 120.989 471.56 126.462 474.976H234.525C194.992 438.611 234.525 406.31 234.525 406.31Z" fill="#7B3723"/>
<path d="M338.108 130.038C336.179 130.038 334.22 129.637 332.348 128.791L295.859 112.295C288.814 109.11 285.684 100.816 288.87 93.771C292.055 86.726 300.348 83.599 307.394 86.782L343.883 103.278C350.928 106.463 354.058 114.757 350.872 121.802C348.534 126.976 343.439 130.038 338.108 130.038Z" fill="#A4E830"/>
<path d="M320.833 240.568H280.833C273.101 240.568 266.833 234.3 266.833 226.568C266.833 218.836 273.101 212.568 280.833 212.568H320.833C328.565 212.568 334.833 218.836 334.833 226.568C334.833 234.301 328.565 240.568 320.833 240.568Z" fill="#A4E830"/>
<path d="M207.766 257.315C209.164 254.465 209.186 250.999 207.519 248.018C181.143 200.886 127.75 188.604 125.49 188.104C120.099 186.912 114.761 190.319 113.567 195.709C112.376 201.094 115.77 206.427 121.151 207.628C121.619 207.734 168.152 218.627 190.065 257.786C192.763 262.606 198.856 264.326 203.676 261.629C205.514 260.6 206.903 259.075 207.766 257.315Z" fill="#2BA870"/>
<path d="M126.863 197.576C127.755 189.369 112.453 180.975 92.685 178.828C72.9171 176.68 56.1692 181.591 55.2776 189.798C54.3859 198.004 69.6881 206.398 89.456 208.546C109.224 210.694 125.972 205.782 126.863 197.576Z" fill="#73CF4A"/>
<path d="M158.824 203.871C165.926 200.099 163.867 182.328 154.227 164.177C144.586 146.027 131.014 134.371 123.913 138.142C116.812 141.914 118.87 159.686 128.51 177.836C138.151 195.987 151.723 207.643 158.824 203.871Z" fill="#A4E830"/>
<path d="M143.202 66.7892C151.802 53.3793 153.284 38.9879 146.513 34.645C139.741 30.3021 127.28 37.6524 118.679 51.0623C110.079 64.4722 108.597 78.8636 115.369 83.2065C122.14 87.5494 134.602 80.1991 143.202 66.7892Z" fill="#A4E830"/>
<path d="M407.762 315.531C423.672 314.83 436.283 307.749 435.929 299.714C435.576 291.68 422.391 285.735 406.481 286.436C390.57 287.137 377.959 294.218 378.313 302.252C378.667 310.286 391.852 316.231 407.762 315.531Z" fill="#73CF4A"/>
<path d="M95.4306 326.685C102.937 320.041 98.2934 302.534 85.0591 287.583C71.8248 272.632 55.0112 265.899 47.5049 272.543C39.9986 279.187 44.6421 296.694 57.8764 311.645C71.1107 326.596 87.9243 333.33 95.4306 326.685Z" fill="#2BA870"/>
<path d="M143.402 265.574C163.554 254.87 176.332 239.491 171.941 231.224C167.55 222.957 147.653 224.933 127.501 235.637C107.349 246.341 94.5715 261.719 98.9624 269.986C103.353 278.253 123.25 276.278 143.402 265.574Z" fill="#73CF4A"/>
</svg>
