<svg width="512" height="512" viewBox="0 0 512 512" fill="none" xmlns="http://www.w3.org/2000/svg">
<g clip-path="url(#clip0_1_1738)">
<path d="M256.008 21.996C120.697 21.996 11.006 131.687 11.006 266.998C11.006 367.501 71.53 453.855 158.112 491.64L230.12 510.64C238.628 511.534 247.263 512.001 256.008 512.001C264.753 512.001 273.388 511.534 281.896 510.64L353.904 491.64C440.485 453.855 501.009 367.502 501.009 266.998C501.01 131.687 391.319 21.996 256.008 21.996Z" fill="#AAE7FA"/>
<path d="M233.12 402.574C231.08 377.041 229.542 326.896 228.387 317.895C226.828 305.745 230.397 293.489 238.179 284.269C245.959 275.051 257.196 269.764 269.007 269.764H373.595C382.862 269.764 389.553 274.225 394.083 279.042C396.444 255.591 395.811 240.197 395.811 240.197H116.209C116.209 240.197 120.981 311.138 129.484 366.081C132.731 387.065 150.744 402.574 171.978 402.574H233.12Z" fill="#CF0D7D"/>
<path d="M232.653 402.574H339.524C360.71 402.574 378.723 387.137 381.999 366.205C387.3 332.333 393.117 288.808 394.149 278.366C389.569 273.605 382.865 269.278 373.594 269.278H269.006C243.939 269.278 224.614 292.179 227.921 317.959C229.095 327.103 230.636 377.145 232.653 402.574Z" fill="#EF018E"/>
<path d="M272.539 190.349C272.394 190.349 272.248 190.346 272.102 190.34C266.398 190.103 261.967 185.286 262.205 179.583C262.242 178.674 263.251 157.052 273.466 135.217C287.659 104.88 312.327 88.8459 344.801 88.8459C350.509 88.8459 355.137 93.4739 355.137 99.1819C355.137 104.89 350.509 109.518 344.801 109.518C320.589 109.518 302.887 121.112 292.189 143.978C283.711 162.098 282.866 180.263 282.858 180.443C282.627 186 278.049 190.349 272.539 190.349Z" fill="#007F6F"/>
<path d="M239.481 190.349C233.975 190.349 229.402 186.009 229.163 180.46C229.145 180.091 228.168 161.493 219.593 143.475C208.87 120.944 191.249 109.519 167.218 109.519C161.51 109.519 156.882 104.891 156.882 99.183C156.882 93.475 161.51 88.847 167.218 88.847C199.693 88.847 224.36 104.881 238.553 135.218C248.769 157.053 249.777 178.674 249.814 179.584C250.052 185.287 245.621 190.103 239.917 190.341C239.772 190.346 239.625 190.349 239.481 190.349Z" fill="#00626B"/>
<path d="M395.811 169.463H251.93C232.139 169.463 216.094 185.507 216.094 205.299C216.094 225.091 232.138 241.135 251.93 241.135H395.81C403.946 241.135 410.542 234.539 410.542 226.403V184.195C410.542 176.058 403.947 169.463 395.811 169.463Z" fill="#FE3BAE"/>
<path d="M217.032 205.298C217.032 185.506 233.076 169.462 252.868 169.462H116.209C108.073 169.462 101.478 176.058 101.478 184.194V226.402C101.478 234.538 108.074 241.134 116.209 241.134H252.867C233.076 241.134 217.032 225.09 217.032 205.298Z" fill="#EF018E"/>
<path d="M372.72 312.422C367.927 309.658 361.789 311.401 358.734 316.014C328.014 362.407 313.359 404.56 315.059 441.54C315.355 447.983 321.464 452.558 327.746 451.092C332.555 449.97 335.947 445.604 335.73 440.671C333.952 400.167 356.335 357.016 376.186 327.101C379.464 322.16 377.937 315.43 372.72 312.422Z" fill="#007F6F"/>
<path d="M153.058 315.671C149.77 310.716 142.951 309.517 138.151 313.188C133.781 316.531 132.999 322.818 136.037 327.405C155.82 357.282 178.024 400.229 176.295 440.565C176.082 445.539 179.427 449.961 184.275 451.092C190.523 452.55 196.658 448.033 196.957 441.624C198.687 404.532 183.957 362.234 153.058 315.671Z" fill="#00626B"/>
<path d="M367.564 331.722C365.601 331.722 363.616 331.164 361.858 329.997C357.102 326.841 355.805 320.426 358.961 315.67C381.859 281.163 396.561 245.58 401.477 212.77C405.726 184.409 402.495 158.404 392.376 139.545C381.986 120.182 365.091 109.517 344.801 109.517C339.093 109.517 334.465 104.889 334.465 99.181C334.465 93.473 339.093 88.845 344.801 88.845C372.656 88.845 396.636 103.762 410.591 129.771C431.456 168.657 433.374 240.916 376.185 327.099C374.196 330.098 370.911 331.722 367.564 331.722Z" fill="#007F6F"/>
<path d="M144.456 331.722C141.109 331.722 137.825 330.099 135.835 327.1C78.646 240.916 80.563 168.658 101.428 129.772C115.383 103.763 139.363 88.8459 167.218 88.8459C172.926 88.8459 177.554 93.4739 177.554 99.1819C177.554 104.89 172.926 109.518 167.218 109.518C146.928 109.518 130.033 120.183 119.643 139.546C109.524 158.405 106.293 184.409 110.542 212.771C115.458 245.582 130.161 281.164 153.059 315.671C156.215 320.427 154.918 326.841 150.162 329.998C148.403 331.164 146.419 331.722 144.456 331.722Z" fill="#00626B"/>
<path d="M324.2 427.715C327.545 413.102 339.258 409.093 349.863 408.56C344.827 402.703 338.569 398.561 331.315 396.761C305.725 390.412 277.464 415.565 268.191 452.941C263.122 473.371 272.422 495.115 281.897 510.638C293.383 509.432 304.628 507.423 315.584 504.683C307.417 483.604 319.527 448.13 324.2 427.715Z" fill="#2BA870"/>
<path d="M445.35 376.134C444.397 374.596 424.317 342.131 411.076 318.231C405.804 308.716 405.782 299.457 410.975 290.689C405.316 290.717 399.94 292.096 395.186 294.996C375.75 306.852 374.033 339.477 391.35 367.864C402.687 386.448 427.701 393.528 443.625 396.202C452.135 397.631 460.386 392.598 463.01 384.377C463.158 383.914 463.306 383.441 463.454 382.959C451.935 383.72 445.951 376.863 445.35 376.134Z" fill="#2BA870"/>
<path d="M311.851 277.715C311.851 277.715 346.2 253.382 370.2 238.048C379.904 231.848 389.266 230.664 396.979 231.451C396.338 229.821 395.566 228.239 394.622 226.728C382.56 207.42 349.919 206.05 321.717 223.668C303.254 235.202 296.441 260.29 293.937 276.242C292.69 284.186 297.055 291.84 304.329 294.899C304.623 284.187 311.851 277.715 311.851 277.715Z" fill="#2BA870"/>
<path d="M493.2 173.715L415.911 126.468C410.692 129.867 406.634 134.387 404.226 139.96C395.196 160.859 412.62 188.494 443.145 201.684C463.128 210.319 487.643 201.666 502.191 194.659C509.315 191.228 513.114 183.492 511.7 175.89C501.483 178.754 493.2 173.715 493.2 173.715Z" fill="#2BA870"/>
<path d="M356.616 81.119C348.36 70.931 348.427 55.854 356.774 45.272C361.017 39.891 366.588 33.251 373.33 25.54C380.835 16.955 391.266 13.029 401.703 11.563C399.806 4.91399 393.772 0.136995 386.669 0.0179953C371.833 -0.231005 348.048 1.98 334.695 16.874C314.298 39.625 310.39 69.389 325.967 83.354C335.207 91.637 349.226 92.5 363.361 87.084C360.795 85.454 358.529 83.479 356.616 81.119Z" fill="#2BA870"/>
<path d="M415.12 126.985L493.199 174.715C493.199 174.715 501.57 179.804 511.862 176.84C511.731 175.829 511.514 174.817 511.197 173.814C506.329 158.418 495.83 134.636 475.847 126.001C453.051 116.151 429.399 117.146 415.12 126.985Z" fill="#73CF4A"/>
<path d="M391.103 67.4449C404.456 52.5509 404.067 28.6669 402.205 13.9459C402.055 12.7609 401.764 11.6279 401.374 10.5439C390.819 12.0639 380.253 16.1019 372.577 24.8819C364.927 33.6319 359.637 40.0269 355.989 44.6529C347.421 55.5159 347.13 70.9999 355.839 81.7489C357.547 83.8569 359.629 85.8219 362.151 87.5199C372.242 83.9079 382.46 77.0859 391.103 67.4449Z" fill="#73CF4A"/>
<path d="M191.533 442.382C185.747 419.446 197.765 407.041 207.738 400.923C199.022 396.205 189.698 394.53 180.701 396.762C155.111 403.111 141.884 438.557 151.157 475.933C152.562 481.597 155 486.829 158.111 491.64C176.332 499.592 195.704 505.396 215.912 508.725C201.691 494.275 198.081 468.337 191.533 442.382Z" fill="#007F6F"/>
<path d="M84.665 349.301C86.068 346.759 87.4999 344.166 88.9209 341.523C97.3559 325.823 117.72 325.195 132.591 327.181C132.334 313.147 127.023 301.214 116.831 294.997C97.3949 283.141 67.601 296.542 50.284 324.93C38.947 343.514 44.098 368.995 49.007 384.378C51.631 392.599 59.8809 397.632 68.3919 396.203C70.0539 395.924 71.8199 395.594 73.6539 395.21C66.1909 382.767 74.596 367.537 84.665 349.301Z" fill="#007F6F"/>
<path d="M216.997 270.243C207.224 275.704 197.094 271.076 197.094 271.076C197.094 271.076 177.867 263.381 144.832 247.048C129.109 239.274 124.362 228.859 123.449 219.825C121.092 221.792 119.044 224.087 117.394 226.728C105.332 246.037 118.415 275.972 146.617 293.59C165.079 305.124 190.614 300.245 206.048 295.499C214.297 292.963 219.417 284.766 218.079 276.241C217.783 274.358 217.425 272.344 216.997 270.243Z" fill="#007F6F"/>
<path d="M107.79 139.96C106.611 137.23 105.029 134.757 103.118 132.538C91.604 150.132 61.323 158.114 38.231 168.463C24.012 174.836 11.769 172.882 2.527 168.763C1.895 170.519 1.324 172.214 0.816997 173.815C-1.785 182.043 2.049 190.915 9.824 194.659C24.372 201.665 48.886 210.319 68.87 201.684C99.396 188.493 116.821 160.859 107.79 139.96Z" fill="#007F6F"/>
<path d="M149.086 42.9901C145.155 38.8281 141.09 34.5241 136.573 30.0081C128.426 21.8611 124.635 13.4041 125.306 4.87006C125.439 3.18306 125.747 1.56106 126.179 0.00805664C125.9 0.0110566 125.618 0.0130566 125.345 0.0180566C117.417 0.151057 110.804 6.07906 109.81 13.9461C107.948 28.6671 107.559 52.5511 120.912 67.4451C141.309 90.1961 170.471 97.319 186.048 83.354C190.591 79.281 193.465 73.8581 194.767 67.6631C178.154 73.7461 166.633 61.5681 149.086 42.9901Z" fill="#007F6F"/>
<path d="M411.566 99.973C420.132 99.973 427.076 90.8454 427.076 79.586C427.076 68.3265 420.132 59.199 411.566 59.199C403 59.199 396.056 68.3265 396.056 79.586C396.056 90.8454 403 99.973 411.566 99.973Z" fill="#9739CF"/>
<path d="M392.964 76.495C404.223 76.495 413.351 69.5509 413.351 60.985C413.351 52.419 404.223 45.475 392.964 45.475C381.705 45.475 372.577 52.419 372.577 60.985C372.577 69.5509 381.705 76.495 392.964 76.495Z" fill="#9739CF"/>
<path d="M411.566 62.77C420.132 62.77 427.076 53.6424 427.076 42.383C427.076 31.1235 420.132 21.996 411.566 21.996C403 21.996 396.056 31.1235 396.056 42.383C396.056 53.6424 403 62.77 411.566 62.77Z" fill="#EF76F5"/>
<path d="M430.167 76.495C441.426 76.495 450.554 69.5509 450.554 60.985C450.554 52.419 441.426 45.475 430.167 45.475C418.908 45.475 409.78 52.419 409.78 60.985C409.78 69.5509 418.908 76.495 430.167 76.495Z" fill="#EF76F5"/>
<path d="M424.924 64.239C426.657 56.9092 422.12 49.5627 414.79 47.8301C407.46 46.0975 400.113 50.6348 398.381 57.9646C396.648 65.2944 401.186 72.6409 408.515 74.3735C415.845 76.1062 423.192 71.5688 424.924 64.239Z" fill="#7B3E9E"/>
<path d="M359.791 147.156C368.357 147.156 375.301 138.028 375.301 126.769C375.301 115.51 368.357 106.382 359.791 106.382C351.225 106.382 344.281 115.51 344.281 126.769C344.281 138.028 351.225 147.156 359.791 147.156Z" fill="#9739CF"/>
<path d="M341.189 123.677C352.448 123.677 361.576 116.733 361.576 108.167C361.576 99.601 352.448 92.657 341.189 92.657C329.93 92.657 320.802 99.601 320.802 108.167C320.802 116.733 329.93 123.677 341.189 123.677Z" fill="#9739CF"/>
<path d="M359.791 109.952C368.357 109.952 375.301 100.824 375.301 89.565C375.301 78.3056 368.357 69.178 359.791 69.178C351.225 69.178 344.281 78.3056 344.281 89.565C344.281 100.824 351.225 109.952 359.791 109.952Z" fill="#EF76F5"/>
<path d="M378.393 123.677C389.652 123.677 398.78 116.733 398.78 108.167C398.78 99.601 389.652 92.657 378.393 92.657C367.134 92.657 358.006 99.601 358.006 108.167C358.006 116.733 367.134 123.677 378.393 123.677Z" fill="#EF76F5"/>
<path d="M359.791 121.807C367.324 121.807 373.431 115.7 373.431 108.167C373.431 100.634 367.324 94.527 359.791 94.527C352.258 94.527 346.151 100.634 346.151 108.167C346.151 115.7 352.258 121.807 359.791 121.807Z" fill="#7B3E9E"/>
<path d="M146.616 337.541C155.182 337.541 162.126 328.413 162.126 317.154C162.126 305.895 155.182 296.767 146.616 296.767C138.05 296.767 131.106 305.895 131.106 317.154C131.106 328.413 138.05 337.541 146.616 337.541Z" fill="#9739CF"/>
<path d="M128.015 314.062C139.274 314.062 148.402 307.118 148.402 298.552C148.402 289.986 139.274 283.042 128.015 283.042C116.756 283.042 107.628 289.986 107.628 298.552C107.628 307.118 116.756 314.062 128.015 314.062Z" fill="#9739CF"/>
<path d="M146.616 300.337C155.182 300.337 162.126 291.209 162.126 279.95C162.126 268.691 155.182 259.563 146.616 259.563C138.05 259.563 131.106 268.691 131.106 279.95C131.106 291.209 138.05 300.337 146.616 300.337Z" fill="#EF76F5"/>
<path d="M165.218 314.062C176.477 314.062 185.605 307.118 185.605 298.552C185.605 289.986 176.477 283.042 165.218 283.042C153.959 283.042 144.831 289.986 144.831 298.552C144.831 307.118 153.959 314.062 165.218 314.062Z" fill="#EF76F5"/>
<path d="M146.616 312.192C154.149 312.192 160.256 306.085 160.256 298.552C160.256 291.019 154.149 284.912 146.616 284.912C139.083 284.912 132.976 291.019 132.976 298.552C132.976 306.085 139.083 312.192 146.616 312.192Z" fill="#7B3E9E"/>
<path d="M77.22 329.667C85.7859 329.667 92.73 320.539 92.73 309.28C92.73 298.021 85.7859 288.893 77.22 288.893C68.654 288.893 61.71 298.021 61.71 309.28C61.71 320.539 68.654 329.667 77.22 329.667Z" fill="#9739CF"/>
<path d="M58.6189 306.188C69.8784 306.188 79.0059 299.244 79.0059 290.678C79.0059 282.112 69.8784 275.168 58.6189 275.168C47.3595 275.168 38.2319 282.112 38.2319 290.678C38.2319 299.244 47.3595 306.188 58.6189 306.188Z" fill="#9739CF"/>
<path d="M77.22 292.464C85.7859 292.464 92.73 283.336 92.73 272.077C92.73 260.818 85.7859 251.69 77.22 251.69C68.654 251.69 61.71 260.818 61.71 272.077C61.71 283.336 68.654 292.464 77.22 292.464Z" fill="#EF76F5"/>
<path d="M95.8219 306.188C107.081 306.188 116.209 299.244 116.209 290.678C116.209 282.112 107.081 275.168 95.8219 275.168C84.5625 275.168 75.4349 282.112 75.4349 290.678C75.4349 299.244 84.5625 306.188 95.8219 306.188Z" fill="#EF76F5"/>
<path d="M86.8242 300.299C92.1502 294.973 92.1502 286.338 86.8242 281.012C81.4983 275.686 72.8632 275.686 67.5373 281.012C62.2113 286.338 62.2113 294.973 67.5373 300.299C72.8632 305.625 81.4983 305.625 86.8242 300.299Z" fill="#7B3E9E"/>
<path d="M77.22 244.287C85.7859 244.287 92.73 235.159 92.73 223.9C92.73 212.641 85.7859 203.513 77.22 203.513C68.654 203.513 61.71 212.641 61.71 223.9C61.71 235.159 68.654 244.287 77.22 244.287Z" fill="#9739CF"/>
<path d="M58.6189 220.808C69.8784 220.808 79.0059 213.864 79.0059 205.298C79.0059 196.732 69.8784 189.788 58.6189 189.788C47.3595 189.788 38.2319 196.732 38.2319 205.298C38.2319 213.864 47.3595 220.808 58.6189 220.808Z" fill="#9739CF"/>
<path d="M77.22 207.084C85.7859 207.084 92.73 197.956 92.73 186.697C92.73 175.438 85.7859 166.31 77.22 166.31C68.654 166.31 61.71 175.438 61.71 186.697C61.71 197.956 68.654 207.084 77.22 207.084Z" fill="#EF76F5"/>
<path d="M95.8219 220.808C107.081 220.808 116.209 213.864 116.209 205.298C116.209 196.732 107.081 189.788 95.8219 189.788C84.5625 189.788 75.4349 196.732 75.4349 205.298C75.4349 213.864 84.5625 220.808 95.8219 220.808Z" fill="#EF76F5"/>
<path d="M77.22 218.938C84.7531 218.938 90.86 212.831 90.86 205.298C90.86 197.765 84.7531 191.658 77.22 191.658C69.6868 191.658 63.58 197.765 63.58 205.298C63.58 212.831 69.6868 218.938 77.22 218.938Z" fill="#7B3E9E"/>
<path d="M433.138 158.078C441.704 158.078 448.648 148.95 448.648 137.691C448.648 126.432 441.704 117.304 433.138 117.304C424.572 117.304 417.628 126.432 417.628 137.691C417.628 148.95 424.572 158.078 433.138 158.078Z" fill="#9739CF"/>
<path d="M414.536 134.599C425.795 134.599 434.923 127.655 434.923 119.089C434.923 110.523 425.795 103.579 414.536 103.579C403.277 103.579 394.149 110.523 394.149 119.089C394.149 127.655 403.277 134.599 414.536 134.599Z" fill="#9739CF"/>
<path d="M433.138 120.874C441.704 120.874 448.648 111.746 448.648 100.487C448.648 89.2275 441.704 80.1 433.138 80.1C424.572 80.1 417.628 89.2275 417.628 100.487C417.628 111.746 424.572 120.874 433.138 120.874Z" fill="#EF76F5"/>
<path d="M451.74 134.599C462.999 134.599 472.127 127.655 472.127 119.089C472.127 110.523 462.999 103.579 451.74 103.579C440.48 103.579 431.353 110.523 431.353 119.089C431.353 127.655 440.48 134.599 451.74 134.599Z" fill="#EF76F5"/>
<path d="M446.487 122.363C448.22 115.034 443.682 107.687 436.353 105.954C429.023 104.222 421.676 108.759 419.944 116.089C418.211 123.419 422.748 130.765 430.078 132.498C437.408 134.231 444.754 129.693 446.487 122.363Z" fill="#7B3E9E"/>
<path d="M369.2 237.048C345.2 252.381 310.851 276.715 310.851 276.715C310.851 276.715 303.391 283.405 303.328 294.433C304.168 294.851 305.045 295.216 305.968 295.5C321.402 300.245 346.937 305.124 365.399 293.591C391.812 277.09 404.961 249.787 396.614 230.527C388.783 229.607 379.174 230.676 369.2 237.048Z" fill="#73CF4A"/>
<path d="M409.791 290.718C405.845 297.698 403.86 307.272 410.2 318.715C423.867 343.382 444.533 376.715 444.533 376.715C444.533 376.715 450.778 384.547 463.148 383.932C468.014 368.507 472.962 343.337 461.732 324.928C448.354 302.999 427.533 290.026 409.791 290.718Z" fill="#73CF4A"/>
<path d="M360.859 475.933C367.658 448.528 362.35 422.176 348.951 407.555C338.324 408.07 326.554 412.062 323.2 426.716C318.442 447.502 305.972 483.901 315.045 504.822C328.468 501.499 341.456 497.072 353.905 491.64C357.016 486.829 359.454 481.597 360.859 475.933Z" fill="#73CF4A"/>
<path d="M243.825 452.942C237.747 428.444 223.511 409.199 207.218 400.632C197.157 406.644 184.655 419.076 190.533 442.381C197.048 468.21 200.654 494.023 214.702 508.512C219.79 509.377 224.929 510.093 230.12 510.638C239.594 495.116 248.894 473.371 243.825 452.942Z" fill="#2BA870"/>
<path d="M217.175 271.136C214.073 255.345 206.892 234.034 190.298 223.668C165.911 208.433 138.216 207.408 123.367 219.892C124.045 229.135 128.564 240.006 144.831 248.049C177.866 264.382 197.093 272.077 197.093 272.077C197.093 272.077 207.347 276.755 217.175 271.136Z" fill="#2BA870"/>
<path d="M120.667 367.864C129.132 353.988 133.036 339.104 132.559 326.124C117.445 324.108 96.761 324.816 88.04 341.048C76.437 362.644 64.095 380.827 72.582 395.429C88.421 392.257 110.281 384.89 120.667 367.864Z" fill="#2BA870"/>
<path d="M103.485 132.963C90.937 117.827 62.962 114.424 36.169 126.001C17.924 133.885 7.58802 154.392 2.22302 169.618C11.501 173.833 23.853 175.907 38.233 169.462C61.573 159.001 92.259 150.959 103.485 132.963Z" fill="#2BA870"/>
<path d="M125.346 0.0179994C125.274 0.0189994 125.204 0.0289994 125.133 0.0309994C122.871 8.552 124.336 19.184 135.867 30.715C160.533 55.381 173.799 75.903 194.506 68.819C198.246 53.634 192.141 33.405 177.32 16.874C163.966 1.98 140.181 -0.232001 125.346 0.0179994Z" fill="#2BA870"/>
</g>
<defs>
<clipPath id="clip0_1_1738">
<rect width="512" height="512" fill="white"/>
</clipPath>
</defs>
</svg>
