<svg width="512" height="512" viewBox="0 0 512 512" fill="none" xmlns="http://www.w3.org/2000/svg">
<path d="M317.47 29.791C308.846 27.563 299.689 28.699 291.855 32.936C279.479 39.629 265.311 43.43 250.254 43.43C236.474 43.43 223.438 40.246 211.839 34.576C203.733 30.613 194.473 29.617 185.827 32.197C84.713 62.371 10.998 156.075 10.998 266.998C10.998 351.892 54.181 426.694 119.774 470.656H392.226C457.819 426.694 501.002 351.892 501.002 266.998C501.002 152.918 423.027 57.066 317.47 29.791Z" fill="#121D4C"/>
<path d="M253.646 55.993C252.519 55.931 251.39 55.89 250.255 55.89C188.454 55.89 138.355 148.739 138.355 263.273C138.355 274.964 138.886 286.425 139.889 297.588H189.065C188.509 286.647 188.215 275.416 188.215 263.958C188.215 151.71 215.992 60.715 250.256 60.715C251.394 60.715 252.525 60.822 253.647 61.021V55.993H253.646Z" fill="#00626B"/>
<path d="M318.385 98.757C300.104 72.7181 277.361 56.906 252.646 55.946V60.879C285.801 64.998 312.295 154.334 312.295 263.957C312.295 275.415 312.001 286.646 311.445 297.587H360.621C361.624 286.423 362.155 274.963 362.155 263.272C362.155 242.079 360.439 221.629 357.252 202.373L318.385 98.757Z" fill="#73CF4A"/>
<path d="M318.385 98.757C309.127 98.388 299.295 102.087 292.709 115.771C300.785 140.607 306.828 172.445 309.939 208.328C320.395 215.04 342.134 224.748 357.252 202.372C350.359 160.735 336.583 124.679 318.385 98.757Z" fill="#A4E830"/>
<path d="M253.646 56.188C252.523 55.994 251.393 55.89 250.255 55.89C215.293 55.89 186.95 148.739 186.95 263.273C186.95 274.964 187.25 286.425 187.818 297.588H253.646V56.188Z" fill="#007F6F"/>
<path d="M252.646 56.052V297.588H312.692C313.259 286.424 313.56 274.964 313.56 263.273C313.559 151.363 286.499 60.173 252.646 56.052Z" fill="#2BA870"/>
<path d="M226.517 451.012C224.853 438.514 228.662 425.906 236.968 416.421C245.272 406.939 257.265 401.5 269.871 401.5H381.5C391.391 401.5 398.533 406.089 403.367 411.044C405.888 386.92 405.212 371.084 405.212 371.084C388.636 371.084 123.364 371.084 106.788 371.084C106.788 371.084 104.848 416.479 119.774 470.655C154.365 493.838 195.187 508.439 239.199 511.421C232.818 490.434 228.904 468.942 226.517 451.012Z" fill="#01A2C3"/>
<path d="M403.439 410.349C398.551 405.452 391.395 401 381.5 401H269.871C243.117 401 222.491 424.557 226.021 451.078C228.459 469.391 232.376 490.7 238.649 511.386C244.381 511.787 250.166 512 256 512C306.417 512 353.272 496.764 392.226 470.656C398.422 448.166 401.71 427.193 403.439 410.349Z" fill="#63D9FA"/>
<path d="M405.212 295.588H251.646C230.522 295.588 213.398 312.712 213.398 333.836C213.398 354.96 230.522 372.084 251.646 372.084H405.212C413.896 372.084 420.935 365.044 420.935 356.361V311.312C420.935 302.628 413.896 295.588 405.212 295.588Z" fill="#AAE7FA"/>
<path d="M214.398 333.836C214.398 312.712 231.522 295.588 252.646 295.588H106.788C98.1041 295.588 91.0651 302.628 91.0651 311.311V356.36C91.0651 365.044 98.1051 372.083 106.788 372.083H252.646C231.522 372.085 214.398 354.96 214.398 333.836Z" fill="#63D9FA"/>
<path d="M319.533 68.626C303.136 86.848 274.297 91.57 263.057 81.456C251.818 71.342 262.433 50.22 278.831 31.999C295.228 13.777 304.695 21.582 315.934 31.696C327.174 41.811 335.93 50.405 319.533 68.626Z" fill="#FF90BA"/>
<path d="M180.976 68.626C197.373 86.848 226.212 91.57 237.452 81.456C248.692 71.342 238.076 50.22 221.678 31.999C205.281 13.777 195.814 21.582 184.575 31.696C173.335 41.811 164.579 50.405 180.976 68.626Z" fill="#EF018E"/>
<path d="M260.645 60.704C253.74 56.792 249.617 49.752 249.617 41.873V28.675C249.617 12.614 257.014 4.537 262.889 0.651C259.046 0.048 254.768 0 250.254 0C233.64 0 220.172 0.584 220.172 27.518C220.172 54.453 233.64 86.858 250.254 86.858C259.484 86.858 267.739 76.851 273.257 63.342C268.997 63.822 264.613 62.951 260.645 60.704Z" fill="#FE3BAE"/>
<path d="M261.5 0.458008C255.577 4.71401 248.616 13.034 248.616 28.674V41.873C248.616 55.557 260.529 65.441 272.815 64.398C277.493 53.392 280.336 39.882 280.336 27.518C280.337 7.03201 272.542 1.79401 261.5 0.458008Z" fill="#FD77CC"/>
</svg>
