<svg width="512" height="512" viewBox="0 0 512 512" fill="none" xmlns="http://www.w3.org/2000/svg">
<g clip-path="url(#clip0_1_1828)">
<path d="M396.082 470.656C461.675 426.694 504.858 351.892 504.858 266.998C504.858 131.687 395.167 21.9961 259.856 21.9961C124.545 21.9961 14.854 131.687 14.854 266.998C14.854 351.892 58.037 426.694 123.63 470.656H396.082Z" fill="#CF0D7D"/>
<path d="M446.752 245.696C445.672 244.152 422.856 211.455 397.562 167.204C378.969 134.679 357.382 108.723 346.583 96.566C346.398 96.555 346.213 96.546 346.028 96.524L346.004 96.521C325.308 94.067 306.25 108.483 303.334 129.12C300.281 150.725 305.902 171.553 315.095 189.994C333.646 227.207 367.039 254.896 406.72 267.322C423.873 272.694 439.964 279.84 452.001 285.783C461.485 290.466 472.662 283.766 473.002 273.194C473.156 268.407 473.421 263.086 473.847 257.427C458.703 258.097 447.5 246.494 446.752 245.696ZM359.643 175.981C355.194 187.183 347.352 194.581 342.127 192.506C336.902 190.431 336.272 179.668 340.72 168.466C345.168 157.264 353.011 149.865 358.236 151.941C363.461 154.016 364.091 164.779 359.643 175.981ZM392.482 219.038C390.899 227.335 385.805 233.335 381.104 232.438C376.403 231.541 373.875 224.088 375.458 215.79C377.041 207.493 382.135 201.493 386.836 202.39C391.537 203.287 394.065 210.741 392.482 219.038Z" fill="#73CF4A"/>
<path d="M227.901 125.099C234.92 129.201 240.495 135.021 244.471 142.4C257.062 165.765 263.446 194.87 263.446 228.905V297.589H279.446V228.905C279.446 192.192 272.418 160.534 258.556 134.81C253.241 124.947 245.432 116.812 235.973 111.285C232.157 109.055 227.259 110.341 225.03 114.156C222.801 117.97 224.086 122.869 227.901 125.099Z" fill="#007F6F"/>
<path d="M271.446 267.518C267.028 267.518 263.446 263.936 263.446 259.518V181.45C263.446 152.087 269.081 126.742 280.194 106.119C285.589 96.108 293.876 88.491 304.161 84.091C308.223 82.356 312.925 84.238 314.663 88.3C316.4 92.361 314.517 97.064 310.454 98.802C303.532 101.763 297.939 106.918 294.28 113.709C284.436 131.975 279.446 154.766 279.446 181.45V259.517C279.446 263.936 275.864 267.518 271.446 267.518Z" fill="#007F6F"/>
<path d="M271.446 189.45C267.028 189.45 263.446 185.868 263.446 181.45V91.449C263.446 69.526 237.825 52.6421 237.566 52.4771C233.836 50.1091 232.732 45.1651 235.101 41.4351C237.47 37.7061 242.414 36.6051 246.143 38.9711C247.503 39.8341 279.446 60.476 279.446 91.449V181.45C279.446 185.868 275.864 189.45 271.446 189.45Z" fill="#2BA870"/>
<path d="M227.185 256.484C228.013 257.15 243.7 270.106 250.002 297.588H266.347C259.331 261.847 238.179 244.775 237.107 243.932C233.647 241.211 228.656 241.81 225.918 245.256C223.179 248.702 223.754 253.727 227.185 256.484Z" fill="#2BA870"/>
<path d="M230.373 451.012C228.709 438.514 232.518 425.906 240.824 416.421C249.128 406.939 261.121 401.5 273.727 401.5H385.356C395.247 401.5 402.389 406.089 407.223 411.044C409.744 386.92 409.068 371.084 409.068 371.084C392.492 371.084 127.22 371.084 110.644 371.084C110.644 371.084 108.704 416.479 123.63 470.655C158.221 493.838 199.043 508.439 243.055 511.421C236.674 490.434 232.759 468.942 230.373 451.012Z" fill="#01A2C3"/>
<path d="M407.295 410.349C402.407 405.452 395.251 401 385.356 401H273.727C246.973 401 226.347 424.557 229.877 451.078C232.315 469.391 236.232 490.699 242.505 511.386C248.237 511.787 254.022 512 259.856 512C310.273 512 357.128 496.764 396.082 470.656C402.278 448.166 405.566 427.194 407.295 410.349Z" fill="#63D9FA"/>
<path d="M409.068 295.589H255.502C234.378 295.589 217.254 312.713 217.254 333.837C217.254 354.961 234.378 372.085 255.502 372.085H409.068C417.752 372.085 424.791 365.045 424.791 356.362V311.313C424.791 302.628 417.752 295.589 409.068 295.589Z" fill="#AAE7FA"/>
<path d="M218.254 333.837C218.254 312.713 235.378 295.589 256.502 295.589H110.644C101.96 295.589 94.921 302.629 94.921 311.312V356.361C94.921 365.045 101.961 372.084 110.644 372.084H256.502C235.378 372.085 218.254 354.961 218.254 333.837Z" fill="#63D9FA"/>
<path d="M53.815 329.941C54.102 318.764 58.962 309.959 58.995 309.899C59.822 308.529 141.861 172.545 158.345 143.106C164.422 132.253 174.184 125.541 184.027 121.375C181.818 121.334 179.584 121.432 177.332 121.699L177.302 121.702C171.861 122.347 166.671 119.234 164.679 114.13C155.112 89.621 127.726 76.96 103.013 85.985C77.162 95.425 57.328 114.045 42.268 135.226C11.851 178.006 0.822997 231.648 10.615 283.218C14.854 305.545 16.476 327.752 17.022 344.714C17.451 358.059 31.56 366.516 43.532 360.605C48.762 358.023 54.609 355.26 60.898 352.471C55.979 345.994 53.597 338.467 53.815 329.941ZM103.633 110.628C104.727 104.687 114.114 101.435 124.601 103.365C135.088 105.295 142.702 111.676 141.609 117.618C140.516 123.559 131.128 126.811 120.642 124.881C110.154 122.95 102.54 116.569 103.633 110.628ZM83.343 162.737C98.46 161.025 111.363 165.354 112.162 172.406C112.961 179.458 101.353 186.563 86.236 188.275C71.119 189.987 58.216 185.658 57.417 178.606C56.618 171.554 68.226 164.449 83.343 162.737ZM39.655 243.245C37.857 237.478 44.651 230.229 54.83 227.055C65.009 223.881 74.719 225.983 76.518 231.75C78.316 237.517 71.523 244.765 61.343 247.939C51.163 251.113 41.454 249.012 39.655 243.245Z" fill="#2BA870"/>
<path d="M181.349 121.401C172.146 125.692 163.231 132.333 157.472 142.616C140.805 172.381 58.139 309.381 58.139 309.381C58.139 309.381 44.988 332.815 59.982 352.877C72.182 347.434 86.129 341.861 100.691 337.301C150.78 321.615 192.932 286.663 216.349 239.689C227.954 216.41 235.049 190.12 231.195 162.847C227.704 138.141 205.88 120.51 181.349 121.401ZM133.025 293.267C127.091 294.399 120.661 286.826 118.663 276.352C116.665 265.878 119.856 256.47 125.79 255.338C131.724 254.206 138.154 261.779 140.152 272.253C142.15 282.727 138.959 292.135 133.025 293.267ZM182.227 242.861C175.631 245.48 165.731 236.141 160.116 222.001C154.501 207.861 155.296 194.274 161.892 191.655C168.488 189.035 178.387 198.375 184.003 212.515C189.618 226.655 188.823 240.241 182.227 242.861Z" fill="#73CF4A"/>
<path d="M200.346 223.258C196.245 223.258 192.753 220.123 192.386 215.961C188.123 167.624 153.456 152.526 151.983 151.907C147.923 150.202 145.987 145.529 147.672 141.462C149.358 137.395 153.995 135.445 158.071 137.111C159.91 137.862 203.176 156.19 208.325 214.554C208.713 218.955 205.46 222.838 201.059 223.226C200.819 223.248 200.581 223.258 200.346 223.258Z" fill="#007F6F"/>
<path d="M154.267 279.603C154.015 279.603 153.761 279.59 153.504 279.567C149.106 279.151 145.877 275.248 146.293 270.849C150.418 227.242 120.064 204.661 118.77 203.721C115.205 201.131 114.392 196.138 116.967 192.563C119.544 188.989 124.513 188.159 128.097 190.721C129.698 191.864 167.236 219.343 162.221 272.355C161.83 276.497 158.346 279.603 154.267 279.603Z" fill="#007F6F"/>
<path d="M103.054 314.651C102.502 314.651 101.941 314.593 101.38 314.473C97.059 313.553 94.301 309.303 95.222 304.982C101.215 276.847 84.806 257.204 84.64 257.008C81.773 253.647 82.173 248.598 85.535 245.73C88.897 242.864 93.946 243.263 96.813 246.625C97.702 247.666 118.49 272.55 110.872 308.315C110.07 312.074 106.749 314.651 103.054 314.651Z" fill="#007F6F"/>
<path d="M147.28 165.462C145.491 165.462 143.691 164.865 142.202 163.641C140.867 162.56 111.236 139.214 66.673 158.202C62.607 159.937 57.909 158.043 56.177 153.978C54.445 149.914 56.336 145.214 60.401 143.483C114.303 120.512 150.859 150.036 152.389 151.303C155.791 154.122 156.263 159.165 153.444 162.567C151.862 164.476 149.579 165.462 147.28 165.462Z" fill="#007F6F"/>
<path d="M35.578 226.055C32.985 226.055 30.441 224.796 28.901 222.472C26.461 218.789 27.469 213.825 31.152 211.385C75.545 181.975 117.471 202.133 119.234 203.005C123.194 204.964 124.816 209.763 122.857 213.723C120.901 217.674 116.115 219.299 112.163 217.357C110.681 216.638 76.481 200.549 39.99 224.723C38.629 225.624 37.095 226.055 35.578 226.055Z" fill="#007F6F"/>
<path d="M28.803 287.738C26.527 287.738 24.266 286.772 22.684 284.896C19.835 281.518 20.264 276.471 23.642 273.623C51.594 250.048 83.34 256.652 84.677 256.945C88.993 257.89 91.726 262.155 90.781 266.47C89.839 270.777 85.589 273.51 81.284 272.581C80.141 272.344 55.666 267.544 33.957 285.852C32.455 287.12 30.624 287.738 28.803 287.738Z" fill="#007F6F"/>
<path d="M404.88 68.2291C385.302 61.0801 363.607 71.1101 356.028 90.5261C354.45 94.5691 350.338 97.0361 346.028 96.5251L346.004 96.5221C345.717 96.4881 345.432 96.4691 345.146 96.4421C355.621 108.141 377.616 134.328 396.694 167.701C422.807 213.383 445.974 246.327 445.974 246.327C445.974 246.327 457.598 259.156 473.773 258.456C474.531 247.967 475.845 236.247 478.079 224.478C485.836 183.624 477.1 141.13 453.003 107.239C441.071 90.4581 425.359 75.7071 404.88 68.2291ZM390.915 99.0421C382.608 100.571 375.171 97.9951 374.304 93.2881C373.438 88.5811 379.47 83.5261 387.778 81.9971C396.085 80.4681 403.522 83.0441 404.389 87.7511C405.254 92.4581 399.222 97.5131 390.915 99.0421ZM418.171 149.264C406.195 147.908 396.999 142.279 397.632 136.692C398.265 131.105 408.486 127.676 420.462 129.032C432.438 130.388 441.634 136.016 441.001 141.603C440.368 147.191 430.147 150.62 418.171 149.264ZM455.072 192.811C453.647 197.379 445.955 199.044 437.891 196.53C429.827 194.015 424.445 188.273 425.87 183.705C427.295 179.136 434.987 177.471 443.051 179.985C451.114 182.5 456.496 188.242 455.072 192.811Z" fill="#A4E830"/>
<path d="M327.774 178.64C327.539 178.64 327.301 178.629 327.062 178.608C322.661 178.22 319.408 174.337 319.796 169.936C323.961 122.703 359.138 107.804 360.633 107.193C364.722 105.517 369.394 107.481 371.065 111.572C372.731 115.649 370.788 120.302 366.724 121.988C365.5 122.507 339.01 134.2 335.734 171.342C335.367 175.504 331.875 178.639 327.774 178.64Z" fill="#2BA870"/>
<path d="M364.274 223.276C360.196 223.276 356.712 220.171 356.319 216.028C352.257 173.09 382.741 150.777 384.041 149.848C387.635 147.28 392.633 148.11 395.201 151.705C397.763 155.29 396.943 160.268 393.373 162.844C392.353 163.589 369.078 181.003 372.249 214.522C372.665 218.92 369.437 222.824 365.037 223.24C364.781 223.263 364.527 223.276 364.274 223.276Z" fill="#2BA870"/>
<path d="M404.846 251.04C401.15 251.04 397.83 248.465 397.03 244.705C390.826 215.579 407.802 195.26 408.529 194.408C411.395 191.047 416.445 190.646 419.807 193.514C423.158 196.372 423.566 201.399 420.728 204.761C420.162 205.442 408.171 220.208 412.678 241.37C413.599 245.692 410.842 249.941 406.521 250.861C405.959 250.983 405.397 251.04 404.846 251.04Z" fill="#2BA870"/>
<path d="M369.812 132.853C367.512 132.853 365.23 131.867 363.648 129.958C360.829 126.557 361.3 121.514 364.702 118.694C365.947 117.663 395.665 93.6621 439.288 112.25C443.353 113.981 445.244 118.681 443.512 122.745C441.78 126.809 437.079 128.701 433.017 126.969C398.265 112.164 375.142 130.823 374.913 131.013C373.42 132.249 371.61 132.853 369.812 132.853Z" fill="#2BA870"/>
<path d="M458.3 180.855C456.783 180.855 455.249 180.424 453.89 179.523C425.524 160.733 398.656 173.65 398.388 173.783C394.431 175.743 389.63 174.123 387.67 170.161C385.71 166.201 387.332 161.402 391.292 159.443C392.724 158.734 426.768 142.363 462.726 166.185C466.41 168.625 467.417 173.589 464.977 177.272C463.437 179.596 460.893 180.855 458.3 180.855Z" fill="#2BA870"/>
<path d="M463.669 229.721C461.848 229.721 460.017 229.103 458.516 227.836C441.714 213.667 422.665 217.628 422.472 217.671C418.155 218.615 413.892 215.881 412.947 211.566C412.003 207.251 414.736 202.986 419.052 202.041C420.145 201.803 446.067 196.407 468.83 215.606C472.208 218.455 472.637 223.501 469.788 226.878C468.206 228.755 465.945 229.721 463.669 229.721Z" fill="#2BA870"/>
<path d="M443.229 255.326C440.51 255.326 437.859 253.94 436.36 251.438L353.118 112.569C343.087 95.8351 324.064 92.9761 310.455 98.8001C306.392 100.537 301.691 98.6541 299.953 94.5931C298.215 90.5311 300.099 85.8291 304.16 84.0911C327.094 74.2751 354.039 82.9851 366.841 104.342L450.083 243.211C452.354 247.001 451.124 251.914 447.335 254.186C446.047 254.959 444.629 255.326 443.229 255.326Z" fill="#2BA870"/>
<path d="M244.318 25.9221L244.306 25.918C242.228 25.213 240.888 23.192 241.048 21.003C241.816 10.4921 234.099 1.19105 223.607 0.192049C212.633 -0.852951 202.251 2.45805 193.153 7.51805C190.65 8.91005 188.253 10.448 185.948 12.099C184.779 18.444 184.291 27.055 188.961 33.6311C192.653 38.83 198.996 41.8701 207.817 42.6711L210.165 45.861C209.079 48.584 204.847 60.662 210.959 70.059C214.598 75.654 221.175 79.129 230.548 80.455C233.142 78.895 235.662 77.192 238.073 75.309C246.283 68.894 253.383 60.6131 256.693 50.0881C259.856 40.0361 254.297 29.3081 244.318 25.9221Z" fill="#A4E830"/>
<path d="M211.306 45.7251L208.356 41.7161C184.227 39.7531 185.026 21.7211 187.13 11.2731C171.895 21.7461 160.936 37.5321 156.188 55.5651C153.87 64.3681 150.626 72.6771 147.898 78.9031C145.752 83.8011 149.394 89.2921 154.742 89.2201C161.529 89.1281 170.428 89.3701 179.426 90.6531C197.745 93.2651 216.411 89.4141 231.919 79.6311C198.048 75.6301 211.306 45.7251 211.306 45.7251Z" fill="#73CF4A"/>
<path d="M167.127 81.58C164.535 81.58 161.991 80.322 160.452 77.999C158.011 74.316 159.017 69.352 162.7 66.911L237.435 17.375C241.118 14.935 246.083 15.939 248.523 19.623C250.964 23.306 249.958 28.27 246.275 30.711L171.54 80.247C170.18 81.149 168.645 81.58 167.127 81.58Z" fill="#2BA870"/>
<path d="M54.606 320.06C53.206 320.06 51.789 319.693 50.501 318.92C46.712 316.648 45.481 311.735 47.752 307.945L152.829 132.651C161.396 118.36 174.967 108.414 191.044 104.645C206.267 101.074 222.644 103.496 235.974 111.284C239.788 113.513 241.074 118.412 238.845 122.227C236.616 126.041 231.715 127.326 227.902 125.098C209.419 114.298 180.709 117.26 166.553 140.877L61.475 316.172C59.976 318.673 57.325 320.06 54.606 320.06Z" fill="#007F6F"/>
</g>
<defs>
<clipPath id="clip0_1_1828">
<rect width="512" height="512" fill="white"/>
</clipPath>
</defs>
</svg>
