<svg width="512" height="512" viewBox="0 0 512 512" fill="none" xmlns="http://www.w3.org/2000/svg">
<path d="M110.485 464.11H401.514C461.863 419.484 501.002 347.816 501.002 266.998C501.002 131.687 391.311 21.996 256 21.996C120.689 21.996 10.998 131.687 10.998 266.998C10.998 347.816 50.136 419.484 110.485 464.11Z" fill="#DBF8A0"/>
<path d="M108.766 190.547C109.05 183.546 114.413 177.763 121.373 176.953C135.521 175.305 150.273 179.621 161.536 190.066C172.799 200.51 178.213 214.896 177.636 229.127C177.352 236.128 171.989 241.911 165.029 242.722C150.881 244.369 136.129 240.054 124.866 229.609C113.602 219.164 108.188 204.778 108.766 190.547Z" fill="#2BA870"/>
<path d="M403.234 190.547C402.95 183.546 397.587 177.763 390.627 176.953C376.479 175.305 361.727 179.621 350.464 190.066C339.201 200.51 333.787 214.896 334.364 229.127C334.648 236.128 340.011 241.911 346.971 242.722C361.119 244.369 375.871 240.054 387.134 229.609C398.398 219.164 403.812 204.778 403.234 190.547Z" fill="#73CF4A"/>
<path d="M142.624 155.839C164.018 198.479 189.007 262.975 194.908 339.644H219.964C214.022 258.134 187.587 189.709 164.969 144.627C137.15 89.179 109.542 56.709 108.38 55.354C103.886 50.113 95.995 49.506 90.754 53.999C85.513 58.492 84.906 66.384 89.4 71.625C89.665 71.934 116.163 103.099 142.624 155.839Z" fill="#00626B"/>
<path d="M261.119 233.146C260.835 226.145 255.472 220.362 248.512 219.551C234.364 217.903 219.612 222.219 208.349 232.664C197.086 243.108 191.672 257.494 192.249 271.725C192.533 278.726 197.896 284.509 204.856 285.32C219.004 286.968 233.756 282.652 245.019 272.207C256.282 261.763 261.697 247.378 261.119 233.146Z" fill="#007F6F"/>
<path d="M260.316 172.598C258.922 164.325 251.679 158.264 243.29 158.351C226.236 158.528 209.364 165.88 197.561 179.986C185.758 194.092 181.496 211.996 184.329 228.814C185.723 237.087 192.965 243.148 201.355 243.061C218.409 242.884 235.281 235.532 247.084 221.426C258.888 207.321 263.149 189.416 260.316 172.598Z" fill="#2BA870"/>
<path d="M235.411 117.777C232.427 109.936 224.139 105.408 215.928 107.134C199.238 110.642 184.129 121.151 175.311 137.292C166.493 153.433 165.814 171.825 171.881 187.764C174.865 195.605 183.153 200.133 191.363 198.407C208.053 194.899 223.163 184.39 231.98 168.249C240.799 152.109 241.478 133.717 235.411 117.777Z" fill="#007F6F"/>
<path d="M205.171 58.403C200.042 50.594 189.941 47.662 181.428 51.511C164.122 59.336 150.217 74.394 144.507 94.065C138.797 113.736 142.478 133.898 152.905 149.774C158.034 157.583 168.135 160.515 176.648 156.666C193.954 148.841 207.859 133.783 213.569 114.112C219.279 94.441 215.598 74.278 205.171 58.403Z" fill="#2BA870"/>
<path d="M163.141 14.0069C157.507 7.90693 148.224 6.80793 141.321 11.4219C127.287 20.8029 117.289 36.0299 115.148 54.1079C113.007 72.1859 119.171 89.3269 130.625 101.727C136.259 107.827 145.542 108.926 152.445 104.311C166.479 94.9299 176.477 79.7029 178.618 61.6249C180.759 43.5479 174.595 26.4069 163.141 14.0069Z" fill="#007F6F"/>
<path d="M65.889 0.0849712C57.396 -0.756029 49.513 4.73497 47.359 12.993C42.979 29.78 45.69 48.304 56.384 63.656C67.078 79.008 83.514 87.972 100.779 89.682C109.272 90.523 117.155 85.032 119.309 76.774C123.689 59.987 120.978 41.463 110.284 26.111C99.589 10.759 83.153 1.79497 65.889 0.0849712Z" fill="#2BA870"/>
<path d="M317.091 339.643C322.97 263.287 347.782 199.033 369.024 156.538C395.486 103.604 422.338 71.931 422.605 71.616C427.091 66.375 426.483 58.489 421.245 53.998C416.003 49.506 408.11 50.112 403.619 55.353C402.457 56.708 374.849 89.178 347.03 144.626C324.411 189.708 297.976 258.132 292.034 339.643H317.091Z" fill="#007F6F"/>
<path d="M353.215 293.424C351.332 291.716 350.009 289.594 349.261 287.308C340.497 300.038 329.518 317.331 318.141 338.643H346.681C354.724 324.465 362.367 312.511 368.799 303.082C363.043 300.83 357.76 297.548 353.215 293.424Z" fill="#2BA870"/>
<path d="M250.881 233.146C251.165 226.145 256.528 220.362 263.488 219.551C277.636 217.903 292.388 222.219 303.651 232.664C314.914 243.108 320.328 257.494 319.751 271.725C319.467 278.726 314.104 284.509 307.144 285.32C292.996 286.968 278.244 282.652 266.981 272.207C255.717 261.763 250.303 247.378 250.881 233.146Z" fill="#2BA870"/>
<path d="M353.215 295.424C348.026 290.716 347.028 282.892 350.87 277.033C358.68 265.122 371.452 256.571 386.689 254.629C401.926 252.686 416.436 257.758 426.984 267.329C432.173 272.037 433.171 279.861 429.329 285.72C421.519 297.631 408.746 306.182 393.51 308.124C378.273 310.067 363.763 304.995 353.215 295.424Z" fill="#73CF4A"/>
<path d="M158.785 293.424C154.24 297.548 148.957 300.83 143.2 303.082C149.632 312.511 157.276 324.465 165.318 338.643H193.859C182.482 317.331 171.503 300.039 162.739 287.308C161.991 289.595 160.668 291.716 158.785 293.424Z" fill="#007F6F"/>
<path d="M158.785 295.424C163.974 290.716 164.972 282.892 161.13 277.033C153.32 265.122 140.548 256.571 125.311 254.629C110.074 252.686 95.564 257.758 85.016 267.329C79.827 272.037 78.829 279.861 82.671 285.72C90.481 297.631 103.253 306.182 118.49 308.124C133.727 310.067 148.237 304.995 158.785 295.424Z" fill="#2BA870"/>
<path d="M251.684 172.598C253.078 164.325 260.321 158.264 268.71 158.351C285.764 158.528 302.636 165.88 314.439 179.986C326.242 194.092 330.504 211.996 327.671 228.814C326.277 237.087 319.035 243.148 310.645 243.061C293.591 242.884 276.719 235.532 264.916 221.426C253.112 207.321 248.851 189.416 251.684 172.598Z" fill="#73CF4A"/>
<path d="M276.589 117.777C279.573 109.936 287.861 105.408 296.071 107.134C312.761 110.642 327.871 121.151 336.688 137.292C345.506 153.433 346.184 171.825 340.118 187.764C337.134 195.605 328.846 200.133 320.636 198.407C303.946 194.899 288.836 184.39 280.019 168.249C271.201 152.109 270.522 133.717 276.589 117.777Z" fill="#2BA870"/>
<path d="M306.829 58.403C311.958 50.594 322.059 47.662 330.572 51.511C347.878 59.336 361.783 74.394 367.493 94.065C373.203 113.736 369.522 133.898 359.095 149.774C353.966 157.583 343.865 160.515 335.352 156.666C318.046 148.841 304.141 133.783 298.431 114.112C292.721 94.441 296.402 74.278 306.829 58.403Z" fill="#73CF4A"/>
<path d="M348.859 14.0069C354.493 7.90693 363.776 6.80793 370.679 11.4219C384.713 20.8029 394.711 36.0299 396.852 54.1079C398.993 72.1859 392.829 89.3269 381.375 101.727C375.741 107.827 366.458 108.926 359.555 104.311C345.521 94.9299 335.523 79.7029 333.382 61.6249C331.241 43.5479 337.405 26.4069 348.859 14.0069Z" fill="#2BA870"/>
<path d="M446.111 0.0849712C454.604 -0.756029 462.487 4.73497 464.641 12.993C469.021 29.78 466.31 48.304 455.616 63.656C444.922 79.008 428.486 87.972 411.222 89.682C402.729 90.523 394.846 85.032 392.692 76.774C388.312 59.987 391.023 41.463 401.717 26.111C412.411 10.759 428.847 1.79497 446.111 0.0849712Z" fill="#73CF4A"/>
<path d="M385.08 337.643H233.525C233.525 337.643 194.93 367.715 233.525 406.31C233.525 406.31 233.246 406.539 232.767 406.97H401.514V354.078C401.514 345.001 394.156 337.643 385.08 337.643Z" fill="#F35922"/>
<path d="M234.525 337.643H126.92C117.844 337.643 110.486 345.001 110.486 354.078V406.97H233.768C234.248 406.539 234.526 406.31 234.526 406.31C195.93 367.715 234.525 337.643 234.525 337.643Z" fill="#99442D"/>
<path d="M232.829 474.316C233.063 474.536 233.286 474.756 233.526 474.976C233.526 474.976 217.909 487.823 221.67 509.604C232.888 511.179 244.347 512 256 512C304.007 512 348.78 498.179 386.581 474.316H232.829Z" fill="#7B3723"/>
<path d="M222.692 509.743C218.839 487.877 234.525 474.977 234.525 474.977C234.285 474.757 234.062 474.537 233.828 474.317H125.418C154.323 492.563 187.306 504.928 222.692 509.743Z" fill="#602A1B"/>
<path d="M233.525 406.31C233.525 406.31 193.991 438.611 233.525 474.977H385.537C391.011 471.56 396.341 467.936 401.514 464.111V406.311H233.525V406.31Z" fill="#99442D"/>
<path d="M234.525 406.31H110.485V464.11C115.658 467.935 120.989 471.56 126.462 474.977H234.525C194.991 438.611 234.525 406.31 234.525 406.31Z" fill="#7B3723"/>
</svg>
