<svg width="512" height="512" viewBox="0 0 512 512" fill="none" xmlns="http://www.w3.org/2000/svg">
<path d="M437.986 431.704C477.648 390.185 501.821 335.039 501.821 274.522C501.821 145.393 391.763 40.713 256 40.713C120.237 40.713 10.179 145.394 10.179 274.523C10.179 335.04 34.352 390.186 74.014 431.705L437.986 431.704Z" fill="#121D4C"/>
<path d="M149.728 139.867C142.284 116.576 135.221 96.9589 129.272 81.4869C124.978 70.3219 108.464 72.9589 107.869 84.9049C106.819 105.979 106.761 129.038 107.416 152.987C120.09 153.92 134.902 151.161 149.728 139.867Z" fill="#007F6F"/>
<path d="M153.699 263.216C163.967 259.287 172.293 254.871 179.713 251.157C174.55 227.922 169.086 206.288 163.589 186.421C138.958 186.459 122.987 193.269 110.024 208.62C111.146 226.144 112.524 243.694 114.053 260.889C120.961 266.221 133.44 270.968 153.699 263.216Z" fill="#007F6F"/>
<path d="M183.849 270.437C182.368 263.268 180.852 256.245 179.312 249.358C171.993 253.029 163.783 257.357 153.699 261.215C133.255 269.039 120.729 264.132 113.861 258.741C116.226 285.595 118.974 311.615 121.733 335.311H197.374C193.625 317.529 189.163 296.159 183.849 270.437Z" fill="#00626B"/>
<path d="M149.407 138.865C134.925 150.04 120.375 153.025 107.391 152.014C107.894 170.952 108.845 190.454 110.11 209.985C122.777 194.541 138.541 187.468 163.88 187.476C159.021 169.854 154.135 153.613 149.407 138.865Z" fill="#00626B"/>
<path d="M387.01 120.494C391.736 124.545 397.04 129.088 403.317 133.033C403.484 116.24 403.248 100.055 402.493 84.906C401.898 72.959 385.384 70.323 381.09 81.488C377.954 89.642 374.506 98.96 370.86 109.345C375.918 110.978 380.987 115.331 387.01 120.494Z" fill="#A4E830"/>
<path d="M395.833 266.216C398.006 242.39 399.9 217.789 401.246 193.464C384.2 190.93 366.386 183.69 352.895 167.027C352.749 166.846 352.605 166.679 352.459 166.502C343.591 196.614 334.561 231.483 326.513 270.437C326.265 271.636 326.021 272.815 325.777 273.995C345.175 262.984 366.883 251.045 395.833 266.216Z" fill="#A4E830"/>
<path d="M326.246 271.729C321.05 296.871 316.674 317.83 312.988 335.311H388.629C391.197 313.256 393.754 289.183 396.003 264.303C367.201 249.117 345.563 260.772 326.246 271.729Z" fill="#73CF4A"/>
<path d="M403.329 131.874C389.678 123.121 380.523 111.47 371.187 108.417C365.226 125.343 358.716 145.184 352.121 167.658C365.678 184.402 383.443 191.944 401.185 194.525C402.378 173.2 403.151 152.085 403.329 131.874Z" fill="#73CF4A"/>
<path d="M328.647 135.118C325.463 90.9249 320.815 47.647 314.091 10.33C311.684 -3.02904 292.714 -3.59504 289.505 9.59496C283.248 35.312 275.706 70.562 268.979 113.641C293.27 129.598 311.138 140.6 328.647 135.118Z" fill="#73CF4A"/>
<path d="M303.543 284.882C313.491 281.693 323.545 274.966 334.491 269.174C333.755 232.268 332.333 191.853 329.77 151.668C321.02 151.742 313.351 159.068 304.529 167.536C293.021 178.582 279.57 191.487 258.573 195.537C257.464 206.771 256.449 218.324 255.554 230.193C254.479 244.455 253.478 257.563 252.548 269.614C269.139 283.427 280.846 292.158 303.543 284.882Z" fill="#73CF4A"/>
<path d="M334.452 267.194C323.522 272.982 313.48 279.696 303.544 282.882C280.912 290.137 269.209 281.478 252.693 267.734C250.56 295.399 248.791 317.567 247.329 335.312H335.179C335.156 314.861 334.957 291.787 334.452 267.194Z" fill="#2BA870"/>
<path d="M328.577 134.137C311.406 139.688 293.857 128.796 269.152 112.557C265.171 137.922 261.47 166.021 258.479 196.517C296.993 189.174 310.799 152.709 329.834 152.66C329.442 146.475 329.024 140.297 328.577 134.137Z" fill="#2BA870"/>
<path d="M231.543 252.907C242.324 260.675 250.6 268.18 258.169 274.211C257.139 260.915 256.022 246.289 254.808 230.192C253.938 218.654 252.953 207.418 251.88 196.48C244.017 197.22 235.182 196.768 225.116 194.647C207.09 190.847 191.784 188.279 178.611 187.121C177.528 209.545 176.763 231.692 176.234 252.909C195.902 242.973 208.654 236.415 231.543 252.907Z" fill="#2BA870"/>
<path d="M258.005 272.08C250.481 266.073 242.246 258.618 231.544 250.907C208.674 234.43 195.924 240.962 176.286 250.883C175.5 281.59 175.212 310.396 175.183 335.311H263.033C261.648 318.505 259.988 297.731 258.005 272.08Z" fill="#007F6F"/>
<path d="M238.171 93.98C232.325 59.752 226.134 31.284 220.857 9.59397C217.648 -3.59503 198.679 -3.03003 196.271 10.329C191.133 38.844 187.208 70.841 184.221 104.066C203.037 82.489 209.198 77.066 238.171 93.98Z" fill="#2BA870"/>
<path d="M184.374 102.37C181.813 130.514 179.931 159.567 178.562 188.163C191.632 189.299 206.881 191.824 224.911 195.625C235.059 197.765 244.002 198.204 251.972 197.435C248.165 158.376 243.192 123.219 237.95 92.698C209.328 76.178 202.543 81.6 184.374 102.37Z" fill="#007F6F"/>
<path d="M215.617 377C216.018 377.333 216.424 377.667 216.848 378C216.848 378 176.611 435.527 223.826 509.995C234.095 511.307 244.556 512 255.182 512C327.079 512 391.743 481.031 436.561 431.704V377H215.617Z" fill="#63D9FA"/>
<path d="M73.802 431.704C112.23 473.997 165.254 502.774 224.911 510.126C177.566 435.595 217.848 378 217.848 378C217.424 377.667 217.018 377.333 216.617 377H73.802V431.704Z" fill="#01A2C3"/>
<path d="M396.29 333.311H212.079C204.724 341.603 193.729 359.8 216.848 378H436.561V373.582C436.561 351.341 418.531 333.311 396.29 333.311Z" fill="#AAE7FA"/>
<path d="M213.079 333.311H114.072C91.831 333.311 73.802 351.341 73.802 373.581V378H217.848C194.73 359.801 205.724 341.604 213.079 333.311Z" fill="#63D9FA"/>
</svg>
