<svg width="512" height="512" viewBox="0 0 512 512" fill="none" xmlns="http://www.w3.org/2000/svg">
<g clip-path="url(#clip0_1_1956)">
<path d="M256 21.9961C120.689 21.9961 10.998 131.687 10.998 266.998C10.998 360.334 63.195 441.472 139.986 482.835L190.947 503.252C211.665 508.944 233.474 512 256 512C274.007 512 291.554 510.039 308.455 506.352L346.948 494.551C437.224 458.437 501.002 370.17 501.002 266.998C501.002 131.687 391.311 21.9961 256 21.9961Z" fill="#AAE7FA"/>
<path d="M170.888 246.528C209.727 246.528 241.213 215.042 241.213 176.203C241.213 137.364 209.727 105.878 170.888 105.878C132.049 105.878 100.563 137.364 100.563 176.203C100.563 215.042 132.049 246.528 170.888 246.528Z" fill="#00626B"/>
<path d="M259.315 231.309C298.154 231.309 329.64 199.823 329.64 160.984C329.64 122.145 298.154 90.6589 259.315 90.6589C220.476 90.6589 188.99 122.145 188.99 160.984C188.99 199.823 220.476 231.309 259.315 231.309Z" fill="#00626B"/>
<path d="M234.442 131.14C260.451 105.132 260.451 62.9638 234.442 36.9553C208.433 10.9468 166.265 10.9468 140.257 36.9553C114.248 62.9638 114.248 105.132 140.257 131.14C166.265 157.149 208.434 157.149 234.442 131.14Z" fill="#00626B"/>
<path d="M343.405 246.528C382.245 246.528 413.73 215.042 413.73 176.203C413.73 137.364 382.245 105.878 343.405 105.878C304.566 105.878 273.08 137.364 273.08 176.203C273.08 215.042 304.566 246.528 343.405 246.528Z" fill="#2BA870"/>
<path d="M357.929 92.1262C365.94 58.2373 344.962 24.2709 311.073 16.2602C277.184 8.24946 243.218 29.2279 235.207 63.1167C227.196 97.0056 248.175 130.972 282.063 138.983C315.952 146.993 349.919 126.015 357.929 92.1262Z" fill="#2BA870"/>
<path d="M233.112 402.574C231.072 377.041 229.534 326.896 228.379 317.895C226.82 305.745 230.389 293.489 238.171 284.269C245.951 275.051 257.188 269.764 268.999 269.764H373.587C382.854 269.764 389.545 274.225 394.075 279.042C396.436 255.591 395.803 240.197 395.803 240.197H116.201C116.201 240.197 120.973 311.138 129.476 366.081C132.723 387.065 150.736 402.574 171.97 402.574H233.112Z" fill="#CF0D7D"/>
<path d="M232.645 402.574H339.516C360.702 402.574 378.715 387.137 381.991 366.205C387.292 332.333 393.109 288.808 394.141 278.366C389.561 273.605 382.857 269.278 373.586 269.278H268.999C243.932 269.278 224.607 292.178 227.914 317.959C229.087 327.103 230.628 377.146 232.645 402.574Z" fill="#EF018E"/>
<path d="M375.502 347.079C368.628 330.791 370.957 305.903 384.393 300.232C397.829 294.562 417.285 310.257 424.158 326.545C431.032 342.833 422.81 353.756 409.373 359.427C395.938 365.098 382.375 363.367 375.502 347.079Z" fill="#A4E830"/>
<path d="M272.531 190.349C272.386 190.349 272.24 190.346 272.094 190.34C266.39 190.103 261.959 185.286 262.197 179.583C262.234 178.674 263.243 157.052 273.458 135.217C287.651 104.88 312.319 88.8459 344.793 88.8459C350.501 88.8459 355.129 93.4739 355.129 99.1819C355.129 104.89 350.501 109.518 344.793 109.518C320.581 109.518 302.879 121.112 292.181 143.978C283.703 162.098 282.858 180.263 282.85 180.443C282.619 186 278.041 190.349 272.531 190.349Z" fill="#007F6F"/>
<path d="M239.473 190.349C233.967 190.349 229.394 186.009 229.155 180.46C229.137 180.091 228.16 161.493 219.585 143.475C208.862 120.943 191.241 109.519 167.21 109.519C161.502 109.519 156.874 104.891 156.874 99.1829C156.874 93.4749 161.502 88.8469 167.21 88.8469C199.685 88.8469 224.352 104.881 238.545 135.218C248.761 157.053 249.769 178.674 249.806 179.584C250.044 185.287 245.613 190.103 239.909 190.341C239.764 190.346 239.617 190.349 239.473 190.349Z" fill="#007F6F"/>
<path d="M395.803 169.463H251.923C232.132 169.463 216.087 185.507 216.087 205.299C216.087 225.091 232.131 241.135 251.923 241.135H395.803C403.939 241.135 410.535 234.539 410.535 226.403V184.195C410.535 176.058 403.939 169.463 395.803 169.463Z" fill="#FE3BAE"/>
<path d="M217.024 205.298C217.024 185.506 233.068 169.462 252.86 169.462H116.201C108.065 169.462 101.47 176.057 101.47 184.194V226.402C101.47 234.538 108.066 241.134 116.201 241.134H252.859C233.068 241.134 217.024 225.09 217.024 205.298Z" fill="#EF018E"/>
<path d="M372.712 312.422C367.919 309.659 361.781 311.401 358.726 316.014C328.006 362.407 313.351 404.56 315.051 441.54C315.347 447.983 321.456 452.558 327.738 451.092C332.547 449.97 335.939 445.604 335.722 440.671C333.944 400.167 356.327 357.016 376.178 327.101C379.456 322.16 377.929 315.43 372.712 312.422Z" fill="#007F6F"/>
<path d="M153.05 315.671C149.762 310.716 142.943 309.517 138.143 313.188C133.773 316.531 132.991 322.818 136.029 327.405C155.812 357.282 178.016 400.229 176.287 440.565C176.074 445.539 179.419 449.96 184.267 451.092C190.515 452.55 196.65 448.033 196.949 441.624C198.679 404.532 183.949 362.234 153.05 315.671Z" fill="#007F6F"/>
<path d="M367.557 331.722C365.594 331.722 363.609 331.164 361.851 329.997C357.095 326.841 355.798 320.426 358.954 315.67C381.852 281.163 396.554 245.58 401.47 212.77C405.719 184.409 402.488 158.404 392.369 139.545C381.979 120.182 365.084 109.517 344.794 109.517C339.086 109.517 334.458 104.889 334.458 99.181C334.458 93.473 339.086 88.845 344.794 88.845C372.649 88.845 396.629 103.762 410.584 129.771C431.449 168.657 433.367 240.916 376.178 327.099C374.188 330.098 370.904 331.722 367.557 331.722Z" fill="#2BA870"/>
<path d="M144.448 331.722C141.101 331.722 137.817 330.099 135.827 327.1C78.6381 240.916 80.5551 168.658 101.42 129.772C115.375 103.763 139.355 88.8459 167.21 88.8459C172.918 88.8459 177.546 93.4739 177.546 99.1819C177.546 104.89 172.918 109.518 167.21 109.518C146.92 109.518 130.025 120.183 119.635 139.546C109.516 158.405 106.285 184.409 110.534 212.771C115.45 245.582 130.153 281.164 153.051 315.671C156.207 320.427 154.91 326.841 150.154 329.998C148.395 331.164 146.411 331.722 144.448 331.722Z" fill="#2BA870"/>
<path d="M310.843 81.2679C310.843 98.9469 299.021 120.972 284.437 120.972C269.853 120.972 258.031 98.9469 258.031 81.2679C258.031 63.5889 269.853 56.7219 284.437 56.7219C299.021 56.7209 310.843 63.5879 310.843 81.2679Z" fill="#73CF4A"/>
<path d="M264.563 12.157C273.89 27.176 275.466 52.123 263.077 59.817C250.688 67.511 229.025 55.037 219.699 40.019C210.372 25 216.793 12.93 229.182 5.23597C241.57 -2.45903 255.236 -2.86203 264.563 12.157Z" fill="#73CF4A"/>
<path d="M379.806 69.649C372.179 85.598 352.012 100.367 338.855 94.076C325.698 87.784 324.535 62.814 332.162 46.865C339.789 30.916 353.417 29.821 366.574 36.113C379.73 42.404 387.433 53.699 379.806 69.649Z" fill="#A4E830"/>
<path d="M121.4 54.5341C136.846 63.1351 150.337 84.1791 143.242 96.9201C136.147 109.661 111.153 109.275 95.7071 100.674C80.2611 92.0731 80.0131 78.4031 87.1081 65.6621C94.2031 52.9211 105.955 45.9331 121.4 54.5341Z" fill="#73CF4A"/>
<path d="M73.307 108.284C90.784 110.951 110.773 125.96 108.574 140.377C106.374 154.794 82.818 163.159 65.342 160.492C47.865 157.825 42.86 145.102 45.06 130.686C47.258 116.268 55.83 105.617 73.307 108.284Z" fill="#73CF4A"/>
<path d="M331.025 158.733C314.966 151.34 299.903 131.392 306.001 118.144C312.099 104.897 337.049 103.367 353.109 110.76C369.168 118.153 370.463 131.763 364.364 145.011C358.265 158.258 347.084 166.126 331.025 158.733Z" fill="#73CF4A"/>
<path d="M394.144 145.741C378.085 138.348 363.022 118.4 369.12 105.152C375.218 91.905 400.168 90.375 416.228 97.768C432.287 105.161 433.582 118.771 427.484 132.019C421.384 145.266 410.203 153.133 394.144 145.741Z" fill="#A4E830"/>
<path d="M364.613 173.826C380.049 165.208 405.043 164.794 412.152 177.527C419.261 190.26 405.794 211.319 390.357 219.938C374.921 228.556 363.162 221.581 356.053 208.848C348.943 196.114 349.176 182.444 364.613 173.826Z" fill="#73CF4A"/>
<path d="M442.81 200.972C426.751 193.579 411.688 173.631 417.786 160.383C423.884 147.136 448.834 145.606 464.894 152.999C480.953 160.392 482.248 174.002 476.15 187.25C470.051 200.497 458.87 208.365 442.81 200.972Z" fill="#A4E830"/>
<path d="M350.751 412.347C341.455 397.309 339.93 372.359 352.335 364.69C364.74 357.022 386.377 369.539 395.673 384.577C404.969 399.615 398.524 411.672 386.119 419.341C373.714 427.009 360.047 427.384 350.751 412.347Z" fill="#A4E830"/>
<path d="M277.331 385.37C294.361 380.622 318.751 386.095 322.668 400.143C326.585 414.191 308.544 431.494 291.515 436.242C274.485 440.99 264.695 431.446 260.779 417.398C256.861 403.35 260.301 390.118 277.331 385.37Z" fill="#73CF4A"/>
<path d="M302.776 321.569C318.109 312.768 343.096 312.057 350.356 324.705C357.616 337.353 344.4 358.571 329.067 367.372C313.734 376.173 301.893 369.338 294.633 356.69C287.373 344.042 287.443 330.37 302.776 321.569Z" fill="#73CF4A"/>
<path d="M329.412 441.218C314.13 438.157 297.118 458.756 293.408 477.282C290.338 492.609 297.305 501.874 308.455 506.352C321.719 503.459 334.583 499.498 346.949 494.551C347.69 492.687 348.297 490.632 348.751 488.366C352.461 469.84 344.695 444.279 329.412 441.218Z" fill="#73CF4A"/>
<path d="M364.134 263.31C373.445 248.282 395.095 235.786 407.492 243.467C419.889 251.148 418.339 276.097 409.028 291.125C399.717 306.154 386.05 305.764 373.653 298.084C361.256 290.403 354.823 278.339 364.134 263.31Z" fill="#73CF4A"/>
<path d="M419.673 271.923C408.503 258.22 403.751 233.678 415.055 224.464C426.359 215.25 449.438 224.851 460.608 238.555C471.778 252.258 466.953 265.051 455.649 274.265C444.345 283.479 430.843 285.626 419.673 271.923Z" fill="#A4E830"/>
<path d="M140.162 139.63C143.496 122.268 159.261 102.869 173.582 105.619C187.904 108.37 195.36 132.229 192.026 149.59C188.692 166.952 175.786 171.466 161.464 168.715C147.143 165.965 136.828 156.992 140.162 139.63Z" fill="#A4E830"/>
<path d="M44.9841 210.096C57.8351 197.955 81.9631 191.423 91.9791 202.023C101.995 212.623 94.1041 236.343 81.2531 248.484C68.4021 260.625 55.2921 256.748 45.2761 246.147C35.2611 235.547 32.1341 222.237 44.9841 210.096Z" fill="#73CF4A"/>
<path d="M163.969 335.439C148.363 327.132 134.476 306.348 141.328 293.474C148.18 280.601 173.177 280.513 188.783 288.82C204.389 297.127 204.896 310.789 198.044 323.663C191.191 336.536 179.575 343.746 163.969 335.439Z" fill="#73CF4A"/>
<path d="M198.732 408.085C183.126 399.778 169.239 378.994 176.091 366.12C182.943 353.246 207.94 353.159 223.546 361.466C239.152 369.773 239.659 383.435 232.807 396.309C225.955 409.182 214.338 416.392 198.732 408.085Z" fill="#A4E830"/>
<path d="M182.83 464.67C170.569 457.545 150.632 468.498 139.987 482.835C155.988 491.454 173.06 498.338 190.948 503.252C195.075 488.128 193.27 470.737 182.83 464.67Z" fill="#73CF4A"/>
<path d="M132.301 408.319C146.576 397.889 171.334 394.441 179.938 406.216C188.542 417.991 177.733 440.531 163.459 450.961C149.184 461.391 136.665 455.897 128.061 444.122C119.456 432.346 118.026 418.749 132.301 408.319Z" fill="#73CF4A"/>
<path d="M82.414 283.522C86.775 266.389 103.664 247.961 117.797 251.558C131.93 255.155 137.954 279.415 133.594 296.548C129.233 313.681 116.082 317.42 101.949 313.822C87.816 310.226 78.053 300.655 82.414 283.522Z" fill="#73CF4A"/>
<path d="M107.028 362.802C111.389 345.669 128.279 327.241 142.412 330.838C156.545 334.435 162.569 358.695 158.208 375.828C153.847 392.961 140.696 396.7 126.563 393.102C112.43 389.506 102.667 379.935 107.028 362.802Z" fill="#73CF4A"/>
<path d="M70.507 182.86C73.842 165.498 89.606 146.099 103.928 148.849C118.25 151.6 125.706 175.459 122.372 192.82C119.037 210.182 106.132 214.696 91.81 211.945C77.488 209.195 67.173 200.222 70.507 182.86Z" fill="#A4E830"/>
<path d="M132.613 269.334C117.007 261.027 103.12 240.243 109.972 227.369C116.824 214.496 141.821 214.408 157.427 222.715C173.033 231.022 173.54 244.684 166.688 257.558C159.836 270.431 148.219 277.641 132.613 269.334Z" fill="#A4E830"/>
<path d="M260.895 85.169C258.425 102.675 243.642 122.832 229.202 120.795C214.761 118.758 206.131 95.298 208.601 77.792C211.071 60.286 223.736 55.138 238.177 57.175C252.617 59.212 263.364 67.663 260.895 85.169Z" fill="#A4E830"/>
<path d="M199.263 55.46C196.794 72.966 182.01 93.123 167.57 91.086C153.129 89.049 144.5 65.5891 146.969 48.083C149.438 30.577 162.104 25.429 176.545 27.466C190.986 29.503 201.733 37.954 199.263 55.46Z" fill="#A4E830"/>
<path d="M331.409 463.666C322.113 448.628 320.588 423.678 332.993 416.009C345.398 408.341 367.035 420.858 376.331 435.896C385.627 450.934 379.182 462.991 366.777 470.66C354.372 478.329 340.705 478.704 331.409 463.666Z" fill="#A4E830"/>
<path d="M177.845 477.825C169.116 461.068 169.448 434.355 183.271 427.155C197.094 419.955 219.174 434.994 227.903 451.751C236.632 468.508 228.816 480.854 214.993 488.054C201.17 495.254 186.574 494.582 177.845 477.825Z" fill="#A4E830"/>
</g>
<defs>
<clipPath id="clip0_1_1956">
<rect width="512" height="512" fill="white"/>
</clipPath>
</defs>
</svg>
