<svg width="512" height="512" viewBox="0 0 512 512" fill="none" xmlns="http://www.w3.org/2000/svg">
<g clip-path="url(#clip0_1_2009)">
<path d="M392.226 470.656C457.819 426.694 501.002 351.892 501.002 266.998C501.002 131.687 391.311 21.9961 256 21.9961C120.689 21.9961 10.9978 131.687 10.9978 266.998C10.9978 351.892 54.1808 426.694 119.774 470.656H392.226Z" fill="#F5D001"/>
<path d="M211.915 100.025C220.105 103.495 226.846 109.593 231.407 117.663C240.997 134.63 245.86 152.214 245.86 169.926V297.589H265.86V169.925C265.86 148.722 260.126 127.827 248.817 107.821C242.067 95.879 232.005 86.815 219.717 81.609C214.632 79.456 208.763 81.832 206.608 86.916C204.454 92.001 206.83 97.871 211.915 100.025Z" fill="#CF0D7D"/>
<path d="M283.453 297.588V222.04C283.453 205.575 287.974 189.229 296.889 173.455C301.129 165.954 307.395 160.284 315.009 157.059C319.736 155.056 321.945 149.601 319.942 144.872C317.938 140.145 312.482 137.937 307.755 139.938C296.333 144.778 286.978 153.204 280.703 164.306C270.19 182.905 264.86 202.329 264.86 222.039V297.588H283.453Z" fill="#EF018E"/>
<path d="M226.517 451.012C224.853 438.514 228.663 425.906 236.968 416.421C245.272 406.939 257.265 401.5 269.871 401.5H381.5C391.391 401.5 398.533 406.089 403.367 411.044C405.888 386.92 405.212 371.084 405.212 371.084C388.636 371.084 123.364 371.084 106.788 371.084C106.788 371.084 104.848 416.479 119.774 470.655C154.365 493.838 195.187 508.439 239.199 511.421C232.818 490.434 228.904 468.942 226.517 451.012Z" fill="#4A265D"/>
<path d="M403.439 410.349C398.551 405.452 391.395 401 381.5 401H269.871C243.117 401 222.491 424.557 226.021 451.078C228.459 469.391 232.376 490.699 238.649 511.386C244.381 511.787 250.166 512 256 512C306.417 512 353.271 496.764 392.226 470.656C398.422 448.166 401.71 427.193 403.439 410.349Z" fill="#62387A"/>
<path d="M405.212 295.588H251.646C230.522 295.588 213.398 312.712 213.398 333.836C213.398 354.96 230.522 372.084 251.646 372.084H405.212C413.896 372.084 420.935 365.044 420.935 356.361V311.312C420.936 302.628 413.896 295.588 405.212 295.588Z" fill="#9739CF"/>
<path d="M214.398 333.837C214.398 312.713 231.522 295.589 252.646 295.589H106.788C98.1039 295.589 91.0649 302.629 91.0649 311.312V356.361C91.0649 365.045 98.1049 372.084 106.788 372.084H252.646C231.522 372.085 214.398 354.96 214.398 333.837Z" fill="#62387A"/>
<path d="M73.2089 355.291C72.4329 342.781 76.4729 332.024 76.5269 331.879C77.2059 329.946 144.418 138.454 150.889 118.656C153.746 109.915 161.754 103.905 169.578 99.9561C157.515 93.2071 140.163 87.0701 118.71 89.2181C75.0059 93.5941 38.2539 119.491 16.2859 170.27C-5.43309 220.475 -5.20809 277.49 15.6369 328.032C16.1719 329.537 26.6369 352.377 36.1709 391.011C39.5309 404.627 55.8749 410.23 66.8819 401.538C75.3419 394.857 82.6779 389.441 89.2059 384.887C79.3919 378.062 74.0069 368.154 73.2089 355.291Z" fill="#FE3BAE"/>
<path d="M188.682 114.386C188.735 114.418 181.336 106.206 167.967 99.074C160.178 103.165 152.368 109.307 149.465 118.19C142.924 138.2 75.1129 331.381 75.1129 331.381C75.1129 331.381 61.5249 366.889 87.8999 385.808C112.101 368.778 125.268 363.563 142.545 350.752C204.639 306.488 218.471 236.99 218.75 236.408C228.286 196.263 222.607 152.405 188.682 114.386Z" fill="#FD77CC"/>
<path d="M36.463 203.134C33.368 203.135 30.356 201.537 28.683 198.672C26.176 194.38 27.623 188.868 31.915 186.361C76.199 160.499 122.604 171.244 124.56 171.715C129.393 172.877 132.368 177.738 131.205 182.57C130.044 187.397 125.189 190.368 120.369 189.219C119.959 189.122 78.856 179.79 40.994 201.903C39.566 202.738 38.004 203.134 36.463 203.134Z" fill="#CF0D7D"/>
<path d="M25.4539 274.633C23.1499 274.633 20.8479 273.754 19.0899 271.997C15.5749 268.482 15.5749 262.783 19.0899 259.268C52.8139 225.546 101.438 228.027 103.488 228.148C108.45 228.443 112.233 232.705 111.938 237.667C111.643 242.624 107.388 246.388 102.435 246.118C101.86 246.087 59.6639 244.15 31.8179 271.997C30.0599 273.754 27.7579 274.633 25.4539 274.633Z" fill="#CF0D7D"/>
<path d="M189.219 214.194C185.853 214.194 182.624 212.297 181.084 209.054C164.789 174.755 132.43 159.404 132.105 159.253C127.606 157.161 125.638 151.817 127.719 147.313C129.799 142.806 135.122 140.834 139.634 142.903C141.197 143.621 178.16 160.952 197.342 201.33C199.475 205.82 197.565 211.188 193.075 213.321C191.828 213.914 190.513 214.194 189.219 214.194Z" fill="#EF018E"/>
<path d="M169.445 296.135C165.292 296.135 161.559 293.243 160.654 289.019C156.076 267.658 146.879 249.143 133.315 233.987C123.133 222.609 114.157 217.485 114.068 217.435C109.751 215.001 108.196 209.526 110.611 205.199C113.026 200.872 118.469 199.303 122.807 201.699C124.546 202.66 165.541 225.922 178.253 285.248C179.295 290.108 176.199 294.893 171.339 295.934C170.704 296.069 170.07 296.135 169.445 296.135Z" fill="#EF018E"/>
<path d="M122.442 344.134C117.963 344.134 114.085 340.794 113.521 336.236C111.212 317.531 104.204 305.954 98.7298 299.536C93.3338 293.207 88.6038 290.769 88.5588 290.747C84.0778 288.597 82.1888 283.221 84.3398 278.739C86.4898 274.259 91.8648 272.365 96.3478 274.52C97.5498 275.096 125.847 289.165 131.386 334.031C131.994 338.964 128.49 343.457 123.556 344.066C123.182 344.111 122.81 344.134 122.442 344.134Z" fill="#EF018E"/>
<path d="M142.568 120.799C141.388 120.514 124.008 116.486 100.675 119.028C95.3529 119.608 91.6789 124.639 92.7779 129.879C93.7339 134.437 97.9979 137.505 102.629 137.004C122.962 134.804 138.129 138.246 138.377 138.305C143.197 139.453 148.052 136.483 149.213 131.656C150.375 126.822 147.401 121.961 142.568 120.799Z" fill="#CF0D7D"/>
<path d="M451.045 364.521C450.519 363.159 398.217 227.941 384.304 192.28C376.877 173.245 367.025 161.441 359.237 154.473C344.684 161.418 336.545 170.441 336.598 170.409C305.06 205.753 299.781 246.524 308.646 283.845C308.904 284.386 321.763 348.993 379.488 390.141C399.664 405.101 413.792 408.898 449.826 437.354C460.058 445.433 475.252 440.225 478.376 427.567C482.577 410.542 486.971 396.824 490.486 386.946C463.121 391.985 451.544 365.69 451.045 364.521Z" fill="#FE3BAE"/>
<path d="M401.645 147.013C383.885 145.234 369.145 149.564 358.21 154.965C365.968 161.83 375.94 173.594 383.373 192.644C397.446 228.715 450.113 364.882 450.113 364.882C450.113 364.882 461.973 392.778 490.105 388.024C494.201 376.398 497.194 369.781 497.464 369.021C516.842 322.036 517.051 269.034 496.861 222.362C476.438 175.156 442.273 151.082 401.645 147.013Z" fill="#FD77CC"/>
<path d="M478.113 252.911C480.99 252.912 483.791 251.427 485.346 248.763C487.676 244.773 486.331 239.649 482.341 237.319C441.173 213.277 398.034 223.266 396.216 223.704C391.723 224.784 388.958 229.303 390.039 233.796C391.118 238.283 395.631 241.045 400.112 239.977C400.493 239.887 438.703 231.212 473.901 251.768C475.228 252.544 476.681 252.911 478.113 252.911Z" fill="#EF018E"/>
<path d="M488.347 319.378C490.489 319.378 492.629 318.561 494.263 316.928C497.53 313.661 497.53 308.363 494.263 305.095C462.913 273.747 417.711 276.053 415.804 276.165C411.191 276.439 407.674 280.401 407.949 285.014C408.223 289.622 412.179 293.121 416.783 292.87C417.318 292.841 456.543 291.041 482.43 316.928C484.065 318.561 486.206 319.378 488.347 319.378Z" fill="#EF018E"/>
<path d="M336.108 263.193C339.237 263.193 342.239 261.429 343.67 258.415C358.818 226.53 388.9 212.259 389.203 212.119C393.385 210.174 395.215 205.207 393.28 201.019C391.346 196.829 386.398 194.996 382.204 196.919C380.751 197.586 346.389 213.698 328.557 251.234C326.574 255.408 328.35 260.399 332.523 262.381C333.682 262.933 334.904 263.193 336.108 263.193Z" fill="#CF0D7D"/>
<path d="M354.49 339.367C358.351 339.367 361.821 336.679 362.662 332.752C366.918 312.894 375.468 295.682 388.077 281.593C397.542 271.016 405.887 266.252 405.969 266.206C409.983 263.944 411.428 258.853 409.183 254.831C406.938 250.808 401.878 249.349 397.845 251.577C396.228 252.47 358.118 274.095 346.301 329.246C345.332 333.764 348.21 338.212 352.728 339.18C353.32 339.306 353.909 339.367 354.49 339.367Z" fill="#CF0D7D"/>
<path d="M398.185 383.988C402.348 383.988 405.954 380.883 406.478 376.645C408.624 359.256 415.14 348.494 420.228 342.528C425.245 336.644 429.641 334.378 429.683 334.357C433.849 332.358 435.605 327.36 433.605 323.194C431.606 319.029 426.609 317.269 422.442 319.272C421.324 319.808 395.019 332.886 389.87 374.595C389.304 379.181 392.563 383.357 397.149 383.924C397.497 383.967 397.843 383.988 398.185 383.988Z" fill="#CF0D7D"/>
<path d="M379.476 176.371C380.573 176.106 396.73 172.362 418.42 174.724C423.368 175.263 426.783 179.94 425.762 184.811C424.873 189.048 420.909 191.9 416.605 191.435C397.703 189.39 383.604 192.589 383.373 192.644C378.892 193.712 374.379 190.95 373.3 186.462C372.218 181.97 374.983 177.452 379.476 176.371Z" fill="#EF018E"/>
<path d="M281.56 108.015C278.576 105.756 275.872 103.313 273.528 100.671C255.521 129.312 245.723 162.958 245.723 196.838C245.723 202.403 250.234 206.914 255.799 206.914C261.364 206.914 265.875 202.403 265.875 196.838C265.875 167.404 274.206 138.172 289.536 113.102C286.805 111.677 284.143 109.971 281.56 108.015Z" fill="#EF018E"/>
<path d="M327.742 43.4801C312.704 66.0371 302.002 80.2041 296.11 87.6351C290.488 94.7251 288.254 104.046 290.558 112.797C290.811 113.758 291.124 114.727 291.49 115.695C308.21 122.9 327.414 118.819 347.897 91.7611C367.19 66.2761 374.577 37.6231 368.385 19.1321C354.616 20.8131 338.832 26.8461 327.742 43.4801Z" fill="#FD77CC"/>
<path d="M358.933 5.44601C339.867 -8.98699 304.014 6.25602 278.853 39.492C253.692 72.728 261.373 94.701 280.44 109.134C284.334 112.082 288.405 114.475 292.628 116.153C292.182 115.032 291.812 113.909 291.519 112.796C289.215 104.046 291.449 94.725 297.071 87.634C302.963 80.203 313.664 66.036 328.703 43.479C339.545 27.215 354.878 21.084 368.427 19.247C366.547 13.572 363.41 8.83501 358.933 5.44601Z" fill="#FE3BAE"/>
<path d="M71.7538 339.813C70.6768 339.813 69.5828 339.638 68.5078 339.269C63.2838 337.477 60.5018 331.79 62.2938 326.565L136.697 118.641C142.35 102.162 154.101 89.231 169.785 82.232C185.696 75.131 203.896 74.904 219.718 81.61C224.803 83.764 227.179 89.633 225.025 94.718C222.87 99.802 217.002 102.181 211.916 100.024C201.182 95.477 188.798 95.649 177.937 100.496C167.376 105.209 159.45 113.958 155.617 125.132L81.2118 333.055C79.7888 337.203 75.9078 339.813 71.7538 339.813Z" fill="#EF018E"/>
<path d="M445.305 379.971C446.306 379.971 447.323 379.808 448.323 379.465C453.179 377.799 455.766 372.512 454.1 367.655L384.933 174.364C379.678 159.044 368.754 147.024 354.174 140.517C339.383 133.916 322.463 133.705 307.756 139.939C303.029 141.942 300.82 147.398 302.823 152.125C304.827 156.851 310.281 159.063 315.01 157.057C324.989 152.83 336.501 152.99 346.598 157.495C356.415 161.876 363.784 170.009 367.347 180.397L436.514 373.688C437.836 377.545 441.444 379.971 445.305 379.971Z" fill="#EF018E"/>
</g>
<defs>
<clipPath id="clip0_1_2009">
<rect width="512" height="512" fill="white"/>
</clipPath>
</defs>
</svg>
