<svg id="Capa_1" enable-background="new 0 0 512 512" height="512" viewBox="0 0 512 512" width="512" xmlns="http://www.w3.org/2000/svg"><g><g><path d="m437.379 431.704c39.53-43.506 63.623-101.293 63.623-164.706 0-135.311-109.691-245.002-245.002-245.002s-245.002 109.691-245.002 245.002c0 63.414 24.092 121.2 63.623 164.706z" fill="#fedf30"/></g><path d="m208.384 239.551c-.121.136-.236.272-.359.408-4.975 5.519-9.357 11.053-13.368 16.549 9.81 19.978 17.926 45.898 20.338 78.805h20.032c-2.88-41.862-14.369-73.365-26.643-95.762z" fill="#3ecd8d"/><path d="m263.522 216.526c-8.942 30.692-16.181 69.982-17.782 118.785h20.01c1.342-39.633 6.523-72.543 13.226-99.346-4.656-6.451-9.725-12.951-15.454-19.439z" fill="#95db76"/><g><path d="m216.436 377c.401.333.808.667 1.231 1 0 0-40.237 57.527 6.977 131.995 10.269 1.312 20.731 2.005 31.356 2.005 71.897 0 136.56-30.969 181.379-80.296v-54.704z" fill="#c4573a"/></g><g><path d="m74.621 431.704c38.428 42.293 91.452 71.07 151.109 78.422-47.345-74.531-7.063-132.126-7.063-132.126-.424-.333-.83-.667-1.231-1h-142.815z" fill="#a74b30"/></g><g><path d="m397.109 333.311h-184.211c-7.355 8.292-18.35 26.489 4.769 44.689h219.713v-4.419c-.001-22.24-18.03-40.27-40.271-40.27z" fill="#f68157"/></g><g><path d="m213.898 333.311h-99.007c-22.241 0-40.27 18.029-40.27 40.27v4.419h144.046c-23.119-18.199-12.124-36.396-4.769-44.689z" fill="#c4573a"/></g><path d="m446.584 331.742c-16.738-9.819-20.444-30.26-20.479-30.465l-.011-.065-54.387-174.556-19.038-62.703c-6.509 1.94-14.01.54-19.431-5.101-7.548-7.855-14.855-14.177-21.866-19.225-26.546-19.115-62.496 6.749-52.345 37.846 2.66 8.149 3.037 16.298-.863 23.389-14.721 26.768-35.09 71.885 2.829 113.945 37.919 42.061 47.193 84.896 95.375 111.394 19.292 10.61 37.66 22.828 52.751 33.665 18.87 13.551 45.409 5.845 54.087-15.704.94-2.335 1.921-4.728 2.935-7.161-7.322-.17-13.861-1.917-19.557-5.259z" fill="#0095a3"/><path d="m436.486 112.004c-5.79-21.436-.596-39.729 15.44-54.372 3.204-2.926 6.543-5.402 9.724-7.467-3.351-2.038-6.609-3.89-9.675-5.576-7.091-3.9-11.137-10.983-13.255-19.29-8.082-31.698-52.293-34.287-64.474-3.927-3.217 8.018-6.002 17.27-8.17 27.946-1.612 7.938-7.543 13.227-14.376 14.893l19.048 62.736 54.369 174.5s6.098 35.466 40.611 36.544c6.542-15.774 14.628-33.477 23.996-50.51 20.128-36.6 16.251-69.138 17.385-107.136-42.674 4.302-57.522-19.838-70.623-68.341z" fill="#00b7a0"/><path d="m460.693 49.585c-15.3 10.079-34.076 29.712-25.172 62.679 12.661 46.878 26.99 73.419 71.56 69.071.341-12.324 1.185-25.216 3.53-39.005 8.513-50.045-23.842-77.077-49.918-92.745z" fill="#3ecd8d"/><g><path d="m310.036 209.634c-1.91.555-4.016.483-5.993-.349-4.582-1.927-6.734-7.204-4.807-11.785 25.759-61.243 75.727-59.559 77.841-59.457 4.965.239 8.796 4.457 8.557 9.422-.239 4.949-4.432 8.768-9.371 8.56-1.741-.058-39.764-.694-60.436 48.453-1.094 2.606-3.273 4.425-5.791 5.156z" fill="#d2f09e"/></g><g><path d="m351.258 273.232c-2.204.64-4.652.443-6.825-.746-4.362-2.383-5.966-7.851-3.582-12.213 23.058-42.197 54.586-47.688 55.922-47.904 4.908-.786 9.524 2.556 10.31 7.464.781 4.882-2.523 9.483-7.387 10.297-1.176.213-24.564 4.944-43.051 38.775-1.195 2.188-3.167 3.682-5.387 4.327z" fill="#d2f09e"/></g><path d="m339.336 118.358c13.767 5.119 24.482 16.777 28.666 31.185l17.286-5.019c-5.764-19.853-20.597-35.942-39.677-43.038-16.831-6.259-27.746-16.161-33.938-23.366-3.24-3.769-8.919-4.2-12.692-.958-3.769 3.24-4.198 8.923-.958 12.692 7.573 8.809 20.888 20.906 41.313 28.504z" fill="#d2f09e"/><g><path d="m299.276 130.614c-2.83.822-6.006.239-8.401-1.831-3.762-3.25-4.177-8.933-.928-12.694 14.062-16.278 34.554-21.687 35.417-21.916 4.814-1.238 9.72 1.66 10.959 6.475 1.214 4.722-1.553 9.534-6.202 10.884-.082.024-.163.046-.246.067-.297.079-16.052 4.386-26.305 16.256-1.181 1.366-2.681 2.29-4.294 2.759z" fill="#d2f09e"/></g><path d="m211.381 145.071c-3.247-5.905-2.934-12.691-.719-19.477 8.453-25.896-21.484-47.434-43.59-31.516-5.838 4.204-11.923 9.468-18.209 16.009-3.71 3.861-8.591 5.332-13.221 4.839-2.739 2.389-5.608 5.777-7.143 10.271-3.5 10.25-13.321 48-13.321 48l-44.428 152.417s-7.477 21.669 4.843 39.84c3.503-.888 6.922-2.429 10.081-4.698 12.567-9.025 27.863-19.199 43.928-28.034 40.124-22.066 47.846-57.737 79.423-92.763 31.578-35.026 14.616-72.597 2.356-94.888z" fill="#00b7a0"/><path d="m136.563 114.996c-6.906-.342-13.467-5.069-15.047-12.85-1.805-8.89-4.124-16.595-6.804-23.272-10.144-25.282-46.96-23.126-53.69 3.27-1.763 6.917-5.133 12.816-11.038 16.063-22.291 12.259-56.737 34.903-48.828 81.394 7.908 46.491-4.674 80.751 17.393 120.874 8.836 16.066 16.304 32.85 22.084 47.201 5.892 14.629 21.666 21.593 35.809 17.555-12.111-18.125-4.691-39.619-4.691-39.619l44.429-152.417s9.821-37.75 13.321-48c1.519-4.449 4.348-7.814 7.062-10.199z" fill="#0095a3"/><g><path d="m110.626 190.716c3.975 1.154 8.133-1.132 9.287-5.108 4.8-16.532 1.545-34.462-8.709-47.962-9.045-11.908-12.304-23.74-13.447-31.568-.597-4.096-4.402-6.931-8.499-6.334-4.095.598-6.932 4.403-6.334 8.499 1.397 9.572 5.366 24.018 16.342 38.47 7.398 9.74 9.735 22.717 6.251 34.715-1.152 3.976 1.134 8.134 5.109 9.288z" fill="#d2f09e"/></g><g><path d="m65.629 137.466c1.342.39 2.81.409 4.249-.025 12.502-3.774 25.61.25 25.727.293 3.965 1.283 8.165-.882 9.441-4.819 1.275-3.938-.882-8.164-4.819-9.441-.711-.222-17.535-5.559-34.681-.383-3.962 1.196-6.205 5.378-5.009 9.341.762 2.524 2.735 4.35 5.092 5.034z" fill="#d2f09e"/></g><g><path d="m33.922 211.724c2.097.609 4.441.301 6.373-1.042 36.918-25.663 63.81-7.333 64.076-7.145 3.385 2.38 8.059 1.569 10.443-1.816 2.382-3.385 1.569-8.06-1.816-10.443-1.441-1.014-35.831-24.484-81.259 7.096-3.398 2.362-4.239 7.033-1.875 10.432 1.018 1.466 2.467 2.456 4.058 2.918z" fill="#d2f09e"/></g><g><path d="m34.548 274.834c1.849.537 3.902.366 5.719-.64 15.208-8.417 27.648-10.063 35.407-9.962 7.66.099 12.062 1.848 12.102 1.868 3.795 1.631 8.21-.12 9.847-3.923 1.636-3.802-.121-8.21-3.923-9.847-1.03-.441-25.656-10.643-60.691 8.749-3.622 2.004-4.933 6.565-2.928 10.186.998 1.805 2.631 3.036 4.467 3.569z" fill="#d2f09e"/></g><g><path d="m68.626 335.368c3.975 1.154 8.133-1.133 9.287-5.108l42-144.651c3.484-11.998 12.407-21.706 23.871-25.969 17.009-6.326 28.098-16.4 34.404-23.736 2.698-3.139 2.341-7.871-.798-10.569-3.142-2.7-7.872-2.341-10.57.798-5.157 5.999-14.246 14.245-28.262 19.458-15.889 5.909-28.24 19.307-33.041 35.84l-42 144.651c-1.153 3.973 1.134 8.131 5.109 9.286z" fill="#effcd4"/></g><g><path d="m177.145 169.845c2.357.684 5.001.199 6.996-1.525 3.132-2.706 3.478-7.439.773-10.571-11.71-13.555-28.775-18.059-29.493-18.25-4.008-1.031-8.094 1.383-9.126 5.392-1.011 3.932 1.293 7.939 5.165 9.064.068.02.136.039.205.056.248.066 13.367 3.653 21.906 13.537.981 1.137 2.231 1.908 3.574 2.297z" fill="#effcd4"/></g><g><path d="m168.185 235.649c1.591.462 3.344.402 4.991-.29 3.816-1.604 5.608-5.999 4.003-9.814-21.451-51-63.062-49.597-64.822-49.512-4.134.199-7.325 3.712-7.126 7.846.199 4.121 3.691 7.302 7.803 7.128 1.45-.048 33.113-.578 50.328 40.349.911 2.17 2.726 3.685 4.823 4.293z" fill="#effcd4"/></g><g><path d="m133.857 288.61c1.835.533 3.874.369 5.684-.621 3.632-1.985 4.968-6.538 2.983-10.171-19.201-35.139-45.457-39.712-46.569-39.892-4.087-.654-7.931 2.129-8.586 6.216-.65 4.065 2.101 7.897 6.151 8.575.979.178 20.456 4.117 35.851 32.289.995 1.823 2.638 3.067 4.486 3.604z" fill="#effcd4"/></g><g><path d="m379.155 155.676c-4.773 1.386-9.767-1.36-11.153-6.133-5.764-19.853-1.855-41.384 10.458-57.595 10.861-14.3 14.776-28.508 16.147-37.908.717-4.919 5.286-8.323 10.206-7.606 4.918.718 8.324 5.287 7.606 10.206-1.678 11.495-6.444 28.842-19.624 46.197-8.884 11.696-11.69 27.28-7.507 41.688 1.386 4.772-1.36 9.765-6.133 11.151z" fill="#effcd4"/></g><g><path d="m433.189 91.731c-1.612.468-3.375.491-5.103-.031-15.014-4.533-30.753.3-30.895.352-4.761 1.54-9.804-1.059-11.337-5.787-1.532-4.729 1.059-9.804 5.787-11.337.853-.266 21.057-6.675 41.647-.46 4.758 1.436 7.451 6.458 6.015 11.217-.914 3.032-3.283 5.225-6.114 6.046z" fill="#effcd4"/></g><g><path d="m471.265 180.903c-2.518.731-5.332.362-7.653-1.252-44.333-30.817-76.626-8.806-76.945-8.58-4.064 2.858-9.678 1.885-12.54-2.181-2.86-4.065-1.884-9.679 2.181-12.54 1.73-1.217 43.028-29.401 97.579 8.522 4.081 2.837 5.09 8.445 2.252 12.527-1.223 1.761-2.964 2.949-4.874 3.504z" fill="#effcd4"/></g><g><path d="m470.514 256.689c-2.22.645-4.685.439-6.868-.769-18.262-10.107-33.201-12.084-42.518-11.962-9.199.12-14.484 2.219-14.533 2.243-4.557 1.959-9.859-.144-11.824-4.711-1.964-4.566.145-9.859 4.711-11.825 1.237-.53 30.809-12.78 72.881 10.507 4.35 2.407 5.923 7.884 3.516 12.232-1.2 2.166-3.161 3.645-5.365 4.285z" fill="#effcd4"/></g><path d="m418.438 323.247c1.386 4.773 6.379 7.52 11.153 6.133 4.774-1.386 7.52-6.379 6.134-11.153l-50.436-173.704-17.286 5.019z" fill="#effcd4"/></g></svg>