<svg id="Capa_1" enable-background="new 0 0 512.003 512.003" height="512" viewBox="0 0 512.003 512.003" width="512" xmlns="http://www.w3.org/2000/svg"><g><path d="m390.741 470.659c65.593-43.962 108.776-118.764 108.776-203.658 0-135.311-109.691-245.002-245.002-245.002s-245.002 109.691-245.002 245.002c0 84.894 43.183 159.696 108.776 203.658z" fill="#effcd4"/><g><path d="m360.265 210.57c-27.223 0-47.873-22.531-48.738-23.49-2.961-3.28-2.701-8.338.578-11.299 3.277-2.957 8.324-2.701 11.287.564.218.239 16.879 18.225 36.873 18.225 4.418 0 8 3.581 8 8s-3.582 8-8 8z" fill="#95db76"/></g><g><path d="m406.073 257.298c-27.223 0-47.873-22.531-48.738-23.49-2.961-3.28-2.701-8.338.578-11.299 3.277-2.958 8.324-2.701 11.287.564.218.239 16.879 18.225 36.873 18.225 4.418 0 8 3.581 8 8 0 4.418-3.582 8-8 8z" fill="#95db76"/></g><g><path d="m322.635 258.241c-22.738-14.968-27.599-45.142-27.794-46.419-.67-4.367 2.328-8.45 6.695-9.12 4.364-.668 8.438 2.321 9.117 6.678.051.319 4.078 24.503 20.779 35.497 3.69 2.429 4.713 7.39 2.284 11.081-2.429 3.69-7.391 4.712-11.081 2.283z" fill="#95db76"/></g><g><path d="m250.388 226.066c-24.89 11.026-52.896-1.211-54.076-1.738-4.036-1.799-5.847-6.53-4.048-10.565 1.799-4.031 6.517-5.841 10.548-4.055.296.13 22.814 9.827 41.095 1.729 4.039-1.789 8.765.035 10.555 4.074 1.79 4.04-.034 8.765-4.074 10.555z" fill="#00b7a0"/></g><g><path d="m364.414 159.501c-.351 0-.708-.023-1.066-.071-20.935-2.788-34.431-22.122-34.995-22.944-2.501-3.642-1.576-8.622 2.065-11.123 3.635-2.496 8.604-1.581 11.111 2.047.192.275 10.19 14.331 23.932 16.161 4.379.583 7.457 4.607 6.873 8.986-.535 4.021-3.971 6.944-7.92 6.944z" fill="#95db76"/></g><g><path d="m270.172 138.688c-.311-.165-.615-.352-.909-.562-17.191-12.268-20.062-35.671-20.175-36.661-.504-4.389 2.645-8.356 7.034-8.861 4.38-.503 8.342 2.633 8.859 7.012.041.333 2.293 17.434 13.577 25.486 3.596 2.566 4.431 7.563 1.864 11.159-2.357 3.302-6.761 4.276-10.25 2.427z" fill="#95db76"/></g><g><path d="m198.754 130.25c-.087.34-.199.68-.334 1.015-7.912 19.582-29.997 27.84-30.933 28.183-4.15 1.516-8.743-.62-10.259-4.769-1.513-4.142.611-8.726 4.748-10.252.314-.118 16.416-6.303 21.609-19.156 1.655-4.096 6.318-6.076 10.414-4.42 3.761 1.519 5.738 5.574 4.755 9.399z" fill="#3ecd8d"/></g><g><path d="m186.873 191.386c-.144.321-.312.636-.503.943-11.14 17.943-34.311 22.308-35.292 22.485-4.348.785-8.509-2.104-9.294-6.451-.783-4.339 2.092-8.494 6.429-9.29.33-.062 17.251-3.406 24.563-15.183 2.33-3.753 7.263-4.907 11.016-2.576 3.448 2.138 4.703 6.471 3.081 10.072z" fill="#95db76"/></g><g><path d="m85.402 154.163c-.008.352-.039.707-.094 1.065-3.237 20.87-22.857 33.948-23.69 34.494-3.695 2.422-8.654 1.391-11.077-2.304-2.417-3.688-1.395-8.635 2.285-11.065.279-.186 14.546-9.88 16.671-23.579.677-4.365 4.766-7.356 9.132-6.678 4.008.622 6.857 4.119 6.773 8.067z" fill="#95db76"/></g><g><path d="m138.661 193.369c-.349.038-.706.054-1.068.046-21.114-.489-36.638-18.236-37.288-18.992-2.883-3.348-2.507-8.399.84-11.282 3.341-2.878 8.38-2.509 11.268.823.221.252 11.692 13.134 25.551 13.455 4.416.103 7.915 3.766 7.812 8.183-.093 4.055-3.189 7.336-7.115 7.767z" fill="#95db76"/></g><g><path d="m77.661 244.25c.047.348.072.705.074 1.066.06 21.119-17.277 37.1-18.015 37.77-3.272 2.969-8.331 2.725-11.3-.546-2.964-3.265-2.726-8.312.53-11.286.246-.228 12.825-12.03 12.785-25.893-.012-4.418 3.559-8.01 7.977-8.022 4.056-.012 7.416 2.998 7.949 6.911z" fill="#3ecd8d"/></g><g><path d="m63.312 204.334c-.305.175-.625.333-.96.47-19.537 8.02-40.876-2.01-41.775-2.441-3.984-1.91-5.665-6.688-3.756-10.672 1.906-3.976 6.67-5.66 10.652-3.766.304.142 15.978 7.342 28.802 2.077 4.087-1.678 8.761.275 10.438 4.363 1.543 3.753.023 8-3.401 9.969z" fill="#3ecd8d"/></g><g><path d="m252.094 75.785c-.215.331-.456.653-.72.962-15.452 18.028-41.945 18.909-43.066 18.938-4.965.127-9.094-3.795-9.222-8.76-.127-4.956 3.78-9.079 8.736-9.222.377-.013 19.752-.829 29.894-12.663 3.232-3.771 8.911-4.208 12.682-.975 3.463 2.967 4.115 7.997 1.696 11.72z" fill="#95db76"/></g><g><path d="m318.443 157.984c-.308.17-.631.322-.968.453-19.677 7.672-40.834-2.737-41.725-3.183-3.949-1.981-5.545-6.788-3.565-10.737 1.977-3.941 6.769-5.54 10.718-3.576.301.148 15.845 7.624 28.761 2.589 4.116-1.605 8.755.431 10.359 4.548 1.473 3.779-.122 7.998-3.58 9.906z" fill="#95db76"/></g><g><path d="m291.313 199.14c-.33.122-.672.223-1.025.303-20.606 4.63-39.959-8.838-40.773-9.414-3.607-2.551-4.463-7.544-1.912-11.151 2.546-3.6 7.525-4.461 11.133-1.925.276.191 14.521 9.918 28.046 6.879 4.31-.968 8.591 1.741 9.558 6.052.889 3.957-1.322 7.889-5.027 9.256z" fill="#3ecd8d"/></g><g><path d="m337.9 105.772c-.246.251-.513.489-.797.712-16.65 12.993-39.903 9.091-40.885 8.918-4.351-.765-7.259-4.912-6.495-9.263.763-4.343 4.896-7.249 9.242-6.5.331.055 17.366 2.759 28.295-5.77 3.483-2.718 8.511-2.098 11.228 1.385 2.496 3.198 2.177 7.698-.588 10.518z" fill="#95db76"/></g><g><path d="m173.436 68.503c.189.296.361.609.514.937 8.918 19.144-.111 40.925-.5 41.843-1.723 4.068-6.418 5.969-10.486 4.247-4.06-1.72-5.963-6.4-4.256-10.466.128-.31 6.592-16.302.738-28.868-1.865-4.005-.131-8.764 3.874-10.63 3.677-1.713 7.99-.392 10.116 2.937z" fill="#3ecd8d"/></g><g><path d="m249.215 24.27c-.188.297-.399.585-.632.862-13.578 16.177-37.134 17.204-38.13 17.239-4.415.158-8.123-3.292-8.282-7.707-.158-4.407 3.278-8.11 7.685-8.282.335-.015 17.56-.919 26.472-11.537 2.84-3.384 7.887-3.825 11.27-.984 3.109 2.608 3.734 7.075 1.617 10.409z" fill="#95db76"/></g><g><path d="m197.479 66.443c-.348-.047-.698-.118-1.047-.214-20.369-5.58-31.14-26.555-31.589-27.445-1.988-3.946-.402-8.756 3.544-10.744 3.938-1.984 8.738-.408 10.735 3.523.154.298 8.169 15.572 21.539 19.234 4.26 1.167 6.769 5.569 5.601 9.829-1.072 3.914-4.87 6.349-8.783 5.817z" fill="#95db76"/></g><g><path d="m441.445 165.247c-.305-.175-.602-.373-.889-.593-16.756-12.856-18.814-36.344-18.893-37.338-.352-4.404 2.933-8.26 7.337-8.612 4.395-.351 8.246 2.92 8.611 7.315.03.334 1.687 17.503 12.686 25.942 3.505 2.689 4.167 7.712 1.477 11.217-2.47 3.217-6.906 4.038-10.329 2.069z" fill="#95db76"/></g><g><path d="m375.537 179.571c-1.934 0-3.149-.093-3.359-.111-4.403-.367-7.675-4.235-7.308-8.638.366-4.394 4.218-7.663 8.613-7.309.282.018 17.532 1.19 27.659-8.306 3.225-3.022 8.286-2.86 11.308.363s2.859 8.286-.363 11.308c-12.148 11.393-29.337 12.693-36.55 12.693z" fill="#baee63"/></g><g><path d="m444.005 182.825c-1.812-.674-2.919-1.185-3.11-1.275-3.999-1.879-5.717-6.644-3.839-10.643 1.875-3.991 6.624-5.712 10.621-3.848.258.115 16.018 7.226 28.82 1.855 4.076-1.709 8.763.207 10.473 4.282 1.709 4.074-.208 8.763-4.282 10.472-15.358 6.443-31.923 1.671-38.683-.843z" fill="#95db76"/></g><g><path d="m462.209 149.594c-1.929-.133-3.135-.31-3.344-.342-4.368-.67-7.365-4.753-6.695-9.12.668-4.358 4.736-7.354 9.096-6.698.28.037 17.409 2.395 28.166-6.381 3.425-2.793 8.464-2.283 11.257 1.141 2.792 3.423 2.282 8.463-1.141 11.256-12.905 10.527-30.143 10.641-37.339 10.144z" fill="#95db76"/></g><g><path d="m444.624 219.136c-.652-1.821-.974-2.997-1.028-3.2-1.138-4.269 1.4-8.653 5.669-9.791 4.26-1.136 8.636 1.388 9.784 5.646.078.272 4.789 16.907 17.143 23.241 3.932 2.017 5.486 6.837 3.47 10.769-2.016 3.931-6.837 5.485-10.768 3.469-14.821-7.598-21.838-23.344-24.27-30.134z" fill="#baee63"/></g><g><path d="m142.683 264.084c-.391 0-.785-.022-1.183-.069-5.485-.646-9.408-5.616-8.761-11.102 5.838-49.569-7.574-93.503-7.71-93.941-1.64-5.274 1.307-10.878 6.58-12.518 5.275-1.64 10.878 1.308 12.518 6.58.607 1.954 14.804 48.474 8.474 102.219-.598 5.088-4.918 8.831-9.918 8.831z" fill="#3ecd8d"/></g><g><path d="m42.197 256.045c-7.881 0-13.22-.596-13.846-.669-5.485-.643-9.411-5.611-8.768-11.096.642-5.483 5.608-9.404 11.087-8.769.577.065 38.742 4.178 60.253-11.833 4.43-3.297 10.694-2.379 13.993 2.051 3.297 4.431 2.379 10.695-2.051 13.993-18.692 13.913-44.817 16.323-60.668 16.323z" fill="#00b7a0"/></g><g><path d="m366.347 231.084c-5 0-9.319-3.743-9.919-8.831-6.331-53.745 7.867-100.265 8.475-102.219 1.64-5.274 7.244-8.219 12.518-6.58 5.272 1.639 8.219 7.242 6.582 12.514-.208.678-13.512 44.706-7.711 93.945.646 5.485-3.276 10.455-8.762 11.101-.397.047-.792.07-1.183.07z" fill="#3ecd8d"/></g><g><path d="m466.833 223.045c-15.85 0-41.973-2.409-60.667-16.322-4.431-3.297-5.349-9.562-2.051-13.993 3.296-4.431 9.562-5.35 13.992-2.051 21.564 16.052 59.873 11.876 60.257 11.832 5.491-.623 10.443 3.302 11.078 8.783.636 5.481-3.282 10.44-8.763 11.082-.626.073-5.967.669-13.846.669z" fill="#95db76"/></g><g><path d="m240.362 197.525c-2.482 0-4.968-.918-6.905-2.769-3.994-3.814-4.139-10.145-.325-14.138 42.689-44.696 62.15-98.193 62.342-98.728 1.862-5.2 7.587-7.902 12.786-6.044 5.199 1.862 7.905 7.586 6.044 12.786-.841 2.349-21.115 58.064-66.709 105.8-1.965 2.057-4.597 3.093-7.233 3.093z" fill="#3ecd8d"/></g><g><path d="m211.964 141.729c-.019 0-.036 0-.055 0-41.967-.225-81.488-37.471-83.15-39.057-3.996-3.812-4.145-10.142-.333-14.138 3.81-3.994 10.135-4.145 14.131-.34.351.334 35.497 33.353 69.459 33.535 5.522.03 9.976 4.531 9.946 10.054-.029 5.503-4.5 9.946-9.998 9.946z" fill="#00b7a0"/></g><g fill="#3ecd8d"><path d="m176.608 297.591h24.573c-8.465-12.801-18.26-24.227-29.346-34.157-15.591-13.965-33.307-24.713-52.655-31.946-33.207-12.414-57.279-41.368-69.613-83.732-1.544-5.303-7.094-8.349-12.397-6.806-5.303 1.544-8.35 7.094-6.806 12.397 17.9 61.482 54.37 86.616 81.813 96.875 19.571 7.316 43.843 21.183 64.431 47.369z"/><path d="m471.859 107.95c-5.296-1.543-10.853 1.503-12.396 6.806-12.333 42.364-36.405 71.318-69.613 83.732-19.348 7.233-37.063 17.981-52.654 31.946-19.872 17.8-35.63 40.373-46.916 67.157h21.906c22.913-48.469 58.116-70.443 84.668-80.369 27.442-10.259 63.913-35.393 81.812-96.875 1.544-5.302-1.504-10.853-6.807-12.397z"/><path d="m240.221 222.577c4.748 24.018 4.758 49.166.096 75.015h20.308c4.482-27.071 4.236-53.506-.783-78.893-4.933-24.949-14.276-48.326-27.771-69.48-23.831-37.355-26.142-84.271-6.683-135.674 1.955-5.165-.647-10.938-5.812-12.893-5.167-1.957-10.938.646-12.893 5.812-27.52 72.695-10.553 123.605 8.526 153.512 12.15 19.044 20.565 40.106 25.012 62.601z"/></g><path d="m225.032 451.015c-1.664-12.498 2.146-25.106 10.451-34.591 8.304-9.482 20.297-14.921 32.903-14.921h111.629c9.891 0 17.033 4.589 21.867 9.544 2.521-24.124 1.845-39.96 1.845-39.96-16.576 0-281.848 0-298.424 0 0 0-1.94 45.395 12.986 99.571 34.591 23.183 75.413 37.784 119.425 40.766-6.381-20.987-10.295-42.479-12.682-60.409z" fill="#693685"/><path d="m401.954 410.352c-4.888-4.897-12.044-9.349-21.939-9.349h-111.628c-26.754 0-47.38 23.557-43.85 50.078 2.438 18.313 6.355 39.621 12.628 60.308 5.732.401 11.517.614 17.351.614 50.417 0 97.271-15.236 136.226-41.344 6.195-22.49 9.484-43.463 11.212-60.307z" fill="#814aa0"/><path d="m195.354 296.591c-1.941-15.424-15.096-27.358-31.047-27.358s-29.106 11.934-31.047 27.358z" fill="#a74b30"/><path d="m239.076 296.591c1.057-3.139 1.638-6.496 1.638-9.991 0-17.288-14.015-31.303-31.303-31.303s-31.303 14.015-31.303 31.303c0 3.495.581 6.852 1.638 9.991z" fill="#8c3d27"/><path d="m280.707 296.591c3.228-4.924 5.112-10.809 5.112-17.136 0-17.288-14.015-31.303-31.303-31.303s-31.303 14.015-31.303 31.303c0 6.328 1.883 12.212 5.112 17.136z" fill="#8c3d27"/><path d="m329.284 296.591c1.057-3.139 1.638-6.496 1.638-9.991 0-17.288-14.015-31.303-31.303-31.303s-31.303 14.015-31.303 31.303c0 3.495.581 6.852 1.638 9.991z" fill="#c4573a"/><path d="m375.77 296.591c-1.941-15.424-15.096-27.358-31.047-27.358s-29.106 11.934-31.047 27.358z" fill="#f68157"/><path d="m403.728 295.591h-153.567c-21.124 0-38.248 17.124-38.248 38.248 0 21.124 17.124 38.248 38.248 38.248h153.566c8.684 0 15.723-7.04 15.723-15.723v-45.049c.001-8.684-7.039-15.724-15.722-15.724z" fill="#af66da"/><path d="m212.913 333.84c0-21.124 17.124-38.248 38.248-38.248h-145.858c-8.684 0-15.723 7.04-15.723 15.723v45.049c0 8.684 7.04 15.723 15.723 15.723h145.858c-21.124.001-38.248-17.124-38.248-38.247z" fill="#814aa0"/></g></svg>