<svg id="Capa_1" enable-background="new 0 0 512 512" height="512" viewBox="0 0 512 512" width="512" xmlns="http://www.w3.org/2000/svg"><g><path d="m434.146 435.179-356.308-.018c-41.432-43.879-66.84-103.051-66.84-168.163 0-135.311 109.691-245.002 245.002-245.002s245.002 109.691 245.002 245.002c0 65.121-25.415 124.3-66.856 168.181z" fill="#1d2e79"/><g><path d="m241.184 125.35c-3.773 0-7.133-2.682-7.854-6.525-3.646-19.426-10.739-33.62-21.081-42.188-3.401-2.819-3.875-7.862-1.056-11.264 2.818-3.402 7.859-3.877 11.265-1.056 13.294 11.015 22.243 28.361 26.597 51.557.815 4.343-2.044 8.523-6.387 9.339-.498.091-.995.137-1.484.137z" fill="#3ecd8d"/></g><g><path d="m270.816 125.35c-.489 0-.986-.045-1.484-.139-4.343-.815-7.202-4.996-6.387-9.339 4.353-23.195 13.303-40.542 26.597-51.557 3.404-2.82 8.447-2.346 11.265 1.056 2.819 3.402 2.346 8.445-1.056 11.264-10.342 8.568-17.435 22.763-21.081 42.188-.721 3.844-4.08 6.527-7.854 6.527z" fill="#3ecd8d"/></g><path d="m180.744 63.317c-.472.106-.946.198-1.415.326-8.765 2.4-15.503 8.547-20.026 18.268-7.575 16.277-15.656 37.818-22.405 57.076.2.061.399.11.6.174l-8.628 25.056c-.157-.01-.336-.018-.528-.025-4.217 12.808-6.896 21.519-6.967 21.75l-8.569 26.067c-.057.227-1.354 5.633.316 11.934 1.012 3.814 3.296 8.412 8.254 12.118 5.311-4.52 11.354-9.197 18.041-13.609-2.702-6.435-5.854-11.188-8.831-14.645-6.306-7.319-8.213-17.705-4.977-27.104l4.423-12.845c18.854 6.994 28.02 23.891 32.301 41.215 8.254-6.025 16.755-16.172 23.985-28.55-4.052-16.779-12.14-28.707-19.4-36.533-9.785-10.546-19.655-15.686-22.764-17.142l8.58-24.917c24.237 8.911 37.682 33.23 44.966 54.112 10.173-28.509 11.738-61.308-7.155-83.732-2.905-3.442-6.208-6.449-9.801-8.994z" fill="#95db76"/><path d="m113.775 212.25 8.549-25.995s20.201-65.922 37.885-103.922c5.334-11.461 13.209-16.617 21.608-18.237-12.014-8.974-27.539-12.586-42.53-9.433-19.479 4.098-34.467 17.773-45.073 35.117 18.144-10.855 41.768-19.665 64.54-12.347l-8.584 24.926c-6.308-1.379-39.804-7.046-69.742 19.242-4.109 14.189-5.947 28.553-5.554 40.872 15.217-15.775 37.611-31.271 62.623-23.312l-8.628 25.056c-4.521-.277-24.059.102-48.401 23.609 7.977 16.881 12.107 34.379 14.233 48.009 1.439 9.227 12.609 13.073 19.424 6.689 2.442-2.288 5.126-4.685 8.017-7.12-11.92-8.713-8.367-23.154-8.367-23.154z" fill="#3ecd8d"/><path d="m160.209 76.715-9.296 26.995s-37.859-10.551-71.047 19.875c3.458-12.6 8.707-25.134 15.761-36.053 18.331-10.578 41.818-18.656 64.582-10.817z" fill="#d2f09e"/><path d="m138.954 138.441-9.296 26.995s-21.327-2.956-48.662 23.509c-.409-.884-.82-1.768-1.25-2.649-3.12-6.397-4.761-15.321-4.913-25.542 15.599-15.927 38.433-31.159 64.121-22.313z" fill="#d2f09e"/><path d="m198.336 154.21c-3.384 9.905-7.82 19.336-12.83 27.689-9.17-40.565-42.773-54.433-42.773-54.433l9.296-26.995c24.89 8.571 38.745 32.668 46.307 53.739z" fill="#effcd4"/><path d="m163.408 208.262c-2.358 1.818-4.702 3.316-6.995 4.435-6.387 3.115-12.392 6.663-17.954 10.387-2.644-6.347-5.752-11.061-8.739-14.529-6.673-7.746-8.521-18.554-5.191-28.221l4.799-13.938c19.948 6.869 29.598 24.123 34.08 41.866z" fill="#effcd4"/><g><path d="m125.074 186.745c-.913.001-1.842-.157-2.75-.49-4.148-1.52-6.28-6.114-4.761-10.263l33.646-91.879c5.1-13.927 16.713-24.557 31.063-28.435 14.26-3.855 28.907-.706 40.185 8.636 3.402 2.819 3.876 7.862 1.057 11.265-2.818 3.401-7.862 3.876-11.264 1.057-7.222-5.983-16.625-7.993-25.804-5.512-9.48 2.562-16.849 9.302-20.214 18.491l-33.646 91.879c-1.186 3.241-4.25 5.251-7.512 5.251z" fill="#95db76"/></g><path d="m330.965 65.485c8.564 2.216 15.268 8.255 19.924 17.948 2.748 5.72 5.51 12.006 8.223 18.562.052-.019.103-.042.155-.061l.934 2.712c15.092 37.042 28.354 81.347 28.495 81.809.16.791 4.099 19.462 17.916 27.06 4.409 2.425 9.322 3.418 14.677 2.995 2.389-9.207 5.686-19.044 10.242-28.683-24.341-23.508-43.88-23.886-48.401-23.609l-8.628-25.056c25.012-7.959 47.406 7.537 62.623 23.312.393-12.319-1.445-26.683-5.554-40.872-29.938-26.288-63.434-20.621-69.742-19.242l-8.584-24.926c22.773-7.318 46.397 1.491 64.54 12.347-10.606-17.344-25.595-31.02-45.073-35.117-15.51-3.263-31.592.715-43.765 10.381.676.124 1.349.267 2.018.44z" fill="#95db76"/><path d="m389.676 186.255s-19.15-64.255-37.885-103.255c-5.587-11.63-13.472-16.982-21.787-18.768-3.109 2.343-5.985 5.041-8.547 8.082-18.893 22.424-17.328 55.223-7.155 83.732 7.284-20.883 20.728-45.201 44.966-54.112l8.58 24.917c-3.109 1.456-12.98 6.597-22.765 17.142-7.26 7.826-15.347 19.754-19.4 36.533 7.231 12.378 15.732 22.525 23.985 28.55 4.281-17.324 13.447-34.221 32.301-41.215l4.423 12.845c3.237 9.399 1.329 19.784-4.977 27.104-2.978 3.457-6.13 8.21-8.831 14.645 9.952 6.566 18.52 13.729 25.29 20.071 6.815 6.384 17.985 2.538 19.424-6.689.957-6.133 2.324-13.053 4.261-20.343-25.469 2.298-31.883-29.239-31.883-29.239z" fill="#3ecd8d"/><path d="m351.79 76.715 9.296 26.995s37.859-10.551 71.047 19.875c-3.459-12.6-8.707-25.134-15.761-36.053-18.33-10.578-41.817-18.656-64.582-10.817z" fill="#effcd4"/><path d="m373.046 138.441 9.296 26.995s21.327-2.956 48.661 23.509c.409-.884.82-1.768 1.25-2.649 3.12-6.397 4.761-15.321 4.913-25.542-15.598-15.927-38.432-31.159-64.12-22.313z" fill="#effcd4"/><path d="m313.664 154.21c3.384 9.905 7.82 19.336 12.83 27.689 9.17-40.565 42.773-54.433 42.773-54.433l-9.296-26.995c-24.89 8.571-38.746 32.668-46.307 53.739z" fill="#d2f09e"/><path d="m348.592 208.262c2.358 1.818 4.702 3.316 6.995 4.435 6.386 3.115 12.392 6.663 17.954 10.387 2.644-6.347 5.752-11.061 8.739-14.529 6.673-7.746 8.521-18.554 5.191-28.221l-4.8-13.938c-19.947 6.869-29.597 24.123-34.079 41.866z" fill="#d2f09e"/><g><path d="m386.926 186.745c-3.263.001-6.326-2.01-7.513-5.251l-33.646-91.879c-3.365-9.189-10.733-15.929-20.214-18.491-9.177-2.481-18.582-.472-25.804 5.512-3.402 2.819-8.444 2.345-11.264-1.057-2.819-3.402-2.346-8.446 1.057-11.265 11.276-9.342 25.923-12.49 40.185-8.636 14.351 3.878 25.964 14.508 31.064 28.435l33.645 91.879c1.52 4.149-.612 8.744-4.761 10.263-.906.333-1.836.49-2.749.49z" fill="#95db76"/></g><g><path d="m257.067 100.446c-3.866 0-7-3.134-7-7 0-17.171-5.846-34.909-16.037-48.667-10.309-13.915-23.404-21.579-36.875-21.579-3.866 0-7-3.134-7-7s3.134-7 7-7c18.019 0 35.109 9.676 48.125 27.245 11.939 16.117 18.787 36.893 18.787 57 0 3.867-3.133 7.001-7 7.001z" fill="#00b7a0"/></g><g><path d="m256.144 117.348c-3.866 0-7-3.134-7-7 0-25.252 5.791-59.949 33.38-81.832 16.733-13.273 33.561-15.367 34.27-15.45 3.84-.456 7.316 2.301 7.765 6.141.447 3.832-2.29 7.302-6.118 7.762-2.355.297-55.296 7.891-55.296 83.379-.001 3.866-3.134 7-7.001 7z" fill="#3ecd8d"/></g><path d="m308.783 5.701c-12.195 3.691-23.71 9.644-31.623 19.153-2.245 2.697-4.287 5.819-5.925 8.582-2.287 3.858-.708 8.846 3.366 10.72l.122.056c2.103.967 4.318 1.687 6.595 2.101 20.251 3.686 37.029-.9 50.268-8.381-25.533-3.151-25.467-20.627-22.803-32.231z" fill="#95db76"/><path d="m220.992 320.229c-2.412 9.263-.215 19.208 6.53 29.571-.263.242-.618.58-1.015.966l205.301 18.268c-3.864-17.341-10.213-33.746-18.68-48.805-7.857-13.975-22.63-22.641-38.663-22.641h-135.3c-4.088 2.464-14.883 10.006-18.173 22.641z" fill="#feaee1"/><path d="m98.886 320.201c-3.337 5.933-6.33 12.084-8.99 18.41l137.926 12.273c.64-.599 1.009-.915 1.009-.915-23.027-34.364 12.36-52.381 12.36-52.381h-103.658c-16.021 0-30.793 8.649-38.647 22.613z" fill="#fe73c5"/><path d="m436.131 408.343-216.813 43.963c.187.256.361.51.551.766-1.438 2.859-7.341 15.754-6.296 32.893.523 8.579 2.698 16.339 5.976 23.338 11.893 1.776 24.064 2.697 36.451 2.697 70.199 0 133.494-29.531 178.162-76.839 1.286-8.687 1.964-17.576 1.972-26.629 0-.063-.003-.126-.003-.189z" fill="#fe2aa8"/><path d="m220.695 509.464c-14.234-29.869.352-56.488.352-56.488-.224-.297-.429-.592-.648-.889l-98.479 19.969c29.192 19.13 62.711 32.196 98.775 37.408z" fill="#f1239a"/><path d="m431.59 368.011-204.118-18.163c-2.837 2.625-13.557 13.23-20.036 29.179-6.876 16.931-10.266 43.484 12.434 74.045-.024.048-.052.105-.079.158l216.334-43.866c.002-.278.008-.554.008-.832.014-13.933-1.561-27.496-4.543-40.521z" fill="#fe73c5"/><path d="m228.832 349.969-138.524-12.326c-9.284 21.716-14.443 45.615-14.443 70.725 0 9.111.683 18.062 1.988 26.81 13.492 14.286 28.692 26.936 45.258 37.655l97.934-19.858c-44.204-58.848 7.786-103.005 7.787-103.006z" fill="#fe2aa8"/><path d="m320.739 268.847c5.363-14.096 8.96-31.448 9.858-49.502-24.165-42.343-65.177-49.132-73.025-50.05v-32.26c29.264.606 53.087 20.211 69.754 40-5.361-24.293-17.254-46.088-38.158-58.589-10.468-6.26-22.338-9.291-34.168-9.109v188.697s2.08 24.725 25.824 27.12c6.446-9.73 14.2-19.834 23.341-29.203-18.797-36.897-41.252-45.119-46.593-46.6v-32.427c32.11.757 51.846 27.608 63.167 51.923z" fill="#95db76"/><path d="m256 297.034v-187.713c-11.498 0-22.996 3.042-33.168 9.126-30.794 18.416-42.051 56.989-41.64 94.027 16.748-21.259 41.992-44.039 73.585-44.693v32.247c-4.178.446-17.646 2.461-33.169 10.764-11.518 6.162-25.628 16.74-37.001 34.539 3.434 17.202 9.227 32.329 16.376 42.589 11.856-18.338 29.193-34.236 53.794-34.816v16.624c0 12.164-6.345 23.42-16.557 29.376-4.822 2.813-10.363 7.056-16.053 13.426 8.899 11.562 15.958 23.263 21.264 33.298 5.341 10.102 19.797 10.102 25.138 0 3.529-6.674 7.836-14.085 12.94-21.701-23.452-2.579-25.509-27.093-25.509-27.093z" fill="#3ecd8d"/><path d="m256.174 135.624v34.937s48.006 2.877 74.283 51.302c1.019-15.956-.06-32.549-3.871-47.993-16.994-19.541-40.95-38.246-70.412-38.246z" fill="#effcd4"/><path d="m256.174 215.509v34.937s25.853 5.077 46.935 46.588c.825-.86 1.653-1.719 2.501-2.567 6.159-6.159 11.613-15.83 15.861-27.594-11.702-24.642-32.051-51.364-65.297-51.364z" fill="#effcd4"/><path d="m181.186 210.095c-.031 12.809 1.344 25.488 3.813 37.148 26.772-43.28 71.176-45.938 71.176-45.938v-34.937c-32.214 0-57.845 22.36-74.989 43.727z" fill="#d2f09e"/><path d="m200.062 286.549c2.004 3.043 4.119 5.71 6.327 7.918 6.148 6.148 11.683 12.647 16.635 19.171 5.588-6.29 11.062-10.506 15.9-13.328 10.807-6.304 17.251-18.072 17.251-30.584v-18.038c-25.819.001-43.858 16.119-56.113 34.861z" fill="#d2f09e"/><path d="m256 272.108c-4.42 0-8.036-3.616-8.036-8.036v-153.724c0-4.42 3.616-8.036 8.036-8.036 4.419 0 8.035 3.616 8.035 8.036v153.724c0 4.42-3.616 8.036-8.035 8.036z" fill="#95db76"/><path d="m358.098 15.325c5.082-6.121.664-15.385-7.292-15.325-11.862.09-28.066 1.294-43.096 6.025-2.617 11.729-2.428 29.165 23.702 32.009 11.63-6.532 20.542-15.306 26.686-22.709z" fill="#d2f09e"/></g></svg>