<svg id="Capa_1" enable-background="new 0 0 512 512" height="512" viewBox="0 0 512 512" width="512" xmlns="http://www.w3.org/2000/svg"><g><g><path d="m256 21.996c-135.311 0-245.002 109.691-245.002 245.002 0 93.688 52.595 175.081 129.862 216.298h230.28c77.267-41.217 129.862-122.61 129.862-216.298 0-135.311-109.691-245.002-245.002-245.002z" fill="#fedf30"/></g><path d="m381.638 401.144c-14.98-2.178-23.812-18.178-23.9-18.34l-28.443-34.234c-7.586-9.123-10.433-18.036-8.461-26.492 2.701-11.58 13.856-19.74 20.384-23.631-8.423-3.837-15.992-7.709-22.13-11.513-7.571-4.692-17.495-4.124-24.12 1.829-3.625 3.257-5.765 7.533-6.389 11.991-.775 5.527-5.175 9.622-10.743 9.998-4.492.303-8.91 2.131-12.419 5.513-6.413 6.181-7.691 16.038-3.555 23.927 6.308 12.029 12.496 29.089 18.139 47.432 14.044 45.652 70.91 60.989 105.875 28.45 6.15-5.723 10.865-12.231 14.228-19.161-6.304 3.674-12.48 5.097-18.466 4.231z" fill="#0095a3"/><path d="m365.095 308.43c-8.801-3.416-17.278-6.941-24.999-10.493-11.164 6.787-33.539 24.856-11.571 51.273 28.333 34.071 28.333 34.071 28.333 34.071s15.928 29.44 42.441 15.223c17.012-32.679 3.094-75.597-34.204-90.074z" fill="#00b7a0"/><path d="m353.1 214.776c-32.094-6.477-31.92-32.433-29.434-46.124-2.181.102-4.29.162-6.3.167-9.478.023-18.121 6.121-20.754 15.225-1.441 4.981-.967 10.047.978 14.425 2.411 5.428.742 11.602-4.076 15.075-3.886 2.802-6.848 6.939-8.113 11.967-2.313 9.191 2.08 18.813 10.255 23.609 12.466 7.313 27.656 19.238 43.076 32.629 34.603 30.05 86.774 18.241 106.422-20.342-17.458-28.6-53.685-38.887-92.054-46.631z" fill="#0095a3"/><path d="m371.015 162.34c-17.624 3.335-34.522 5.781-48.167 6.351-2.641 13.399-3.609 40.452 29.252 47.084 38.559 7.782 74.962 18.125 92.318 47.052 2.48-4.601 4.491-9.598 5.942-14.966 13.265-49.063-29.405-94.969-79.345-85.521z" fill="#00b7a0"/><g><path d="m443.704 270.91c.453 0 .913-.044 1.375-.136 3.791-.755 6.253-4.44 5.498-8.232-.528-2.653-1.341-5.331-2.416-7.958-5.767-14.084-18.299-24.658-33.524-28.287l-102.782-24.501c-4.099-1.096-44.434-10.65-58.035 31.998-1.175 3.683.858 7.621 4.542 8.796 3.679 1.173 7.621-.857 8.796-4.542 10.119-31.724 39.708-23.142 40.964-22.763.136.041.272.078.41.111l102.859 24.52c10.851 2.586 19.753 10.052 23.815 19.971.735 1.798 1.288 3.611 1.642 5.39.662 3.33 3.586 5.633 6.856 5.633z" fill="#3ecd8d"/></g><g><path d="m373.162 410.921c1.577 0 3.163-.529 4.471-1.616 2.973-2.472 3.38-6.885.909-9.858-.328-.395-33.153-39.9-64.378-78.414-12.482-15.395-25.337-22.997-38.225-22.503-16.022.576-25.293 13.604-25.68 14.158-2.213 3.17-1.437 7.533 1.734 9.746 3.157 2.204 7.498 1.442 9.72-1.696.153-.209 5.917-7.967 14.852-8.222.15-.004.302-.006.452-.006 7.993 0 17.064 5.983 26.271 17.339 31.28 38.582 64.157 78.151 64.485 78.547 1.386 1.665 3.381 2.525 5.389 2.525z" fill="#3ecd8d"/></g><g><path d="m380.316 232.314c.782 0 1.577-.132 2.355-.41 25.605-9.148 39.408-37.946 39.983-39.168 1.647-3.497.147-7.668-3.352-9.314-3.493-1.646-7.662-.149-9.31 3.344-.183.382-12.021 24.805-32.032 31.955-3.641 1.301-5.537 5.307-4.236 8.947 1.022 2.861 3.718 4.646 6.592 4.646z" fill="#3ecd8d"/></g><g><path d="m338.324 222.303c1.075 0 2.165-.249 3.188-.773 18.447-9.457 25.305-28.662 25.588-29.475 1.271-3.651-.659-7.642-4.311-8.912-3.647-1.267-7.624.651-8.903 4.285-.07.197-5.432 14.81-18.761 21.645-3.44 1.764-4.8 5.982-3.035 9.422 1.239 2.417 3.691 3.808 6.234 3.808z" fill="#3ecd8d"/></g><g><path d="m380.324 281.922c3.371 0 6.342-2.441 6.9-5.877 5.219-32.073-11.079-56.224-11.775-57.235-2.191-3.187-6.55-3.99-9.734-1.801-3.181 2.188-3.989 6.535-1.811 9.719.219.324 13.779 20.788 9.503 47.069-.621 3.815 1.969 7.412 5.785 8.033.38.062.758.092 1.132.092z" fill="#3ecd8d"/></g><g><path d="m295.072 365.504c1.791 0 3.583-.684 4.95-2.05 13.677-13.678 17.882-32.651 18.055-33.452.812-3.78-1.592-7.503-5.371-8.316-3.775-.811-7.493 1.587-8.314 5.357-.053.237-3.604 15.846-14.27 26.511-2.733 2.734-2.733 7.166 0 9.9 1.367 1.366 3.158 2.05 4.95 2.05z" fill="#3ecd8d"/></g><g><path d="m345.169 356.049c8.648 0 19.082-1.409 29.807-6.124 3.539-1.556 5.146-5.686 3.591-9.226-1.557-3.538-5.683-5.146-9.226-3.591-21.167 9.307-41.187 2.65-41.386 2.583-3.659-1.251-7.638.699-8.889 4.357s.7 7.638 4.357 8.889c.607.208 9.337 3.112 21.746 3.112z" fill="#3ecd8d"/></g><g><path d="m335.544 420.328c2.32 0 4.59-1.152 5.922-3.258 11.739-18.551 11.959-44.25 11.963-45.335.013-3.866-3.11-7.011-6.977-7.023-.008 0-.017 0-.024 0-3.853 0-6.981 3.114-6.999 6.969-.001.226-.239 22.805-9.793 37.903-2.067 3.267-1.095 7.591 2.172 9.658 1.161.736 2.457 1.086 3.736 1.086z" fill="#3ecd8d"/></g><path d="m256 285.78c4.097 0 7.739-1.912 10.108-4.885l-1.514-113.48c0-6.403-2.191-11.594-8.594-11.594s-8.594 5.191-8.594 11.594l-1.514 113.48c2.369 2.972 6.011 4.885 10.108 4.885z" fill="#baee63"/><path d="m256 285.096c-4.327 0-8.094-2.375-10.086-5.888l-1.508 113.018c0 6.403 5.191 11.594 11.594 11.594s11.594-5.191 11.594-11.594l-1.508-113.018c-1.992 3.513-5.759 5.888-10.086 5.888z" fill="#95db76"/><g><path d="m243.408 461.725c-.143-8.848-.216-16.93-.216-22.245 0-12.104.375-24.014 1.102-35.676.578-9.275 8.319-16.476 17.612-16.476h-104.004c-9.293 0-17.034 7.202-17.612 16.476-.727 11.662-1.102 23.572-1.102 35.676 0 14.936.574 29.574 1.672 43.816 34.327 18.312 73.517 28.704 115.14 28.704 6.858 0 13.648-.288 20.363-.841-19.08-8.283-32.596-27.239-32.955-49.434z" fill="#a74b30"/></g><path d="m323.66 461.725c-.143-8.848-.216-16.93-.216-22.245 0-12.104.375-24.014 1.102-35.676.578-9.275 8.319-16.476 17.612-16.476h-82.252c-9.292 0-17.034 7.202-17.612 16.476-.727 11.662-1.102 23.572-1.102 35.676 0 5.315.073 13.397.216 22.245.361 22.317 14.026 41.359 33.273 49.568 22.071-1.666 43.318-6.269 63.37-13.397-8.74-9.545-14.166-22.217-14.391-36.171z" fill="#c4573a"/><path d="m323.546 403.804c-.727 11.662-1.102 23.572-1.102 35.676 0 5.315.073 13.397.216 22.245.228 14.087 5.761 26.865 14.648 36.442 11.709-4.12 23.013-9.1 33.832-14.871 1.098-14.242 1.672-28.88 1.672-43.816 0-12.104-.376-24.014-1.102-35.676-.578-9.275-8.319-16.476-17.612-16.476h-12.939c-9.294 0-17.035 7.202-17.613 16.476z" fill="#f68157"/><g><path d="m276.856 139.828c-12.433-7.207-19.856-20.06-19.856-34.385v-44.496c0-26.81 17.047-48.186 24.75-56.476-7.934-2.875-16.576-4.471-25.75-4.471-55.463 0-91.669 58.024-67.492 107.94 9.715 20.057 17.951 39.454 22.104 54.669 2.724 9.978 11.608 17.346 21.95 17.527 5.658.099 10.859-1.843 14.917-5.138 5.031-4.086 12.01-4.086 17.041 0 4.058 3.296 9.26 5.237 14.917 5.138 10.341-.181 19.226-7.549 21.95-17.527 1.593-5.835 3.79-12.289 6.437-19.155-10.23 3.163-21.326 1.963-30.968-3.626z" fill="#0095a3"/></g><path d="m280.711 4.098c-7.935 8.568-24.711 29.867-24.711 56.849v44.496c0 27.586 26.581 46.35 51.372 39.197 4.32-11.354 9.915-23.89 16.12-36.701 20.352-42.019-2.087-89.78-42.781-103.841z" fill="#00b7a0"/><path d="m245.931 320.957c-3.509-3.382-7.927-5.209-12.419-5.512-5.568-.376-9.968-4.471-10.743-9.998-.625-4.458-2.765-8.734-6.389-11.991-6.625-5.953-16.549-6.521-24.12-1.828-11.545 7.155-28.117 14.551-46.009 21.496-10.204 3.961-18.654 10.055-25.204 17.482.75 4.449 2.368 8.958 5.533 12.529 4.831 5.451 12.314 7.661 22.25 6.566 22.625-2.494 27.351 1.989 28.332 4.03 1.222 2.545-.534 6.55-4.697 10.713-9.794 9.794-6.694 31.245-6.433 32.933.101 1.562 1.558 20.215 14.482 30.87 3.323 2.74 7.107 4.684 11.316 5.846 17.957-6.592 33.144-21.063 39.516-41.776 5.643-18.344 11.831-35.404 18.139-47.432 4.137-7.889 2.859-17.747-3.554-23.928z" fill="#00b7a0"/><path d="m194.258 433.14c-24.995-5.174-26.733-35.927-26.733-35.927s-3.555-22.155 6-31.71 9.866-21.119-24.859-17.295c-19.136 2.107-24.945-8.815-26.306-19.047-23.315 24.854-24.364 66.033 3.113 91.604 19.821 18.448 46.679 21.502 68.785 12.375z" fill="#0095a3"/><path d="m225.946 230.206c-1.266-5.029-4.228-9.166-8.113-11.967-4.817-3.473-6.487-9.648-4.076-15.075 1.945-4.378 2.419-9.444.978-14.425-2.633-9.105-11.276-15.202-20.754-15.225-11.088-.027-24.932-1.595-39.837-4.036-2.967 2.758-5.999 6.653-7.223 11.717-1.687 6.984.469 14.496 6.409 22.326 4.618 6.088 6.073 11.362 4.323 15.678-3.669 9.051-20.09 11.654-20.256 11.679l-.789.121-.342.722c-.242.514-5.977 12.757-8.714 28.298-3.142 17.838-.886 32.564 6.482 43.076 13.576-1.278 27.053-6.638 38.581-16.649 15.42-13.391 30.609-25.316 43.076-32.629 8.176-4.798 12.569-14.42 10.255-23.611z" fill="#00b7a0"/><path d="m60.987 252.555c9.445 34.936 42.579 54.19 74.732 50.356-19.183-25.927 1.904-70.551 1.904-70.551s35.399-5.364 16.902-29.746c-12.431-16.385-4.804-27.379 1.536-32.827-5.132-.819-10.395-1.744-15.73-2.753-49.939-9.449-92.609 36.457-79.344 85.521z" fill="#0095a3"/><g><path d="m67.643 275.604c-.453 0-.913-.044-1.375-.136-3.791-.755-6.253-4.44-5.498-8.232.528-2.653 1.341-5.331 2.416-7.958 5.767-14.084 18.299-24.658 33.524-28.287l102.782-24.501c4.099-1.096 44.434-10.65 58.035 31.998 1.175 3.683-.858 7.621-4.542 8.796-3.679 1.173-7.621-.857-8.796-4.542-10.119-31.724-39.708-23.142-40.964-22.763-.136.041-.272.078-.41.111l-102.859 24.52c-10.851 2.586-19.753 10.052-23.814 19.971-.735 1.798-1.288 3.611-1.642 5.39-.663 3.329-3.587 5.633-6.857 5.633z" fill="#3ecd8d"/></g><g><path d="m138.185 415.614c-1.577 0-3.163-.529-4.471-1.616-2.973-2.472-3.38-6.885-.909-9.858.328-.395 33.153-39.9 64.378-78.414 12.482-15.395 25.337-22.997 38.225-22.503 16.021.576 25.293 13.604 25.68 14.158 2.213 3.17 1.437 7.533-1.734 9.746-3.157 2.204-7.498 1.442-9.72-1.696-.153-.209-5.917-7.967-14.852-8.222-.15-.004-.302-.006-.452-.006-7.993 0-17.064 5.983-26.271 17.339-31.28 38.582-64.157 78.151-64.485 78.547-1.387 1.665-3.381 2.525-5.389 2.525z" fill="#3ecd8d"/></g><g><g><path d="m256 181.366c-3.866 0-7-3.134-7-7v-110.005c0-19.434 6.073-37.989 17.563-53.662l4.297-5.861c2.285-3.117 6.667-3.792 9.784-1.507 3.118 2.286 3.793 6.666 1.507 9.784l-4.297 5.861c-9.717 13.255-14.854 28.95-14.854 45.385v110.005c0 3.866-3.134 7-7 7z" fill="#3ecd8d"/></g></g><g><g><path d="m256.007 103.448c-2.275 0-4.506-1.107-5.851-3.149-11.486-17.424-40.019-34.678-40.306-34.85-3.314-1.99-4.389-6.289-2.4-9.604 1.988-3.314 6.286-4.391 9.602-2.403 1.281.768 31.543 19.051 44.794 39.151 2.127 3.228 1.235 7.569-1.992 9.697-1.188.784-2.525 1.158-3.847 1.158z" fill="#3ecd8d"/></g></g><g><g><path d="m255.993 125.402c-1.322 0-2.659-.374-3.846-1.156-3.228-2.128-4.119-6.47-1.992-9.697 13.251-20.101 43.513-38.383 44.794-39.151 3.317-1.987 7.616-.91 9.603 2.404 1.987 3.315.912 7.613-2.402 9.602-.287.172-28.819 17.426-40.306 34.85-1.345 2.041-3.576 3.148-5.851 3.148z" fill="#3ecd8d"/></g></g><g><g><path d="m256.004 152.025c-2.042 0-4.066-.89-5.45-2.602-6.257-7.749-21.506-16.239-26.853-18.857-3.473-1.699-4.91-5.893-3.21-9.364 1.7-3.474 5.893-4.911 9.364-3.21.899.439 22.123 10.909 31.592 22.634 2.429 3.008 1.959 7.415-1.048 9.845-1.296 1.046-2.85 1.554-4.395 1.554z" fill="#3ecd8d"/></g></g><g><path d="m131.031 237.007c-.782 0-1.577-.132-2.355-.41-25.605-9.148-39.408-37.946-39.983-39.168-1.647-3.497-.147-7.668 3.352-9.314 3.493-1.646 7.662-.149 9.311 3.344.183.382 12.021 24.805 32.032 31.955 3.641 1.301 5.537 5.307 4.236 8.947-1.023 2.862-3.719 4.646-6.593 4.646z" fill="#3ecd8d"/></g><g><path d="m173.022 226.996c-1.075 0-2.165-.249-3.188-.773-18.447-9.457-25.305-28.662-25.588-29.475-1.27-3.651.659-7.642 4.311-8.912 3.648-1.267 7.624.651 8.903 4.285.07.197 5.432 14.81 18.761 21.645 3.44 1.764 4.8 5.982 3.035 9.422-1.238 2.417-3.691 3.808-6.234 3.808z" fill="#3ecd8d"/></g><g><path d="m131.022 286.615c-3.371 0-6.342-2.441-6.9-5.877-5.219-32.073 11.079-56.224 11.775-57.235 2.191-3.187 6.55-3.99 9.734-1.801 3.181 2.188 3.989 6.535 1.812 9.719-.219.324-13.779 20.788-9.503 47.069.621 3.815-1.969 7.412-5.785 8.033-.381.062-.759.092-1.133.092z" fill="#3ecd8d"/></g><g><path d="m216.275 370.197c-1.791 0-3.583-.684-4.95-2.05-13.677-13.678-17.882-32.651-18.055-33.452-.812-3.78 1.592-7.503 5.371-8.316 3.775-.811 7.493 1.587 8.314 5.357.053.237 3.604 15.846 14.27 26.511 2.733 2.734 2.733 7.166 0 9.9-1.367 1.367-3.159 2.05-4.95 2.05z" fill="#3ecd8d"/></g><g><path d="m166.178 360.742c-8.648 0-19.082-1.409-29.807-6.124-3.539-1.556-5.146-5.686-3.591-9.226 1.557-3.538 5.683-5.146 9.226-3.591 21.167 9.307 41.187 2.65 41.386 2.583 3.659-1.251 7.638.699 8.889 4.357s-.7 7.638-4.357 8.889c-.607.208-9.337 3.112-21.746 3.112z" fill="#3ecd8d"/></g><g><path d="m175.803 425.022c-2.32 0-4.59-1.152-5.922-3.258-11.739-18.551-11.959-44.25-11.963-45.335-.013-3.866 3.11-7.011 6.977-7.023h.025c3.852 0 6.981 3.114 6.999 6.969.001.225.239 22.805 9.793 37.903 2.067 3.267 1.095 7.591-2.172 9.658-1.162.735-2.458 1.086-3.737 1.086z" fill="#3ecd8d"/></g></g></svg>