<svg id="Capa_1" enable-background="new 0 0 512 512" height="512" viewBox="0 0 512 512" width="512" xmlns="http://www.w3.org/2000/svg"><g><path d="m256 21.996c-135.311 0-245.002 109.691-245.002 245.002 0 95.583 54.741 178.371 134.578 218.752l220.852-.001c79.835-40.381 134.574-123.169 134.574-218.751 0-135.311-109.691-245.002-245.002-245.002z" fill="#1d2e79"/><ellipse cx="346.848" cy="23.847" fill="#d2f09e" rx="22.382" ry="58.352" transform="matrix(.152 -.988 .988 .152 270.422 363.01)"/><path d="m248.242 344.614c-17.042-20.612-24.61-44.946-25.368-70.556-4.516 10.378-10.048 24.159-15.541 40.556-5.075 15.151-11.628 24.56-16.553 30z" fill="#a74b30"/><path d="m276.929 192.763c-10.102-2.673-18.867-18.395-24.182-41.168-4.754 14.845-10.243 30.783-16.443 46.934-6.07 15.813-10.546 32.036-12.817 48.104 9.34 12.745 26.015 25.524 47.853 1.35-.966-17.253.519-34.18 4.232-49.454.461-1.893.912-3.818 1.357-5.766z" fill="#f68157"/><path d="m308.473 344.614c-23.714-26.763-35.419-62.881-37.18-97.576-21.716 23.993-38.321 11.445-47.677-1.233-5.214 35.717.406 70.72 23.629 98.809z" fill="#c4573a"/><ellipse cx="211.152" cy="23.847" fill="#00b7a0" rx="58.352" ry="22.382" transform="matrix(.988 -.152 .152 .988 -1.168 32.457)"/><ellipse cx="321.833" cy="112.614" fill="#00b7a0" rx="23.167" ry="29"/><path d="m135.64 404.512s-1.507 36.83 9.935 81.238c28.58 14.456 60.376 23.467 94.03 25.691-3.511-14.092-5.846-28.02-7.387-40.036-1.342-10.46 1.731-21.012 8.43-28.95 6.698-7.936 16.372-12.488 26.541-12.488h90.044c7.978 0 13.739 3.841 17.639 7.988 2.033-20.19 1.488-33.443 1.488-33.443-13.371 0-227.349 0-240.72 0z" fill="#01d0fb"/><path d="m357.233 429.549h-90.044c-21.581 0-38.218 19.716-35.371 41.911 1.57 12.234 3.903 26.065 7.353 39.954 5.562.377 11.171.586 16.829.586 39.729 0 77.244-9.467 110.428-26.251 4.645-18.026 7.159-34.804 8.502-48.375-3.944-4.1-9.716-7.825-17.697-7.825z" fill="#99e6fc"/><path d="m376.36 343.614h-123.872c-17.039 0-30.852 13.813-30.852 30.852 0 17.039 13.813 30.852 30.852 30.852h123.872c7.005 0 12.683-5.678 12.683-12.683v-36.338c0-7.005-5.679-12.683-12.683-12.683z" fill="#dff6fd"/><path d="m222.442 374.466c0-17.039 13.813-30.852 30.852-30.852h-117.654c-7.005 0-12.683 5.678-12.683 12.683v36.338c0 7.005 5.678 12.683 12.683 12.683h117.654c-17.039 0-30.852-13.813-30.852-30.852z" fill="#99e6fc"/><ellipse cx="336.195" cy="73.462" fill="#baee63" rx="28.959" ry="75.501" transform="matrix(.707 -.707 .707 .707 46.524 259.242)"/><ellipse cx="221.805" cy="73.462" fill="#3ecd8d" rx="75.501" ry="28.959" transform="matrix(.707 -.707 .707 .707 13.02 178.357)"/><ellipse cx="279" cy="101.489" fill="#95db76" rx="32.665" ry="92.685"/><ellipse cx="381.469" cy="137.52" fill="#d2f09e" rx="21.354" ry="55.672" transform="matrix(.216 -.976 .976 .216 164.808 480.286)"/><ellipse cx="310.352" cy="182.874" fill="#3ecd8d" rx="55.673" ry="21.354" transform="matrix(.216 -.976 .976 .216 64.767 446.407)"/><ellipse cx="357.023" cy="177.622" fill="#baee63" rx="24.087" ry="68.344" transform="matrix(.843 -.538 .538 .843 -39.503 219.836)"/></g></svg>