<svg id="Capa_1" enable-background="new 0 0 512 512" height="512" viewBox="0 0 512 512" width="512" xmlns="http://www.w3.org/2000/svg"><g><g><path d="m426.381 431.704c39.53-43.506 63.623-101.293 63.623-164.706 0-135.311-109.691-245.002-245.002-245.002s-245.002 109.691-245.002 245.002c0 63.414 24.092 121.2 63.623 164.706z" fill="#fe2aa8"/></g><g><path d="m201.678 330.002c-4.446 0-8.504-2.986-9.673-7.491-10.113-38.983-25.056-63.305-43.213-70.334-15.723-6.088-29.376 2.632-29.949 3.005-4.575 3.088-10.762 1.862-13.852-2.716-3.089-4.578-1.852-10.814 2.727-13.903.904-.611 22.427-14.824 47.915-5.183 24.95 9.439 43.701 37.738 55.732 84.11 1.387 5.346-1.822 10.804-7.169 12.19-.842.218-1.687.322-2.518.322z" fill="#95db76"/></g><g><path d="m206.74 241.661c-5.522 0-10-4.477-10-10 0-73.467-41.441-117.747-76.206-141.957-23.503-16.366-37.534-43.199-37.534-71.777v-7.927c0-5.523 4.478-10 10-10s10 4.477 10 10v7.927c0 22.038 10.827 42.736 28.964 55.365 22.777 15.862 41.456 34.934 55.518 56.687 19.415 30.036 29.259 64.247 29.259 101.682-.001 5.523-4.478 10-10.001 10z" fill="#95db76"/></g><g><path d="m201.685 347.655c-5.523 0-10-4.478-10-10v-75.655c0-48.396 7.477-93.01 21.622-129.019 5.122-13.039 14.825-23.177 27.32-28.545 12.761-5.482 27.483-5.627 40.391-.399 5.119 2.073 7.588 7.904 5.515 13.023-2.074 5.119-7.909 7.584-13.022 5.514-7.994-3.238-17.102-3.149-24.987.238-5.342 2.295-12.558 7.191-16.601 17.482-13.239 33.702-20.237 75.787-20.237 121.706v75.655c-.001 5.523-4.479 10-10.001 10z" fill="#95db76"/></g><g><path d="m205.438 377c.401.333.807.667 1.231 1 0 0-40.237 57.527 6.977 131.995 10.269 1.312 20.73 2.005 31.356 2.005 71.897 0 136.561-30.97 181.379-80.296v-54.704z" fill="#99e6fc"/></g><g><path d="m63.623 431.704c38.428 42.293 91.452 71.07 151.109 78.422-47.345-74.531-7.063-132.126-7.063-132.126-.424-.333-.83-.667-1.231-1h-142.815z" fill="#01d0fb"/></g><g><path d="m386.111 333.311h-184.211c-7.355 8.292-18.35 26.489 4.769 44.689h219.713v-4.418c-.001-22.241-18.03-40.271-40.271-40.271z" fill="#dff6fd"/></g><g><path d="m202.9 333.311h-99.007c-22.241 0-40.27 18.03-40.27 40.27v4.419h144.046c-23.118-18.199-12.124-36.396-4.769-44.689z" fill="#99e6fc"/></g><path d="m383.256 349.542c-27.31-18.369-32.083-60.691-32.128-61.117l-.012-.113-50.048-145.106c-.013.006-.037.017-.037.017s-26.793 3.612-35.59-27.623c-8.797-31.236-31.841-87.115-117.253 24.593-10.903 14.259-18.149 28.813-22.351 43.352-2.837 9.819 7.264 18.311 16.432 13.792 15.889-7.833 35.286-15.997 55.534-21.264 14.856-3.864 23.592 15.971 10.688 24.286-22.618 14.575-47.362 34.172-62.219 57.082-7.297 11.252-7.164 25.824.073 37.115 7.516 11.726 16.343 22.67 25.956 32.555 5.184 5.331 14.114 3.69 17.135-3.105 10.625-23.903 29.589-55.878 63.077-89.032 9.916-9.816 25.609 2.943 18.012 14.646-16.558 25.506-32.794 55.208-41.786 84.311-5.871 19.002 5.412 38.986 24.68 43.911 7.351 1.879 14.385 2.82 20.897 2.715l.081-.001c4.411-.07 8.102-3.391 8.587-7.776 1.524-13.799 4.637-29.125 10.189-45.575 5.281-15.647 28.734-9.865 26.163 6.448-1.207 7.658-2.157 15.388-2.744 23.037-1.183 15.417 8.06 29.716 22.544 35.13 5.613 2.098 10.668 4.309 15.111 6.463 12.327 5.976 27.096 1.816 34.493-9.714 5.797-9.036 13.913-19.802 24.813-30.543-11.41.219-21.554-2.603-30.297-8.484z" fill="#00b7a0"/><path d="m393.859 267.033c-5.688-5.082-6.598-13.64-1.999-19.724l.067-.088c4.656-6.159 13.287-7.575 19.732-3.324 12.057 7.953 22.177 16.319 30.622 24.495-2.759-8.711-2.964-16.393-.577-22.996 3.498-9.677 12.061-14.992 18.704-17.765-25.335-15.541-55.99-27.095-84.31-35.443-13.383-3.945-9.766-23.845 4.15-22.841 30.688 2.214 56.338 8.076 77.026 15.004-9.667-9.874-14.274-19.497-13.723-28.77.638-10.734 8.253-18.931 14.804-24.055-20.887-2.127-43.131-.307-62.704 2.781-15.163 2.392-21.858-18.221-8.203-25.234 17.903-9.194 37.009-15.865 53.633-20.58 10.314-2.925 11.585-16.911 2.013-21.74-4.199-2.118-8.618-4.082-13.266-5.879-131.155-50.717-121.652 8.976-112.855 40.211 8.797 31.236-15.944 42.136-15.944 42.136s-.36.046-.986.083l50.089 145.225s7.466 70.719 62.397 70.521c2.801-2.805 5.778-5.612 8.965-8.391 12.812-11.17 15.499-29.975 6.613-44.465-8.442-13.768-20.655-27.015-34.248-39.161z" fill="#3ecd8d"/><g><path d="m277.268 312.003c-.942 0-1.9-.135-2.85-.416-5.295-1.572-8.312-7.139-6.741-12.433 13.493-45.454 54.09-78.687 55.812-80.079 4.294-3.473 10.589-2.809 14.064 1.486 3.471 4.291 2.809 10.583-1.479 14.057-.374.304-37.528 30.828-49.224 70.227-1.289 4.345-5.27 7.157-9.582 7.158z" fill="#3ecd8d"/></g><g><path d="m307.285 166.739c-4.751 0-8.966-3.399-9.832-8.24-.973-5.437 2.646-10.632 8.082-11.605 1.725-.309 42.554-7.56 69.465-7.56 5.522 0 10 4.477 10 10s-4.478 10-10 10c-25.154 0-65.537 7.174-65.941 7.247-.596.106-1.189.158-1.774.158z" fill="#95db76"/></g><g><path d="m245.002 211.334c-2.56 0-5.118-.976-7.071-2.929-3.905-3.905-3.905-10.237 0-14.143 28.181-28.181 69.636-34.597 71.387-34.856 5.459-.809 10.547 2.963 11.356 8.427.809 5.458-2.956 10.538-8.41 11.355-.365.055-36.772 5.799-60.191 29.217-1.953 1.952-4.511 2.929-7.071 2.929z" fill="#3ecd8d"/></g><g><ellipse cx="90.738" cy="112.493" fill="#3ecd8d" rx="46.675" ry="23.414" transform="matrix(.906 -.422 .422 .906 -39.024 48.854)"/></g><g><path d="m346.998 289.037c-4.197 0-8.106-2.664-9.494-6.869l-46.32-140.346c-2.971-8.999-9.247-15.836-17.674-19.249-5.119-2.073-7.588-7.903-5.515-13.022 2.073-5.118 7.901-7.59 13.023-5.515 13.961 5.654 24.316 16.848 29.158 31.517l46.32 140.347c1.731 5.244-1.117 10.899-6.362 12.63-1.04.344-2.097.507-3.136.507z" fill="#95db76"/></g><g fill="#95db76"><path d="m479.289 240.837c-6.133-4.943-12.841-9.558-19.954-13.864-10.657 4.622-25.415 15.629-18.446 40.086 11.169 10.607 19.508 20.951 25.552 29.721 3.574 5.186 11.341 5.026 14.692-.306 2.505-3.987 4.906-8.19 7.185-12.578 7.621-14.679 3.848-32.681-9.029-43.059z"/><path d="m488.681 138.201c-9.832-3.648-20.635-5.781-31.795-6.816-11.382 9.222-24.876 27.366-1.58 52.318 18.68 6.101 33.437 13.11 44.289 19.217 5.359 3.016 11.94-.697 12.214-6.841.449-10.036.12-20.091-1.104-29.974-1.566-12.652-10.071-23.469-22.024-27.904z"/></g></g></svg>