<svg id="Capa_1" enable-background="new 0 0 512 512" height="512" viewBox="0 0 512 512" width="512" xmlns="http://www.w3.org/2000/svg"><g><circle cx="256" cy="266.998" fill="#dff6fd" r="245.002"/><g><path d="m264.773 384.625v-36.421c0-26.061 5.589-52.358 16.628-78.298 2.099-4.932-.069-10.641-4.912-12.939-5.139-2.438-11.276-.101-13.503 5.133-12.091 28.419-18.214 57.337-18.214 86.104v36.421z" fill="#00b7a0"/></g><path d="m338.601 53.014c-.144-.432-.289-.847-.433-1.274-10.373 19.922-29.764 9.953-39.574 3.028.959 3.341 2.039 6.828 3.247 10.463 13.037 39.232 31.835 68.3 41.986 64.927 10.151-3.375 7.811-37.913-5.226-77.144z" fill="#3ecd8d"/><g><path d="m299.273 122.153c16.442 37.931 21.815 72.129 12 76.383s-31.1-23.046-47.542-60.977-16.644-60.201-6.83-64.456c9.815-4.254 25.93 11.119 42.372 49.05z" fill="#3ecd8d"/></g><g><path d="m270.275 205.221c25.722 26.852 40.313 54.618 32.588 62.017-7.725 7.4-34.839-8.369-60.561-35.22-25.722-26.852-32.224-46.174-24.5-53.574 7.725-7.399 26.751-.074 52.473 26.777z" fill="#3ecd8d"/></g><g><path d="m270.32 279.259c20.787 8.488 34.966 21.915 31.669 29.991-3.297 8.075-22.822 7.741-43.609-.747s-28.429-19.246-25.132-27.322 16.285-10.41 37.072-1.922z" fill="#3ecd8d"/></g><g><path d="m319.245 384.625v-126.422c0-28.994 6.918-58.279 20.562-87.041 11.088-23.375 26.629-46.494 46.19-68.717 3.649-4.146 3.247-10.464-.898-14.114-4.145-3.648-10.464-3.246-14.113.899-20.793 23.621-37.362 48.303-49.249 73.36-14.924 31.462-22.491 63.63-22.491 95.613v126.422z" fill="#95db76"/></g><g><path d="m333.273 384.625c10.53-19.686 24.183-39.119 40.724-57.91 3.649-4.146 3.247-10.464-.898-14.114-4.145-3.648-10.464-3.246-14.113.899-20.174 22.918-36.358 46.836-48.162 71.125z" fill="#baee63"/></g><path d="m441.169 71.641c-11.77-.074-19.756-3.099-23.755-9.043-4.116-6.12-3.233-14.262-1.673-20.217-.093.073-.184.142-.277.215-32.475 25.583-53.435 53.134-46.815 61.536 6.619 8.403 38.311-5.524 70.786-31.107.59-.465 1.158-.923 1.734-1.384z" fill="#95db76"/><path d="m426.569 162.934c-6.635-7.421-9.419-14.684-8.251-21.623 1.274-7.566 7.026-13.36 11.729-16.943-1.701-.091-3.425-.172-5.204-.234-41.316-1.431-75.11 6.076-75.48 16.766s32.823 20.517 74.14 21.948c1.038.036 2.054.062 3.066.086z" fill="#95db76"/><path d="m377.126 210.7c.412-8.395 6.699-15.295 11.539-19.4-39.939-.975-72.121 6.42-72.482 16.85-.36 10.39 30.986 19.961 70.677 21.805-6.781-6.258-10.055-12.715-9.734-19.255z" fill="#95db76"/><g><path d="m363.643 289.504c-27.354 3.482-50.421-.71-51.523-9.363-1.101-8.653 20.181-18.49 47.534-21.971 27.354-3.482 41.82 1.805 42.921 10.458 1.102 8.652-11.578 17.394-38.932 20.876z" fill="#baee63"/></g><path d="m185.03 69.94c-6.486-2.493-10.593-8.043-13.01-12.656-11.808 37.437-13.628 69.622-3.847 72.873 10.072 3.347 28.654-25.251 41.678-64.019-9.544 5.183-17.877 6.472-24.821 3.802z" fill="#95db76"/><path d="m224.82 141.902c-7.24-3.906-10.791-12.262-12.511-18.769-16.11 37.537-21.312 71.185-11.583 75.402 9.47 4.105 29.619-21.173 45.793-57.029-8.651 3.371-15.926 3.511-21.699.396z" fill="#95db76"/><path d="m249.756 224.299c-5.657-6.055-5.818-15.666-5.139-22.037-.955.962-1.917 1.942-2.892 2.959-25.723 26.852-40.313 54.618-32.588 62.017 7.724 7.4 34.839-8.369 60.561-35.22.745-.777 1.469-1.547 2.182-2.311-10.118 1.301-17.55-.511-22.124-5.408z" fill="#95db76"/><g><path d="m241.679 305.759c-20.787 8.488-34.966 21.915-31.669 29.991 3.297 8.075 22.822 7.741 43.609-.747s28.429-19.246 25.132-27.322c-3.296-8.076-16.284-10.41-37.072-1.922z" fill="#95db76"/></g><g><path d="m172.194 171.162c13.644 28.762 20.562 58.047 20.562 87.041v126.422h20v-126.422c0-31.982-7.567-64.151-22.491-95.613-11.887-25.057-28.456-49.739-49.249-73.36-3.649-4.145-9.968-4.547-14.113-.899-4.146 3.649-4.548 9.968-.898 14.114 19.56 22.223 35.101 45.343 46.189 68.717z" fill="#00b7a0"/></g><path d="m100.884 46.097c3.128 24.592-13.725 28.921-25.667 28.99 31.53 24.26 61.694 37.219 68.133 29.045 6.32-8.02-12.499-33.486-42.466-58.035z" fill="#3ecd8d"/><g><path d="m88.497 162.848c41.317-1.431 74.51-11.257 74.14-21.948s-34.164-18.197-75.48-16.766-61.518 10.807-61.148 21.498 21.172 18.647 62.488 17.216z" fill="#3ecd8d"/></g><g><path d="m121.678 230.098c41.316-1.431 74.51-11.257 74.14-21.948s-34.164-18.197-75.48-16.766-61.518 10.807-61.147 21.498c.369 10.691 21.171 18.647 62.487 17.216z" fill="#3ecd8d"/></g><g><path d="m148.357 289.504c27.354 3.482 50.421-.71 51.523-9.363 1.101-8.653-20.18-18.49-47.534-21.971-27.354-3.482-41.82 1.805-42.921 10.458-1.103 8.652 11.578 17.394 38.932 20.876z" fill="#3ecd8d"/></g><path d="m266.303 472.057h123.807c1.147-.751 2.288-1.51 3.421-2.28v-31.927h-275.063v31.927c31.326 21.288 67.843 35.5 107.258 40.359 1.348-21.172 19.08-38.079 40.577-38.079z" fill="#5b3374"/><path d="m407.607 398.87h-187.146c-6.192 6.801-17.212 23.432 3.289 40.107h165.839c10.008 0 18.122-8.113 18.122-18.122v-21.991c-.035.001-.069.006-.104.006z" fill="#814aa0"/><path d="m104.393 398.87c-.035 0-.069-.005-.104-.005v21.991c0 10.008 8.113 18.122 18.122 18.122h102.339c-20.501-16.675-9.481-33.307-3.289-40.107h-117.068z" fill="#693685"/><path d="m418.873 388.603c0 6.222-5.044 11.266-11.266 11.266h-303.214c-6.222 0-11.266-5.044-11.266-11.266 0-6.222 5.044-11.266 11.266-11.266h303.214c6.222 0 11.266 5.044 11.266 11.266z" fill="#af66da"/><path d="m256 512c50.154 0 96.779-15.084 135.612-40.943h-126.309c-21.791 0-39.715 17.371-40.626 38.949 10.258 1.309 20.71 1.994 31.323 1.994z" fill="#693685"/><g fill="#baee63"><path d="m391.663 191.384c-1.515-.053-3.017-.089-4.511-.118-8.21 7.272-19.157 21.836-1.827 38.611 1.653.086 3.315.163 4.997.221 41.316 1.431 62.118-6.525 62.488-17.216.371-10.69-19.831-20.067-61.147-21.498z"/><path d="m485.991 145.632c.359-10.37-18.64-19.503-57.49-21.347-8.485 6.801-19.099 20.307-3.302 38.611 40.18 1.155 60.427-6.722 60.792-17.264z"/><path d="m415.464 42.596c-.345.272-.681.545-1.024.818-2.603 11.216-2.094 28.532 25.498 29.21 32.076-25.384 42.685-44.732 36.101-53.09-6.62-8.404-28.1-2.521-60.575 23.062z"/><path d="m211.286.423c-10.151-3.373-24.849 13.359-37.887 52.59-.628 1.89-1.223 3.765-1.802 5.63 4.958 8.899 15.994 20.22 37.782 8.883.261-.764.523-1.525.78-2.297 13.038-39.231 11.278-61.433 1.127-64.806z"/><path d="m294.197 178.444c-7.546-7.229-25.882-.393-50.707 24.961-.935 11.245 1.238 30.215 27.321 27.434 24.784-26.235 30.997-45.104 23.386-52.395z"/><path d="m255.098 73.104c-9.814-4.254-25.929 11.118-42.372 49.049-.36.831-.708 1.657-1.058 2.484 3.246 11.174 11.845 26.373 34.264 18.154.787-1.722 1.568-3.461 2.336-5.232 16.442-37.931 16.645-60.201 6.83-64.455z"/></g><path d="m76.524 76.083c11.954-.142 28.553-4.627 25.335-29.187-1.739-1.437-3.51-2.872-5.323-4.3-32.475-25.583-53.955-31.466-60.575-23.063-6.619 8.403 4.129 27.909 36.603 53.492 1.323 1.042 2.642 2.056 3.96 3.058z" fill="#95db76"/><path d="m338.373 52.342c-12.981-38.744-27.567-55.272-37.659-51.918-9.327 3.1-11.56 22.108-1.749 55.605 9.988 6.954 29.216 16.511 39.408-3.687z" fill="#95db76"/></g></svg>