<svg id="Capa_1" enable-background="new 0 0 512 512" height="512" viewBox="0 0 512 512" width="512" xmlns="http://www.w3.org/2000/svg"><g><path d="m392.226 470.656c65.593-43.962 108.776-118.764 108.776-203.658 0-135.311-109.691-245.002-245.002-245.002s-245.002 109.691-245.002 245.002c0 84.894 43.183 159.696 108.776 203.658z" fill="#dff6fd"/><path d="m256 165.46c8.177 0 14.665-3.393 18.768-8.948l-.372-32.231c0-11.218-7.178-19.396-18.396-19.396s-18.396 8.178-18.396 19.396l-.372 32.231c4.103 5.554 10.591 8.948 18.768 8.948z" fill="#00b7a0"/><path d="m256 164.471c-8.621 0-15.196-4.119-18.737-10.641l-1.659 143.759h40.792l-1.659-143.759c-3.541 6.522-10.116 10.641-18.737 10.641z" fill="#0095a3"/><path d="m226.517 451.012c-1.664-12.498 2.145-25.106 10.451-34.591 8.304-9.482 20.297-14.921 32.903-14.921h111.629c9.891 0 17.033 4.589 21.867 9.544 2.521-24.124 1.845-39.96 1.845-39.96-16.576 0-281.848 0-298.424 0 0 0-1.94 45.395 12.986 99.571 34.591 23.183 75.413 37.784 119.425 40.766-6.381-20.987-10.295-42.479-12.682-60.409z" fill="#5b3374"/><path d="m403.439 410.349c-4.888-4.897-12.044-9.349-21.939-9.349h-111.629c-26.754 0-47.38 23.557-43.85 50.078 2.438 18.313 6.355 39.622 12.628 60.308 5.732.401 11.517.614 17.351.614 50.417 0 97.272-15.236 136.226-41.344 6.196-22.49 9.484-43.463 11.213-60.307z" fill="#693685"/><path d="m405.212 295.588h-153.566c-21.124 0-38.248 17.124-38.248 38.248 0 21.124 17.124 38.248 38.248 38.248h153.566c8.684 0 15.723-7.04 15.723-15.723v-45.049c.001-8.684-7.039-15.724-15.723-15.724z" fill="#af66da"/><path d="m214.398 333.837c0-21.124 17.124-38.248 38.248-38.248h-145.858c-8.684 0-15.723 7.04-15.723 15.723v45.049c0 8.684 7.04 15.723 15.723 15.723h145.858c-21.124.001-38.248-17.124-38.248-38.247z" fill="#814aa0"/><path d="m255 289.408c0 9.006 2.739 17.881 8.221 25.026 4.333 5.647 10.809 11.006 20.374 13.257 23.169-13.366 39.352-41.981 39.476-69.063.049-10.728-2.425-20.877-6.864-29.887-9.608-19.501-30.931-29.9-52.454-26.837-2.462.35-4.964.527-7.497.515-.42-.002-.837-.017-1.255-.029v87.018z" fill="#00b7a0"/><path d="m331.96 77.556-67.007 52.823c-3.903 3.078-4.573 8.736-1.496 12.641 1.776 2.252 4.412 3.428 7.074 3.428 1.95 0 3.915-.631 5.566-1.932l55.321-43.611c-2.112-7.821-1.811-15.884.542-23.349z" fill="#95db76"/><path d="m408.525 103.885-58.248-52.897c-.237.263-.454.538-.698.796-1.486 1.573-3.07 3.015-4.738 4.331-14.579 11.498-20.72 30.806-14.33 48.239 2.952 8.054 7.767 15.565 14.427 21.859 22.994 21.729 65.473 26.584 87.202 3.59 5.754-6.089 9.457-13.527 11.393-21.567-17.403 8.613-35.008-4.351-35.008-4.351z" fill="#00b7a0"/><path d="m378.83 170.815-105.04.799c-4.971.038-8.969 4.098-8.932 9.068.038 4.947 4.06 8.932 8.999 8.932h.069l85.262-.649c4.734-7.612 11.521-13.894 19.642-18.15z" fill="#95db76"/><path d="m433.525 247.326s11.293 20.068 38.157 18.197c14.344-21.45 17.148-52.521 6.918-76.422-4.221-9.863-10.526-18.191-18.182-24.693-16.57-14.073-40.27-15.135-58.8-3.767-2.12 1.3-4.345 2.457-6.674 3.454-.721.309-1.448.593-2.177.867z" fill="#3ecd8d"/><path d="m180.04 77.556 67.007 52.823c3.903 3.078 4.573 8.736 1.496 12.641-1.776 2.252-4.412 3.428-7.074 3.428-1.95 0-3.915-.631-5.566-1.932l-55.321-43.611c2.112-7.821 1.811-15.884-.542-23.349z" fill="#95db76"/><path d="m167.158 56.114c-1.668-1.315-3.251-2.758-4.738-4.331-.212-.224-.4-.463-.607-.691l-55.462 47.169c-9.217 7.839-13.55 20.199-10.655 31.947.936 3.799 2.58 7.898 5.207 12.234 21.953 6.548 49.293-.294 66.157-16.231 6.66-6.293 11.474-13.804 14.427-21.859 6.391-17.432.25-36.741-14.329-48.238z" fill="#00b7a0"/><path d="m133.17 170.815 105.04.799c4.971.038 8.969 4.098 8.932 9.068-.038 4.947-4.06 8.932-8.999 8.932-.022 0-.046 0-.069 0l-85.262-.649c-4.734-7.612-11.521-13.894-19.642-18.15z" fill="#95db76"/><path d="m162.033 211.678c-1.259-21.703-16.853-39.582-37.87-45.139-2.404-.636-4.777-1.447-7.107-2.444-.248-.106-.489-.221-.735-.33l-.265.33-33.051 77.077c-6.039 14.084-7.438 29.83-3.385 44.608.42 1.532.902 3.076 1.453 4.622 30.447 2.577 63.331-19.741 75.649-48.523 4.22-9.863 5.892-20.174 5.311-30.201z" fill="#00b7a0"/><path d="m255 70.632c0 10.049 4.442 19.723 12.432 25.818 3.862 2.946 8.837 5.389 15.173 6.482 17.329-11.872 29.144-34.086 29.24-55.185.041-8.925-2.017-17.369-5.71-24.865-7.995-16.223-25.735-24.875-43.642-22.326-2.049.292-4.13.438-6.238.429-.42-.002-.838-.015-1.256-.029v69.676z" fill="#3ecd8d"/><path d="m283.923 101.99c-6.489-1.065-11.564-3.543-15.491-6.539-7.99-6.095-12.432-15.769-12.432-25.819v-68.654c-2.02-.021-4.015-.182-5.978-.48-17.883-2.711-35.701 5.778-43.842 21.929-3.761 7.462-5.896 15.887-5.937 24.812-.14 30.818 24.691 64.255 55.508 64.395 10.261.048 19.884-3.616 28.172-9.644z" fill="#00b7a0"/><path d="m423.626 42.942c-6.66-6.293-14.431-10.676-22.639-13.168-17.767-5.394-36.697 1.829-47.352 17.035-1.159 1.654-2.445 3.232-3.846 4.735l58.736 53.341s17.422 12.833 34.736 4.487c5.943-22.532-2.443-50.184-19.635-66.43z" fill="#3ecd8d"/><path d="m434.525 246.326-40.506-81.855c-2.032.823-4.094 1.516-6.182 2.068-21.017 5.557-36.611 23.436-37.87 45.139-.582 10.027 1.09 20.339 5.311 30.202 14.574 34.054 57.94 59.063 91.995 44.489 10.516-4.5 18.907-12.255 25.064-21.819-26.617 1.676-37.812-18.224-37.812-18.224z" fill="#00b7a0"/><g fill="#0095a3"><path d="m264.221 313.435c-5.482-7.145-8.221-16.021-8.221-25.026v-85.995c-2.446-.023-4.862-.217-7.238-.578-21.494-3.259-42.911 6.945-52.696 26.358-4.521 8.969-7.087 19.095-7.136 29.823-.169 37.042 29.677 77.232 66.719 77.401 10.548.048 20.54-3.158 29.444-8.618-9.836-2.181-16.465-7.621-20.872-13.365z"/><path d="m158.365 46.809c-10.655-15.206-29.585-22.429-47.352-17.035-8.208 2.492-15.979 6.875-22.639 13.168-22.994 21.729-30.244 63.865-8.515 86.859 6.09 6.444 13.81 10.699 22.273 13.01-2.758-4.472-4.473-8.697-5.435-12.603-2.894-11.748 1.438-24.109 10.655-31.947l54.889-46.682c-1.412-1.514-2.708-3.104-3.876-4.77z"/><path d="m64.726 286.368c5.596 2.395 11.444 3.715 17.373 4.107-.562-1.571-1.053-3.139-1.48-4.695-4.052-14.778-2.654-30.524 3.385-44.608l33.051-77.077c-2.329-.997-4.554-2.153-6.674-3.454-18.53-11.368-42.23-10.306-58.8 3.767-7.655 6.502-13.961 14.83-18.182 24.693-14.574 34.054-2.727 82.693 31.327 97.267z"/></g></g></svg>