<svg id="Capa_1" enable-background="new 0 0 512 512" height="512" viewBox="0 0 512 512" width="512" xmlns="http://www.w3.org/2000/svg"><g><path d="m282.328 23.413c-4.819-.515-9.638 1.693-12.091 5.874-2.865 4.882-8.167 8.161-14.237 8.161s-11.373-3.278-14.237-8.161c-2.452-4.18-7.271-6.388-12.091-5.874-122.928 13.135-218.674 117.17-218.674 243.585 0 63.414 24.092 121.2 63.623 164.706h362.759c39.53-43.506 63.623-101.293 63.623-164.706-.001-126.415-95.747-230.45-218.675-243.585z" fill="#fe2aa8"/><path d="m186.928 300.331h138.144v35.074h-138.144z" fill="#00b7a0"/><circle cx="201.477" cy="160.348" fill="#0095a3" r="38.734"/><circle cx="311.674" cy="160.348" fill="#00b7a0" r="38.734"/><path d="m479.153 58.08c-14.7-31.892-55.666-58.284-87.444-42.885-27.72 13.432-27.254 34.271-20.136 49.757 1.103 2.4.802 5.208-.784 7.32-.15.2-.318.381-.486.562l.486.438 25.915 18.396c4.984-9.541 29.97-50.682 82.449-33.588z" fill="#d2f09e"/><path d="m396.327 91.401 58.173 41.296s13.72 8.231 28.184-.065c-2.139-11.694-2.694-25.874.944-41.452 2.593-11.104.391-23.065-5.031-34.284-53.59-17.101-78.322 26.646-82.27 34.505z" fill="#baee63"/><path d="m414.111 103.026-43.323-30.754c-1.586 2.112-4.199 3.183-6.811 2.792-16.856-2.522-37 2.837-42.178 33.201-7.356 43.141 50.862 81.958 89.515 70.867-22.669-39.781-.313-71.96 2.797-76.106z" fill="#3ecd8d"/><path d="m484.497 140.754c-.746-2.814-1.416-5.841-1.971-9.037-14.406 8.146-28.026-.019-28.026-.019l-41.036-29.131s-27.553 34.043-3.015 76.801c3.482-.926 6.817-2.239 9.935-3.991 17.359-9.749 34.454-12.667 47.853-12.976 11.186-.258 19.129-10.832 16.26-21.647z" fill="#95db76"/><path d="m190.201 108.265c-5.177-30.364-25.322-35.723-42.178-33.201-2.612.391-5.225-.681-6.811-2.792-.107-.143-.193-.296-.289-.444l-.711.444-24.119 16.405c9.36 9.056 38.583 43.225 6.731 91.873 35.248-4.361 73.418-36.863 67.377-72.285z" fill="#95db76"/><path d="m123.912 180.413c32.192-49.318 1.625-83.73-7.234-92.134l-33.166 22.558c-20.27 13.787-21.945 43.51-2.783 58.801.413.329.837.655 1.271.976.017.013.031.025.048.038 3.166 1.361 6.363 2.925 9.569 4.726 9.393 5.275 20.713 6.655 32.295 5.035z" fill="#baee63"/><path d="m140.428 64.952c7.118-15.486 7.583-36.326-20.136-49.757-37.682-18.259-88.281 22.239-92.686 60.994 20.002-6.201 53.933-10.345 78.227 20.146l35.38-24.063c-1.587-2.112-1.888-4.92-.785-7.32z" fill="#3ecd8d"/><path d="m27.728 75.151c-.731 5.422-.572 10.82.644 16.029 4.527 19.388 2.567 36.619-.869 49.573-2.869 10.815 5.074 21.39 16.261 21.648 11.508.265 25.745 2.469 40.532 9.259-.397-.346-.819-.695-1.295-1.047-.435-.321-.858-.647-1.271-.976-19.162-15.29-17.487-45.014 2.783-58.801l21.84-14.855c-24.278-31.143-58.465-27.054-78.625-20.83z" fill="#00b7a0"/><g><path d="m216.436 377c.401.333.808.667 1.231 1 0 0-40.237 57.527 6.977 131.995 10.269 1.312 20.731 2.005 31.356 2.005 71.897 0 136.56-30.97 181.379-80.296v-54.704z" fill="#99e6fc"/></g><g><path d="m74.621 431.704c38.428 42.293 91.452 71.07 151.109 78.422-47.345-74.531-7.063-132.126-7.063-132.126-.424-.333-.83-.667-1.231-1h-142.815z" fill="#01d0fb"/></g><g><path d="m397.109 333.311h-184.211c-7.355 8.292-18.35 26.489 4.769 44.689h219.713v-4.418c-.001-22.241-18.03-40.271-40.271-40.271z" fill="#dff6fd"/></g><g><path d="m213.898 333.311h-99.007c-22.241 0-40.27 18.03-40.27 40.27v4.419h144.046c-23.119-18.199-12.124-36.396-4.769-44.689z" fill="#99e6fc"/></g><path d="m260.017 172.983c-31.533-26.916-56.972-15.084-72.218 2.057-2.363 2.656-5.987 3.802-9.447 2.987-.313-.074-.613-.179-.913-.282l-.087.282-16.542 74.845c15.982 1.65 62.945 11.362 72.169 68.394 46.67-25.074 70.503-111.182 27.038-148.283z" fill="#3ecd8d"/><path d="m234.044 320.694c-9.207-58.35-57.769-67.475-72.996-68.897l-11.872 53.717s-4.939 26.739 14.557 43.507c13.347-9.122 30.75-17.676 52.268-21.672 6.31-1.173 12.351-3.461 18.043-6.655z" fill="#95db76"/><path d="m129.602 220.461c17.457.121 31.297 4.019 37.975 6.321l10.776-48.756c-3.46-.815-6.193-3.457-7.122-6.888-5.997-22.142-23.485-44.081-63.714-34.06-43.407 10.812-63.309 66.901-55.24 111.509 28.249-23.196 57.121-28.254 77.325-28.126z" fill="#95db76"/><path d="m150.175 305.514 3.145-14.228c-23.538.716-41.982 10.41-55.614 21.732 10.158 11.422 17.263 23.28 22.18 33.831 6.361 13.651 23.688 17.73 35.471 8.351 2.75-2.189 5.737-4.395 8.948-6.566-18.982-16.789-14.13-43.12-14.13-43.12z" fill="#00b7a0"/><path d="m167.796 225.79c-15.274-5.267-66.681-18.405-115.715 21.642 3.289 19.415 11.813 36.769 25.958 47.435 7.882 5.944 14.594 12.345 20.32 18.877 13.905-11.597 31.987-20.732 54.74-21.453z" fill="#3ecd8d"/><path d="m361 303.947s6.727 24.962 39.634 27.261c7.723-12.282 18.451-25.124 33.328-36.341 46.504-35.067 32.367-142.384-29.477-157.789-40.229-10.02-57.717 11.918-63.714 34.06-.929 3.431-3.662 6.074-7.122 6.888-1.209.285-2.435.316-3.623.141z" fill="#baee63"/><path d="m340.898 215.346c2.73-.876 21.016-6.419 44.44-5.688 21.159.659 50.579 6.719 75.546 30.678 4.399-43.01-15.631-93.103-56.399-103.258-40.229-10.02-57.717 11.918-63.714 34.06-.929 3.431-3.662 6.074-7.122 6.888-1.209.285-2.435.316-3.623.141l9.684 39.322c.551-1.016.965-1.751 1.188-2.143z" fill="#d2f09e"/><path d="m412.066 289.417c-13.042-5.712-33.064-11.585-56.848-8.946l5.782 23.476s6.727 24.962 39.634 27.261c6.852-10.896 16.076-22.23 28.456-32.483-4.451-3.017-10.25-6.342-17.024-9.308z" fill="#baee63"/><path d="m461.006 239.064c-51.121-48.518-120.784-24.549-120.784-24.549s-.321.551-.868 1.535l16.105 65.397c32.702-3.594 59.411 8.9 72.831 17.942 1.822-1.532 3.708-3.043 5.672-4.523 16.15-12.178 24.979-33.072 27.044-55.802z" fill="#effcd4"/><path d="m346.674 240.716-15.378-62.446c-2.68-.037-5.266-1.174-7.095-3.231-15.246-17.141-40.685-28.973-72.218-2.057-48.476 41.378-13.248 143.73 44.016 154.365 3.4.632 6.693 1.381 9.889 2.224-15.709-64.622 33.432-86.042 40.786-88.855z" fill="#95db76"/><path d="m362 302.947-15.408-62.566s-58.518 19.359-41.771 88.922c22.07 5.635 39.328 15.953 51.822 25.898 11.783 9.379 29.11 5.3 35.471-8.351 2.468-5.297 5.495-10.926 9.171-16.662-32.609-2.449-39.285-27.241-39.285-27.241z" fill="#d2f09e"/><path d="m344.613 92.594c9.312-31.892 2.242-71.431-26.227-86.084-29.357-15.11-46.917-1.295-55.607 14.775-1.347 2.49-3.947 4.04-6.778 4.04-.143 0-.283-.021-.424-.029v42.47c18.241-6.567 57.499-14.164 89.036 24.828z" fill="#effcd4"/><path d="m255.576 66.766v56.289c0 7.167 1.606 14.287 4.996 20.602 3.127 5.825 8.191 11.938 16.298 15.825 8.592-9.17 20.21-18.512 35.568-25.275 15.878-6.993 27.022-23.371 32.393-42.349-31.574-39.297-70.971-31.674-89.255-25.092z" fill="#d2f09e"/><path d="m209.071 138.977c14.505 8.174 25.052 18.538 32.419 27.888 7.423 9.421 21.599 9.421 29.021 0 1.982-2.516 4.208-5.106 6.664-7.707-7.711-3.899-12.565-9.841-15.603-15.501-3.39-6.315-4.996-13.434-4.996-20.602v-16.107c0-.001-30.9 2.199-47.505 32.029z" fill="#baee63"/><path d="m166.416 89.02c5.034 20.171 16.483 37.847 33.146 45.186 3.79 1.669 7.347 3.499 10.694 5.441 14.873-26.368 40.928-30.923 46.319-31.594v-52.709c-14.793-4.372-60.797-13.239-90.159 33.676z" fill="#95db76"/><path d="m249.222 21.285c-8.69-16.07-26.251-29.885-55.607-14.775-27.624 14.218-35.102 51.867-27.016 83.224 29.37-46.589 75.215-37.754 89.977-33.39v-31.058c-.192.014-.381.039-.576.039-2.831 0-5.432-1.55-6.778-4.04z" fill="#baee63"/></g></svg>