<svg id="Capa_1" enable-background="new 0 0 512 512" height="512" viewBox="0 0 512 512" width="512" xmlns="http://www.w3.org/2000/svg"><g><path d="m110.485 464.11h291.029c60.349-44.626 99.488-116.294 99.488-197.112 0-135.311-109.691-245.002-245.002-245.002s-245.002 109.691-245.002 245.002c0 80.818 39.138 152.486 99.487 197.112z" fill="#fedf30"/><g><path d="m251.735 117.67c1.179.331 2.452.394 3.736.132 4.302-.879 7.076-5.078 6.197-9.38-5.847-28.622-18.415-60.137-42.215-73.475-22.966-12.871-47.313-2.494-48.324-2.07-4.05 1.695-5.958 6.353-4.264 10.402 1.692 4.04 6.331 5.949 10.374 4.275.316-.127 18.666-7.689 34.923 1.523 17.668 10.011 29.097 38.875 33.928 62.527.617 3.019 2.87 5.286 5.645 6.066z" fill="#00b7a0"/></g><g><path d="m264.375 106c5.764-35.29 20.976-58.235 21.165-58.515l-6.625-4.485-6.616-4.497c-.884 1.3-18.218 27.275-24.136 67.497z" fill="#3ecd8d"/></g><path d="m328.721 6.304c-18.45 4.723-38.457 12.901-55.199 26.998-4.875 4.105-5.5 11.383-1.395 16.258 4.086 4.853 11.361 5.517 16.257 1.394 14.039-11.82 31.39-18.656 47.457-22.596-13.637-5.932-9.769-17.051-7.12-22.054z" fill="#95db76"/><path d="m385.08 337.643h-151.555s-38.595 30.072 0 68.667c0 0-.279.229-.758.66h168.747v-52.892c0-9.077-7.358-16.435-16.434-16.435z" fill="#f68157"/><path d="m234.525 337.643h-107.605c-9.076 0-16.435 7.358-16.435 16.435v52.892h123.282c.48-.431.758-.66.758-.66-38.595-38.595 0-68.667 0-68.667z" fill="#c4573a"/><path d="m232.829 474.316c.234.22.457.44.697.66 0 0-15.617 12.847-11.856 34.628 11.218 1.575 22.677 2.396 34.33 2.396 48.007 0 92.78-13.821 130.581-37.684z" fill="#a74b30"/><path d="m222.692 509.743c-3.853-21.866 11.833-34.766 11.833-34.766-.24-.22-.463-.44-.697-.66h-108.41c28.905 18.245 61.888 30.611 97.274 35.426z" fill="#8c3d27"/><path d="m233.525 406.31s-39.534 32.301 0 68.667h152.012c5.474-3.417 10.804-7.041 15.977-10.866v-57.8h-167.989z" fill="#c4573a"/><path d="m234.525 406.31h-124.04v57.8c5.173 3.825 10.504 7.45 15.977 10.867h108.063c-39.534-36.366 0-68.667 0-68.667z" fill="#a74b30"/><g><path d="m286.911 145.744c-1.078 0-2.173-.25-3.198-.778-3.438-1.77-4.789-5.99-3.019-9.428 11.774-22.872 26.522-36.362 43.834-40.097 22.661-4.889 40.703 9.155 41.459 9.756 3.029 2.402 3.538 6.805 1.137 9.834-2.397 3.021-6.784 3.535-9.812 1.153-.237-.183-13.9-10.571-29.969-7.028-12.965 2.857-24.472 13.89-34.201 32.79-1.243 2.412-3.693 3.798-6.231 3.798z" fill="#3ecd8d"/></g><g><path d="m225.089 145.744c1.078 0 2.173-.25 3.198-.778 3.438-1.77 4.789-5.99 3.02-9.428-11.774-22.872-26.522-36.362-43.834-40.097-22.661-4.889-40.703 9.155-41.459 9.756-3.029 2.402-3.538 6.805-1.137 9.834 2.396 3.021 6.784 3.535 9.812 1.153.237-.183 13.9-10.571 29.969-7.028 12.965 2.857 24.472 13.89 34.201 32.79 1.242 2.412 3.692 3.798 6.23 3.798z" fill="#3ecd8d"/></g><path d="m451.968 170.924c-15.74-9.262-28.381-22.981-35.978-39.59l-.55-1.203c-10.02-21.908-35.903-31.545-57.811-21.525-.274.125-.538.264-.808.395l100.688 220.148s4.969 12.447 19.743 14.39c5.251-3.572 10.018-7.919 14.115-12.963 25.851-31.823 24.018-66.987 12.9-97.36-11.044-30.173-27.782-47.865-52.299-62.292z" fill="#00b7a0"/><path d="m477.842 343.129c-14.594-2.042-19.515-14.354-19.515-14.354l-100.698-220.169c-21.908 10.02-31.545 35.903-21.525 57.811l.56 1.224c7.595 16.606 9.704 35.137 6.421 53.1-5.109 27.952-2.703 52.156 12.868 80.222 15.701 28.301 41.108 52.723 82.116 53.984 14.344.441 28.258-3.801 39.773-11.818z" fill="#0095a3"/><g><path d="m409.013 324.368c-1.051.481-2.233.714-3.467.632-3.964-.266-6.962-3.694-6.697-7.657 2.393-35.749 27.378-52.92 28.44-53.633 3.299-2.218 7.767-1.337 9.982 1.961 2.209 3.289 1.341 7.743-1.936 9.964-.871.599-20.227 14.223-22.131 42.669-.184 2.729-1.867 5-4.191 6.064z" fill="#95db76"/></g><g><path d="m366.353 281.591c-1.345.615-2.89.822-4.45.498-3.889-.808-6.387-4.617-5.579-8.506 9.508-45.748 46.614-62.157 48.206-62.84 3.65-1.567 7.879.122 9.447 3.772 1.564 3.645-.133 7.865-3.754 9.439-1.339.576-31.881 14.384-39.813 52.556-.485 2.331-2.046 4.161-4.057 5.081z" fill="#95db76"/></g><g><path d="m356.843 183.838c-2.495 1.142-5.535.796-7.733-1.128-2.989-2.616-3.292-7.16-.676-10.15 12.426-14.198 28.301-20.97 28.972-21.254 3.662-1.539 7.878.183 9.417 3.845 1.537 3.658-.191 7.875-3.831 9.412-.135.057-13.563 5.852-23.733 17.472-.692.79-1.519 1.393-2.416 1.803z" fill="#95db76"/></g><g><path d="m461.965 336.729c-3.612 1.652-7.881.063-9.533-3.549l-101.344-221.583c-1.652-3.613-.063-7.881 3.549-9.533s7.88-.063 9.533 3.549l101.344 221.582c1.653 3.614.064 7.882-3.549 9.534z" fill="#95db76"/></g><g><path d="m492.481 300.035c-2.324 1.063-5.144.85-7.329-.797-23.033-17.366-46.489-11.235-46.723-11.171-3.831 1.047-7.787-1.212-8.833-5.044-1.047-3.831 1.207-7.792 5.045-8.833 1.234-.337 30.564-8.007 59.173 13.562 3.171 2.391 3.804 6.901 1.413 10.074-.745.987-1.695 1.728-2.746 2.209z" fill="#baee63"/></g><g><path d="m488.02 239.786c-2.01.92-4.416.903-6.496-.254-34.096-18.981-64.514-4.875-65.8-4.252-.037.017-.073.034-.109.051-3.554 1.626-7.779.119-9.482-3.415-1.72-3.57-.239-7.853 3.324-9.585 1.552-.761 38.242-18.094 79.065 4.631 3.47 1.933 4.718 6.313 2.786 9.783-.775 1.392-1.943 2.426-3.288 3.041z" fill="#baee63"/></g><g><path d="m420.291 168.661c-.897.41-1.894.642-2.945.648-15.585.095-28.6 6.458-28.724 6.52-3.526 1.751-7.875.31-9.639-3.25-1.764-3.559-.309-7.875 3.25-9.639.653-.323 16.158-7.902 35.026-8.017 3.973-.024 7.212 3.177 7.236 7.149.018 2.922-1.709 5.447-4.204 6.589z" fill="#baee63"/></g><path d="m60.032 170.924c15.74-9.262 28.381-22.981 35.978-39.59l.55-1.203c10.02-21.908 35.903-31.545 57.811-21.525.274.125.538.264.808.395l-100.689 220.148s-4.969 12.447-19.743 14.39c-5.251-3.572-10.018-7.919-14.115-12.963-25.851-31.823-24.018-66.987-12.9-97.36 11.045-30.173 27.782-47.865 52.3-62.292z" fill="#0095a3"/><g><path d="m19.519 300.035c2.324 1.063 5.144.85 7.329-.797 23.033-17.366 46.489-11.235 46.723-11.171 3.831 1.047 7.787-1.212 8.833-5.044 1.047-3.831-1.207-7.792-5.045-8.833-1.234-.337-30.564-8.007-59.173 13.562-3.171 2.391-3.804 6.901-1.413 10.074.745.987 1.695 1.728 2.746 2.209z" fill="#95db76"/></g><g><path d="m23.98 239.786c2.011.92 4.416.903 6.496-.254 34.096-18.981 64.514-4.875 65.8-4.252.037.017.073.034.109.051 3.554 1.626 7.779.119 9.482-3.415 1.72-3.57.239-7.853-3.324-9.585-1.552-.761-38.242-18.094-79.065 4.631-3.47 1.933-4.718 6.313-2.786 9.783.775 1.392 1.943 2.426 3.288 3.041z" fill="#95db76"/></g><g><path d="m91.709 168.661c.897.41 1.894.642 2.945.648 15.585.095 28.6 6.458 28.725 6.52 3.526 1.751 7.875.31 9.639-3.25 1.764-3.559.309-7.875-3.25-9.639-.653-.323-16.158-7.902-35.026-8.017-3.973-.024-7.212 3.177-7.236 7.149-.02 2.922 1.707 5.447 4.203 6.589z" fill="#95db76"/></g><path d="m34.158 343.129c14.594-2.042 19.515-14.354 19.515-14.354l100.698-220.169c21.908 10.02 31.545 35.903 21.525 57.811l-.56 1.224c-7.595 16.606-9.704 35.137-6.421 53.1 5.109 27.952 2.703 52.156-12.868 80.222-15.701 28.301-41.108 52.723-82.116 53.984-14.344.441-28.258-3.801-39.773-11.818z" fill="#00b7a0"/><g><path d="m50.035 336.729c3.612 1.652 7.881.063 9.533-3.549l101.344-221.582c1.652-3.613.063-7.881-3.549-9.533s-7.881-.063-9.533 3.549l-101.345 221.582c-1.652 3.613-.063 7.881 3.55 9.533z" fill="#95db76"/></g><path d="m322.59 210.298c-11.635-16.65-18.075-36.373-18.075-56.686v-1.472c0-26.794-21.721-48.515-48.515-48.515-.335 0-.666.018-1 .025v269.246s-.732 14.888 13.312 23.688c6.964-1.183 13.796-3.375 20.274-6.582 40.869-20.229 55.281-56.643 58.087-92.507 2.786-35.626-5.959-61.263-24.083-87.197z" fill="#00b7a0"/><path d="m269.098 396.443c-13.816-8.817-13.098-23.546-13.098-23.546v-269.272c-26.794 0-48.515 21.721-48.515 48.515v1.497c0 20.309-6.439 40.029-18.069 56.678-18.098 25.908-26.861 51.502-24.095 87.093 2.789 35.889 17.189 72.343 58.082 92.589 14.304 7.082 30.339 9.227 45.695 6.446z" fill="#0095a3"/><g><path d="m208.16 345.627c-1.285 0-2.589-.311-3.799-.965-3.887-2.103-5.333-6.957-3.231-10.843 18.958-35.051 52.172-40.861 53.576-41.091 4.363-.717 8.475 2.241 9.188 6.601.713 4.349-2.225 8.453-6.567 9.182-1.158.203-27.038 5.028-42.123 32.919-1.448 2.678-4.201 4.196-7.044 4.197z" fill="#95db76"/></g><g><path d="m184.801 282.626c-1.645 0-3.304-.505-4.732-1.555-3.559-2.617-4.324-7.624-1.708-11.184 30.78-41.873 75.901-41.305 77.827-41.259 4.417.104 7.913 3.769 7.81 8.186-.104 4.41-3.772 7.894-8.163 7.811-1.621-.037-38.899-.2-64.581 34.74-1.568 2.131-3.994 3.261-6.453 3.261z" fill="#95db76"/></g><g><path d="m220.402 179.355c-3.052.001-5.967-1.755-7.3-4.719-1.813-4.029-.018-8.765 4.012-10.579 19.137-8.612 38.325-8.118 39.136-8.095 4.416.138 7.884 3.83 7.746 8.246-.138 4.411-3.836 7.876-8.228 7.747-.163-.004-16.425-.355-32.087 6.693-1.066.48-2.182.707-3.279.707z" fill="#95db76"/></g><g><path d="m256 382.625c-4.418 0-8-3.582-8-8v-271c0-4.418 3.582-8 8-8s8 3.582 8 8v271c0 4.418-3.582 8-8 8z" fill="#95db76"/></g><g><path d="m303.84 359.627c-2.843 0-5.596-1.52-7.044-4.196-15.263-28.22-41.823-32.869-42.09-32.913-4.359-.714-7.315-4.828-6.601-9.189.714-4.359 4.825-7.323 9.189-6.601 1.404.231 34.618 6.04 53.576 41.091 2.102 3.886.655 8.74-3.231 10.843-1.21.655-2.514.965-3.799.965z" fill="#baee63"/></g><g><path d="m327.199 296.626c-2.459 0-4.885-1.129-6.453-3.262-25.705-34.971-62.997-34.774-64.586-34.74-.045 0-.09.001-.134.001-4.347 0-7.923-3.479-8.011-7.84-.088-4.406 3.391-8.053 7.796-8.157 1.922-.051 47.05-.611 77.827 41.259 2.616 3.56 1.852 8.567-1.708 11.184-1.426 1.049-3.086 1.555-4.731 1.555z" fill="#baee63"/></g><g><path d="m291.598 193.355c-1.098 0-2.213-.227-3.278-.706-15.807-7.114-31.915-6.698-32.069-6.693-4.376.14-8.108-3.33-8.246-7.747-.138-4.416 3.33-8.108 7.746-8.246.81-.025 19.998-.518 39.136 8.095 4.029 1.814 5.825 6.55 4.012 10.579-1.335 2.962-4.25 4.718-7.301 4.718z" fill="#baee63"/></g><g><path d="m102.987 324.368c1.051.481 2.233.714 3.467.632 3.964-.266 6.962-3.694 6.697-7.657-2.393-35.749-27.378-52.92-28.44-53.633-3.299-2.218-7.767-1.337-9.982 1.961-2.209 3.289-1.341 7.743 1.936 9.964.871.599 20.227 14.223 22.131 42.669.184 2.729 1.867 5 4.191 6.064z" fill="#baee63"/></g><g><path d="m145.647 281.591c1.345.615 2.89.822 4.45.498 3.889-.808 6.387-4.617 5.579-8.506-9.508-45.748-46.614-62.157-48.206-62.84-3.65-1.567-7.88.122-9.447 3.772-1.564 3.645.133 7.865 3.754 9.439 1.339.576 31.881 14.384 39.813 52.556.485 2.331 2.046 4.161 4.057 5.081z" fill="#baee63"/></g><g><path d="m155.157 183.838c2.495 1.142 5.535.796 7.733-1.128 2.989-2.616 3.292-7.16.676-10.15-12.426-14.198-28.301-20.97-28.972-21.254-3.662-1.539-7.878.183-9.417 3.845-1.537 3.658.191 7.875 3.831 9.412.135.057 13.563 5.852 23.733 17.472.691.79 1.519 1.393 2.416 1.803z" fill="#baee63"/></g><path d="m396.417 12.338c.37-6.362-4.486-11.819-10.848-12.19-1.73-.101-27.946-1.451-58.003 6.453-2.661 5.181-6.165 16.137 7.637 21.915 25.924-6.468 48.673-5.349 49.04-5.329 6.338.347 11.805-4.492 12.174-10.849z" fill="#baee63"/></g></svg>